<svg width="17" height="15" viewBox="0 0 17 15" fill="none" xmlns="http://www.w3.org/2000/svg">
<path d="M0.35675 14.1048C0.118916 13.8669 0 13.5756 0 13.2307C0 12.8859 0.118916 12.5946 0.35675 12.3567C0.594583 12.1189 0.885917 12 1.23075 12C1.57558 12 1.86692 12.1189 2.10475 12.3567C2.34258 12.5946 2.4615 12.8859 2.4615 13.2307C2.4615 13.5756 2.34258 13.8669 2.10475 14.1048C1.86692 14.3426 1.57558 14.4615 1.23075 14.4615C0.885917 14.4615 0.594583 14.3426 0.35675 14.1048ZM0.35675 8.10475C0.118916 7.86692 0 7.57558 0 7.23075C0 6.88592 0.118916 6.59458 0.35675 6.35675C0.594583 6.11892 0.885917 6 1.23075 6C1.57558 6 1.86692 6.11892 2.10475 6.35675C2.34258 6.59458 2.4615 6.88592 2.4615 7.23075C2.4615 7.57558 2.34258 7.86692 2.10475 8.10475C1.86692 8.34258 1.57558 8.4615 1.23075 8.4615C0.885917 8.4615 0.594583 8.34258 0.35675 8.10475ZM0.35675 2.10475C0.118916 1.86692 0 1.57558 0 1.23075C0 0.885916 0.118916 0.594582 0.35675 0.356749C0.594583 0.118916 0.885917 0 1.23075 0C1.57558 0 1.86692 0.118916 2.10475 0.356749C2.34258 0.594582 2.4615 0.885916 2.4615 1.23075C2.4615 1.57558 2.34258 1.86692 2.10475 2.10475C1.86692 2.34258 1.57558 2.4615 1.23075 2.4615C0.885917 2.4615 0.594583 2.34258 0.35675 2.10475ZM6.35675 2.10475C6.11892 1.86692 6 1.57558 6 1.23075C6 0.885916 6.11892 0.594582 6.35675 0.356749C6.59458 0.118916 6.88592 0 7.23075 0C7.57558 0 7.86692 0.118916 8.10475 0.356749C8.34258 0.594582 8.4615 0.885916 8.4615 1.23075C8.4615 1.57558 8.34258 1.86692 8.10475 2.10475C7.86692 2.34258 7.57558 2.4615 7.23075 2.4615C6.88592 2.4615 6.59458 2.34258 6.35675 2.10475ZM12.3567 2.10475C12.1189 1.86692 12 1.57558 12 1.23075C12 0.885916 12.1189 0.594582 12.3567 0.356749C12.5946 0.118916 12.8859 0 13.2307 0C13.5756 0 13.8669 0.118916 14.1047 0.356749C14.3426 0.594582 14.4615 0.885916 14.4615 1.23075C14.4615 1.57558 14.3426 1.86692 14.1047 2.10475C13.8669 2.34258 13.5756 2.4615 13.2307 2.4615C12.8859 2.4615 12.5946 2.34258 12.3567 2.10475ZM6.35675 8.10475C6.11892 7.86692 6 7.57558 6 7.23075C6 6.88592 6.11892 6.59458 6.35675 6.35675C6.59458 6.11892 6.88592 6 7.23075 6C7.57558 6 7.86692 6.11892 8.10475 6.35675C8.34258 6.59458 8.4615 6.88592 8.4615 7.23075C8.4615 7.57558 8.34258 7.86692 8.10475 8.10475C7.86692 8.34258 7.57558 8.4615 7.23075 8.4615C6.88592 8.4615 6.59458 8.34258 6.35675 8.10475ZM8.4615 13.6537V12.5807C8.4615 12.4731 8.48008 12.3727 8.51725 12.2797C8.55442 12.1867 8.61658 12.0967 8.70375 12.0095L13.7942 6.94425C13.8929 6.85825 13.9955 6.79475 14.102 6.75375C14.2083 6.71275 14.3147 6.69225 14.4212 6.69225C14.5314 6.69225 14.6429 6.71375 14.7557 6.75675C14.8686 6.79975 14.9679 6.86417 15.0537 6.95L15.9787 7.89425C16.0609 7.99292 16.1234 8.0955 16.1662 8.202C16.2092 8.30833 16.2307 8.41475 16.2307 8.52125C16.2307 8.62758 16.2134 8.73492 16.1787 8.84325C16.1442 8.95158 16.0776 9.05508 15.9787 9.15375L10.9135 14.2192C10.8263 14.3064 10.7362 14.3686 10.6432 14.4057C10.5502 14.4429 10.4499 14.4615 10.3422 14.4615H9.26925C9.03725 14.4615 8.84458 14.3849 8.69125 14.2317C8.53808 14.0786 8.4615 13.8859 8.4615 13.6537ZM14.4212 9.477L15.3462 8.52125L14.4212 7.577L13.4712 8.527L14.4212 9.477Z" fill="#F9F9F9"/>
</svg>
