<svg width="16" height="19" viewBox="0 0 16 19" fill="none" xmlns="http://www.w3.org/2000/svg">
<path d="M1.6155 18.2307C1.15517 18.2307 0.770833 18.0766 0.4625 17.7682C0.154167 17.4599 0 17.0756 0 16.6152V3.84625C0 3.38592 0.154167 3.00158 0.4625 2.69325C0.770833 2.38492 1.15517 2.23075 1.6155 2.23075H3.3845V0.538499C3.3845 0.383333 3.4355 0.25475 3.5375 0.15275C3.6395 0.0509163 3.768 0 3.923 0C4.07817 0 4.20675 0.0509163 4.30875 0.15275C4.41058 0.25475 4.4615 0.383333 4.4615 0.538499V2.23075H11.6155V0.5C11.6155 0.357667 11.6632 0.23875 11.7587 0.14325C11.8542 0.0477495 11.9732 0 12.1155 0C12.2577 0 12.3765 0.0477495 12.472 0.14325C12.5677 0.23875 12.6155 0.357667 12.6155 0.5V2.23075H14.3845C14.8448 2.23075 15.2292 2.38492 15.5375 2.69325C15.8458 3.00158 16 3.38592 16 3.84625V16.6152C16 17.0756 15.8458 17.4599 15.5375 17.7682C15.2292 18.0766 14.8448 18.2307 14.3845 18.2307H1.6155ZM1.6155 17.2307H14.3845C14.5385 17.2307 14.6796 17.1667 14.8078 17.0385C14.9359 16.9103 15 16.7692 15 16.6152V7.84625H1V16.6152C1 16.7692 1.06408 16.9103 1.19225 17.0385C1.32042 17.1667 1.4615 17.2307 1.6155 17.2307ZM8 11.3845C7.79367 11.3845 7.61383 11.3079 7.4605 11.1547C7.30733 11.0016 7.23075 10.8217 7.23075 10.6152C7.23075 10.4089 7.30733 10.2292 7.4605 10.076C7.61383 9.92283 7.79367 9.84625 8 9.84625C8.20633 9.84625 8.38617 9.92283 8.5395 10.076C8.69267 10.2292 8.76925 10.4089 8.76925 10.6152C8.76925 10.8217 8.69267 11.0016 8.5395 11.1547C8.38617 11.3079 8.20633 11.3845 8 11.3845ZM3.4605 11.1547C3.30733 11.0016 3.23075 10.8217 3.23075 10.6152C3.23075 10.4089 3.30733 10.2292 3.4605 10.076C3.61383 9.92283 3.79367 9.84625 4 9.84625C4.20633 9.84625 4.38617 9.92283 4.5395 10.076C4.69267 10.2292 4.76925 10.4089 4.76925 10.6152C4.76925 10.8217 4.69267 11.0016 4.5395 11.1547C4.38617 11.3079 4.20633 11.3845 4 11.3845C3.79367 11.3845 3.61383 11.3079 3.4605 11.1547ZM12 11.3845C11.7937 11.3845 11.6138 11.3079 11.4605 11.1547C11.3073 11.0016 11.2307 10.8217 11.2307 10.6152C11.2307 10.4089 11.3073 10.2292 11.4605 10.076C11.6138 9.92283 11.7937 9.84625 12 9.84625C12.2063 9.84625 12.3862 9.92283 12.5395 10.076C12.6927 10.2292 12.7693 10.4089 12.7693 10.6152C12.7693 10.8217 12.6927 11.0016 12.5395 11.1547C12.3862 11.3079 12.2063 11.3845 12 11.3845ZM8 15.2307C7.79367 15.2307 7.61383 15.1542 7.4605 15.001C7.30733 14.8478 7.23075 14.668 7.23075 14.4615C7.23075 14.2552 7.30733 14.0753 7.4605 13.922C7.61383 13.7688 7.79367 13.6922 8 13.6922C8.20633 13.6922 8.38617 13.7688 8.5395 13.922C8.69267 14.0753 8.76925 14.2552 8.76925 14.4615C8.76925 14.668 8.69267 14.8478 8.5395 15.001C8.38617 15.1542 8.20633 15.2307 8 15.2307ZM3.4605 15.001C3.30733 14.8478 3.23075 14.668 3.23075 14.4615C3.23075 14.2552 3.30733 14.0753 3.4605 13.922C3.61383 13.7688 3.79367 13.6922 4 13.6922C4.20633 13.6922 4.38617 13.7688 4.5395 13.922C4.69267 14.0753 4.76925 14.2552 4.76925 14.4615C4.76925 14.668 4.69267 14.8478 4.5395 15.001C4.38617 15.1542 4.20633 15.2307 4 15.2307C3.79367 15.2307 3.61383 15.1542 3.4605 15.001ZM12 15.2307C11.7937 15.2307 11.6138 15.1542 11.4605 15.001C11.3073 14.8478 11.2307 14.668 11.2307 14.4615C11.2307 14.2552 11.3073 14.0753 11.4605 13.922C11.6138 13.7688 11.7937 13.6922 12 13.6922C12.2063 13.6922 12.3862 13.7688 12.5395 13.922C12.6927 14.0753 12.7693 14.2552 12.7693 14.4615C12.7693 14.668 12.6927 14.8478 12.5395 15.001C12.3862 15.1542 12.2063 15.2307 12 15.2307Z" fill="#00043D"/>
</svg>
