<svg width="13" height="13" viewBox="0 0 13 13" fill="none" xmlns="http://www.w3.org/2000/svg">
<path d="M6.1135 6.82125L0.86725 12.0672C0.77375 12.1609 0.659 12.2109 0.523 12.2172C0.387167 12.2237 0.266083 12.1737 0.15975 12.0672C0.05325 11.9609 0 11.843 0 11.7135C0 11.584 0.05325 11.4661 0.15975 11.3597L5.40575 6.1135L0.15975 0.86725C0.0660833 0.77375 0.0160833 0.659 0.00974998 0.523C0.00324999 0.387166 0.05325 0.266082 0.15975 0.159749C0.266083 0.0532488 0.384 0 0.5135 0C0.643 0 0.760916 0.0532488 0.86725 0.159749L6.1135 5.40575L11.3597 0.159749C11.4532 0.0660822 11.568 0.0160822 11.704 0.00974884C11.8398 0.00324884 11.9609 0.0532488 12.0673 0.159749C12.1738 0.266082 12.227 0.383999 12.227 0.513499C12.227 0.642999 12.1738 0.760917 12.0673 0.86725L6.82125 6.1135L12.0673 11.3597C12.1609 11.4532 12.2109 11.568 12.2173 11.704C12.2238 11.8398 12.1738 11.9609 12.0673 12.0672C11.9609 12.1737 11.843 12.227 11.7135 12.227C11.584 12.227 11.4661 12.1737 11.3597 12.0672L6.1135 6.82125Z" fill="#00043D"/>
</svg>
