<svg width="13" height="15" viewBox="0 0 13 15" fill="none" xmlns="http://www.w3.org/2000/svg">
<path d="M7.4905 14.277C7.49683 14.1448 7.54875 14.0301 7.64625 13.9328L11.0788 10.5H1.6155C1.168 10.5 0.786833 10.3427 0.472 10.028C0.157333 9.71317 0 9.332 0 8.8845V0.5C0 0.357667 0.0477499 0.23875 0.14325 0.14325C0.23875 0.0477495 0.357667 0 0.5 0C0.642333 0 0.76125 0.0477495 0.85675 0.14325C0.95225 0.23875 1 0.357667 1 0.5V8.8845C1 9.064 1.05767 9.2115 1.173 9.327C1.2885 9.44233 1.436 9.5 1.6155 9.5H11.0788L7.6405 6.0615C7.53017 5.95133 7.476 5.83342 7.478 5.70775C7.47983 5.58208 7.534 5.46408 7.6405 5.35375C7.75067 5.24358 7.87175 5.19075 8.00375 5.19525C8.13592 5.19975 8.25067 5.25067 8.348 5.348L12.4345 9.4345C12.5218 9.52183 12.5831 9.611 12.6182 9.702C12.6536 9.793 12.6712 9.89233 12.6712 10C12.6712 10.1077 12.6536 10.207 12.6182 10.298C12.5831 10.389 12.5218 10.4782 12.4345 10.5655L8.3595 14.6405C8.24933 14.7507 8.1305 14.8057 8.003 14.8057C7.87533 14.8057 7.75642 14.7507 7.64625 14.6405C7.53592 14.5302 7.484 14.409 7.4905 14.277Z" fill="#F9F9F9"/>
</svg>
