<svg width="21" height="14" viewBox="0 0 21 14" fill="none" xmlns="http://www.w3.org/2000/svg">
<path d="M11 5.95C11.368 5.55783 11.6267 5.10342 11.776 4.58675C11.9253 4.07008 12 3.54117 12 3C12 2.459 11.9253 1.93017 11.776 1.4135C11.6267 0.896833 11.368 0.442333 11 0.05C11.7565 0.119333 12.3815 0.436 12.875 1C13.3687 1.56417 13.6155 2.23083 13.6155 3C13.6155 3.76933 13.3687 4.436 12.875 5C12.3815 5.56417 11.7565 5.88083 11 5.95ZM15.777 13.231C15.845 13.072 15.8992 12.905 15.9395 12.73C15.9798 12.555 16 12.3758 16 12.1925V11.5385C16 11.054 15.9116 10.589 15.7348 10.1435C15.5578 9.69783 15.2782 9.33083 14.8962 9.0425C15.5796 9.25267 16.2036 9.55358 16.7682 9.94525C17.3331 10.3369 17.6155 10.868 17.6155 11.5385V12.1925C17.6155 12.486 17.5158 12.7324 17.3165 12.9318C17.117 13.1313 16.8705 13.231 16.577 13.231H15.777ZM17.6155 5.1155H16.1155C15.9732 5.1155 15.8542 5.06775 15.7587 4.97225C15.6632 4.87675 15.6155 4.75783 15.6155 4.6155C15.6155 4.47317 15.6632 4.35425 15.7587 4.25875C15.8542 4.16325 15.9732 4.1155 16.1155 4.1155H17.6155V2.6155C17.6155 2.47317 17.6632 2.35425 17.7587 2.25875C17.8542 2.16325 17.9732 2.1155 18.1155 2.1155C18.2578 2.1155 18.3768 2.16325 18.4723 2.25875C18.5678 2.35425 18.6155 2.47317 18.6155 2.6155V4.1155H20.1155C20.2578 4.1155 20.3768 4.16325 20.4723 4.25875C20.5678 4.35425 20.6155 4.47317 20.6155 4.6155C20.6155 4.75783 20.5678 4.87675 20.4723 4.97225C20.3768 5.06775 20.2578 5.1155 20.1155 5.1155H18.6155V6.6155C18.6155 6.75783 18.5678 6.87675 18.4723 6.97225C18.3768 7.06775 18.2578 7.1155 18.1155 7.1155C17.9732 7.1155 17.8542 7.06775 17.7587 6.97225C17.6632 6.87675 17.6155 6.75783 17.6155 6.6155V5.1155ZM4.877 5.12325C4.29233 4.53858 4 3.83083 4 3C4 2.16933 4.29233 1.46167 4.877 0.877C5.46167 0.292334 6.16933 0 7 0C7.83083 0 8.53858 0.292334 9.12325 0.877C9.70775 1.46167 10 2.16933 10 3C10 3.83083 9.70775 4.53858 9.12325 5.12325C8.53858 5.70775 7.83083 6 7 6C6.16933 6 5.46167 5.70775 4.877 5.12325ZM0 12.1925V11.5847C0 11.1719 0.120167 10.7857 0.3605 10.426C0.601 10.0665 0.924417 9.78733 1.33075 9.5885C2.27442 9.136 3.21867 8.79658 4.1635 8.57025C5.10833 8.34408 6.05383 8.231 7 8.231C7.94617 8.231 8.89167 8.34408 9.8365 8.57025C10.7815 8.79658 11.7258 9.136 12.6693 9.5885C13.0758 9.78733 13.3992 10.0665 13.6395 10.426C13.8798 10.7857 14 11.1719 14 11.5847V12.1925C14 12.486 13.9003 12.7324 13.701 12.9318C13.5017 13.1313 13.2552 13.231 12.9615 13.231H1.0385C0.745 13.231 0.4985 13.1313 0.299 12.9318C0.0996666 12.7324 0 12.486 0 12.1925Z" fill="#F9F9F9"/>
</svg>
