<svg width="47" height="50" viewBox="0 0 47 50" fill="none" xmlns="http://www.w3.org/2000/svg">
<g clip-path="url(#clip0_4231_10)">
<path d="M31.4283 45.6175L23.0006 46.6375L20.2618 47.2375C23.1099 47.66 26.03 47.56 28.8359 46.9375C29.8267 46.7175 30.805 46.43 31.761 46.0825L31.4283 45.615V45.6175ZM37.6012 39.63L33.1739 44.6575L33.6382 45.31C34.9071 44.72 36.1213 44.0225 37.266 43.2175C39.7913 41.44 41.9665 39.1525 43.6202 36.535C43.8835 36.115 44.1342 35.685 44.3701 35.25L37.6012 39.63ZM4.63816 33.9225H4.65057L1.80246 26.6125L0.138789 26.1925C0.233147 27.0875 0.379649 27.975 0.578297 28.855C1.25866 31.89 2.53994 34.795 4.3228 37.3425C4.73003 37.9275 5.16705 38.49 5.62643 39.035L4.63816 33.9225ZM23.7729 20.9125L13.8604 25.51L13.7337 33.6425L23.1322 39.7325L30.4003 35.8675L30.7603 25.0675L23.7729 20.915V20.9125ZM45.1399 24.3475L38.6193 20.2325L32.7344 24.9825L32.3693 35.7125L36.5459 37.955L44.683 32.6925L45.1473 24.3325L45.1374 24.35L45.1399 24.3475ZM5.65374 8.2575C4.92619 9.11 4.25824 10.015 3.65733 10.9625C2.00359 13.5825 0.868819 16.5325 0.342403 19.5925C0.086644 21.0825 -0.0250952 22.5975 0.00470192 24.1125L2.14016 24.655L5.62146 20.3575L7.14856 9.4175L5.65622 8.2575H5.65374ZM46.9997 20.2075C46.9178 19.68 46.8185 19.1575 46.7018 18.6375C46.0214 15.6025 44.7426 12.6975 42.9597 10.15C42.0037 8.785 40.9037 7.52 39.6845 6.3825L37.5615 5.8175L35.3217 10.5375L39.1979 18.2575L45.7408 22.385L47.0022 20.2075H46.9997ZM16.8624 5.7775L9.09779 9.6825L7.64022 20.1275L13.0534 23.7025L23.0006 19.09L24.5699 10.97L16.8649 5.78L16.8624 5.7775ZM18.325 4.38L26.1144 9.625L26.0995 9.6475L33.5463 9.675L35.8457 4.825L32.8759 1.93C31.2048 1.2075 29.4517 0.68 27.6614 0.3625C26.328 0.1225 24.9747 0.005 23.6214 0C23.4277 0 23.234 0 23.0404 0.005C22.3302 0.02 21.62 0.07 20.9148 0.1475L18.3225 4.38H18.325Z" fill="white"/>
<path d="M22.5308 44.7073L15.9282 46.1598L7.71413 49.9998L8.12632 41.5923L7.05859 36.0623L12.4916 35.1973L22.0714 41.4023L22.5308 44.7073Z" fill="white"/>
</g>
<defs>
<clipPath id="clip0_4231_10">
<rect width="47" height="50" fill="white"/>
</clipPath>
</defs>
</svg>
