<svg width="16" height="16" viewBox="0 0 16 16" fill="none" xmlns="http://www.w3.org/2000/svg">
<path d="M8.4615 16C8.31917 16 8.20025 15.9523 8.10475 15.8568C8.00925 15.7613 7.9615 15.6423 7.9615 15.5C7.9615 15.3577 8.00925 15.2387 8.10475 15.1432C8.20025 15.0477 8.31917 15 8.4615 15H14.3652C14.5192 15 14.6603 14.9359 14.7885 14.8078C14.9167 14.6796 14.9807 14.5385 14.9807 14.3845V1.6155C14.9807 1.4615 14.9167 1.32042 14.7885 1.19225C14.6603 1.06408 14.5192 1 14.3652 1H8.4615C8.31917 1 8.20025 0.952251 8.10475 0.856751C8.00925 0.761251 7.9615 0.642333 7.9615 0.5C7.9615 0.357667 8.00925 0.23875 8.10475 0.14325C8.20025 0.0477495 8.31917 0 8.4615 0H14.3652C14.8256 0 15.2099 0.154167 15.5182 0.4625C15.8266 0.770833 15.9807 1.15517 15.9807 1.6155V14.3845C15.9807 14.8448 15.8266 15.2292 15.5182 15.5375C15.2099 15.8458 14.8256 16 14.3652 16H8.4615ZM8.86725 8.5H0.5C0.357667 8.5 0.23875 8.45225 0.14325 8.35675C0.0477499 8.26125 0 8.14233 0 8C0 7.85767 0.0477499 7.73875 0.14325 7.64325C0.23875 7.54775 0.357667 7.5 0.5 7.5H8.86725L6.896 5.52875C6.8025 5.43525 6.7525 5.3225 6.746 5.1905C6.73967 5.05833 6.78967 4.93717 6.896 4.827C7.0025 4.71667 7.1205 4.66058 7.25 4.65875C7.3795 4.65675 7.49933 4.71092 7.6095 4.82125L10.223 7.4345C10.3845 7.59617 10.4652 7.78467 10.4652 8C10.4652 8.21533 10.3845 8.40383 10.223 8.5655L7.6095 11.1788C7.51217 11.2763 7.39692 11.3272 7.26375 11.3317C7.13058 11.3362 7.00917 11.2833 6.8995 11.173C6.79367 11.0628 6.74167 10.9439 6.7435 10.8163C6.7455 10.6888 6.79942 10.5718 6.90525 10.4655L8.86725 8.5Z" fill="#F9F9F9"/>
</svg>
