<svg width="16" height="11" viewBox="0 0 16 11" fill="none" xmlns="http://www.w3.org/2000/svg">
<path d="M0.5 10.5385C0.358333 10.5385 0.239583 10.4905 0.14375 10.3945C0.0479167 10.2985 0 10.1796 0 10.0378C0 9.89592 0.0479167 9.77725 0.14375 9.68175C0.239583 9.58625 0.358333 9.5385 0.5 9.5385H15.5C15.6417 9.5385 15.7604 9.5865 15.8563 9.6825C15.9521 9.77833 16 9.89725 16 10.0393C16 10.1811 15.9521 10.2998 15.8563 10.3953C15.7604 10.4908 15.6417 10.5385 15.5 10.5385H0.5ZM0.5 5.76925C0.358333 5.76925 0.239583 5.72125 0.14375 5.62525C0.0479167 5.52925 0 5.41033 0 5.2685C0 5.12667 0.0479167 5.008 0.14375 4.9125C0.239583 4.817 0.358333 4.76925 0.5 4.76925H15.5C15.6417 4.76925 15.7604 4.81725 15.8563 4.91325C15.9521 5.00925 16 5.12817 16 5.27C16 5.41183 15.9521 5.5305 15.8563 5.626C15.7604 5.7215 15.6417 5.76925 15.5 5.76925H0.5ZM0.5 1C0.358333 1 0.239583 0.952 0.14375 0.856C0.0479167 0.760166 0 0.641251 0 0.499251C0 0.357417 0.0479167 0.238751 0.14375 0.143251C0.239583 0.047751 0.358333 0 0.5 0H15.5C15.6417 0 15.7604 0.0480003 15.8563 0.144C15.9521 0.24 16 0.358917 16 0.500751C16 0.642584 15.9521 0.761251 15.8563 0.856751C15.7604 0.952251 15.6417 1 15.5 1H0.5Z" fill="#00043D"/>
</svg>
