<svg width="21" height="14" viewBox="0 0 21 14" fill="none" xmlns="http://www.w3.org/2000/svg">
<path d="M16.25 5.1155H13.75C13.6077 5.1155 13.4887 5.06775 13.3932 4.97225C13.2977 4.87675 13.25 4.75783 13.25 4.6155C13.25 4.47317 13.2977 4.35425 13.3932 4.25875C13.4887 4.16325 13.6077 4.1155 13.75 4.1155H16.25V1.6155C16.25 1.47317 16.2977 1.35425 16.3932 1.25875C16.4887 1.16325 16.6077 1.1155 16.75 1.1155C16.8923 1.1155 17.0113 1.16325 17.1068 1.25875C17.2023 1.35425 17.25 1.47317 17.25 1.6155V4.1155H19.75C19.8923 4.1155 20.0113 4.16325 20.1068 4.25875C20.2023 4.35425 20.25 4.47317 20.25 4.6155C20.25 4.75783 20.2023 4.87675 20.1068 4.97225C20.0113 5.06775 19.8923 5.1155 19.75 5.1155H17.25V7.6155C17.25 7.75783 17.2023 7.87675 17.1068 7.97225C17.0113 8.06775 16.8923 8.1155 16.75 8.1155C16.6077 8.1155 16.4887 8.06775 16.3932 7.97225C16.2977 7.87675 16.25 7.75783 16.25 7.6155V5.1155ZM4.877 5.12325C4.29233 4.53858 4 3.83083 4 3C4 2.16933 4.29233 1.46167 4.877 0.877C5.4615 0.292334 6.16917 0 7 0C7.83083 0 8.5385 0.292334 9.123 0.877C9.70767 1.46167 10 2.16933 10 3C10 3.83083 9.70767 4.53858 9.123 5.12325C8.5385 5.70775 7.83083 6 7 6C6.16917 6 5.4615 5.70775 4.877 5.12325ZM0 12.1925V11.5847C0 11.1719 0.120167 10.7857 0.3605 10.426C0.601 10.0665 0.924417 9.78733 1.33075 9.5885C2.27442 9.136 3.21867 8.79658 4.1635 8.57025C5.10833 8.34408 6.05383 8.231 7 8.231C7.94617 8.231 8.89167 8.34408 9.8365 8.57025C10.7813 8.79658 11.7256 9.136 12.6693 9.5885C13.0756 9.78733 13.399 10.0665 13.6395 10.426C13.8798 10.7857 14 11.1719 14 11.5847V12.1925C14 12.486 13.9003 12.7324 13.701 12.9318C13.5017 13.1313 13.2552 13.231 12.9615 13.231H1.0385C0.744833 13.231 0.498333 13.1313 0.299 12.9318C0.0996666 12.7324 0 12.486 0 12.1925Z" fill="#F9F9F9"/>
</svg>
