<svg width="18" height="20" viewBox="0 0 18 20" fill="none" xmlns="http://www.w3.org/2000/svg">
<path d="M2.78448 19.923C2.32815 19.923 1.88298 19.8358 1.44898 19.6615C1.01498 19.4872 0.625566 19.2256 0.280733 18.8767L0.240233 18.8173C0.128733 18.7224 0.0553158 18.5974 0.0199825 18.4423C-0.0151842 18.2871 -0.0039342 18.1371 0.0537325 17.9923L1.69998 13.8307L3.21723 14.3615C3.3274 14.4025 3.43573 14.3964 3.54223 14.3432C3.64857 14.2901 3.72223 14.2019 3.76323 14.0788C3.80823 13.9724 3.80732 13.8628 3.76048 13.75C3.71365 13.6372 3.63707 13.5583 3.53073 13.5135L2.01898 13.0075L2.67498 11.3307L4.27298 11.8865C4.38315 11.9275 4.49465 11.9214 4.60748 11.8682C4.72032 11.8151 4.79723 11.7269 4.83823 11.6038C4.8794 11.4974 4.87432 11.391 4.82298 11.2845C4.77165 11.1782 4.69282 11.1045 4.58648 11.0635L2.99398 10.5075L3.64998 8.83075L5.30373 9.4115C5.42673 9.45633 5.54148 9.45217 5.64798 9.399C5.75432 9.34583 5.82798 9.25767 5.86898 9.1345C5.91398 9.02433 5.90982 8.91375 5.85648 8.80275C5.80332 8.69192 5.72357 8.61408 5.61723 8.56925L3.96898 8.0135L4.78823 5.9635C4.89607 5.68133 5.07715 5.472 5.33148 5.3355C5.58598 5.199 5.86265 5.15958 6.16148 5.21725L7.39998 5.45375C7.76015 5.52942 8.11015 5.50858 8.44998 5.39125C8.78965 5.27392 9.09157 5.08325 9.35573 4.81925C9.6364 4.53458 9.83123 4.2025 9.94023 3.823C10.0492 3.4435 10.0428 3.06725 9.92098 2.69425L9.83448 2.4345C9.76398 2.21917 9.75465 2.00283 9.80648 1.7855C9.85848 1.56817 9.96523 1.37875 10.1267 1.21725L10.9517 0.373C11.1966 0.124333 11.4866 0 11.822 0C12.1573 0 12.4474 0.122417 12.6922 0.36725L17.1595 4.9095C17.4108 5.16467 17.5374 5.47142 17.5392 5.82975C17.5412 6.18808 17.4185 6.49483 17.171 6.75L16.748 7.173L17.2037 7.62875C17.2524 7.68125 17.2982 7.74117 17.3412 7.8085C17.3842 7.87583 17.4057 7.94417 17.4057 8.0135C17.4057 8.066 17.3903 8.12492 17.3595 8.19025C17.3286 8.25575 17.2851 8.31667 17.2287 8.373C17.1184 8.46667 16.9963 8.51767 16.8625 8.526C16.7285 8.53433 16.6063 8.48975 16.496 8.39225L16.046 7.91725L14.6345 9.35375L15.0845 9.7845C15.1908 9.891 15.244 10.009 15.244 10.1385C15.244 10.2678 15.1972 10.3793 15.1037 10.473C14.9934 10.5793 14.8713 10.6367 14.7375 10.645C14.6035 10.6533 14.4813 10.6024 14.371 10.4922L13.9402 10.0672L10.4287 13.6288L10.8537 14.0288C10.9512 14.1263 11 14.242 11 14.376C11 14.5098 10.9512 14.6255 10.8537 14.723C10.7434 14.8167 10.6213 14.8677 10.4875 14.876C10.3535 14.8843 10.2313 14.8397 10.121 14.7422L9.74023 14.3365L8.32873 15.7538L8.70948 16.1345C8.81582 16.241 8.86898 16.359 8.86898 16.4885C8.86898 16.6178 8.82223 16.7293 8.72873 16.823C8.6184 16.9293 8.49632 16.9867 8.36248 16.995C8.22848 17.0033 8.10632 16.9524 7.99598 16.8423L7.61523 16.4673L6.22298 17.898L6.58448 18.2537C6.69082 18.3512 6.74398 18.467 6.74398 18.601C6.74398 18.7348 6.69723 18.8505 6.60373 18.948C6.4934 19.0417 6.37132 19.0927 6.23748 19.101C6.10348 19.1093 5.98132 19.0583 5.87098 18.948L5.50948 18.6057L5.18248 18.9517C4.83765 19.2711 4.4649 19.5128 4.06423 19.6768C3.66357 19.8409 3.23698 19.923 2.78448 19.923Z" fill="#F9F9F9"/>
</svg>
