<svg width="11" height="21" viewBox="0 0 11 21" fill="none" xmlns="http://www.w3.org/2000/svg">
<path d="M2.33727 14.0845L0.933275 16.4825C0.864109 16.6005 0.762525 16.6777 0.628525 16.7142C0.494525 16.7509 0.368608 16.7346 0.250775 16.6652C0.132775 16.5961 0.0555252 16.4945 0.0190252 16.3605C-0.0176415 16.2265 -0.00130833 16.1005 0.068025 15.9825L4.94878 7.55375C4.31544 7.03192 3.84361 6.49217 3.53328 5.9345C3.22311 5.37683 3.06803 4.7525 3.06803 4.0615C3.06803 3.62817 3.11511 3.19708 3.20927 2.76825C3.30361 2.33942 3.46161 1.87175 3.68328 1.36525C3.73211 1.23058 3.82252 1.13858 3.95452 1.08925C4.08652 1.03992 4.21152 1.04992 4.32952 1.11925C4.44752 1.18842 4.52478 1.29225 4.56128 1.43075C4.59778 1.56925 4.59361 1.70767 4.54878 1.846C4.38844 2.237 4.26827 2.60975 4.18827 2.96425C4.10811 3.31875 4.06802 3.655 4.06802 3.973C4.06802 4.65117 4.24302 5.25275 4.59302 5.77775C4.94302 6.30275 5.49877 6.79217 6.26027 7.246L8.33728 8.46925C9.13978 8.94092 9.73461 9.53417 10.1218 10.249C10.5089 10.9637 10.7025 11.6588 10.7025 12.3345C10.7025 12.7588 10.6544 13.1887 10.5583 13.624C10.4621 14.0592 10.2859 14.5493 10.0295 15.0943C9.96803 15.2199 9.87119 15.3074 9.73903 15.3568C9.60703 15.4061 9.48011 15.3961 9.35827 15.3267C9.24044 15.2576 9.16227 15.1537 9.12377 15.0152C9.08527 14.8767 9.09486 14.7364 9.15253 14.5943C9.33853 14.1738 9.47477 13.7927 9.56127 13.451C9.64777 13.1093 9.69102 12.7538 9.69102 12.3845C9.69102 11.9282 9.58719 11.4756 9.37953 11.0267C9.17186 10.5781 8.80519 10.1371 8.27953 9.70375L2.11402 20.3135C2.04486 20.4313 1.94327 20.5085 1.80927 20.545C1.67527 20.5817 1.54936 20.5653 1.43153 20.496C1.31353 20.4268 1.23627 20.3252 1.19977 20.1912C1.16311 20.0572 1.17944 19.9313 1.24878 19.8135L3.99878 15.046L2.33727 14.0845ZM8.62578 7.0385C8.15261 7.0385 7.75228 6.87467 7.42478 6.547C7.09711 6.2195 6.93327 5.81917 6.93327 5.346C6.93327 4.873 7.09711 4.47267 7.42478 4.145C7.75228 3.8175 8.15261 3.65375 8.62578 3.65375C9.09878 3.65375 9.49903 3.8175 9.82653 4.145C10.1542 4.47267 10.318 4.873 10.318 5.346C10.318 5.81917 10.1542 6.2195 9.82653 6.547C9.49903 6.87467 9.09878 7.0385 8.62578 7.0385ZM6.66403 2.61525C6.29486 2.61525 5.98461 2.48767 5.73328 2.2325C5.48211 1.9775 5.35653 1.66917 5.35653 1.3075C5.35653 0.938333 5.48402 0.628084 5.73902 0.37675C5.99419 0.125584 6.30253 0 6.66403 0C7.03336 0 7.34361 0.1275 7.59478 0.3825C7.84611 0.637666 7.97178 0.946 7.97178 1.3075C7.97178 1.67683 7.84103 1.98717 7.57953 2.2385C7.31803 2.48967 7.01286 2.61525 6.66403 2.61525Z" fill="#F9F9F9"/>
</svg>
