<svg width="50" height="50" viewBox="0 0 50 50" fill="none" xmlns="http://www.w3.org/2000/svg">
<g clip-path="url(#clip0_4172_502)">
<path d="M25 50C38.8071 50 50 38.8071 50 25C50 11.1929 38.8071 0 25 0C11.1929 0 0 11.1929 0 25C0 38.8071 11.1929 50 25 50Z" fill="white"/>
<mask id="mask0_4172_502" style="mask-type:luminance" maskUnits="userSpaceOnUse" x="7" y="7" width="36" height="36">
<path d="M42.8569 7.5H7.14258V42.5H42.8569V7.5Z" fill="white"/>
</mask>
<g mask="url(#mask0_4172_502)">
<path d="M30.7565 39.8071V39.8213L30.135 41.7428C28.5065 42.2356 26.785 42.4999 24.9993 42.4999C23.2136 42.4999 21.4922 42.2356 19.8636 41.7428L19.2422 39.8213V39.8071L24.9922 35.5928L30.7493 39.8071H30.7565Z" fill="#00043D"/>
<path d="M14.5354 27.9215L12.3354 34.7429H10.3211C8.38544 31.9358 7.22115 28.5501 7.14258 24.9001L8.76401 23.7144H8.77829L14.5354 27.9215Z" fill="#00043D"/>
<path d="M42.8567 24.8999C42.7782 28.5499 41.6139 31.9356 39.6782 34.7427H37.6639L35.4639 27.9213L41.221 23.707H41.2353L42.8567 24.8999Z" fill="#00043D"/>
<path d="M39.2069 13.593L38.5926 15.5145L31.4783 15.5216L29.2783 8.70018H29.2926L30.914 7.50732C34.2426 8.6859 37.1212 10.8216 39.214 13.6002L39.2069 13.593Z" fill="#00043D"/>
<path d="M20.728 8.7L18.528 15.5214H11.4066L10.7852 13.5929C12.8852 10.8214 15.7637 8.67857 19.0923 7.5L20.7137 8.68571H20.728V8.7Z" fill="#00043D"/>
<path d="M25.0001 29.5857C22.1144 27.9071 20.1787 24.7643 20.1787 21.1643C21.0144 21.1643 21.8216 21.0571 22.593 20.8571C23.4501 20.6357 24.2573 20.3 25.0073 19.8643C25.7501 20.3 26.5644 20.6357 27.4216 20.8571C28.193 21.0571 29.0001 21.1643 29.8359 21.1643C29.8359 24.7643 27.893 27.9071 25.0073 29.5857H25.0001Z" fill="#62109F"/>
</g>
</g>
<defs>
<clipPath id="clip0_4172_502">
<rect width="50" height="50" fill="white"/>
</clipPath>
</defs>
</svg>
