<svg width="50" height="49" viewBox="0 0 50 49" fill="none" xmlns="http://www.w3.org/2000/svg">
<g clip-path="url(#clip0_4153_52)">
<path d="M33.061 45.2251L33.054 45.2453L32.187 47.9377C29.911 48.6302 27.497 49.0001 25 49.0001C22.503 49.0001 20.089 48.6302 17.813 47.9377L16.946 45.2453L16.939 45.2251L25 39.3223L33.061 45.2251Z" fill="#00043D"/>
<path d="M10.346 28.5913L7.268 38.1422H4.451C1.741 34.213 0.11 29.4743 0 24.3648L2.267 22.7016L2.287 22.6885L10.346 28.5913Z" fill="#00043D"/>
<path d="M49.9998 24.3628C49.8898 29.4743 48.2588 34.213 45.5478 38.1422H42.7308L39.6528 28.5913L47.7138 22.6885L47.7298 22.6996L49.9998 24.3628Z" fill="#00043D"/>
<path d="M44.8891 8.52669L44.0241 11.214L44.0191 11.2251H34.0551L30.9771 1.67429L30.9931 1.6632L33.2641 0C37.9201 1.64506 41.9511 4.64387 44.8891 8.52669Z" fill="#00043D"/>
<path d="M19.0219 1.6753L15.9439 11.2261H5.97986L5.97486 11.215L5.10986 8.5277C8.04986 4.64387 12.0799 1.64506 16.7359 0L19.0059 1.6632L19.0219 1.67429V1.6753Z" fill="#00043D"/>
<path d="M25.0001 30.9199C20.9621 28.5662 18.2451 24.1652 18.2451 19.1252C19.4111 19.1252 20.5421 18.9771 21.6211 18.6958H21.6241C22.8221 18.3844 23.9561 17.9116 25.0001 17.3018C26.0441 17.9116 27.1781 18.3844 28.3761 18.6958H28.3791C29.4581 18.976 30.5891 19.1252 31.7551 19.1252C31.7551 24.1652 29.0381 28.5662 25.0001 30.9199Z" fill="#62109F"/>
</g>
<defs>
<clipPath id="clip0_4153_52">
<rect width="50" height="49" fill="white"/>
</clipPath>
</defs>
</svg>
