<svg width="50" height="49" viewBox="0 0 50 49" fill="none" xmlns="http://www.w3.org/2000/svg">
<g clip-path="url(#clip0_4169_483)">
<path d="M33.0615 45.2251L33.0545 45.2453L32.1875 47.9377C29.9115 48.6302 27.4975 49.0001 25.0005 49.0001C22.5035 49.0001 20.0895 48.6302 17.8135 47.9377L16.9465 45.2453L16.9395 45.2251L25.0005 39.3223L33.0615 45.2251Z" fill="white"/>
<path d="M10.346 28.5909L7.268 38.1417H4.451C1.741 34.2125 0.11 29.4739 0 24.3643L2.267 22.7011L2.287 22.688L10.346 28.5909Z" fill="white"/>
<path d="M50.0003 24.3623C49.8903 29.4739 48.2593 34.2125 45.5483 38.1417H42.7313L39.6533 28.5909L47.7143 22.688L47.7303 22.6991L50.0003 24.3623Z" fill="white"/>
<path d="M44.8886 8.52669L44.0236 11.214L44.0186 11.2251H34.0546L30.9766 1.67429L30.9926 1.6632L33.2636 0C37.9196 1.64506 41.9506 4.64387 44.8886 8.52669Z" fill="white"/>
<path d="M19.0224 1.6753L15.9444 11.2261H5.98035L5.97535 11.215L5.11035 8.5277C8.05035 4.64387 12.0804 1.64506 16.7364 0L19.0064 1.6632L19.0224 1.67429V1.6753Z" fill="white"/>
<path d="M25.0001 30.9194C20.9621 28.5657 18.2451 24.1648 18.2451 19.1247C19.4111 19.1247 20.5421 18.9766 21.6211 18.6953H21.6241C22.8221 18.3839 23.9561 17.9111 25.0001 17.3013C26.0441 17.9111 27.1781 18.3839 28.3761 18.6953H28.3791C29.4581 18.9756 30.5891 19.1247 31.7551 19.1247C31.7551 24.1648 29.0381 28.5657 25.0001 30.9194Z" fill="white"/>
</g>
<defs>
<clipPath id="clip0_4169_483">
<rect width="50" height="49" fill="white"/>
</clipPath>
</defs>
</svg>
