<svg width="217" height="50" viewBox="0 0 217 50" fill="none" xmlns="http://www.w3.org/2000/svg">
<g clip-path="url(#clip0_4168_457)">
<path d="M34.0512 46.1482L34.0454 46.1684L33.1513 48.9163C30.8077 49.6213 28.3195 49.9999 25.7502 49.9999C23.1809 49.9999 20.6926 49.6213 18.349 48.9163L17.455 46.1684L17.4492 46.1482L25.7502 40.1235L34.0512 46.1482Z" fill="#00043D"/>
<path d="M10.6561 29.1755L7.48505 38.9218H4.58304C1.79387 34.9111 0.11284 30.0741 0 24.8614L2.33492 23.1624L2.35517 23.1479L10.6561 29.1726V29.1755Z" fill="#00043D"/>
<path d="M51.496 24.8585C51.3831 30.0741 49.7021 34.9111 46.91 38.9189H44.008L40.8369 29.1726L49.1379 23.1479L49.1552 23.1595L51.4931 24.8585H51.496Z" fill="#00043D"/>
<path d="M46.233 8.7003L45.3419 11.4424L45.3361 11.454H35.0734L31.9023 1.7077L31.9197 1.69614L34.2575 0C39.0547 1.6788 43.2037 4.73879 46.2301 8.7003H46.233Z" fill="#00043D"/>
<path d="M19.5905 1.71059L16.4194 11.4569H6.15963L6.15384 11.4453L5.2627 8.70319C8.28912 4.73879 12.4411 1.6788 17.2382 0L19.576 1.69614L19.5934 1.7077L19.5905 1.71059Z" fill="#00043D"/>
<path d="M25.7475 31.5504C21.5898 29.1492 18.7891 24.6589 18.7891 19.5156C19.9898 19.5156 21.1558 19.3654 22.2668 19.0764C23.5023 18.7586 24.6683 18.276 25.7446 17.6548C26.821 18.276 27.987 18.7586 29.2224 19.0764C30.3335 19.3625 31.4995 19.5156 32.7002 19.5156C32.7002 24.6589 29.9024 29.1492 25.7417 31.5504H25.7475Z" fill="#62109F"/>
<path d="M62.5107 16.3371C62.5107 11.9363 65.3954 7.46338 71.1155 7.46338C78.3112 7.46338 78.9217 13.7625 78.9217 13.7625H75.334C75.334 13.7625 74.8884 10.6938 71.1387 10.6938C67.8808 10.6938 66.2402 13.5256 66.2402 16.3371C66.2402 19.1485 67.8808 22.0034 71.1387 22.0034C74.8913 22.0034 75.334 18.9607 75.334 18.9607H78.9217C78.9217 18.9607 78.3112 25.2598 71.1155 25.2598C65.3954 25.2598 62.5107 20.7869 62.5107 16.3399V16.3371Z" fill="#00043D"/>
<path d="M81.4531 25.0227V7.69727H85.064V14.6032H91.817V7.69727H95.4279V25.0227H91.817V17.7412H85.064V25.0227H81.4531Z" fill="#00043D"/>
<path d="M97.7285 25.0227L103.637 7.69727H108.442L114.351 25.0227H110.552L109.426 21.6276H102.65L101.525 25.0227H97.7256H97.7285ZM103.634 18.4925H108.44L106.05 11.2571L103.634 18.4925Z" fill="#00043D"/>
<path d="M116.647 25.0227V7.69727H121.523L125.461 16.6172L129.563 7.69727H134.277V25.0227H130.712V13.2451L127.15 20.9717H123.797L120.209 13.1527V25.0227H116.647Z" fill="#00043D"/>
<path d="M137.469 25.0227V7.69727H144.618C148.886 7.69727 151.018 10.5781 151.018 13.456C151.018 16.334 148.886 19.264 144.618 19.264H141.08V25.0227H137.469ZM141.08 10.8584V16.126H144.618C146.447 16.126 147.384 14.8141 147.384 13.4792C147.384 12.1442 146.447 10.8584 144.618 10.8584H141.08Z" fill="#00043D"/>
<path d="M150.717 25.0227L156.625 7.69727H161.431L167.339 25.0227H163.54L162.415 21.6276H155.638L154.513 25.0227H150.714H150.717ZM156.625 18.4925H161.431L159.041 11.2571L156.625 18.4925Z" fill="#00043D"/>
<path d="M168.184 16.3833C168.184 11.9363 171.091 7.46338 177.023 7.46338C183.984 7.46338 184.664 13.5053 184.664 13.5053H181.076C181.076 13.5053 180.561 10.6476 177.02 10.6476C173.478 10.6476 171.887 13.5053 171.887 16.3139C171.887 19.1225 173.646 22.0727 177.046 22.0727C179.531 22.0727 181.03 20.6684 181.314 18.5128H176.811V15.6811H184.875V17.0161C184.875 22.4484 181.476 25.257 176.904 25.257C171.065 25.257 168.184 20.8302 168.184 16.3833Z" fill="#00043D"/>
<path d="M187.364 25.0227V7.69727H190.668L198.148 18.7496V7.69727H201.735V25.0227H198.382L190.949 14.2998V25.0227H187.361H187.364Z" fill="#00043D"/>
<path d="M204.927 25.0227V7.69727H216.882V10.8353H208.535V14.7217H215.803V17.7412H208.535V21.8847H216.998V25.0227H204.924H204.927Z" fill="#00043D"/>
<path d="M65.0859 42.3916V31.6831H67.3167V40.4528H72.5623V42.3916H65.0859Z" fill="#62109F"/>
<path d="M74.4023 42.3916V31.6831H81.7919V33.622H76.6331V36.0231H81.1236V37.8898H76.6331V40.4499H81.8643V42.3887H74.4023V42.3916Z" fill="#62109F"/>
<path d="M83.1553 42.3916L86.8067 31.6831H89.7781L93.4295 42.3916H91.083L90.3886 40.2938H86.202L85.5076 42.3916H83.1611H83.1553ZM86.8067 38.3521H89.7781L88.2996 33.882L86.8067 38.3521Z" fill="#62109F"/>
<path d="M93.9531 37.0517C93.9531 34.3009 95.7499 31.5386 99.4157 31.5386C103.718 31.5386 104.138 35.2718 104.138 35.2718H101.921C101.921 35.2718 101.603 33.5063 99.4157 33.5063C97.2283 33.5063 96.2417 35.2718 96.2417 37.0084C96.2417 38.745 97.3296 40.5683 99.4302 40.5683C100.967 40.5683 101.892 39.6985 102.066 38.3694H99.2826V36.6183H104.268V37.4447C104.268 40.8023 102.167 42.5389 99.3405 42.5389C95.7325 42.5389 93.9502 39.8026 93.9502 37.0546L93.9531 37.0517Z" fill="#62109F"/>
<path d="M105.804 38.2509V31.6802H108.034V38.2509C108.034 39.4818 108.714 40.4354 110.164 40.4354C111.613 40.4354 112.279 39.479 112.279 38.2509V31.6802H114.524V38.2509C114.524 41.2473 112.496 42.5332 110.164 42.5332C107.832 42.5332 105.801 41.2444 105.801 38.2509H105.804Z" fill="#62109F"/>
<path d="M116.5 42.3916V31.6831H123.89V33.622H118.731V36.0231H123.221V37.8898H118.731V40.4499H123.962V42.3887H116.5V42.3916Z" fill="#62109F"/>
</g>
<defs>
<clipPath id="clip0_4168_457">
<rect width="217" height="50" fill="white"/>
</clipPath>
</defs>
</svg>
