<svg width="50" height="50" viewBox="0 0 50 50" fill="none" xmlns="http://www.w3.org/2000/svg">
<path d="M49.7528 49.5189L46.6558 41.7779C46.5964 41.6503 46.5036 41.541 46.3873 41.4616C46.271 41.3822 46.1354 41.3356 45.9949 41.3267H43.46C43.3255 41.3313 43.1964 41.3803 43.0927 41.466C42.9889 41.5517 42.9165 41.6693 42.8867 41.8005L42.2031 45.3904C42.1856 45.5556 42.1377 45.7163 42.0619 45.8642C41.9464 45.7377 41.8533 45.5925 41.7865 45.4348L39.8582 41.7567C39.7842 41.6332 39.6812 41.5296 39.5582 41.4548C39.4352 41.38 39.2958 41.3363 39.1521 41.3274H36.1215C35.9933 41.3285 35.8706 41.3799 35.7799 41.4705C35.6892 41.5611 35.6377 41.6836 35.6364 41.8118V48.7599L32.5507 41.7695C32.4849 41.643 32.3873 41.5358 32.2674 41.4585C32.1475 41.3812 32.0096 41.3366 31.8672 41.3289H28.5379C28.3967 41.3354 28.2598 41.3797 28.1416 41.4572C28.0233 41.5347 27.928 41.6425 27.8657 41.7695L25.0667 48.2656L23.502 45.7441C23.4215 45.6379 23.378 45.5084 23.378 45.3752C23.378 45.242 23.4215 45.1124 23.502 45.0062L26.2353 41.7031C26.4119 41.4913 26.3236 41.3289 26.0588 41.3289H22.6427C22.4983 41.3356 22.3577 41.3771 22.2328 41.4501C22.108 41.523 22.0027 41.6251 21.926 41.7476L21.3202 42.8378C21.2459 42.9881 21.1534 43.1288 21.0448 43.2565C20.9306 43.1307 20.8341 42.9898 20.7581 42.8378L20.1191 41.7363C20.0391 41.6144 19.9316 41.5131 19.8053 41.4404C19.6789 41.3676 19.5373 41.3256 19.3918 41.3176H15.9757C15.7109 41.3176 15.6339 41.4828 15.7991 41.6918L18.543 44.9949C18.6279 45.1008 18.675 45.2319 18.6771 45.3676C18.6791 45.5032 18.6359 45.6357 18.5544 45.7441L15.105 49.4441V41.7998C15.1037 41.6716 15.0522 41.5491 14.9615 41.4585C14.8708 41.3679 14.7481 41.3165 14.6199 41.3154H11.6981C11.5699 41.3165 11.4473 41.3679 11.3565 41.4585C11.2658 41.5491 11.2143 41.6716 11.213 41.7998V48.9244L8.05036 41.7666C7.98804 41.6397 7.89278 41.5319 7.77453 41.4544C7.65628 41.3769 7.51939 41.3325 7.37815 41.326H4.04958C3.90872 41.334 3.77243 41.3789 3.65443 41.4562C3.53643 41.5336 3.44088 41.6406 3.37737 41.7666L0.0382117 49.5189C0.0111581 49.567 -0.00198696 49.6216 0.000243167 49.6768C0.0024733 49.7319 0.0199957 49.7853 0.0508445 49.831C0.0816934 49.8767 0.124652 49.913 0.174921 49.9357C0.22519 49.9584 0.280785 49.9666 0.335485 49.9595H3.48753C3.62481 49.9529 3.75695 49.9052 3.86693 49.8228C3.97692 49.7404 4.05971 49.6269 4.10466 49.497L4.14844 49.3431C4.19339 49.2132 4.27618 49.0998 4.38616 49.0174C4.49615 48.9349 4.62829 48.8873 4.76557 48.8806H6.73843C6.87703 48.8874 7.01056 48.9349 7.12232 49.0172C7.23409 49.0994 7.31915 49.2128 7.36686 49.3431L7.42193 49.5084C7.46964 49.6387 7.55469 49.752 7.66646 49.8343C7.77823 49.9165 7.91175 49.9641 8.05036 49.9709H11.1911C11.2361 49.9718 11.2808 49.9635 11.3224 49.9465C11.3641 49.9295 11.4018 49.9041 11.4333 49.872C11.5121 49.9337 11.6086 49.9684 11.7087 49.9709H14.6291C14.7348 49.9696 14.8365 49.9306 14.9158 49.8607C14.9439 49.9005 14.9824 49.9318 15.0271 49.9512C15.0718 49.9707 15.121 49.9775 15.1693 49.9709H18.6292C18.775 49.9628 18.9171 49.922 19.045 49.8515C19.1729 49.7809 19.2832 49.6825 19.3678 49.5634L20.3401 48.0234C20.424 47.8712 20.532 47.7336 20.6599 47.616C20.7828 47.7354 20.8868 47.8728 20.9685 48.0234L21.9055 49.5648C21.9909 49.683 22.1015 49.7808 22.2292 49.8513C22.3569 49.9217 22.4986 49.963 22.6441 49.9723H25.0025C25.0463 49.9723 25.0794 49.9285 25.1126 49.9172C25.1458 49.9285 25.1677 49.9723 25.2115 49.9723H27.978C28.1153 49.9656 28.2474 49.918 28.3574 49.8355C28.4674 49.7531 28.5502 49.6396 28.5951 49.5098L28.6389 49.3558C28.6839 49.226 28.7667 49.1125 28.8766 49.0301C28.9866 48.9476 29.1188 48.9 29.256 48.8933H31.2289C31.3685 48.9011 31.503 48.9489 31.6162 49.0308C31.7295 49.1128 31.8169 49.2256 31.8679 49.3558L31.923 49.5211C31.974 49.6512 32.0614 49.7641 32.1747 49.846C32.2879 49.928 32.4224 49.9757 32.562 49.9835H35.7141C35.784 49.9838 35.8527 49.9647 35.9125 49.9285C35.9776 49.9638 36.0503 49.9827 36.1243 49.9835H38.119C38.2472 49.9824 38.3699 49.9311 38.4606 49.8405C38.5513 49.7499 38.6028 49.6274 38.6041 49.4992V45.9051C38.6041 45.641 38.6373 45.4313 38.703 45.4313C38.8018 45.795 41.0282 49.5719 41.0282 49.5719C41.1083 49.6936 41.2158 49.7948 41.3421 49.8674C41.4684 49.94 41.61 49.982 41.7555 49.9899H43.2983C43.4333 49.987 43.5633 49.9387 43.6673 49.8527C43.7714 49.7667 43.8434 49.6481 43.8717 49.5161L44.5552 45.915C44.5823 45.7539 44.6229 45.5954 44.6766 45.4412C44.7625 45.5848 44.8256 45.7408 44.8637 45.9037L46.0316 49.5373C46.0793 49.6676 46.1644 49.781 46.2762 49.8632C46.3879 49.9455 46.5215 49.993 46.6601 49.9998H49.4591C49.5148 49.9977 49.5691 49.9818 49.6173 49.9536C49.6654 49.9254 49.7058 49.8857 49.7349 49.8381C49.7639 49.7905 49.7808 49.7365 49.7839 49.6808C49.787 49.6251 49.7764 49.5695 49.7528 49.5189ZM6.19896 46.876H5.29515C4.89832 46.876 4.65612 46.6225 4.75498 46.3034L5.44908 44.1999C5.55923 43.8807 5.69128 43.6272 5.74635 43.6272C5.80143 43.6272 5.93347 43.8913 6.04362 44.1999L6.73772 46.3034C6.83799 46.6112 6.59509 46.876 6.19896 46.876ZM30.6873 46.876H29.7948C29.3874 46.876 29.1445 46.6225 29.2546 46.3034L29.9487 44.1999C30.0589 43.8807 30.1909 43.6272 30.246 43.6272C30.3124 43.6272 30.4444 43.8913 30.5433 44.1999L31.2374 46.3034C31.3369 46.6112 31.0954 46.876 30.6873 46.876Z" fill="#002856"/>
<path d="M25.0331 5.75487e-08C21.5817 0.00279265 18.2087 1.02879 15.3403 2.9483C12.472 4.86781 10.2371 7.59464 8.91827 10.7841C7.59943 13.9735 7.2558 17.4824 7.93084 20.8671C8.60588 24.2518 10.2693 27.3604 12.7108 29.7999C15.1522 32.2394 18.2621 33.9003 21.6474 34.5726C25.0327 35.2449 28.5412 34.8984 31.7296 33.577C34.918 32.2556 37.643 30.0185 39.5602 27.1486C41.4774 24.2787 42.5007 20.9048 42.5007 17.4535C42.4973 12.8231 40.6554 8.38356 37.38 5.11073C34.1045 1.8379 29.6634 -0.00037555 25.0331 5.75487e-08Z" fill="#E30613"/>
<path d="M38.0042 25.5686C37.6121 26.1923 37.1775 26.7882 36.7035 27.3522L36.6817 27.3741C36.4501 27.6495 36.2079 27.9249 35.9544 28.1777C34.5243 29.6408 32.8165 30.8035 30.9311 31.5977C29.0457 32.3919 27.0206 32.8016 24.9747 32.8026C22.9289 32.8037 20.9034 32.3961 19.0171 31.6039C17.1309 30.8116 15.4219 29.6506 13.9903 28.189C13.7319 27.9216 13.4821 27.6461 13.2412 27.3628C12.5209 26.5063 11.893 25.5761 11.3679 24.5879C10.3715 22.6941 9.78257 20.6127 9.63902 18.4775C9.49548 16.3424 9.80048 14.2009 10.5344 12.1908C11.2684 10.1807 12.415 8.34645 13.9005 6.80614C15.386 5.26583 17.1775 4.05356 19.1597 3.24731C20.9995 2.49441 22.9689 2.10916 24.9568 2.11331C26.1325 2.11557 27.3043 2.24843 28.4506 2.50944C29.1551 2.67306 29.8473 2.8854 30.5223 3.14493C32.5403 3.92652 34.3701 5.12637 35.8913 6.6656C37.4125 8.20483 38.5907 10.0486 39.3485 12.0757C40.1063 14.1028 40.4265 16.2673 40.288 18.4269C40.1495 20.5866 39.5555 22.6925 38.5451 24.6062C38.3791 24.9303 38.2012 25.2601 38.0042 25.5686Z" fill="#001332"/>
<path d="M37.1346 24.3906C36.7755 24.9604 36.3777 25.5049 35.9441 26.0202L35.9328 26.0315C35.7125 26.285 35.4922 26.5258 35.2606 26.7694C33.9523 28.1079 32.3898 29.1715 30.6647 29.8977C28.9396 30.6238 27.0868 30.9978 25.2152 30.9978C23.3435 30.9978 21.4907 30.6238 19.7657 29.8977C18.0406 29.1715 16.478 28.1079 15.1698 26.7694C14.9382 26.5272 14.7066 26.2752 14.4863 26.021H14.4771C13.8145 25.2401 13.2416 24.3875 12.7691 23.479C11.8591 21.7459 11.3217 19.8417 11.1913 17.8886C11.061 15.9355 11.3406 13.9767 12.0122 12.1381C12.6838 10.2995 13.7326 8.62169 15.0911 7.21246C16.4496 5.80322 18.0879 4.69373 19.9007 3.95524C21.5863 3.26822 23.3896 2.91591 25.2099 2.91798C26.2854 2.92034 27.3572 3.0423 28.4057 3.28162C29.0498 3.43463 29.6831 3.6297 30.3016 3.86557C32.9397 4.88853 35.207 6.6851 36.806 9.01955C38.4049 11.354 39.2608 14.1173 39.2613 16.9468C39.2666 19.227 38.7102 21.4733 37.6415 23.4875C37.4756 23.8073 37.3104 24.1011 37.1346 24.3906Z" fill="url(#paint0_radial_4167_456)"/>
<path d="M39.0071 22.6949C38.9958 22.6512 37.3322 18.1695 35.1496 13.2692C33.0779 8.62232 31.1383 5.2528 31.0613 5.10946C30.862 4.80089 30.5493 4.58323 30.1907 4.50362C28.507 3.98026 26.7619 3.68042 25.0001 3.61182C23.2383 3.68042 21.4932 3.98026 19.8096 4.50362C19.4523 4.58621 19.1405 4.80316 18.9389 5.10946C18.862 5.25068 16.911 8.62232 14.8499 13.2692C12.668 18.1695 11.0143 22.6399 10.9924 22.6949C10.8797 23.0076 10.8955 23.3521 11.0362 23.6531C11.8714 25.318 12.9774 26.8325 14.309 28.1348C14.5411 28.3544 14.8488 28.4765 15.1683 28.4758L18.9926 28.4977H19.0039C19.2933 28.4976 19.5739 28.398 19.7987 28.2155C20.0234 28.0331 20.1785 27.779 20.2382 27.4957C20.3264 27.0332 20.6018 25.6457 20.7324 25.0399H20.9308C21.9194 25.0399 24.5454 25.0731 24.9641 25.0731H25.0305C25.4492 25.0731 28.0724 25.0399 29.0637 25.0399H29.2621C29.3942 25.6457 29.659 27.0332 29.7564 27.4957C29.816 27.779 29.9712 28.0331 30.1959 28.2155C30.4206 28.398 30.7012 28.4976 30.9907 28.4977H31.002L34.8262 28.4758C35.1458 28.4765 35.4534 28.3544 35.6856 28.1348C37.0267 26.8405 38.1341 25.3244 38.9591 23.6531C39.032 23.5051 39.0739 23.3438 39.0821 23.179C39.0904 23.0142 39.0648 22.8495 39.0071 22.6949ZM26.9278 16.143H23.0047C22.9416 16.149 22.878 16.1386 22.8201 16.1128C22.7622 16.087 22.712 16.0467 22.6743 15.9957C22.6366 15.9448 22.6126 15.885 22.6048 15.8221C22.597 15.7592 22.6056 15.6954 22.6297 15.6367C22.6297 15.6367 23.0484 14.3594 23.5773 12.8618C24.3929 10.5712 24.4698 10.384 24.7346 9.76762L24.7459 9.74573C24.7619 9.73019 24.781 9.71824 24.8019 9.71069C24.8228 9.70314 24.8452 9.70016 24.8674 9.70195H25.0439C25.0661 9.70016 25.0884 9.70314 25.1094 9.71069C25.1303 9.71824 25.1494 9.73019 25.1653 9.74573L25.1766 9.76762C25.4414 10.384 25.5184 10.5712 26.3339 12.8618C26.8628 14.3594 27.2815 15.6367 27.2815 15.6367C27.3092 15.6934 27.3213 15.7564 27.3164 15.8192C27.3115 15.882 27.2899 15.9424 27.2538 15.9941C27.2177 16.0458 27.1684 16.0868 27.1111 16.113C27.0538 16.1392 26.9905 16.1496 26.9278 16.143Z" fill="#001332"/>
<path d="M34.5211 13.0928C33.3061 10.2945 31.8804 7.59248 30.2563 5.01003C28.5933 4.30515 26.8055 3.94189 24.9993 3.94189C23.1931 3.94189 21.4054 4.30515 19.7424 5.01003C18.1153 7.59078 16.6895 10.293 15.4775 13.0928C13.1629 18.3236 11.0693 23.9505 11.0693 23.9505C11.7966 25.4701 12.0063 26.2192 13.2293 27.3638H18.6847C18.6847 27.3638 19.1034 25.2604 19.2354 24.7322C19.3675 24.204 19.5108 24.0607 20.6681 24.0607C21.8254 24.0607 25.0099 24.0939 25.0099 24.0939C25.0099 24.0939 28.1952 24.0607 29.3518 24.0607C30.5084 24.0607 30.6524 24.2019 30.7844 24.7322C30.9165 25.2625 31.3352 27.3638 31.3352 27.3638H36.7905C38.0029 26.2079 38.2119 25.4701 38.9505 23.9505C38.9293 23.9505 36.8357 18.3123 34.5211 13.0928ZM28.6358 16.8916C28.5037 17.3541 28.1726 17.5744 27.4785 17.5744H22.5188C21.8247 17.5744 21.4935 17.3541 21.3615 16.8916C21.2295 16.4291 21.5161 15.5811 22.5188 12.5971C23.2793 10.3178 23.3661 10.1088 23.6429 9.44789C23.7668 9.19058 23.9607 8.97346 24.2025 8.8215C24.4443 8.66955 24.724 8.58894 25.0096 8.58894C25.2951 8.58894 25.5749 8.66955 25.8167 8.8215C26.0584 8.97346 26.2524 9.19058 26.3762 9.44789C26.6516 10.1088 26.7293 10.3291 27.5004 12.5971C28.4818 15.5818 28.7685 16.4298 28.6365 16.8923L28.6358 16.8916Z" fill="url(#paint1_linear_4167_456)"/>
<path d="M32.8024 2.67533C29.8784 1.14138 26.5652 0.509046 23.2818 0.858306C19.9984 1.20757 16.8923 2.52273 14.3564 4.63745C11.8206 6.75217 9.9688 9.57145 9.03538 12.7387C8.10195 15.9059 8.1288 19.2789 9.11252 22.4308C10.0962 25.5828 11.9926 28.3723 14.5618 30.4464C17.1311 32.5205 20.2577 33.786 23.5462 34.083C26.8348 34.3799 30.1375 33.6949 33.0367 32.1146C35.9359 30.5343 38.3013 28.1297 39.8338 25.2049C41.8811 21.2834 42.2906 16.7103 40.9727 12.4875C39.6547 8.26458 36.7168 4.73622 32.8024 2.67533ZM18.1225 30.6116C15.52 29.243 13.3817 27.1335 11.9779 24.5499C10.574 21.9663 9.96757 19.0244 10.2353 16.0962C10.503 13.168 11.6328 10.3849 13.4819 8.09871C15.3309 5.81247 17.8163 4.12574 20.6238 3.25171C23.4313 2.37768 26.4349 2.35558 29.255 3.18822C32.075 4.02086 34.5849 5.67085 36.4674 7.92964C38.3499 10.1884 39.5206 12.9546 39.8313 15.8785C40.142 18.8025 39.579 21.7529 38.2133 24.3569C37.3058 26.0878 36.066 27.6227 34.5648 28.874C33.0637 30.1253 31.3305 31.0684 29.4646 31.6493C27.5986 32.2302 25.6364 32.4376 23.6902 32.2595C21.7441 32.0814 19.8521 31.5215 18.1225 30.6116Z" fill="url(#paint2_linear_4167_456)"/>
<path d="M20.2384 27.4852C20.1818 27.7688 20.0294 28.0244 19.8067 28.2089C19.584 28.3934 19.3046 28.4956 19.0154 28.4985H19.0041L15.1799 28.4766C14.7943 28.1461 14.3325 27.7168 14.3325 27.7168L13.2197 27.3638H18.6751L20.2384 27.4852Z" fill="#001332"/>
<path d="M31.3265 27.3638H36.7819L35.6691 27.7168C35.6691 27.7168 35.2059 28.1461 34.8218 28.4766L30.9975 28.4985H30.9862C30.6968 28.4984 30.4162 28.3987 30.1914 28.2163C29.9667 28.0339 29.8116 27.7797 29.752 27.4965" fill="#001332"/>
<path d="M30.1577 28.1786C29.9539 28.0009 29.8144 27.7609 29.7609 27.4958C29.6726 27.0333 29.3972 25.6458 29.2666 25.04L30.6068 24.3247C30.6892 24.4478 30.7454 24.5864 30.772 24.7321C30.904 25.261 31.3228 27.3638 31.3228 27.3638C31.3228 27.3638 30.2537 28.2669 30.1577 28.1786Z" fill="url(#paint3_linear_4167_456)"/>
<path d="M30.2559 5.42871C30.2559 5.42871 33.7934 10.274 38.2348 22.9401C35.2628 17.2504 32.5993 11.4048 30.2559 5.42871Z" fill="white"/>
<path d="M25.8713 8.78711C26.0954 8.95393 26.2644 9.18416 26.3564 9.44802C26.6317 10.1089 26.7094 10.3292 27.4805 12.5972C28.4832 15.5812 28.7698 16.4293 28.6378 16.8918C28.5973 17.0625 28.5047 17.2165 28.373 17.3324C27.9315 16.9556 27.5457 16.5182 27.227 16.0331C27.2739 15.982 27.3051 15.9185 27.3168 15.8501C27.3286 15.7818 27.3204 15.7115 27.2934 15.6476C27.2934 15.6476 26.8747 14.3703 26.3458 12.8726C25.5302 10.582 25.4533 10.3949 25.1885 9.77848C25.3905 9.43112 25.6188 9.0997 25.8713 8.78711Z" fill="url(#paint4_linear_4167_456)"/>
<path d="M28.5377 17.8278C29.4302 17.861 30.125 17.4423 29.8165 16.5942C29.1556 14.7584 26.4773 9.20557 26.4773 9.20557C26.764 9.89896 26.8523 10.1193 27.6565 12.4981C28.7157 15.6142 29.0122 16.4954 28.8689 16.9798C28.7369 17.4642 28.3838 17.6859 27.6565 17.6859H22.4434L28.5377 17.8278Z" fill="white"/>
<path d="M30.2564 23.7629C31.4469 23.741 31.6121 23.8843 31.8098 24.4238C32.0075 24.9632 32.9007 27.2319 32.9007 27.2319H31.545C31.545 27.2319 31.1263 25.1285 30.9943 24.6003C30.8622 24.0721 30.7189 23.9288 29.5616 23.9288C28.4043 23.9288 25.2198 23.962 25.2198 23.962C25.2198 23.962 22.0345 23.9288 20.8779 23.9288L30.2564 23.7629Z" fill="white"/>
<defs>
<radialGradient id="paint0_radial_4167_456" cx="0" cy="0" r="1" gradientUnits="userSpaceOnUse" gradientTransform="translate(25.0984 16.2559) scale(14.6126 14.6015)">
<stop offset="0.214" stop-color="#8AB5E1"/>
<stop offset="0.316" stop-color="#7CA7D3"/>
<stop offset="0.509" stop-color="#5882AF"/>
<stop offset="0.771" stop-color="#1E4774"/>
<stop offset="0.896" stop-color="#002856"/>
</radialGradient>
<linearGradient id="paint1_linear_4167_456" x1="11.0693" y1="15.6529" x2="38.9226" y2="15.6529" gradientUnits="userSpaceOnUse">
<stop offset="0.192" stop-color="white"/>
<stop offset="0.489" stop-color="#E4E4E4"/>
<stop offset="0.491" stop-color="#E1E0E0"/>
<stop offset="0.493" stop-color="#D5D5D5"/>
<stop offset="0.495" stop-color="#C2C2C2"/>
<stop offset="0.648" stop-color="#9F9F9F"/>
<stop offset="0.901" stop-color="#D0D0D0"/>
</linearGradient>
<linearGradient id="paint2_linear_4167_456" x1="0.744454" y1="9.81225" x2="34.0884" y2="9.81225" gradientUnits="userSpaceOnUse">
<stop offset="0.253" stop-color="white"/>
<stop offset="0.687" stop-color="#E4E4E4"/>
<stop offset="0.837" stop-color="#D7D6D6"/>
<stop offset="0.973" stop-color="#D0D0D0"/>
</linearGradient>
<linearGradient id="paint3_linear_4167_456" x1="29.7909" y1="24.537" x2="31.7972" y2="26.421" gradientUnits="userSpaceOnUse">
<stop stop-color="#CFDCE4"/>
<stop offset="0.251" stop-color="#ADBBC6"/>
<stop offset="0.803" stop-color="#57677A"/>
<stop offset="1" stop-color="#37485E"/>
</linearGradient>
<linearGradient id="paint4_linear_4167_456" x1="25.9052" y1="8.74438" x2="31.0536" y2="12.3666" gradientUnits="userSpaceOnUse">
<stop stop-color="white"/>
<stop offset="0.203" stop-color="#CDDBE4"/>
<stop offset="0.786" stop-color="#4B5463"/>
</linearGradient>
</defs>
</svg>
