<svg width="152" height="50" viewBox="0 0 152 50" fill="none" xmlns="http://www.w3.org/2000/svg">
<path d="M28.6292 16.423C28.6292 17.9734 28.7434 18.5187 29.0604 18.8041C29.5487 19.2353 30.985 19.378 31.1562 19.378C31.5874 19.4065 31.5304 19.8377 31.1848 19.8663C31.1848 19.8663 29.6914 19.8092 28.4009 19.8092C27.9412 19.8092 25.2715 19.8092 24.6406 19.8663C24.1237 19.8948 24.3235 19.4065 24.5549 19.378C25.3603 19.2353 25.8169 19.2068 26.191 18.747C26.451 18.4585 26.5081 17.428 26.5081 14.844V6.02956C26.5081 3.07135 26.3939 2.06942 25.5886 1.58114C25.3888 1.43846 25.1288 1.38139 24.5549 1.35285C24.2093 1.35285 24.2379 0.836038 24.5835 0.864574C25.6171 0.950182 26.8505 1.06433 28.1727 0.978718C28.8036 0.950182 29.406 0.950182 29.8087 0.950182C32.6782 0.721895 34.9769 0.262151 37.2724 3.04598C38.3061 4.3079 38.5058 5.6586 38.0778 6.97759C37.4183 8.81339 36.1817 9.5902 34.2603 10.3924L37.5039 15.2149C39.8565 18.8326 42.4977 19.7807 43.8198 20.4687C43.934 20.4972 43.934 20.7287 43.6486 20.6399C40.5477 19.7775 37.1044 18.4014 34.5203 14.7267L32.7986 12.2853C31.2767 10.1038 32.4816 10.9346 29.9292 10.5921C28.6958 10.4494 28.6387 10.1895 28.6387 10.9663V16.4198L28.6292 16.423ZM35.2908 8.52803C36.2959 7.32319 36.2959 6.00103 36.0359 4.96739C35.6332 3.38841 34.9166 1.92357 32.9635 1.49236C32.304 1.37822 30.668 1.34968 29.7485 1.5209C29.089 1.66358 28.9146 1.69211 28.8004 2.75428C28.7434 3.29963 28.6292 4.56155 28.6292 5.28129V8.61047C28.6292 9.70117 28.6578 9.70117 28.9178 9.81532C29.2634 9.958 29.9514 10.0436 30.2082 10.0436C31.4416 10.1577 33.9401 10.0436 35.2908 8.52169V8.52803Z" fill="#1E1E1C"/>
<path d="M59.803 4.73864C59.803 4.88132 59.6032 4.9701 59.5462 4.73864C59.2291 2.81406 59.4606 2.93137 58.0813 2.29724C55.6114 1.20654 52.9702 0.77533 50.7317 1.95164C48.0906 3.35941 46.9714 6.31445 46.7114 8.87C46.4514 11.4255 46.6258 14.8403 49.9549 17.5386C52.1649 19.3744 54.6634 19.8341 56.8733 19.1461C59.1974 18.458 60.231 16.3337 60.8937 15.3286C61.0649 15.1003 61.2393 15.1289 61.122 15.4713C60.7478 16.8505 60.4339 17.7668 60.3483 18.5151C60.2913 18.9749 60.3769 18.8893 59.3718 19.1461C55.8397 20.037 51.6798 20.7821 47.745 17.7954C45.0468 15.7281 44.2129 12.3704 44.2414 10.2175C44.27 8.29294 45.0151 4.82108 47.8306 2.75382C51.2454 0.255344 54.5777 0.658016 58.4808 1.11776C58.4808 1.11776 59.1403 1.2319 59.543 1.2319C59.9742 1.2319 60.3483 0.914839 60.2881 1.28898C60.2881 1.28898 59.7998 2.35114 59.7998 4.7323L59.803 4.73864Z" fill="#1E1E1C"/>
<path d="M68.072 11.2833L68.1005 15.9347C68.1005 18.3475 68.3003 18.5187 68.5603 18.8041C68.9915 19.2924 69.8793 19.378 70.0537 19.378C70.4849 19.4065 70.4278 19.8377 70.0822 19.8663C70.0822 19.8663 69.1912 19.8092 67.8723 19.8092C67.441 19.8092 64.6572 19.8092 64.0263 19.8663C63.5094 19.8948 63.7092 19.435 63.9406 19.378C64.7745 19.2068 65.2913 19.2068 65.6908 18.747C65.9477 18.4585 66.0079 16.7083 66.0079 14.8439V5.88686C66.0079 3.99081 65.9508 2.26915 65.6908 1.95526C65.2882 1.52405 64.8284 1.43844 63.9977 1.35284C63.5665 1.29576 63.595 0.836019 64.1119 0.864555C64.7428 0.921627 67.441 0.921627 67.8723 0.921627C69.1912 0.921627 70.0822 0.864555 70.0822 0.864555C70.4278 0.893091 70.5134 1.35284 70.0537 1.35284C69.8824 1.35284 68.9915 1.43844 68.5603 1.92672C68.3003 2.21525 68.1291 2.78914 68.1005 4.48227C68.072 5.45883 68.072 9.24775 68.072 9.24775C68.072 9.7931 68.072 9.76457 68.5603 9.76457H80.8466C81.3348 9.76457 81.3063 9.7931 81.3063 9.24775C81.3063 9.24775 81.3063 5.45883 81.2778 4.48227C81.2778 2.78914 81.1066 2.21525 80.8466 1.92672C80.4153 1.43844 79.4959 1.35284 79.3532 1.35284C78.8934 1.35284 78.979 0.893091 79.3246 0.864555C79.3246 0.864555 80.2156 0.921627 81.5346 0.921627C81.9658 0.921627 84.5784 0.864555 85.2094 0.864555C85.8403 0.864555 85.6976 1.29576 85.3235 1.35284C84.4896 1.43844 84.0901 1.52405 83.716 1.95526C83.4592 2.27232 83.3989 3.99399 83.3989 5.88686V14.8439C83.3989 19.4097 84.2043 19.2353 85.3806 19.3811C85.6374 19.4097 85.8118 19.898 85.295 19.8694C84.664 19.8124 81.9658 19.8124 81.5346 19.8124C80.2156 19.8124 79.3246 19.8694 79.3246 19.8694C78.979 19.8409 78.8934 19.3811 79.3532 19.3811C79.4959 19.3811 80.4153 19.2955 80.8466 18.8073C81.1066 18.5187 81.2778 18.3475 81.2778 15.9378L81.3063 11.2865C81.3063 10.6841 81.3063 10.7411 80.8466 10.7411H68.5603C68.072 10.7411 68.072 10.6841 68.072 11.2865V11.2833Z" fill="#1E1E1C"/>
<path d="M90.6628 1.92672C90.2887 1.38137 88.5956 1.35284 88.4244 1.35284C87.9646 1.35284 88.0502 0.893091 88.4244 0.864555C88.4244 0.864555 90.0319 0.921627 91.354 0.921627C91.7853 0.921627 95.2 0.893091 95.8025 0.864555C96.3193 0.836019 96.3193 1.29576 95.9166 1.35284C95.0827 1.43844 93.992 1.3243 93.5323 2.0694C93.2437 2.61475 93.2437 3.99399 93.2437 5.88686V14.8439C93.2437 18.747 94.1632 18.9785 95.999 19.3811C96.1988 19.4382 96.4017 19.898 95.8849 19.8694C95.2825 19.8124 91.7789 19.8124 91.3477 19.8124C90.0287 19.8124 88.3895 19.8694 88.3895 19.8694C88.0153 19.8694 88.0439 19.3811 88.418 19.3811C88.5607 19.3811 90.2253 19.2385 90.685 18.7502C90.945 18.4617 91.1162 18.3475 91.1162 14.3018V6.03271C91.1448 2.38647 90.9736 2.415 90.6565 1.92672H90.6628Z" fill="#1E1E1C"/>
<path d="M116.729 0.921294C117.677 0.94983 117.648 0.921294 118.967 0.864222C119.513 0.835686 119.342 1.32397 119.11 1.3525C117.617 1.49518 117.331 2.12614 116.298 4.31072C116.298 4.31072 112.021 13.4105 110.213 17.1709C109.611 18.3757 109.008 20.4715 109.008 20.4715C108.923 20.8171 108.78 20.703 108.72 20.5571L100.854 3.59098C100.108 1.95493 99.2174 1.63786 98.1267 1.3525C97.927 1.29543 97.9555 0.892758 98.1838 0.864222C98.5009 0.835686 99.7057 0.921294 101.025 0.921294C102.432 0.921294 103.954 0.864222 104.557 0.864222C104.814 0.864222 104.814 1.3525 104.528 1.3525C103.897 1.38104 103.006 1.52372 102.807 1.98346C102.607 2.47174 103.323 3.73366 103.58 4.33608L109.148 16.5653C109.376 17.0821 109.436 16.9394 109.75 16.2767L115.033 4.59291C115.033 4.56437 115.867 2.55418 115.607 2.12297C115.347 1.60615 114.63 1.34933 114.142 1.34933C113.825 1.34933 113.71 0.861051 114.142 0.861051C114.544 0.861051 115.721 0.889587 116.726 0.918123L116.729 0.921294Z" fill="#1E1E1C"/>
<path d="M123.819 1.92672C123.444 1.38137 121.751 1.35284 121.58 1.35284C121.12 1.35284 121.206 0.893091 121.58 0.864555C121.58 0.864555 123.188 0.921627 124.51 0.921627C124.941 0.921627 128.356 0.893091 128.958 0.864555C129.475 0.836019 129.475 1.29576 129.072 1.35284C128.238 1.43844 127.148 1.3243 126.688 2.0694C126.4 2.61475 126.4 3.99399 126.4 5.88686V14.8439C126.4 18.747 127.319 18.9785 129.155 19.3811C129.355 19.4382 129.557 19.898 129.041 19.8694C128.438 19.8124 124.935 19.8124 124.503 19.8124C123.184 19.8124 121.545 19.8694 121.545 19.8694C121.171 19.8694 121.2 19.3811 121.574 19.3811C121.716 19.3811 123.381 19.2385 123.841 18.7502C124.101 18.4617 124.272 18.3475 124.272 14.3018V6.03271C124.301 2.38647 124.129 2.415 123.812 1.92672H123.819Z" fill="#1E1E1C"/>
<path d="M149.396 4.36485C151.692 7.12015 151.98 10.5381 151.118 13.2934C150.084 16.6511 147.931 18.7184 144.574 19.6379C141.79 20.383 138.115 20.1547 135.214 17.6848C132.544 15.4177 131.425 11.9998 131.77 9.33009C132.173 6.17212 133.781 3.09976 137.338 1.49225C138.6 0.946894 139.751 0.804215 140.87 0.747143C143.454 0.633 147.015 1.49225 149.396 4.36485ZM133.781 9.1018C133.752 12.1171 134.871 15.4177 138.432 17.7989C140.902 19.4349 143.255 19.5491 145.436 18.6328C147.963 17.5421 149.139 14.8438 149.428 12.9763C149.773 10.9661 149.082 6.34651 146.07 3.64512C143.718 1.57785 141.362 1.11811 139.095 1.74907C138.407 1.94882 137.687 2.23735 137.027 2.66856C134.443 4.24754 133.812 7.00283 133.784 9.09863L133.781 9.1018Z" fill="#1E1E1C"/>
<path d="M2.60122 19.7775C1.6532 19.7489 1.68173 19.7775 0.362741 19.8345C-0.182611 19.8631 -0.0113958 19.3748 0.220062 19.3463C1.71344 19.2036 1.9988 18.5726 3.03243 16.3881C3.03243 16.3881 7.30964 7.28829 9.11691 3.5279C9.71933 2.32305 10.3218 0.227252 10.3218 0.227252C10.4074 -0.118349 10.55 -0.00420559 10.6103 0.141644L18.4767 17.1078C19.2218 18.7438 20.1127 19.0609 21.2034 19.3463C21.4032 19.4033 21.3746 19.806 21.1464 19.8345C20.8293 19.8631 19.6244 19.7775 18.3055 19.7775C16.8977 19.7775 15.3758 19.8345 14.7733 19.8345C14.5165 19.8345 14.5165 19.3463 14.8019 19.3463C15.4328 19.3177 16.3238 19.1751 16.5235 18.7153C16.7233 18.227 16.0067 16.9651 15.7499 16.3627L10.1791 4.13349C9.95079 3.61668 9.89055 3.75935 9.57665 4.42202L4.29435 16.1027C4.29435 16.1312 3.46047 18.1414 3.72046 18.5726C3.98045 19.0894 4.69702 19.3463 5.1853 19.3463C5.50237 19.3463 5.61651 19.8345 5.1853 19.8345C4.78263 19.8345 3.60632 19.806 2.60122 19.7775Z" fill="#1E1E1C"/>
<path d="M21.8057 35.9319H17.4746V29.8633H21.7328V30.5291H18.3117V32.4188H21.2921V33.0751H18.3117V35.2661H21.8089V35.9319H21.8057Z" fill="#1E1E1C"/>
<path d="M28.5435 29.8633V35.9319H27.5194L24.8687 31.8164C24.6626 31.4867 24.4914 31.2045 24.3519 30.9476H24.3044C24.3139 31.2774 24.3234 31.8449 24.3234 32.6503V35.9319H23.4863V29.8633H24.5485L27.1136 33.8298C27.3387 34.1595 27.5257 34.4702 27.6779 34.7524H27.7255C27.716 34.0327 27.7065 33.3859 27.7065 32.8088V29.8633H28.5435Z" fill="#1E1E1C"/>
<path d="M35.2337 30.6619C35.7315 31.258 35.9852 32.0031 35.9852 32.8972C35.9852 33.7914 35.7315 34.5396 35.2337 35.1326C34.7359 35.7255 34.013 36.0298 33.0808 36.0298C32.1487 36.0298 31.4258 35.7286 30.928 35.1326C30.4302 34.5365 30.186 33.7914 30.186 32.8972C30.186 32.0031 30.4302 31.2549 30.928 30.6619C31.4258 30.069 32.1487 29.7646 33.0808 29.7646C34.013 29.7646 34.7359 30.0659 35.2337 30.6619ZM34.6028 34.6538C34.9515 34.1845 35.1291 33.598 35.1291 32.8972C35.1291 32.1965 34.9515 31.6005 34.6028 31.1312C34.254 30.6619 33.7467 30.4305 33.0808 30.4305C32.415 30.4305 31.9172 30.6619 31.5684 31.1312C31.2197 31.6005 31.0421 32.187 31.0421 32.8972C31.0421 33.6075 31.2197 34.1845 31.5684 34.6538C31.9172 35.123 32.415 35.3545 33.0808 35.3545C33.7467 35.3545 34.2572 35.123 34.6028 34.6538Z" fill="#1E1E1C"/>
<path d="M41.8953 30.5291H39.771V35.9319H38.9339V30.5291H36.8477V29.8633H41.8953V30.5291Z" fill="#1E1E1C"/>
<path d="M47.4849 35.9319H43.1538V29.8633H47.412V30.5291H43.9909V32.4188H46.9713V33.0751H43.9909V35.2661H47.4881V35.9319H47.4849Z" fill="#1E1E1C"/>
<path d="M53.5282 35.6747C52.8877 35.9157 52.2599 36.0298 51.6385 36.0298C50.7919 36.0298 50.0975 35.773 49.5617 35.2657C49.0259 34.7616 48.7627 33.9689 48.7627 32.8972C48.7627 32.3392 48.8388 31.8414 48.9973 31.4229C49.1559 31.0044 49.3841 30.6778 49.6536 30.4463C49.9263 30.2149 50.218 30.0373 50.5383 29.9327C50.8585 29.8249 51.2136 29.7646 51.5814 29.7646C52.2853 29.7646 52.9353 29.9327 53.544 30.272L53.3189 30.8744C52.7641 30.5827 52.1902 30.44 51.6163 30.44C51.0424 30.44 50.5541 30.6366 50.1768 31.0171C49.7995 31.3975 49.6124 32.019 49.6124 32.8972C49.6124 33.7755 49.809 34.3875 50.1958 34.7774C50.5827 35.1674 51.0804 35.364 51.7082 35.364C52.187 35.364 52.7323 35.2562 53.3538 35.0533L53.5218 35.6747H53.5282Z" fill="#1E1E1C"/>
<path d="M59.0039 35.9319L58.4014 34.299H55.8078L55.2149 35.9319H54.3208L56.6417 29.8633H57.5612L59.8821 35.9319H58.9975H59.0039ZM57.558 31.8671C57.3615 31.3091 57.2093 30.8811 57.1268 30.5703H57.0793L56.6481 31.8576L56.0076 33.6776H58.1985L57.558 31.8671Z" fill="#1E1E1C"/>
<path d="M68.5067 35.8079V35.9316H67.6696L66.9182 35.1072C66.4204 35.7191 65.7799 36.0298 64.9999 36.0298C64.369 36.0298 63.8617 35.8713 63.5065 35.5511C63.1514 35.2308 62.9707 34.8409 62.9707 34.3811C62.9707 34.0165 63.0944 33.655 63.3385 33.3063C63.5826 32.9607 63.9504 32.6753 64.4197 32.4534C63.9314 31.9556 63.6873 31.4768 63.6873 31.0075C63.6873 30.6429 63.8363 30.3417 64.128 30.1102C64.4197 29.8788 64.7748 29.7646 65.1997 29.7646C65.6594 29.7646 66.0367 29.8788 66.3284 30.1293C66.6201 30.3766 66.7596 30.6778 66.7596 31.0266C66.7596 31.3183 66.6455 31.6036 66.4394 31.8795C66.2333 32.1553 65.9131 32.3931 65.4914 32.5897L66.9213 34.1148L67.7489 33.0938L68.2276 33.468L67.3525 34.5872L68.5098 35.8111L68.5067 35.8079ZM64.8604 32.9068C64.5021 33.0748 64.2295 33.2809 64.0424 33.5377C63.8553 33.7945 63.7602 34.0609 63.7602 34.3367C63.7602 34.6474 63.8743 34.9043 64.0995 35.1167C64.3246 35.3291 64.6353 35.4369 65.0285 35.4465C65.5833 35.4465 66.0621 35.1801 66.4679 34.6379L64.8604 32.9068ZM64.6353 30.4654C64.4863 30.589 64.4197 30.7666 64.4197 30.979C64.4197 31.3341 64.6258 31.7241 65.0506 32.1585C65.3804 32.0063 65.6245 31.8287 65.7831 31.6258C65.9416 31.4229 66.0272 31.2168 66.0272 31.0139C66.0272 30.811 65.9511 30.6334 65.8021 30.4907C65.6531 30.348 65.4533 30.2783 65.2187 30.2783C64.9841 30.2783 64.7875 30.3417 64.6353 30.4654Z" fill="#1E1E1C"/>
<path d="M76.6517 35.6747C76.0112 35.9157 75.3835 36.0298 74.762 36.0298C73.9154 36.0298 73.2211 35.773 72.6852 35.2657C72.1494 34.7616 71.8862 33.9689 71.8862 32.8972C71.8862 32.3392 71.9623 31.8414 72.1209 31.4229C72.2794 31.0044 72.5077 30.6778 72.7772 30.4463C73.0499 30.2149 73.3416 30.0373 73.6618 29.9327C73.982 29.8249 74.3371 29.7646 74.7049 29.7646C75.4088 29.7646 76.0588 29.9327 76.6676 30.272L76.4425 30.8744C75.8876 30.5827 75.3137 30.44 74.7398 30.44C74.1659 30.44 73.6776 30.6366 73.3035 31.0171C72.9262 31.3975 72.7391 32.019 72.7391 32.8972C72.7391 33.7755 72.9357 34.3875 73.3225 34.7774C73.7094 35.1674 74.2071 35.364 74.8349 35.364C75.3137 35.364 75.8591 35.2562 76.4805 35.0533L76.6485 35.6747H76.6517Z" fill="#1E1E1C"/>
<path d="M82.8631 30.6619C83.3609 31.258 83.6146 32.0031 83.6146 32.8972C83.6146 33.7914 83.3609 34.5396 82.8631 35.1326C82.3653 35.7255 81.6424 36.0298 80.7102 36.0298C79.7781 36.0298 79.0552 35.7286 78.5574 35.1326C78.0596 34.5365 77.8154 33.7914 77.8154 32.8972C77.8154 32.0031 78.0596 31.2549 78.5574 30.6619C79.0552 30.069 79.7781 29.7646 80.7102 29.7646C81.6424 29.7646 82.3653 30.0659 82.8631 30.6619ZM82.2321 34.6538C82.5809 34.1845 82.7585 33.598 82.7585 32.8972C82.7585 32.1965 82.5809 31.6005 82.2321 31.1312C81.8834 30.6619 81.3761 30.4305 80.7102 30.4305C80.0444 30.4305 79.5434 30.6619 79.1978 31.1312C78.8491 31.6005 78.6715 32.187 78.6715 32.8972C78.6715 33.6075 78.8491 34.1845 79.1978 34.6538C79.5466 35.123 80.0444 35.3545 80.7102 35.3545C81.3761 35.3545 81.8834 35.123 82.2321 34.6538Z" fill="#1E1E1C"/>
<path d="M89.6166 35.6747C88.9761 35.9157 88.3483 36.0298 87.7269 36.0298C86.8803 36.0298 86.1859 35.773 85.6501 35.2657C85.1142 34.7616 84.8511 33.9689 84.8511 32.8972C84.8511 32.3392 84.9272 31.8414 85.0857 31.4229C85.2442 31.0044 85.4725 30.6778 85.742 30.4463C86.0147 30.2149 86.3064 30.0373 86.6266 29.9327C86.9469 29.8249 87.302 29.7646 87.6698 29.7646C88.3737 29.7646 89.0237 29.9327 89.6324 30.272L89.4073 30.8744C88.8524 30.5827 88.2785 30.44 87.7047 30.44C87.1308 30.44 86.6425 30.6366 86.2684 31.0171C85.891 31.3975 85.704 32.019 85.704 32.8972C85.704 33.7755 85.9006 34.3875 86.2874 34.7774C86.6742 35.1674 87.172 35.364 87.7998 35.364C88.2786 35.364 88.8239 35.2562 89.4453 35.0533L89.6134 35.6747H89.6166Z" fill="#1E1E1C"/>
<path d="M95.9991 35.9319H94.9369L92.0706 32.7898H92.0231V35.9319H91.186V29.8633H92.0231V32.6756H92.0706L94.8259 29.8633H95.8596L92.9838 32.7295L95.9991 35.9319Z" fill="#1E1E1C"/>
<path d="M101.532 30.5291H99.4077V35.9319H98.5707V30.5291H96.4844V29.8633H101.532V30.5291Z" fill="#1E1E1C"/>
<path d="M106.7 35.9319L106.098 34.299H103.504L102.911 35.9319H102.017L104.338 29.8633H105.257L107.578 35.9319H106.694H106.7ZM105.254 31.8671C105.058 31.3091 104.906 30.8811 104.823 30.5703H104.776L104.344 31.8576L103.704 33.6776H105.895L105.254 31.8671Z" fill="#1E1E1C"/>
<path d="M108.859 29.8633H109.696V35.9319H108.859V29.8633Z" fill="#1E1E1C"/>
<path d="M115.626 35.9319H111.745V29.8633H112.582V35.2502H115.626V35.9319Z" fill="#1E1E1C"/>
<path d="M121.707 29.8635C122.3 29.8635 122.75 30.0062 123.07 30.3074C123.391 30.6086 123.54 30.9637 123.54 31.3728C123.54 31.6486 123.464 31.9054 123.315 32.1432C123.166 32.381 122.956 32.5522 122.684 32.6474V32.6917C123.08 32.771 123.387 32.9486 123.603 33.2339C123.819 33.5193 123.933 33.8363 123.933 34.201C123.933 34.6607 123.746 35.0697 123.387 35.4153C123.029 35.7609 122.522 35.929 121.866 35.929H119.253V29.8604H121.707V29.8635ZM121.678 32.4444C121.999 32.4444 122.252 32.3461 122.43 32.1527C122.607 31.9562 122.703 31.7279 122.703 31.4615C122.703 31.1952 122.617 30.9637 122.43 30.7798C122.243 30.5928 121.989 30.4945 121.659 30.4945H120.09V32.4476H121.678V32.4444ZM121.793 35.3202C122.195 35.3202 122.506 35.2061 122.731 34.9841C122.956 34.7622 123.061 34.4958 123.061 34.1851C123.061 33.8744 122.947 33.5985 122.722 33.3766C122.497 33.1547 122.176 33.0405 121.774 33.0405H120.09V35.3202H121.789H121.793Z" fill="#1E1E1C"/>
<path d="M129.412 35.9319L128.809 34.299H126.216L125.623 35.9319H124.729L127.049 29.8633H127.969L130.29 35.9319H129.405H129.412ZM127.966 31.8671C127.769 31.3091 127.617 30.8811 127.535 30.5703H127.487L127.056 31.8576L126.415 33.6776H128.606L127.966 31.8671Z" fill="#1E1E1C"/>
<path d="M135.537 30.3957C135.876 30.7508 136.044 31.1852 136.044 31.6925C136.044 32.0825 135.93 32.4376 135.696 32.7578C135.461 33.0781 135.131 33.2905 134.709 33.4047C135.001 33.8581 135.198 34.1846 135.302 34.3812L136.206 35.9348H135.229L133.904 33.5125C133.809 33.522 133.679 33.522 133.501 33.522H132.42V35.9348H131.574V29.8662H134.072C134.713 29.8662 135.201 30.0438 135.537 30.3989V30.3957ZM134.871 32.5708C135.087 32.3298 135.201 32.0571 135.201 31.7274C135.201 31.3976 135.096 31.1059 134.881 30.8745C134.665 30.643 134.354 30.5289 133.942 30.5289H132.42V32.9259H133.942C134.345 32.9259 134.656 32.8117 134.871 32.5708Z" fill="#1E1E1C"/>
<path d="M123.888 46.5314H124.028C124.028 46.5314 124.944 46.5061 125.229 46.6931C125.496 46.8675 125.607 47.2892 125.607 47.2892C126.016 49.2677 127.376 49.9969 129.71 50.0001C132.446 50.0001 135.965 48.7128 135.968 46.5314" fill="#1E1E1C"/>
<path d="M21.5808 46.5594H20.0621C19.7165 46.5594 19.3899 46.7084 19.1648 46.9716L17.9187 48.4269C17.6904 48.6933 17.2877 48.725 17.0214 48.4998L16.9263 48.4174C16.7836 48.2969 16.7012 48.1194 16.7012 47.9291V45.6621" fill="#1E1E1C"/>
<path d="M21.5808 46.5562H20.0621C19.7165 46.5562 19.3899 46.4072 19.1648 46.144L17.9187 44.6887C17.6904 44.4223 17.2877 44.3906 17.0214 44.6157L16.9263 44.6982C16.7836 44.8187 16.7012 44.9962 16.7012 45.1865V47.4535" fill="#1E1E1C"/>
<path d="M21.3079 47.3081C21.7071 47.3081 22.0308 46.9845 22.0308 46.5852C22.0308 46.186 21.7071 45.8623 21.3079 45.8623C20.9086 45.8623 20.585 46.186 20.585 46.5852C20.585 46.9845 20.9086 47.3081 21.3079 47.3081Z" fill="#1E1E1C"/>
<path d="M23.9207 47.3081C24.3199 47.3081 24.6436 46.9845 24.6436 46.5852C24.6436 46.186 24.3199 45.8623 23.9207 45.8623C23.5214 45.8623 23.1978 46.186 23.1978 46.5852C23.1978 46.9845 23.5214 47.3081 23.9207 47.3081Z" fill="#1E1E1C"/>
<path d="M26.5335 47.3081C26.9327 47.3081 27.2564 46.9845 27.2564 46.5852C27.2564 46.186 26.9327 45.8623 26.5335 45.8623C26.1342 45.8623 25.8105 46.186 25.8105 46.5852C25.8105 46.9845 26.1342 47.3081 26.5335 47.3081Z" fill="#1E1E1C"/>
<path d="M29.1458 47.3081C29.545 47.3081 29.8687 46.9845 29.8687 46.5852C29.8687 46.186 29.545 45.8623 29.1458 45.8623C28.7465 45.8623 28.4229 46.186 28.4229 46.5852C28.4229 46.9845 28.7465 47.3081 29.1458 47.3081Z" fill="#1E1E1C"/>
<path d="M31.7586 47.3081C32.1578 47.3081 32.4815 46.9845 32.4815 46.5852C32.4815 46.186 32.1578 45.8623 31.7586 45.8623C31.3593 45.8623 31.0356 46.186 31.0356 46.5852C31.0356 46.9845 31.3593 47.3081 31.7586 47.3081Z" fill="#1E1E1C"/>
<path d="M34.3713 47.3081C34.7706 47.3081 35.0943 46.9845 35.0943 46.5852C35.0943 46.186 34.7706 45.8623 34.3713 45.8623C33.9721 45.8623 33.6484 46.186 33.6484 46.5852C33.6484 46.9845 33.9721 47.3081 34.3713 47.3081Z" fill="#1E1E1C"/>
<path d="M36.9837 47.3081C37.3829 47.3081 37.7066 46.9845 37.7066 46.5852C37.7066 46.186 37.3829 45.8623 36.9837 45.8623C36.5844 45.8623 36.2607 46.186 36.2607 46.5852C36.2607 46.9845 36.5844 47.3081 36.9837 47.3081Z" fill="#1E1E1C"/>
<path d="M39.5964 47.3081C39.9957 47.3081 40.3194 46.9845 40.3194 46.5852C40.3194 46.186 39.9957 45.8623 39.5964 45.8623C39.1972 45.8623 38.8735 46.186 38.8735 46.5852C38.8735 46.9845 39.1972 47.3081 39.5964 47.3081Z" fill="#1E1E1C"/>
<path d="M42.2087 47.3081C42.608 47.3081 42.9317 46.9845 42.9317 46.5852C42.9317 46.186 42.608 45.8623 42.2087 45.8623C41.8095 45.8623 41.4858 46.186 41.4858 46.5852C41.4858 46.9845 41.8095 47.3081 42.2087 47.3081Z" fill="#1E1E1C"/>
<path d="M44.8215 47.3081C45.2208 47.3081 45.5444 46.9845 45.5444 46.5852C45.5444 46.186 45.2208 45.8623 44.8215 45.8623C44.4223 45.8623 44.0986 46.186 44.0986 46.5852C44.0986 46.9845 44.4223 47.3081 44.8215 47.3081Z" fill="#1E1E1C"/>
<path d="M47.4343 47.3081C47.8336 47.3081 48.1572 46.9845 48.1572 46.5852C48.1572 46.186 47.8336 45.8623 47.4343 45.8623C47.0351 45.8623 46.7114 46.186 46.7114 46.5852C46.7114 46.9845 47.0351 47.3081 47.4343 47.3081Z" fill="#1E1E1C"/>
<path d="M50.0466 47.3081C50.4459 47.3081 50.7695 46.9845 50.7695 46.5852C50.7695 46.186 50.4459 45.8623 50.0466 45.8623C49.6474 45.8623 49.3237 46.186 49.3237 46.5852C49.3237 46.9845 49.6474 47.3081 50.0466 47.3081Z" fill="#1E1E1C"/>
<path d="M52.6594 47.3081C53.0587 47.3081 53.3823 46.9845 53.3823 46.5852C53.3823 46.186 53.0587 45.8623 52.6594 45.8623C52.2602 45.8623 51.9365 46.186 51.9365 46.5852C51.9365 46.9845 52.2602 47.3081 52.6594 47.3081Z" fill="#1E1E1C"/>
<path d="M55.2722 47.3081C55.6715 47.3081 55.9951 46.9845 55.9951 46.5852C55.9951 46.186 55.6715 45.8623 55.2722 45.8623C54.873 45.8623 54.5493 46.186 54.5493 46.5852C54.5493 46.9845 54.873 47.3081 55.2722 47.3081Z" fill="#1E1E1C"/>
<path d="M57.8879 47.3081C58.2872 47.3081 58.6109 46.9845 58.6109 46.5852C58.6109 46.186 58.2872 45.8623 57.8879 45.8623C57.4887 45.8623 57.165 46.186 57.165 46.5852C57.165 46.9845 57.4887 47.3081 57.8879 47.3081Z" fill="#1E1E1C"/>
<path d="M60.5003 47.3081C60.8995 47.3081 61.2232 46.9845 61.2232 46.5852C61.2232 46.186 60.8995 45.8623 60.5003 45.8623C60.101 45.8623 59.7773 46.186 59.7773 46.5852C59.7773 46.9845 60.101 47.3081 60.5003 47.3081Z" fill="#1E1E1C"/>
<path d="M63.113 47.3081C63.5123 47.3081 63.836 46.9845 63.836 46.5852C63.836 46.186 63.5123 45.8623 63.113 45.8623C62.7138 45.8623 62.3901 46.186 62.3901 46.5852C62.3901 46.9845 62.7138 47.3081 63.113 47.3081Z" fill="#1E1E1C"/>
<path d="M65.7253 47.3081C66.1246 47.3081 66.4483 46.9845 66.4483 46.5852C66.4483 46.186 66.1246 45.8623 65.7253 45.8623C65.3261 45.8623 65.0024 46.186 65.0024 46.5852C65.0024 46.9845 65.3261 47.3081 65.7253 47.3081Z" fill="#1E1E1C"/>
<path d="M68.3381 47.3081C68.7374 47.3081 69.0611 46.9845 69.0611 46.5852C69.0611 46.186 68.7374 45.8623 68.3381 45.8623C67.9389 45.8623 67.6152 46.186 67.6152 46.5852C67.6152 46.9845 67.9389 47.3081 68.3381 47.3081Z" fill="#1E1E1C"/>
<path d="M70.9509 47.3081C71.3502 47.3081 71.6738 46.9845 71.6738 46.5852C71.6738 46.186 71.3502 45.8623 70.9509 45.8623C70.5517 45.8623 70.228 46.186 70.228 46.5852C70.228 46.9845 70.5517 47.3081 70.9509 47.3081Z" fill="#1E1E1C"/>
<path d="M73.5637 47.3081C73.963 47.3081 74.2866 46.9845 74.2866 46.5852C74.2866 46.186 73.963 45.8623 73.5637 45.8623C73.1645 45.8623 72.8408 46.186 72.8408 46.5852C72.8408 46.9845 73.1645 47.3081 73.5637 47.3081Z" fill="#1E1E1C"/>
<path d="M76.176 47.3081C76.5753 47.3081 76.8989 46.9845 76.8989 46.5852C76.8989 46.186 76.5753 45.8623 76.176 45.8623C75.7768 45.8623 75.4531 46.186 75.4531 46.5852C75.4531 46.9845 75.7768 47.3081 76.176 47.3081Z" fill="#1E1E1C"/>
<path d="M78.7888 47.3081C79.1881 47.3081 79.5117 46.9845 79.5117 46.5852C79.5117 46.186 79.1881 45.8623 78.7888 45.8623C78.3896 45.8623 78.0659 46.186 78.0659 46.5852C78.0659 46.9845 78.3896 47.3081 78.7888 47.3081Z" fill="#1E1E1C"/>
<path d="M81.4011 47.3081C81.8004 47.3081 82.124 46.9845 82.124 46.5852C82.124 46.186 81.8004 45.8623 81.4011 45.8623C81.0019 45.8623 80.6782 46.186 80.6782 46.5852C80.6782 46.9845 81.0019 47.3081 81.4011 47.3081Z" fill="#1E1E1C"/>
<path d="M84.0139 47.3081C84.4132 47.3081 84.7368 46.9845 84.7368 46.5852C84.7368 46.186 84.4132 45.8623 84.0139 45.8623C83.6147 45.8623 83.291 46.186 83.291 46.5852C83.291 46.9845 83.6147 47.3081 84.0139 47.3081Z" fill="#1E1E1C"/>
<path d="M86.6267 47.3081C87.026 47.3081 87.3496 46.9845 87.3496 46.5852C87.3496 46.186 87.026 45.8623 86.6267 45.8623C86.2275 45.8623 85.9038 46.186 85.9038 46.5852C85.9038 46.9845 86.2275 47.3081 86.6267 47.3081Z" fill="#1E1E1C"/>
<path d="M89.239 47.3081C89.6383 47.3081 89.9619 46.9845 89.9619 46.5852C89.9619 46.186 89.6383 45.8623 89.239 45.8623C88.8398 45.8623 88.5161 46.186 88.5161 46.5852C88.5161 46.9845 88.8398 47.3081 89.239 47.3081Z" fill="#1E1E1C"/>
<path d="M91.8518 47.3081C92.2511 47.3081 92.5747 46.9845 92.5747 46.5852C92.5747 46.186 92.2511 45.8623 91.8518 45.8623C91.4526 45.8623 91.1289 46.186 91.1289 46.5852C91.1289 46.9845 91.4526 47.3081 91.8518 47.3081Z" fill="#1E1E1C"/>
<path d="M94.4646 47.3081C94.8639 47.3081 95.1875 46.9845 95.1875 46.5852C95.1875 46.186 94.8639 45.8623 94.4646 45.8623C94.0654 45.8623 93.7417 46.186 93.7417 46.5852C93.7417 46.9845 94.0654 47.3081 94.4646 47.3081Z" fill="#1E1E1C"/>
<path d="M97.0769 47.3081C97.4762 47.3081 97.7998 46.9845 97.7998 46.5852C97.7998 46.186 97.4762 45.8623 97.0769 45.8623C96.6777 45.8623 96.354 46.186 96.354 46.5852C96.354 46.9845 96.6777 47.3081 97.0769 47.3081Z" fill="#1E1E1C"/>
<path d="M99.6897 47.3081C100.089 47.3081 100.413 46.9845 100.413 46.5852C100.413 46.186 100.089 45.8623 99.6897 45.8623C99.2905 45.8623 98.9668 46.186 98.9668 46.5852C98.9668 46.9845 99.2905 47.3081 99.6897 47.3081Z" fill="#1E1E1C"/>
<path d="M102.305 47.3081C102.705 47.3081 103.028 46.9845 103.028 46.5852C103.028 46.186 102.705 45.8623 102.305 45.8623C101.906 45.8623 101.583 46.186 101.583 46.5852C101.583 46.9845 101.906 47.3081 102.305 47.3081Z" fill="#1E1E1C"/>
<path d="M104.918 47.3081C105.317 47.3081 105.641 46.9845 105.641 46.5852C105.641 46.186 105.317 45.8623 104.918 45.8623C104.519 45.8623 104.195 46.186 104.195 46.5852C104.195 46.9845 104.519 47.3081 104.918 47.3081Z" fill="#1E1E1C"/>
<path d="M107.531 47.3081C107.93 47.3081 108.253 46.9845 108.253 46.5852C108.253 46.186 107.93 45.8623 107.531 45.8623C107.131 45.8623 106.808 46.186 106.808 46.5852C106.808 46.9845 107.131 47.3081 107.531 47.3081Z" fill="#1E1E1C"/>
<path d="M110.143 47.3081C110.543 47.3081 110.866 46.9845 110.866 46.5852C110.866 46.186 110.543 45.8623 110.143 45.8623C109.744 45.8623 109.42 46.186 109.42 46.5852C109.42 46.9845 109.744 47.3081 110.143 47.3081Z" fill="#1E1E1C"/>
<path d="M112.756 47.3081C113.155 47.3081 113.479 46.9845 113.479 46.5852C113.479 46.186 113.155 45.8623 112.756 45.8623C112.357 45.8623 112.033 46.186 112.033 46.5852C112.033 46.9845 112.357 47.3081 112.756 47.3081Z" fill="#1E1E1C"/>
<path d="M115.368 47.3081C115.768 47.3081 116.091 46.9845 116.091 46.5852C116.091 46.186 115.768 45.8623 115.368 45.8623C114.969 45.8623 114.646 46.186 114.646 46.5852C114.646 46.9845 114.969 47.3081 115.368 47.3081Z" fill="#1E1E1C"/>
<path d="M117.981 47.3081C118.38 47.3081 118.704 46.9845 118.704 46.5852C118.704 46.186 118.38 45.8623 117.981 45.8623C117.582 45.8623 117.258 46.186 117.258 46.5852C117.258 46.9845 117.582 47.3081 117.981 47.3081Z" fill="#1E1E1C"/>
<path d="M120.594 47.3081C120.993 47.3081 121.317 46.9845 121.317 46.5852C121.317 46.186 120.993 45.8623 120.594 45.8623C120.195 45.8623 119.871 46.186 119.871 46.5852C119.871 46.9845 120.195 47.3081 120.594 47.3081Z" fill="#1E1E1C"/>
<path d="M123.206 47.3081C123.606 47.3081 123.929 46.9845 123.929 46.5852C123.929 46.186 123.606 45.8623 123.206 45.8623C122.807 45.8623 122.483 46.186 122.483 46.5852C122.483 46.9845 122.807 47.3081 123.206 47.3081Z" fill="#1E1E1C"/>
<path d="M123.888 46.5312H124.028C124.028 46.5312 124.944 46.5566 125.229 46.3695C125.496 46.1951 125.607 45.7734 125.607 45.7734C126.016 43.7949 127.376 43.0657 129.71 43.0625C132.446 43.0625 135.965 44.3466 135.968 46.528" fill="#1E1E1C"/>
</svg>
