<svg width="78" height="50" viewBox="0 0 78 50" fill="none" xmlns="http://www.w3.org/2000/svg">
<path d="M34.0491 4.54397C33.9375 4.31037 33.9131 4.07502 34.0334 3.83444C38.7595 1.78604 43.9528 2.79368 47.3697 6.41978C50.8808 10.1452 51.5066 15.9365 48.8725 20.3192C48.8202 20.4064 48.7574 20.4883 48.6999 20.5738C48.4018 20.4308 48.1019 20.2896 47.8038 20.1466C47.8404 20.0804 47.8753 20.0124 47.9136 19.9462C49.1828 17.6799 49.6779 15.2532 49.2211 12.6975C48.5116 8.72095 46.2052 5.96129 42.5163 4.37138C40.9177 3.68277 39.2354 3.34108 37.4747 3.55202C36.277 3.69497 35.1439 4.04887 34.0508 4.54397H34.0491Z" fill="#E7551B"/>
<path d="M77.2413 37.8588C76.2076 39.7625 73.6048 40.9706 71.5651 40.4947C70.9706 40.357 70.5209 40.0502 70.3709 39.4313C70.3221 39.2256 70.1861 39.2535 70.0554 39.2308C67.803 38.8246 65.5489 38.4202 63.2983 38.0087C62.9549 37.946 62.6167 37.8954 62.2663 37.9233C61.7136 37.9669 61.3894 38.2824 61.3963 38.8438C61.4103 39.9665 61.5986 41.07 61.8182 42.1666C61.8461 42.306 61.8775 42.4455 61.8862 42.5849C61.9124 43.0243 61.6735 43.3886 61.2883 43.5194C60.9239 43.6431 60.6136 43.5194 60.3504 43.1062C59.9145 42.4211 59.7506 41.6418 59.6182 40.8573C59.334 39.1663 59.3392 37.4526 59.2277 35.7494C59.076 33.4395 58.9278 31.1296 58.7849 28.8197C58.7273 27.8818 58.6785 26.9439 58.6367 26.006C58.628 25.816 58.6611 25.6207 58.6925 25.4307C58.7674 24.9775 59.0167 24.6985 59.3741 24.6497C59.8308 24.587 60.1969 24.7927 60.3887 25.2424C60.5683 25.6643 60.6031 26.1193 60.6101 26.5674C60.6572 29.1405 60.8123 31.7101 60.9222 34.2815C60.9361 34.5918 61.0407 34.8603 61.283 35.0573C61.5846 35.3031 61.9159 35.2979 62.2209 35.0399C62.9967 34.3826 63.7673 33.7202 64.6162 33.1571C64.8516 33.0002 65.1026 32.866 65.3763 32.7875C65.6622 32.7056 65.9255 32.7492 66.0859 33.0211C66.2375 33.2756 66.105 33.4831 65.929 33.6749C65.3728 34.285 64.8899 34.9527 64.4576 35.6535C64.088 36.2532 64.1089 36.3038 64.7278 36.6071C65.6413 37.0552 66.635 37.2086 67.62 37.3864C68.4812 37.5415 69.3424 37.7037 70.1251 38.1186C70.4232 38.2772 70.3779 38.0244 70.418 37.9076C70.9375 36.3909 71.8946 35.2473 73.3189 34.5064C74.2027 34.0462 75.036 34.1909 75.8153 34.7662C76.5039 35.2735 76.938 35.9569 77.1611 36.778C77.1768 36.8355 77.1577 36.9105 77.2413 36.9314V37.8588ZM73.291 38.8612C73.9151 38.8142 74.5793 38.5823 75.0849 38.0105C75.4579 37.5886 75.444 37.1179 75.0727 36.649C74.7693 36.2654 74.4172 36.1992 73.9081 36.4659C73.2404 36.8163 72.7994 37.3672 72.5849 38.0889C72.4228 38.6398 72.6059 38.8699 73.291 38.8595V38.8612Z" fill="#3B3837"/>
<path d="M35.7592 25.7861C35.6145 25.9465 35.7348 26.1191 35.7522 26.2794C35.7853 26.5845 35.8603 26.8844 35.9248 27.1842C36.0032 27.5538 35.9318 27.9025 35.7592 28.225C35.3425 29.0042 34.429 29.1193 33.8346 28.4621C33.3499 27.9269 33.1372 27.2505 32.9263 26.5775C32.7258 25.9395 32.6334 25.2805 32.4939 24.6303C32.4748 24.5414 32.4713 24.4507 32.3911 24.3914C32.419 23.9556 32.358 23.5302 32.2499 23.1101C32.2499 22.9183 32.2603 22.7248 32.2481 22.5331C32.1226 20.4794 31.9901 18.4258 31.8663 16.3722C31.6763 13.2133 31.4915 10.0561 31.298 6.89725C31.2911 6.78394 31.3468 6.63053 31.1812 6.56428C31.1708 6.23305 31.162 5.90008 31.1516 5.56885C31.2143 5.47994 31.2178 5.38057 31.2109 5.27423C31.1498 4.37642 31.0975 3.47861 31.033 2.5808C30.9912 2.00028 30.9947 1.42498 31.1638 0.861893C31.3102 0.372022 31.6415 0.0686847 32.1523 0.0128986C32.6962 -0.0481175 33.1669 0.101808 33.4946 0.58122C33.8276 1.06935 33.8973 1.6307 33.9444 2.19379C33.9897 2.73944 34.0071 3.28859 34.035 3.83599C33.9147 4.07482 33.9392 4.31017 34.0507 4.54552C33.988 4.61177 34.0193 4.69022 34.0228 4.76518C34.0786 6.11625 34.1309 7.46557 34.1902 8.81664C34.2756 10.7587 34.3663 12.7008 34.4534 14.6428C34.4691 14.9828 34.5423 15.3035 34.7236 15.5964C35.1281 16.2484 35.9161 16.3826 36.4879 15.8963C36.6744 15.7376 36.8644 15.5842 37.051 15.4256C38.0534 14.5783 39.0366 13.7066 40.1488 13.0006C40.5725 12.7321 41.0066 12.4706 41.5156 12.4009C41.8887 12.3486 42.2129 12.4689 42.3942 12.8193C42.5633 13.1436 42.4675 13.4277 42.2321 13.6997C41.812 14.1861 41.3953 14.6777 41.0118 15.1937C40.4748 15.9137 39.9327 16.6337 39.5701 17.467C39.462 17.7163 39.509 17.8557 39.7479 17.9917C40.6962 18.5339 41.7178 18.8616 42.7778 19.09C44.2596 19.4108 45.7745 19.5659 47.2319 20.007C47.4185 20.0645 47.5876 20.2249 47.809 20.1482C48.1071 20.2911 48.4069 20.4324 48.705 20.5753C48.8863 20.781 49.1478 20.8769 49.3623 21.0373C49.5854 21.2046 49.819 21.3807 49.7196 21.6963C49.6168 22.024 49.3675 22.2315 49.0171 22.2716C48.59 22.3186 48.1716 22.2402 47.7602 22.1286C47.673 22.1042 47.5911 22.0589 47.5091 22.1373C47.1657 21.9072 46.7769 22.0484 46.4108 21.9996C46.2958 21.9508 46.1859 21.8793 46.0674 21.8566C45.1208 21.6788 44.1742 21.5097 43.2258 21.3389C41.6864 21.0582 40.1471 20.7723 38.606 20.5003C37.9122 20.3783 37.227 20.1918 36.5088 20.2458C35.7574 20.3016 35.2257 20.7618 35.2048 21.5028C35.1734 22.6481 35.2989 23.7848 35.5325 24.9075C35.4663 25.2404 35.7592 25.4775 35.7661 25.7896L35.7592 25.7861Z" fill="#3B3837"/>
<path d="M9.82716 41.9272C9.81496 42.3683 9.43317 42.8425 9.0479 42.9663C8.6818 43.0848 8.30873 42.9471 8.04201 42.588C7.83455 42.3073 7.71949 41.9795 7.587 41.6605C7.47543 41.3886 7.3778 41.1114 7.25228 40.8464C6.98556 40.285 6.56367 39.9712 5.90819 40.0201C5.4096 40.0567 4.90752 39.9782 4.40894 40.0915C3.86328 40.2153 3.5059 40.5186 3.40827 41.0713C3.28624 41.7651 3.22871 42.4694 3.08053 43.1563C2.9184 43.9181 2.29778 44.1953 1.65973 43.8466C1.45401 43.7351 1.30583 43.5799 1.29014 43.3411C1.25005 42.7309 0.937993 42.2515 0.571897 41.793C0.467298 41.6623 0.362699 41.5315 0.265074 41.3955C-0.107996 40.8778 -0.0905629 40.6407 0.338293 40.1857C1.20821 39.26 1.48539 38.1216 1.54118 36.896C1.6144 35.3026 1.72946 33.7127 2.15657 32.1647C2.25943 31.7916 2.39366 31.4307 2.63598 31.1222C2.84867 30.852 3.08053 30.7665 3.43791 30.9304C4.78026 31.5493 5.76 32.5203 6.3876 33.8452C7.58003 36.3643 8.76199 38.8869 9.69467 41.5176C9.75045 41.6727 9.79578 41.8314 9.82367 41.9255L9.82716 41.9272ZM3.88071 33.8383C3.79877 35.1736 3.72033 36.4184 3.65059 37.6614C3.62444 38.139 3.74822 38.3081 4.21717 38.4267C4.64603 38.5348 5.08708 38.5191 5.51768 38.4476C5.90296 38.3848 5.98838 38.2018 5.92911 37.813C5.8646 37.3911 5.73734 36.9902 5.55952 36.6084C5.11672 35.6531 4.53097 34.7831 3.88245 33.8383H3.88071Z" fill="#3B3837"/>
<path d="M36.1895 37.6772C36.1895 36.9833 36.1825 36.2877 36.1912 35.5939C36.1999 34.9088 36.9443 34.2045 37.626 34.2515C37.9589 34.2742 38.2431 34.4119 38.3895 34.7501C39.4442 37.2012 41.4438 38.5715 43.8339 39.4902C44.2139 39.6366 44.5051 39.335 44.4144 38.88C44.2715 38.1635 43.9978 37.4836 43.8025 36.7811C43.5306 35.8048 43.2447 34.8303 43.3057 33.7983C43.3231 33.5124 43.3545 33.23 43.48 32.9737C43.6334 32.6616 43.8496 32.6198 44.1407 32.8133C44.3464 32.9493 44.4667 33.1393 44.519 33.3746C45.0647 35.831 45.9224 38.181 46.93 40.4804C47.1357 40.9511 47.1462 41.3765 46.8097 41.7705C46.4541 42.1871 46.0043 42.3858 45.4412 42.2795C44.6358 42.1261 43.9211 41.7495 43.215 41.3625C41.9128 40.6478 40.6227 39.9103 39.3292 39.1781C39.0886 39.0422 38.8219 38.8992 38.5761 39.0735C38.3006 39.2705 38.2047 39.5913 38.2605 39.9313C38.3529 40.4856 38.4593 41.04 38.5656 41.5926C38.6493 42.0302 38.5569 42.2847 38.1559 42.4835C37.2076 42.9542 36.6933 42.7833 36.4161 41.7809C36.1075 40.6635 36.1563 39.5164 36.1232 38.3745C36.1162 38.1426 36.1232 37.9108 36.1232 37.6789C36.1459 37.6789 36.1703 37.6789 36.1929 37.6789L36.1895 37.6772Z" fill="#3B3837"/>
<path d="M21.9691 37.9405C21.9691 37.2711 21.9726 36.6016 21.9691 35.9339C21.9656 35.4371 21.6448 35.125 21.1463 35.1338C20.2223 35.1477 19.2931 35.214 18.3814 34.9978C18.0431 34.9176 17.6788 34.8252 17.6492 34.3859C17.6265 34.0546 17.9229 33.8367 18.4511 33.7844C19.3576 33.6955 20.2659 33.6136 21.1759 33.5404C21.6448 33.502 21.8122 33.3434 21.8122 32.864C21.8139 31.6035 21.7895 30.3431 21.7146 29.0845C21.6692 28.3017 21.6309 27.5172 21.6013 26.7327C21.5769 26.086 21.9011 25.7321 22.52 25.7007C23.1877 25.6676 23.6775 26.0598 23.702 26.6926C23.7351 27.5277 23.7281 28.3645 23.7508 29.2013C23.7821 30.371 23.831 31.5408 23.8571 32.7105C23.8641 33.0156 23.953 33.108 24.2825 33.0958C25.2326 33.061 26.1844 33.0749 27.1293 32.932C27.5006 32.8762 27.7639 33.1098 27.8685 33.5125C27.9766 33.9291 27.8632 34.2098 27.4919 34.3702C27.023 34.5724 26.5174 34.5724 26.0188 34.6108C25.583 34.6439 25.1489 34.677 24.7323 34.8182C24.1186 35.0257 23.8711 35.3499 23.9024 35.9932C23.9757 37.4698 24.0663 38.9446 24.1657 40.4195C24.2145 41.1395 24.2127 41.8595 24.2023 42.5795C24.1953 43.0763 23.7961 43.3169 23.3097 43.1495C22.8843 43.0031 22.6647 42.6631 22.4991 42.2761C22.1957 41.5701 22.1103 40.8152 22.0615 40.0639C22.0162 39.3596 22.051 38.65 22.051 37.944C22.0249 37.944 21.997 37.944 21.9708 37.944L21.9691 37.9405Z" fill="#3B3837"/>
<path d="M49.4717 37.618C49.4717 37.2066 49.4734 36.6139 49.4717 36.0229C49.4682 35.4406 49.1387 35.1233 48.5617 35.1355C47.6621 35.153 46.7591 35.207 45.8717 35.0013C45.809 34.9873 45.748 34.9717 45.6887 34.949C45.401 34.8479 45.1064 34.7328 45.1552 34.3528C45.2023 33.9919 45.4551 33.8542 45.8055 33.8228C46.7539 33.7374 47.6987 33.6276 48.6454 33.5404C49.1161 33.4968 49.3096 33.3068 49.3008 32.8326C49.266 30.8243 49.198 28.8178 49.076 26.8147C49.0324 26.093 49.3566 25.7181 50.0295 25.7007C50.7025 25.6833 51.1801 26.1156 51.1958 26.7606C51.2446 28.7428 51.2987 30.7232 51.3405 32.7053C51.3458 32.993 51.4085 33.1063 51.7345 33.0941C52.6864 33.061 53.6382 33.0802 54.5831 32.932C54.9474 32.8745 55.2682 33.1185 55.3554 33.4776C55.4617 33.91 55.3397 34.2151 54.9631 34.3737C54.4942 34.5724 53.9869 34.5794 53.4883 34.6108C53.0769 34.6369 52.6672 34.6805 52.2732 34.7921C51.609 34.9804 51.3684 35.3552 51.4015 36.0455C51.4974 38.0504 51.6648 40.0517 51.7014 42.0582C51.7049 42.25 51.7136 42.447 51.6805 42.6335C51.5916 43.1391 51.269 43.3065 50.7757 43.1356C50.4044 43.0066 50.1987 42.7224 50.0365 42.393C49.7384 41.7828 49.6582 41.1186 49.5763 40.4596C49.4665 39.5775 49.4926 38.6867 49.4769 37.618H49.4717Z" fill="#3B3837"/>
<path d="M26.9798 38.95C27.067 37.2573 27.4348 35.6482 28.5575 34.3128C29.6366 33.028 31.0679 32.7595 32.555 33.5371C33.3499 33.9537 34.0647 34.475 34.429 35.3414C34.7027 35.9934 34.5406 36.553 33.9758 36.9662C33.3917 37.3933 32.7014 37.5502 32.011 37.7036C31.2614 37.8692 30.4961 37.9703 29.7691 38.2283C29.4431 38.3434 29.0753 38.4567 29.0056 38.8507C28.9271 39.297 29.159 39.6491 29.4954 39.9193C30.0899 40.3953 30.7506 40.4231 31.4567 40.2035C32.3283 39.9333 33.1093 39.4539 33.967 39.1523C34.1588 39.0843 34.3575 39.0337 34.5528 38.971C34.8648 38.8716 35.0723 39.0128 35.2379 39.2586C35.414 39.5184 35.3443 39.7502 35.149 39.9542C35.0165 40.0919 34.8771 40.2418 34.7114 40.3273C33.3883 40.9932 32.0965 41.7324 30.6286 42.0636C29.1555 42.3948 27.9735 41.9485 27.379 40.8102C27.0775 40.2296 26.9467 39.6073 26.9816 38.9483L26.9798 38.95ZM30.2677 36.5634C30.9005 36.5634 31.4235 36.4048 31.9047 36.1294C32.2847 35.9114 32.3667 35.5872 32.0721 35.2682C31.2998 34.4314 30.4699 34.2152 29.6733 35.1636C29.424 35.4599 29.274 35.8016 29.4763 36.1904C29.6593 36.5408 29.9888 36.5809 30.2677 36.5634Z" fill="#3B3837"/>
<path d="M9.83768 35.0238C9.86209 34.6803 9.77492 34.1382 9.89172 33.603C10.0225 33.0068 10.2875 32.7505 10.8 32.7505C11.3282 32.7505 11.649 33.0312 11.7553 33.6134C11.8669 34.2341 11.8948 34.8616 11.9192 35.4927C11.9715 36.8124 12.1075 38.1234 12.5259 39.389C12.627 39.6941 12.749 39.987 12.9268 40.2555C13.4341 41.0225 14.1384 41.1637 14.9055 40.6425C15.6133 40.1613 15.8957 39.4152 16.0805 38.6342C16.3333 37.5586 16.2967 36.4725 16.1241 35.3846C16.0718 35.0569 16.0561 34.7204 16.0543 34.3875C16.0543 34.1451 16.1467 33.915 16.4117 33.854C16.6785 33.7912 16.9504 33.8 17.1614 34.0283C17.2938 34.173 17.4089 34.3369 17.4525 34.5217C17.9859 36.802 17.9702 39.0125 16.4571 40.965C15.6743 41.9744 14.6527 42.5845 13.3051 42.5009C12.4422 42.4468 11.7571 42.0807 11.2254 41.4165C10.5368 40.5588 10.2596 39.5302 10.0713 38.4808C9.87952 37.4051 9.80979 36.3138 9.83768 35.0238Z" fill="#3B3837"/>
<path d="M32.248 23.1081C32.3561 23.5283 32.4189 23.9554 32.3892 24.3895C29.2426 22.4631 27.3022 19.7087 26.8403 16.0303C26.3103 11.8202 27.8008 8.37363 31.0225 5.64883C31.0608 5.61571 31.1079 5.59479 31.1497 5.56689C31.1602 5.89812 31.1689 6.2311 31.1794 6.56233C31.155 6.59196 31.1323 6.62334 31.1062 6.64949C27.4905 10.2442 26.8316 15.7723 29.5128 20.1131C30.2328 21.2811 31.1097 22.3167 32.2498 23.1064L32.248 23.1081Z" fill="#E7551B"/>
<path d="M58.0736 38.1513C58.0788 39.0299 58.077 39.8406 57.9132 40.639C57.8382 41.0069 57.6987 41.3503 57.4808 41.6554C57.3204 41.8785 57.1322 42.0999 56.8184 42.0249C56.4906 41.9465 56.3041 41.6955 56.2222 41.3834C56.1733 41.1986 56.1611 41.0016 56.1524 40.8099C56.074 39.0491 55.999 37.2901 55.9223 35.5294C55.9171 35.4265 55.9136 35.3236 55.9136 35.2208C55.9118 34.6594 56.203 34.2829 56.6772 34.2306C57.2716 34.1643 57.7371 34.4712 57.8434 35.0377C58.0387 36.089 58.0927 37.1541 58.0753 38.153L58.0736 38.1513Z" fill="#3B3837"/>
<path d="M35.759 25.7861C35.752 25.4723 35.4591 25.2352 35.5254 24.9039C36.934 25.2979 38.3617 25.5124 39.8296 25.3467C42.4411 25.0521 44.6307 23.9294 46.4054 21.9961C46.7715 22.0449 47.1603 21.9054 47.5037 22.1338C46.0707 23.7499 44.2873 24.829 42.2493 25.4949C40.1155 26.1905 37.9538 26.3614 35.7607 25.7861H35.759Z" fill="#E7551B"/>
<path d="M31.3886 48.2017C31.3886 48.777 31.3729 49.2337 31.3938 49.6905C31.406 49.9555 31.2579 49.938 31.0818 49.9415C30.9005 49.9433 30.7662 49.9485 30.7732 49.6887C30.7906 48.9949 30.7854 48.2993 30.7767 47.6037C30.775 47.4172 30.8412 47.3823 31.019 47.3579C31.413 47.3039 31.6606 47.4346 31.8453 47.792C32.0545 48.2017 32.3178 48.5835 32.6333 48.974C32.6333 48.5364 32.6473 48.0988 32.6281 47.6613C32.6176 47.4242 32.6839 47.3492 32.9262 47.3579C33.1476 47.3649 33.2505 47.3998 33.2435 47.6543C33.2261 48.2714 33.247 48.8903 33.2313 49.5074C33.2278 49.6486 33.362 49.9049 33.1127 49.9188C32.8495 49.9345 32.527 50.0862 32.3265 49.7253C32.0894 49.3 31.8209 48.892 31.5664 48.4771C31.5298 48.4179 31.4915 48.3586 31.3921 48.2017H31.3886Z" fill="#3B3837"/>
<path d="M65.0693 48.3011C65.0693 48.7456 65.0536 49.1919 65.0745 49.6365C65.0867 49.8927 64.9839 49.9293 64.7607 49.9311C64.5341 49.9328 64.4818 49.8526 64.487 49.6417C64.4993 49.0246 64.4853 48.4057 64.4958 47.7886C64.4975 47.6543 64.3981 47.4137 64.5986 47.3998C64.8531 47.3824 65.1704 47.2289 65.3674 47.5515C65.669 48.0431 65.9689 48.5347 66.3402 49.0211C66.3402 48.5696 66.3541 48.118 66.335 47.6683C66.3245 47.4207 66.4117 47.3702 66.6418 47.3684C66.8806 47.3667 66.9137 47.4643 66.9103 47.6665C66.8998 48.2837 66.9137 48.9025 66.8998 49.5197C66.8963 49.6522 67.0114 49.8927 66.7952 49.9049C66.5442 49.9189 66.2321 50.0653 66.0369 49.7236C65.7579 49.2355 65.4528 48.7613 65.16 48.2819C65.1286 48.2889 65.0972 48.2941 65.0658 48.3011H65.0693Z" fill="#3B3837"/>
<path d="M8.76904 49.0959C8.76904 49.9083 8.67315 49.9902 7.71782 49.9885C6.70495 49.9885 6.10525 49.2162 6.35803 48.2399C6.57769 47.3927 7.8904 46.9743 8.5825 47.5287C8.65921 47.5897 8.74289 47.6629 8.63829 47.7361C8.49882 47.8338 8.46744 48.1388 8.21292 48.0081C8.05951 47.9296 7.90435 47.8686 7.74048 47.8634C7.40751 47.8529 7.11463 47.968 6.99957 48.2992C6.88277 48.6374 6.87928 48.9913 7.17739 49.2598C7.44412 49.5004 7.75268 49.4916 8.07868 49.3836C8.24778 49.3278 8.19026 49.2075 8.20072 49.1046C8.2164 48.9373 8.08914 48.9565 7.99326 48.9669C7.69515 48.9983 7.75268 48.7926 7.73874 48.6165C7.71956 48.3759 7.86774 48.3881 8.03336 48.3829C8.76904 48.362 8.76904 48.3602 8.76904 49.0942V49.0959Z" fill="#3B3837"/>
<path d="M24.4137 49.9901C23.5822 49.9901 23.047 49.474 23.0435 48.6721C23.04 47.8702 23.5874 47.3228 24.4015 47.3141C25.2278 47.3054 25.7578 47.8493 25.7857 48.6861C25.8136 49.5106 25.0866 50.0894 24.4137 49.9883V49.9901ZM24.4085 49.4601C24.8757 49.4618 25.1982 49.1376 25.2 48.6617C25.2017 48.1962 24.867 47.8423 24.4207 47.8371C23.9657 47.8336 23.6414 48.17 23.6397 48.6477C23.6362 49.1341 23.9413 49.4566 24.4102 49.4583L24.4085 49.4601Z" fill="#3B3837"/>
<path d="M70.4634 49.9903C69.644 49.9955 69.0809 49.4638 69.0705 48.6706C69.06 47.8843 69.6213 47.3265 70.432 47.316C71.2409 47.3073 71.8144 47.853 71.8214 48.6409C71.8284 49.4359 71.274 49.9833 70.4616 49.9885L70.4634 49.9903ZM71.2217 48.6514C71.2182 48.1702 70.8957 47.8355 70.4407 47.839C69.9892 47.8425 69.6632 48.1894 69.6649 48.6619C69.6667 49.143 69.9822 49.462 70.4512 49.4603C70.9201 49.4603 71.2235 49.1395 71.22 48.6497L71.2217 48.6514Z" fill="#3B3837"/>
<path d="M45.2498 49.9904C44.4305 49.9939 43.8691 49.4587 43.8604 48.6672C43.8534 47.881 44.42 47.3231 45.2272 47.3179C46.0378 47.3127 46.6079 47.8583 46.6149 48.6463C46.6218 49.4378 46.0622 49.9869 45.2481 49.9904H45.2498ZM45.2394 49.4604C45.7118 49.4604 46.0152 49.1449 46.0152 48.655C46.0152 48.1721 45.6961 47.8374 45.2394 47.8392C44.7861 47.8392 44.4619 48.1808 44.4619 48.6568C44.4619 49.1414 44.7704 49.4604 45.2411 49.4604H45.2394Z" fill="#3B3837"/>
<path d="M13.1953 48.3079C13.1953 48.5641 13.2232 48.8239 13.19 49.0767C13.1029 49.7217 12.742 49.9971 12.0447 49.9902C11.452 49.9832 11.0876 49.6764 11.0336 49.0627C10.99 48.5659 11.0214 48.0621 11.0126 47.5617C11.0092 47.3002 11.1974 47.3752 11.3369 47.3665C11.4798 47.3578 11.6176 47.3386 11.6089 47.5652C11.5932 47.9505 11.6036 48.3358 11.6054 48.721C11.6054 49.2022 11.771 49.4428 12.1005 49.448C12.4387 49.455 12.6078 49.2196 12.6095 48.7402C12.6095 48.3549 12.62 47.9697 12.606 47.5844C12.5973 47.3787 12.6932 47.3438 12.8606 47.363C13.0087 47.3804 13.2197 47.2863 13.211 47.5739C13.204 47.818 13.211 48.0621 13.211 48.3061H13.1988L13.1953 48.3079Z" fill="#3B3837"/>
<path d="M52.5073 48.6547C52.5073 48.32 52.5195 47.9852 52.502 47.6523C52.4898 47.4274 52.5735 47.3646 52.7879 47.3733C53.1732 47.389 53.5602 47.3838 53.9455 47.3733C54.139 47.3681 54.2558 47.389 54.2558 47.6348C54.2558 47.8632 54.1756 47.9225 53.9647 47.9068C53.7607 47.8911 53.5532 47.912 53.3475 47.9016C53.168 47.8928 53.0721 47.9225 53.0703 48.1439C53.0686 48.3862 53.2011 48.3757 53.3632 48.3705C53.5306 48.3653 53.6979 48.3775 53.8653 48.367C54.0675 48.3548 54.1965 48.367 54.1948 48.6407C54.1948 48.9284 54.0361 48.9075 53.8496 48.9022C53.6823 48.897 53.5149 48.9092 53.3475 48.8987C53.1645 48.8865 53.0686 48.9249 53.0721 49.1445C53.0756 49.3537 53.1505 49.413 53.3458 49.4008C53.5637 49.3886 53.7851 49.413 54.0013 49.3938C54.2349 49.3729 54.3081 49.4461 54.3116 49.6885C54.3151 49.9656 54.1529 49.9221 53.9891 49.9221C53.6038 49.9221 53.2168 49.9011 52.8315 49.929C52.5439 49.9482 52.4846 49.8366 52.5038 49.5804C52.5247 49.2736 52.509 48.9632 52.509 48.6547H52.5073Z" fill="#3B3837"/>
<path d="M37.584 49.931C37.3382 49.999 37.2022 49.8822 37.1464 49.6451C37.1046 49.4656 36.9982 49.3941 36.8135 49.4081C36.4578 49.4359 36.0464 49.2703 35.9052 49.8352C35.8511 50.0513 35.5164 49.9694 35.3508 49.9171C35.1434 49.8509 35.3456 49.6852 35.3874 49.5859C35.6594 48.9234 35.9557 48.2731 36.2277 47.6107C36.3027 47.4276 36.3951 47.3597 36.5938 47.3579C36.7856 47.3579 36.8588 47.4398 36.9268 47.6002C37.2144 48.2836 37.5038 48.9652 37.8176 49.6364C37.9518 49.9241 37.8525 49.9729 37.5857 49.9293L37.584 49.931ZM36.5589 48.1842C36.4474 48.4806 36.3724 48.6811 36.294 48.8903H36.8396C36.7507 48.6654 36.6723 48.4684 36.5589 48.1842Z" fill="#3B3837"/>
<path d="M62.4528 49.8962C62.078 49.9485 61.7433 50.0095 61.6596 49.5301C61.6387 49.4098 61.5463 49.3784 61.4277 49.3837C61.222 49.3906 61.0163 49.3906 60.8106 49.3837C60.692 49.3784 60.5944 49.4098 60.577 49.5284C60.509 49.9938 60.1882 49.9503 59.8047 49.898C60.1568 49.0838 60.4933 48.2854 60.8489 47.4957C60.9378 47.3004 61.3179 47.3178 61.4085 47.5201C61.7607 48.3011 62.0989 49.0891 62.451 49.8962H62.4528ZM61.3929 48.9008C61.3144 48.6567 61.2499 48.4283 61.1 48.193C60.9954 48.4475 60.8768 48.6497 60.8542 48.9008H61.3946H61.3929Z" fill="#3B3837"/>
<path d="M16.1554 49.9885C15.988 49.9885 15.8242 49.999 15.6655 49.9188C15.54 49.856 15.3517 49.8194 15.3343 49.6887C15.3116 49.5196 15.5121 49.4289 15.6062 49.2982C15.6742 49.2058 15.737 49.2633 15.7998 49.3104C15.9148 49.3958 16.0368 49.4551 16.1885 49.4516C16.3454 49.4499 16.4866 49.4028 16.5354 49.2598C16.5965 49.082 16.4396 49.0158 16.3088 48.96C16.1554 48.8972 15.995 48.8502 15.8416 48.7891C15.5574 48.6758 15.3674 48.4858 15.3674 48.1581C15.3674 47.8338 15.4999 47.588 15.791 47.4363C16.1153 47.2672 16.4587 47.2446 16.7952 47.377C16.912 47.4224 17.17 47.452 17.0602 47.6473C16.9817 47.7867 16.8963 48.104 16.5773 47.9157C16.4971 47.8687 16.3768 47.8687 16.2774 47.8756C16.1484 47.8844 16.0142 47.914 15.9985 48.0831C15.9845 48.2278 16.0857 48.2888 16.1972 48.3324C16.3158 48.3777 16.4413 48.4091 16.5616 48.4509C16.9939 48.5991 17.1996 48.8746 17.1508 49.2407C17.095 49.6608 16.7812 49.9554 16.3489 49.9885C16.2844 49.9938 16.2199 49.9885 16.1554 49.9885Z" fill="#3B3837"/>
<path d="M39.9395 48.6061C39.9395 48.2714 39.9412 47.9367 39.9395 47.6037C39.9395 47.459 39.9551 47.3562 40.1452 47.3631C40.5304 47.3806 40.9175 47.3405 41.2975 47.4311C41.7037 47.5287 41.8885 47.7885 41.8641 48.2226C41.8414 48.627 41.6287 48.8397 41.2243 48.9164C40.9942 48.96 40.6786 48.8083 40.5496 49.0263C40.4485 49.1988 40.5078 49.4778 40.5252 49.7079C40.5392 49.9188 40.4328 49.9397 40.2707 49.9241C40.1295 49.9101 39.9447 49.9851 39.9499 49.7253C39.9569 49.3522 39.9517 48.9792 39.9517 48.6079C39.9482 48.6079 39.9447 48.6079 39.9412 48.6079L39.9395 48.6061ZM40.7937 48.4492C41.029 48.4579 41.2661 48.444 41.2731 48.1703C41.2801 47.8896 41.0325 47.8861 40.8233 47.8722C40.6141 47.8582 40.5043 47.9123 40.5095 48.1668C40.5147 48.4056 40.5758 48.5015 40.7937 48.4492Z" fill="#3B3837"/>
<path d="M19.8023 48.8779C19.8023 48.7629 19.8023 48.6461 19.8023 48.531C19.8023 47.9731 19.8023 47.9592 19.2689 47.9086C19.0213 47.8842 19.1137 47.7256 19.0998 47.6053C19.0823 47.4676 19.091 47.3577 19.2898 47.363C19.8302 47.3734 20.3724 47.3769 20.9128 47.363C21.1412 47.3577 21.1168 47.4902 21.1168 47.6349C21.1168 47.7744 21.1499 47.933 20.9163 47.9051C20.8274 47.8947 20.735 47.9121 20.6461 47.9017C20.4596 47.879 20.4038 47.9522 20.4073 48.137C20.4195 48.6391 20.3985 49.1412 20.416 49.6432C20.4247 49.889 20.341 49.9483 20.1091 49.9448C19.8895 49.9431 19.7727 49.9082 19.7971 49.6519C19.8198 49.3974 19.8023 49.1377 19.8023 48.8797V48.8779Z" fill="#3B3837"/>
<path d="M57.029 48.8974C57.029 48.7684 57.029 48.6412 57.029 48.5121C57.029 47.9665 57.029 47.9543 56.4799 47.8968C56.2811 47.8758 56.2951 47.766 56.2968 47.637C56.2968 47.5097 56.2724 47.3738 56.4764 47.3755C57.029 47.3807 57.5816 47.3807 58.1343 47.3755C58.3435 47.3738 58.3051 47.5167 58.3086 47.6405C58.3121 47.7695 58.326 47.8793 58.1255 47.8985C57.5973 47.9456 57.5991 47.9595 57.5991 48.4895C57.5991 48.8748 57.5869 49.26 57.6043 49.6453C57.613 49.8615 57.5502 49.9277 57.3288 49.9295C57.0952 49.9312 57.0029 49.8737 57.0255 49.6296C57.0464 49.3873 57.0307 49.1415 57.0307 48.8974H57.029Z" fill="#3B3837"/>
<path d="M48.7938 48.6373C48.7938 48.2904 48.8042 47.9417 48.7903 47.5948C48.7816 47.3821 48.8949 47.3681 49.0535 47.3769C49.2 47.3856 49.3708 47.3281 49.3638 47.5878C49.3516 48.0899 49.3708 48.592 49.3551 49.094C49.3482 49.3259 49.4127 49.4287 49.655 49.4009C49.7944 49.3852 49.9391 49.4043 50.0803 49.3956C50.2808 49.3834 50.4116 49.3956 50.4151 49.6693C50.4186 49.9744 50.239 49.9204 50.0647 49.9204C49.7421 49.9204 49.4196 49.9012 49.0989 49.9273C48.8321 49.9483 48.7746 49.8419 48.7885 49.6013C48.8077 49.2806 48.7938 48.9581 48.7938 48.6355V48.6373Z" fill="#3B3837"/>
<path d="M56.9751 32.681C56.5131 32.6793 56.1261 32.3219 56.14 31.9105C56.1505 31.6089 56.4747 31.3108 56.7868 31.316C57.2156 31.3212 57.6027 31.7047 57.6061 32.1231C57.6079 32.4631 57.3603 32.6827 56.9768 32.681H56.9751Z" fill="#3B3837"/>
</svg>
