<svg width="50" height="4" viewBox="0 0 50 4" fill="none" xmlns="http://www.w3.org/2000/svg">
<path d="M2.65794 0.0615234C2.93396 0.0615234 3.13842 0.102415 3.27131 0.173975C3.40421 0.245535 3.52689 0.378432 3.63934 0.562443L5.06031 3.19994H3.45533L2.48415 1.19626C2.45349 1.1247 2.42282 1.08381 2.38193 1.05314C2.34103 1.03269 2.30014 1.02247 2.24903 1.02247H2.17747L1.08362 3.21016H0L1.72766 0.0615234H2.65794Z" fill="#414042"/>
<path d="M10.1815 1.63581C10.1815 1.90161 10.1611 2.13673 10.1202 2.34119C10.0793 2.53542 9.98728 2.69899 9.83393 2.83189C9.68059 2.96478 9.43524 3.05679 9.10811 3.11813C8.78098 3.17946 8.32095 3.21013 7.72802 3.21013C7.24755 3.21013 6.85908 3.18969 6.5524 3.1488C6.24571 3.1079 6.01058 3.04657 5.8368 2.96478C5.66301 2.883 5.54033 2.78077 5.46877 2.66832C5.38699 2.54565 5.3461 2.41275 5.33588 2.24918C5.32565 2.08562 5.31543 1.91183 5.31543 1.7176V0.55219C5.31543 0.40907 5.32565 0.306841 5.33588 0.235281C5.3461 0.163721 5.39721 0.112607 5.46877 0.092161C5.55056 0.0717152 5.67323 0.0512695 5.85724 0.0512695H6.7773V1.93228C6.7773 2.12651 6.80797 2.26963 6.87953 2.36164C6.94086 2.45364 7.05332 2.51498 7.18621 2.54565C7.32933 2.57632 7.51334 2.58654 7.73825 2.58654C8.09605 2.58654 8.35162 2.53542 8.50496 2.44342C8.64808 2.35141 8.72986 2.17762 8.72986 1.93228V0.0512695H9.6397C9.83393 0.0512695 9.96683 0.0614924 10.0384 0.092161C10.1202 0.112607 10.1611 0.163721 10.1713 0.235281C10.1815 0.306841 10.1917 0.419292 10.1917 0.55219V1.63581H10.1815Z" fill="#414042"/>
<path d="M10.4887 0.0512695H15.3957V0.644195H13.6783V2.82166C13.6783 2.96478 13.6476 3.06701 13.5863 3.11813C13.5249 3.16924 13.392 3.18969 13.1876 3.18969H12.2062V0.644195H10.4785L10.4887 0.0512695Z" fill="#414042"/>
<path d="M18.3498 2.65794C18.2884 2.65794 18.2271 2.66817 18.1658 2.66817C17.9613 2.66817 17.7875 2.65794 17.6444 2.62727C17.5013 2.59661 17.3786 2.54549 17.2968 2.46371C17.2048 2.38193 17.1435 2.2797 17.0924 2.1468C17.0412 2.0139 17.0208 1.84011 17.0208 1.63566C17.0208 1.42098 17.0412 1.24719 17.0924 1.11429C17.1435 0.981394 17.2048 0.879166 17.2968 0.797383C17.3888 0.725823 17.5013 0.674709 17.6444 0.64404C17.7875 0.613372 17.9613 0.603149 18.1658 0.603149C18.2271 0.603149 18.2782 0.603149 18.3293 0.603149L17.8591 0C17.5217 0.0102229 17.2253 0.0306686 16.9697 0.07156C16.6323 0.122674 16.3563 0.204457 16.1416 0.327131C15.9269 0.449806 15.7634 0.613371 15.6612 0.817829C15.5589 1.02229 15.5078 1.28808 15.5078 1.62543C15.5078 1.94234 15.5589 2.20814 15.6509 2.42282C15.7532 2.6375 15.9065 2.80106 16.111 2.91351C16.3256 3.03619 16.5914 3.11797 16.9288 3.16909C17.1946 3.20998 17.5115 3.23042 17.8795 3.24065L18.3498 2.65794Z" fill="#414042"/>
<path d="M20.6497 0.828145C20.5475 0.623688 20.3942 0.449899 20.1897 0.337447C19.975 0.214773 19.7092 0.13299 19.3719 0.081876C19.2083 0.0614303 19.0243 0.0409846 18.8301 0.0307617L20.0977 1.63575L18.871 3.22029C19.0448 3.21007 19.2083 3.18962 19.3617 3.16918C19.699 3.11806 19.975 3.03628 20.1795 2.91361C20.3942 2.79093 20.5475 2.62737 20.6497 2.42291C20.752 2.21845 20.8031 1.94244 20.8031 1.62553C20.7929 1.2984 20.7418 1.0326 20.6497 0.828145Z" fill="#757A7C"/>
<path d="M23.1543 3.19991C22.8783 3.19991 22.6739 3.15902 22.541 3.08746C22.4081 3.0159 22.2854 2.883 22.1729 2.69899L20.752 0.0512695H22.3467L23.3179 2.05495C23.3486 2.12651 23.3792 2.1674 23.4201 2.19807C23.461 2.22874 23.5019 2.23896 23.553 2.23896H23.6246L24.7184 0.0512695H25.802L24.0744 3.19991H23.1543Z" fill="#414042"/>
<path d="M26.1396 3.19994C26.1396 2.73991 26.1396 2.26966 26.1396 1.80963C26.1396 1.3496 26.1396 0.879352 26.1396 0.419323C26.1396 0.337541 26.1499 0.276203 26.1601 0.225089C26.1703 0.173975 26.2214 0.133083 26.2828 0.102415C26.3543 0.0717463 26.4668 0.0615234 26.6201 0.0615234H27.6015V3.21016L26.1396 3.19994Z" fill="#414042"/>
<path d="M28.0107 0.0512695H32.9177V0.644195H31.2003V2.82166C31.2003 2.96478 31.1696 3.06701 31.1083 3.11813C31.0469 3.16924 30.914 3.18969 30.7096 3.18969H29.7282V0.644195H28.0107V0.0512695Z" fill="#414042"/>
<path d="M33.1528 0.0512695H38.0598V0.644195H36.3423V2.82166C36.3423 2.96478 36.3117 3.06701 36.2503 3.11813C36.189 3.16924 36.0561 3.18969 35.8516 3.18969H34.8702V0.644195H33.1426L33.1528 0.0512695Z" fill="#414042"/>
<path d="M38.3355 3.19988H37.2109L38.6217 0.59305C38.7137 0.419261 38.8568 0.276141 39.0306 0.184136C39.2044 0.0819071 39.4906 0.0410156 39.8689 0.0410156C40.1858 0.0410156 40.4414 0.0819071 40.6356 0.173913C40.8298 0.265919 40.9832 0.409039 41.0752 0.59305L42.4962 3.19988H40.9116L39.7871 1.10419C39.7667 1.0633 39.7462 1.03263 39.7258 1.00196C39.7053 0.971296 39.6644 0.961073 39.6031 0.961073C39.5417 0.961073 39.4906 0.971296 39.4702 1.00196C39.4395 1.03263 39.4191 1.0633 39.3986 1.10419L38.3355 3.19988Z" fill="#414042"/>
<path d="M42.8438 3.19991V0.439738C42.8438 0.276172 42.8744 0.173944 42.9358 0.133052C42.9971 0.0819381 43.13 0.0614924 43.3549 0.0614924H44.735L46.6671 2.0754L46.7182 2.22874V0.0512695H47.7814C47.7712 0.0614924 47.7609 0.092161 47.7609 0.133052C47.7609 0.184167 47.7609 0.235281 47.7609 0.286395C47.7609 0.347732 47.7609 0.398847 47.7609 0.439738V2.86256C47.7609 3.0159 47.7201 3.1079 47.6383 3.13857C47.5565 3.17946 47.4031 3.18969 47.1782 3.18969H45.9208L43.9376 1.13489L43.8967 0.961104V3.17946H42.8438V3.19991Z" fill="#414042"/>
<path d="M48.5381 3.19994C48.5381 2.73991 48.5381 2.26966 48.5381 1.80963C48.5381 1.3496 48.5381 0.879352 48.5381 0.419323C48.5381 0.337541 48.5483 0.276203 48.5585 0.225089C48.5688 0.173975 48.6199 0.133083 48.6812 0.102415C48.7528 0.0717463 48.8652 0.0615234 49.0186 0.0615234H50V3.21016L48.5381 3.19994Z" fill="#414042"/>
</svg>
