<svg width="50" height="6" viewBox="0 0 50 6" fill="none" xmlns="http://www.w3.org/2000/svg">
<path d="M8.74463 0.814941H10.6364C11.7803 0.814941 12.1877 1.23905 12.1877 1.95891C12.1877 2.23793 12.0761 2.48347 11.8864 2.66204C12.1654 2.85735 12.3384 3.11405 12.3384 3.44329C12.3384 4.1799 11.9143 4.59842 10.7145 4.59842H8.75021V0.814941H8.74463ZM10.469 2.29374C10.9824 2.29374 11.239 2.17097 11.239 1.95891C11.239 1.7636 11.0549 1.64641 10.5415 1.64641H9.64865V2.28816H10.469V2.29374ZM10.6364 3.76695C11.1219 3.76695 11.3953 3.64418 11.3953 3.44329C11.3953 3.23124 11.2 3.12521 10.4857 3.12521H9.65423V3.76695H10.6364Z" fill="#141223"/>
<path d="M12.5671 0.814941H14.3919C15.5247 0.814941 16.0548 1.28369 16.0548 2.11516C16.0548 2.66762 15.8205 3.05825 15.3294 3.26472L16.0995 4.59842H15.0559L14.3807 3.42655H13.4711V4.59842H12.5615V0.814941H12.5671ZM14.3584 2.59508C14.9332 2.59508 15.1062 2.42766 15.1062 2.12075C15.1062 1.81941 14.9332 1.652 14.3584 1.652H13.4711V2.59508H14.3584Z" fill="#141223"/>
<path d="M18.3258 0.814941L19.9162 4.59842H18.9005L17.8179 2.02588L16.7354 4.59842H15.7197L17.3101 0.814941H18.3258Z" fill="#141223"/>
<path d="M19.7603 0.814941H20.6699L22.5393 3.2145V0.814941H23.4489V4.59842H22.5393L20.6699 2.19887V4.59842H19.7603V0.814941Z" fill="#141223"/>
<path d="M23.6719 2.70647C23.6719 1.45647 24.5424 0.703125 25.7366 0.703125C26.3114 0.703125 27.6451 0.764509 27.6451 2.15402H26.8136C26.8136 1.76897 26.3616 1.57366 25.7366 1.57366C25 1.57366 24.6261 1.97545 24.6261 2.70089C24.6261 3.51563 25.0056 3.84487 25.8203 3.84487C26.4397 3.84487 26.8973 3.64955 26.8973 3.26451H27.7288C27.7288 4.65402 26.3951 4.7154 25.8203 4.7154C24.5424 4.7154 23.6719 4.04576 23.6719 2.70647Z" fill="#141223"/>
<path d="M29.8105 0.703125C31.0158 0.703125 31.8138 1.5067 31.8138 2.70647C31.8138 3.90625 31.0103 4.70982 29.8105 4.70982C28.6051 4.70982 27.8071 3.90625 27.8071 2.70647C27.8071 1.5067 28.6051 0.703125 29.8105 0.703125ZM29.8105 3.84487C30.4466 3.84487 30.8707 3.39286 30.8707 2.71205C30.8707 2.03125 30.4466 1.57924 29.8105 1.57924C29.1743 1.57924 28.7502 2.03125 28.7502 2.71205C28.7502 3.39286 29.1743 3.84487 29.8105 3.84487Z" fill="#141223"/>
<path d="M31.9253 1.90848C31.9253 1.11607 32.6284 0.703125 33.6831 0.703125C34.1909 0.703125 35.519 0.764509 35.519 2.15402H34.6876C34.6876 1.76897 34.2356 1.57366 33.6887 1.57366C33.1753 1.57366 32.874 1.72991 32.874 1.88616C32.874 2.07031 33.2534 2.1596 33.7501 2.24888C34.9387 2.45536 35.5581 2.79576 35.5581 3.52679C35.5581 4.31362 34.8103 4.7154 33.778 4.7154C33.1474 4.7154 31.8862 4.73214 31.8862 3.26451H32.7177C32.7177 3.72768 33.1865 3.84487 33.7557 3.84487C34.2914 3.84487 34.6094 3.6942 34.6094 3.54353C34.6094 3.37612 34.2021 3.29241 33.6998 3.20312C32.5224 2.99665 31.9253 2.63951 31.9253 1.90848Z" fill="#141223"/>
<path d="M36.769 1.652H35.5581V0.814941H38.884V1.64641H37.6731V4.59842H36.7635V1.652H36.769Z" fill="#141223"/>
<path d="M40.893 0.703125C42.0984 0.703125 42.8963 1.5067 42.8963 2.70647C42.8963 3.90625 42.0928 4.70982 40.893 4.70982C39.6876 4.70982 38.8896 3.90625 38.8896 2.70647C38.8896 1.5067 39.6876 0.703125 40.893 0.703125ZM40.893 3.84487C41.5292 3.84487 41.9533 3.39286 41.9533 2.71205C41.9533 2.03125 41.5292 1.57924 40.893 1.57924C40.2568 1.57924 39.8327 2.03125 39.8327 2.71205C39.8327 3.39286 40.2568 3.84487 40.893 3.84487Z" fill="#141223"/>
<path d="M43.1196 0.814941H44.9444C46.0772 0.814941 46.6074 1.28369 46.6074 2.11516C46.6074 2.66762 46.373 3.05825 45.8819 3.26472L46.652 4.59842H45.6085L44.9332 3.42655H44.0292V4.59842H43.1196V0.814941ZM44.9165 2.59508C45.4913 2.59508 45.6643 2.42766 45.6643 2.12075C45.6643 1.81941 45.4913 1.652 44.9165 1.652H44.0292V2.59508H44.9165Z" fill="#141223"/>
<path d="M47.7512 1.652H50.0001V0.814941H46.8472V4.59842H49.9889V3.78927V3.76695H47.7568V3.12521H48.8784L49.7099 2.29374H47.7568V2.22119V1.652H47.7512Z" fill="#141223"/>
<path d="M5.74777 2.20982H3.28683L4.80469 1.17746V0L2.87388 1.34487L0.943081 0V1.17746L2.46094 2.20982H0V3.20871H2.46094L0.943081 4.23549V5.41853L2.87388 4.07366L4.80469 5.41853V4.23549L3.28683 3.20871H5.74777V2.20982Z" fill="#4923F4"/>
</svg>
