<svg width="143" height="50" viewBox="0 0 143 50" fill="none" xmlns="http://www.w3.org/2000/svg">
<path d="M142.861 0H48.5732V50H142.861V0Z" fill="#573F33"/>
<path d="M48.5731 0H0V50H48.5731V0Z" fill="#B08771"/>
<path d="M137.145 35.7158H87.145V44.2874H137.145V35.7158Z" fill="#352A28"/>
<path d="M44.4736 35.3049C44.3598 35.5349 44.1737 35.7624 43.9152 35.9899C41.8577 37.6184 39.3012 38.6911 36.2432 39.2055C33.1853 39.7199 29.7706 39.9758 25.9992 39.9758C21.9693 39.9758 18.3763 39.676 15.2201 39.0763C12.0639 38.4766 9.39112 37.197 7.20687 35.2402C5.02003 33.2835 3.9292 30.4039 3.9292 26.604C3.9292 22.8042 5.02262 19.9169 7.20687 17.9472C9.39371 15.9749 12.0639 14.6902 15.2201 14.0905C18.3763 13.4908 21.9693 13.1909 25.9992 13.1909C29.4552 13.1909 32.5416 13.39 35.2558 13.7906C37.9699 14.1913 40.4127 15.0185 42.584 16.2773C43.2406 16.678 43.7472 17.0476 44.1065 17.3914C44.4632 17.7352 44.6416 18.1772 44.6416 18.7201C44.6416 19.2629 44.4271 19.7411 43.998 20.1547C43.5689 20.5683 43.07 20.7751 42.4987 20.7751C42.0696 20.7751 41.6276 20.6174 41.1701 20.3046C38.2827 18.2754 33.2266 17.2622 25.9992 17.2622C16.9132 17.2622 11.3841 18.8209 9.41439 21.9331C8.64408 23.1041 8.25635 24.6628 8.25635 26.604C8.25635 28.5453 8.6415 30.0627 9.41439 31.2336C10.6138 33.1206 12.7644 34.3614 15.8637 34.9611C18.9631 35.5608 22.3415 35.8606 25.9992 35.8606C29.2562 35.8606 32.1565 35.6745 34.7 35.3023C37.2436 34.9326 39.3994 34.1158 41.1726 32.8595C41.6302 32.5442 42.0722 32.3891 42.5013 32.3891C43.0726 32.3891 43.574 32.5959 44.0005 33.0095C44.4296 33.423 44.6442 33.9038 44.6442 34.4441C44.6442 34.7879 44.5873 35.0722 44.4736 35.3023V35.3049Z" fill="#443027"/>
<path d="M65.8044 20.5033C65.6027 21.0099 65.2279 21.47 64.6799 21.881C64.3232 22.1473 63.907 22.3592 63.4314 22.5195C62.9558 22.6798 62.4543 22.8038 61.9296 22.8891C61.4048 22.977 60.8801 23.0313 60.3605 23.0546C59.8384 23.0778 59.3627 23.0882 58.9337 23.0882C58.5046 23.0882 58.0289 23.0778 57.5068 23.0546C56.9846 23.0313 56.4651 22.977 55.9429 22.8891C55.4208 22.8013 54.9244 22.6798 54.4488 22.5195C53.9732 22.3592 53.557 22.1473 53.2003 21.881C52.6523 21.47 52.2775 21.0099 52.0759 20.5033C51.8743 19.9966 51.7734 19.4305 51.7734 18.8101C51.7734 18.1898 51.8743 17.6107 52.0759 17.1015C52.2775 16.5949 52.6523 16.1399 53.2003 15.7367C53.557 15.4808 53.9732 15.2714 54.4488 15.1137C54.9244 14.9535 55.4233 14.8294 55.9429 14.7441C56.4651 14.6562 56.9846 14.5967 57.5068 14.5657C58.0289 14.5347 58.5046 14.5166 58.9337 14.5166C59.3627 14.5166 59.8384 14.5321 60.3605 14.5657C60.8827 14.5967 61.4048 14.6562 61.9296 14.7441C62.4543 14.832 62.9558 14.9535 63.4314 15.1137C63.907 15.274 64.3232 15.4808 64.6799 15.7367C65.2279 16.1399 65.6027 16.5949 65.8044 17.1015C66.006 17.6082 66.1068 18.1794 66.1068 18.8101C66.1068 19.4409 66.006 19.9966 65.8044 20.5033ZM64.8996 18.076C64.8712 17.833 64.7988 17.5978 64.6799 17.3703C64.4602 16.949 64.1164 16.6207 63.6511 16.3829C63.1858 16.1451 62.674 15.9667 62.1209 15.8478C61.5677 15.7289 61.0042 15.6565 60.4329 15.6281C59.8616 15.5997 59.3602 15.5868 58.9311 15.5868C58.502 15.5868 58.0212 15.5997 57.4628 15.6281C56.9045 15.6565 56.3513 15.7238 55.8033 15.8349C55.2553 15.9435 54.7487 16.1141 54.2886 16.3416C53.8259 16.5716 53.4821 16.8844 53.252 17.2876C53.1228 17.5151 53.0375 17.7607 52.9909 18.0217C52.9444 18.2828 52.9211 18.5465 52.9211 18.8101C52.9211 19.0738 52.9444 19.3297 52.9909 19.5985C53.0375 19.8674 53.1228 20.1181 53.252 20.3456C53.4795 20.7488 53.8259 21.0616 54.2886 21.2839C54.7513 21.5088 55.2553 21.6768 55.8033 21.7906C56.3513 21.9043 56.9045 21.9741 57.4628 21.9973C58.0212 22.0206 58.5097 22.0309 58.9311 22.0309C59.3524 22.0309 59.8616 22.0206 60.4329 21.9973C61.0042 21.9741 61.5677 21.9017 62.1209 21.7776C62.674 21.6535 63.1833 21.4726 63.6511 21.2348C64.1164 20.997 64.4602 20.6687 64.6799 20.2474C64.7988 20.0199 64.8712 19.7821 64.8996 19.5339C64.9281 19.2858 64.941 19.0454 64.941 18.8076C64.941 18.5697 64.9281 18.3164 64.8996 18.0734V18.076Z" fill="#C8B4A4"/>
<path d="M78.7726 22.9179C78.6589 23.0239 78.5245 23.0756 78.3668 23.0756H68.053C67.8979 23.0756 67.7635 23.0239 67.6472 22.9179C67.5334 22.812 67.4766 22.6879 67.4766 22.5405V15.0521C67.4766 14.9047 67.5334 14.7781 67.6472 14.6669C67.7609 14.5583 67.8953 14.5015 68.053 14.5015C68.2107 14.5015 68.3425 14.5557 68.4588 14.6669C68.5726 14.7755 68.6294 14.9047 68.6294 15.0521V22.0184H78.3668C78.5219 22.0184 78.6563 22.0701 78.7726 22.1761C78.8864 22.2821 78.9432 22.4035 78.9432 22.5405C78.9432 22.6879 78.8864 22.812 78.7726 22.9179Z" fill="#C8B4A4"/>
<path d="M93.2483 20.5033C93.0467 21.0099 92.6719 21.47 92.1239 21.881C91.7672 22.1473 91.351 22.3592 90.8754 22.5195C90.3998 22.6798 89.8983 22.8038 89.3736 22.8891C88.8488 22.977 88.3241 23.0313 87.8019 23.0546C87.2798 23.0778 86.8041 23.0882 86.3751 23.0882C85.946 23.0882 85.4703 23.0778 84.9482 23.0546C84.426 23.0313 83.9065 22.977 83.3843 22.8891C82.8622 22.8013 82.3658 22.6798 81.8902 22.5195C81.4146 22.3592 80.9984 22.1473 80.6417 21.881C80.0937 21.47 79.7189 21.0099 79.5173 20.5033C79.3157 19.9966 79.2148 19.4305 79.2148 18.8101C79.2148 18.1898 79.3157 17.6107 79.5173 17.1015C79.7189 16.5949 80.0937 16.1399 80.6417 15.7367C80.9984 15.4808 81.4146 15.2714 81.8902 15.1137C82.3658 14.9535 82.8647 14.8294 83.3843 14.7441C83.9065 14.6562 84.426 14.5967 84.9482 14.5657C85.4703 14.5347 85.946 14.5166 86.3751 14.5166C86.8041 14.5166 87.2798 14.5321 87.8019 14.5657C88.3241 14.5967 88.8462 14.6562 89.3736 14.7441C89.8983 14.832 90.3998 14.9535 90.8754 15.1137C91.351 15.274 91.7672 15.4808 92.1239 15.7367C92.6719 16.1399 93.0467 16.5949 93.2483 17.1015C93.45 17.6082 93.5508 18.1794 93.5508 18.8101C93.5508 19.4409 93.45 19.9966 93.2483 20.5033ZM92.3436 18.076C92.3152 17.833 92.2428 17.5978 92.1239 17.3703C91.9042 16.949 91.5604 16.6207 91.0951 16.3829C90.6298 16.1451 90.118 15.9667 89.5648 15.8478C89.0117 15.7289 88.4482 15.6565 87.8769 15.6281C87.3056 15.5997 86.8041 15.5868 86.3751 15.5868C85.946 15.5868 85.4652 15.5997 84.9068 15.6281C84.3485 15.6565 83.7953 15.7238 83.2473 15.8349C82.6993 15.9435 82.1927 16.1141 81.7325 16.3416C81.2698 16.5716 80.9261 16.8844 80.696 17.2876C80.5667 17.5151 80.4815 17.7607 80.4349 18.0217C80.3884 18.2828 80.3677 18.5465 80.3677 18.8101C80.3677 19.0738 80.391 19.3297 80.4349 19.5985C80.4815 19.8674 80.5667 20.1181 80.696 20.3456C80.9235 20.7488 81.2698 21.0616 81.7325 21.2839C82.1952 21.5088 82.6993 21.6768 83.2473 21.7906C83.7953 21.9043 84.3485 21.9741 84.9068 21.9973C85.4652 22.0206 85.9537 22.0309 86.3751 22.0309C86.7964 22.0309 87.3056 22.0206 87.8769 21.9973C88.4482 21.9741 89.0117 21.9017 89.5648 21.7776C90.118 21.6535 90.6272 21.4726 91.0951 21.2348C91.5604 20.997 91.9042 20.6687 92.1239 20.2474C92.2428 20.0199 92.3152 19.7821 92.3436 19.5339C92.3721 19.2858 92.385 19.0454 92.385 18.8076C92.385 18.5697 92.3721 18.3164 92.3436 18.0734V18.076Z" fill="#C8B4A4"/>
<path d="M109.972 22.9178C109.859 23.0238 109.724 23.0755 109.567 23.0755C109.409 23.0755 109.274 23.0238 109.156 22.9178C109.037 22.8118 108.977 22.6877 108.977 22.5404V18.7147C108.977 18.2107 108.936 17.7661 108.853 17.3783C108.77 16.9906 108.623 16.6623 108.409 16.3986C108.194 16.1324 107.897 15.9308 107.517 15.7886C107.137 15.6464 106.646 15.5766 106.043 15.5766C105.441 15.5766 104.947 15.6464 104.57 15.7886C104.19 15.9308 103.895 16.135 103.686 16.3986C103.476 16.6649 103.329 16.9906 103.246 17.3783C103.164 17.7661 103.122 18.2133 103.122 18.7147V22.5404C103.122 22.6877 103.06 22.8118 102.936 22.9178C102.812 23.0238 102.673 23.0755 102.517 23.0755C102.37 23.0755 102.238 23.0238 102.119 22.9178C102 22.8118 101.941 22.6877 101.941 22.5404V18.7147C101.941 18.2107 101.9 17.7661 101.817 17.3783C101.734 16.9906 101.589 16.6623 101.378 16.3986C101.168 16.1324 100.873 15.9308 100.493 15.7886C100.114 15.6464 99.6224 15.5766 99.0201 15.5766C98.4178 15.5766 97.9241 15.6464 97.5467 15.7886C97.1667 15.9308 96.8669 16.135 96.6497 16.3986C96.43 16.6649 96.2801 16.9906 96.1974 17.3783C96.1146 17.7661 96.0733 18.2133 96.0733 18.7147V22.5404C96.0733 22.6877 96.0164 22.8118 95.9027 22.9178C95.7889 23.0238 95.6545 23.0755 95.4968 23.0755C95.3392 23.0755 95.2073 23.0238 95.091 22.9178C94.9747 22.8118 94.9204 22.6877 94.9204 22.5404V18.7147C94.9204 18.0737 94.9902 17.4947 95.1272 16.9725C95.2642 16.4503 95.4943 16.0083 95.82 15.6413C96.1457 15.2742 96.567 14.995 97.0892 14.7986C97.6113 14.6021 98.2549 14.5039 99.0227 14.5039C99.3794 14.5039 99.7284 14.5298 100.072 14.5789C100.416 14.6306 100.736 14.7185 101.039 14.8477C101.341 14.9769 101.621 15.1398 101.876 15.3414C102.132 15.543 102.347 15.7938 102.52 16.0962C102.711 15.7938 102.934 15.543 103.184 15.3414C103.435 15.1398 103.714 14.9769 104.022 14.8477C104.33 14.7185 104.653 14.6306 104.996 14.5789C105.34 14.5298 105.689 14.5039 106.046 14.5039C106.814 14.5039 107.46 14.6021 107.979 14.7986C108.502 14.995 108.923 15.2768 109.249 15.6413C109.574 16.0083 109.804 16.4503 109.941 16.9725C110.078 17.4947 110.148 18.0737 110.148 18.7147V22.5404C110.148 22.6877 110.091 22.8118 109.978 22.9178H109.972Z" fill="#C8B4A4"/>
<path d="M123.626 21.9224C123.407 22.2326 123.12 22.4756 122.763 22.6488C122.406 22.822 122.006 22.9383 121.564 22.9977C121.119 23.0572 120.674 23.0856 120.227 23.0856H112.095C111.94 23.0856 111.805 23.0339 111.689 22.9279C111.575 22.822 111.519 22.7005 111.519 22.5635V15.0491C111.519 14.9018 111.575 14.7751 111.689 14.664C111.803 14.5554 111.937 14.4985 112.095 14.4985H114.016C114.701 14.4985 115.399 14.4985 116.107 14.5063C116.815 14.5115 117.513 14.514 118.198 14.514H120.103C120.561 14.514 121.018 14.5425 121.476 14.5968C121.933 14.651 122.347 14.7674 122.716 14.9406C123.086 15.1137 123.386 15.3593 123.616 15.6747C123.843 15.99 123.96 16.4088 123.96 16.9309C123.96 17.3238 123.88 17.6832 123.719 18.0063C123.559 18.332 123.295 18.5982 122.931 18.8076C123.298 19.017 123.559 19.2858 123.719 19.6089C123.88 19.9346 123.96 20.2913 123.96 20.6868C123.96 21.1986 123.849 21.6096 123.631 21.9198L123.626 21.9224ZM122.755 16.5458C122.732 16.4165 122.68 16.2976 122.597 16.1891C122.486 16.0417 122.329 15.928 122.117 15.8453C121.907 15.7626 121.68 15.7005 121.437 15.6592C121.194 15.6178 120.956 15.5945 120.723 15.592C120.491 15.5868 120.281 15.5842 120.1 15.5842H112.666V18.2725H120.1C120.374 18.2725 120.669 18.2648 120.985 18.2518C121.3 18.2389 121.592 18.1898 121.863 18.1071C122.132 18.0244 122.355 17.8925 122.528 17.709C122.701 17.5255 122.789 17.2644 122.789 16.9284C122.789 16.7991 122.776 16.6724 122.755 16.5432V16.5458ZM122.755 20.3043C122.732 20.1776 122.68 20.0587 122.597 19.9475C122.486 19.8028 122.329 19.6839 122.117 19.5986C121.907 19.5107 121.68 19.4512 121.437 19.4125C121.194 19.3763 120.956 19.353 120.723 19.3452C120.491 19.3349 120.281 19.3323 120.1 19.3323H112.666V22.0336H120.1C120.374 22.0336 120.669 22.0258 120.985 22.0129C121.3 22 121.592 21.9508 121.863 21.8681C122.132 21.7854 122.355 21.651 122.528 21.4623C122.701 21.2736 122.789 21.0177 122.789 20.6868C122.789 20.5576 122.776 20.4309 122.755 20.3017V20.3043Z" fill="#C8B4A4"/>
<path d="M139.355 20.5033C139.154 21.0099 138.779 21.47 138.231 21.881C137.874 22.1473 137.458 22.3592 136.982 22.5195C136.507 22.6798 136.005 22.8038 135.48 22.8891C134.956 22.977 134.431 23.0313 133.909 23.0546C133.387 23.0778 132.911 23.0882 132.482 23.0882C132.053 23.0882 131.577 23.0778 131.055 23.0546C130.533 23.0313 130.013 22.977 129.491 22.8891C128.969 22.8013 128.473 22.6798 127.997 22.5195C127.522 22.3592 127.105 22.1473 126.749 21.881C126.201 21.47 125.826 21.0099 125.624 20.5033C125.423 19.9966 125.322 19.4305 125.322 18.8101C125.322 18.1898 125.423 17.6107 125.624 17.1015C125.826 16.5949 126.201 16.1399 126.749 15.7367C127.105 15.4808 127.522 15.2714 127.997 15.1137C128.473 14.9535 128.972 14.8294 129.491 14.7441C130.013 14.6562 130.533 14.5967 131.055 14.5657C131.577 14.5347 132.053 14.5166 132.482 14.5166C132.911 14.5166 133.387 14.5321 133.909 14.5657C134.431 14.5967 134.953 14.6562 135.48 14.7441C136.005 14.832 136.507 14.9535 136.982 15.1137C137.458 15.274 137.874 15.4808 138.231 15.7367C138.779 16.1399 139.154 16.5949 139.355 17.1015C139.557 17.6082 139.658 18.1794 139.658 18.8101C139.658 19.4409 139.557 19.9966 139.355 20.5033ZM138.451 18.076C138.422 17.833 138.35 17.5978 138.231 17.3703C138.011 16.949 137.667 16.6207 137.202 16.3829C136.737 16.1451 136.225 15.9667 135.672 15.8478C135.119 15.7289 134.555 15.6565 133.984 15.6281C133.413 15.5997 132.911 15.5868 132.482 15.5868C132.053 15.5868 131.572 15.5997 131.014 15.6281C130.455 15.6565 129.902 15.7238 129.354 15.8349C128.806 15.9435 128.3 16.1141 127.839 16.3416C127.377 16.5716 127.033 16.8844 126.803 17.2876C126.674 17.5151 126.588 17.7607 126.542 18.0217C126.495 18.2828 126.475 18.5465 126.475 18.8101C126.475 19.0738 126.498 19.3297 126.542 19.5985C126.588 19.8674 126.674 20.1181 126.803 20.3456C127.03 20.7488 127.377 21.0616 127.839 21.2839C128.302 21.5088 128.806 21.6768 129.354 21.7906C129.902 21.9043 130.455 21.9741 131.014 21.9973C131.572 22.0206 132.061 22.0309 132.482 22.0309C132.903 22.0309 133.413 22.0206 133.984 21.9973C134.555 21.9741 135.119 21.9017 135.672 21.7776C136.225 21.6535 136.734 21.4726 137.202 21.2348C137.667 20.997 138.011 20.6687 138.231 20.2474C138.35 20.0199 138.422 19.7821 138.451 19.5339C138.479 19.2858 138.492 19.0454 138.492 18.8076C138.492 18.5697 138.479 18.3164 138.451 18.0734V18.076Z" fill="#C8B4A4"/>
<path d="M59.4532 40.2652C59.3369 40.428 59.2077 40.5082 59.0681 40.5082C58.9776 40.5082 58.6778 40.2393 58.1634 39.7043C57.649 39.164 57.3078 38.8926 57.1346 38.8926C57.1346 38.9029 56.5271 39.1382 55.3096 39.5957C54.0663 40.0584 53.2727 40.291 52.9315 40.291C52.6523 40.291 52.3421 40.154 52.0035 39.88C51.6623 39.606 51.4917 39.3501 51.4917 39.1097C51.4917 38.4893 52.1689 37.7682 53.526 36.941C54.7978 36.1603 55.7697 35.77 56.4392 35.77C56.7184 35.77 56.9691 35.9303 57.1914 36.2482V36.6075C57.0803 36.7704 56.951 36.8505 56.8063 36.8505C56.7778 36.8505 56.6822 36.8143 56.5168 36.7419C56.3513 36.6696 56.2531 36.6334 56.2195 36.6334C55.9972 36.6334 55.4854 36.8634 54.6867 37.321C53.9267 37.7501 53.42 38.0706 53.1641 38.2826C52.9082 38.5049 52.7428 38.7608 52.6704 39.0451C52.8669 39.2286 53.0969 39.3217 53.3658 39.3217C53.5053 39.3217 54.1774 39.089 55.382 38.6263C56.5814 38.1585 57.3078 37.9233 57.5585 37.9233C57.9256 37.9233 58.1918 38.0163 58.3546 38.1998C58.3934 38.2438 58.5356 38.4945 58.7812 38.952C58.9647 39.2984 59.1896 39.6112 59.4507 39.8904V40.2678L59.4532 40.2652Z" fill="#C8B4A4"/>
<path d="M74.8796 28.7134V28.7057C74.8796 28.7057 74.8228 28.853 74.7452 29.1503C73.7681 27.788 72.3645 27.1082 70.5344 27.1082C69.9192 27.1082 69.2652 27.2556 68.5673 27.5528C67.8202 27.8604 67.2774 28.243 66.9439 28.7005C66.564 29.2201 66.1866 30.0033 65.8143 31.0528C65.4137 32.1514 65.212 32.9863 65.212 33.555C65.212 33.7334 65.2482 34.103 65.3206 34.6588C65.393 35.2662 65.4344 35.6281 65.4473 35.7392C65.6928 35.9357 65.879 36.0313 66.0082 36.0313C66.0651 36.0313 66.1969 36.0029 66.4089 35.9486C66.626 35.8918 66.7397 35.8659 66.7527 35.8659C67.1817 35.822 68.1252 35.7987 69.5831 35.7987C70.537 35.7987 71.4443 35.8271 72.3025 35.8814C72.2534 35.8814 72.1319 35.9564 71.9432 36.1063L71.969 36.3415L68.8645 36.5251C67.6031 36.5974 66.6312 36.8533 65.9513 37.2954C66.1194 37.8873 66.4787 38.6654 67.0318 39.6295V40.0897C66.975 40.1905 66.869 40.2396 66.7139 40.2396C66.5588 40.2396 66.1788 39.7355 65.5584 38.7248C64.9277 37.7193 64.5426 37.2178 64.403 37.2178C64.0799 37.2178 63.6172 37.2799 63.0123 37.4013C62.8288 37.4453 62.4591 37.5694 61.9085 37.7684C61.3605 37.9752 61.0426 38.0786 60.9547 38.0786C60.6471 38.0786 60.311 37.8899 59.9414 37.5099V37.4763C59.9414 37.2256 60.0577 37.0472 60.293 36.9412C60.9392 36.6388 62.2291 36.401 64.16 36.2226C64.2711 36.1451 64.3564 36.0598 64.4107 35.9719C64.3332 35.3127 64.2944 34.6691 64.2944 34.0384C64.2944 31.8619 64.7726 30.0576 65.7264 28.623C66.8147 26.9712 68.3967 26.144 70.4723 26.144C71.4158 26.144 72.3309 26.3457 73.2175 26.7463C74.329 27.253 74.8822 27.9095 74.8822 28.7134H74.8796Z" fill="#C8B4A4"/>
<path d="M81.1404 39.8467C80.9336 40.0923 80.6648 40.2138 80.3365 40.2138H77.3742C76.6866 40.2138 75.9241 40.1104 75.0814 39.9036C73.9776 39.6347 73.3521 39.2987 73.2073 38.8903C73.0445 38.4328 72.9644 37.9959 72.9644 37.5771C72.9644 36.7345 73.3262 36.0882 74.0526 35.6359C74.6652 35.2456 75.4149 35.0491 76.2963 35.0491C77.0563 35.0491 77.6586 35.2119 78.1032 35.5376C78.5478 35.8633 78.7727 36.308 78.7727 36.874C78.7727 37.1868 78.2376 37.5306 77.1648 37.9028C76.2782 38.2208 75.632 38.3811 75.2313 38.3811C75.1822 38.3811 75.1357 38.3785 75.0969 38.3733C75.0969 38.4508 75.0349 38.5465 74.9134 38.6576C74.9806 38.7688 75.3063 38.898 75.8931 39.0428C76.4178 39.1772 76.7926 39.2444 77.0149 39.2444H79.6774C79.6774 39.2444 80.0134 39.3013 80.6829 39.3943C80.8949 39.5288 81.0474 39.6787 81.143 39.8467H81.1404ZM78.7468 34.1134C78.7468 34.1754 78.6874 34.2607 78.571 34.3719C78.3746 34.5554 78.1781 34.6484 77.9765 34.6484C77.8602 34.6484 77.6301 34.5631 77.2889 34.3899L76.5703 34.0384C76.1076 33.8032 75.588 33.4671 75.0142 33.0251C74.3886 32.5443 73.8458 32.2419 73.3831 32.1126C73.1376 31.805 73.0161 31.5646 73.0161 31.394C73.0161 31.2234 73.0393 31.1226 73.0833 31.0838C73.1169 31.0554 73.2254 31.0425 73.409 31.0425C73.7036 31.0425 74.1508 31.2157 74.748 31.562C76.1722 32.4047 77.4776 33.219 78.6667 34.0074L78.7494 34.1159L78.7468 34.1134ZM77.6922 36.507C77.3794 36.189 76.8779 36.0288 76.1852 36.0288C75.6992 36.0288 75.2494 36.1244 74.8384 36.3131C74.3033 36.5587 74.0345 36.8896 74.0345 37.3083C74.0345 37.4582 74.0836 37.5642 74.1844 37.6263H74.7195C74.9082 37.6263 75.4226 37.466 76.2601 37.1481C77.0976 36.8301 77.5733 36.6156 77.6922 36.5044V36.507Z" fill="#C8B4A4"/>
<path d="M88.792 43.1808C89.0246 43.1498 89.1746 43.0722 89.2418 42.9533C89.309 42.8344 89.3452 42.6664 89.3452 42.4493V39.9109C89.3452 39.8101 89.34 39.7196 89.3297 39.6369C89.3193 39.5541 89.2986 39.4844 89.265 39.4197C89.2314 39.3577 89.1823 39.306 89.1151 39.2672C89.0479 39.2285 88.96 39.1974 88.8489 39.1768L88.8618 39.0863C89.2185 39.0708 89.5726 39.0604 89.9242 39.0527C90.2757 39.0475 90.6299 39.0449 90.9866 39.0449C91.3071 39.0449 91.6147 39.0837 91.9146 39.1587C92.2144 39.2336 92.4755 39.3551 92.703 39.518C92.9304 39.6808 93.114 39.8928 93.251 40.1487C93.388 40.4046 93.4578 40.7122 93.4578 41.0741C93.4578 41.436 93.388 41.7694 93.251 42.0434C93.114 42.3174 92.9279 42.5449 92.6926 42.7284C92.46 42.9094 92.186 43.0464 91.8758 43.1368C91.5656 43.2273 91.2399 43.2713 90.9013 43.2713H88.8075L88.7946 43.1808H88.792ZM89.8957 39.2026V42.563C89.8957 42.6948 89.9138 42.7982 89.9474 42.8706C89.9811 42.943 90.0276 43.0024 90.0844 43.0412C90.1413 43.08 90.2111 43.1058 90.2887 43.1162C90.3662 43.1265 90.4515 43.1317 90.5446 43.1317H90.8082C91.457 43.1317 91.9508 42.9637 92.2894 42.6302C92.6306 42.2967 92.7986 41.803 92.7986 41.1516C92.7986 40.5002 92.628 39.9858 92.2816 39.6731C91.9378 39.3603 91.4364 39.2026 90.7746 39.2026H89.8932H89.8957Z" fill="#C8B4A4"/>
<path d="M95.7635 40.193C95.9909 40.193 96.2055 40.2318 96.4097 40.3093C96.6113 40.3869 96.7897 40.4955 96.9396 40.6325C97.0921 40.7695 97.211 40.9375 97.2989 41.1313C97.3868 41.3252 97.4307 41.5398 97.4307 41.7776C97.4307 42.0154 97.3842 42.2403 97.2937 42.4341C97.2007 42.628 97.0766 42.7934 96.9215 42.9279C96.7664 43.0649 96.5829 43.1683 96.3761 43.2406C96.1667 43.313 95.947 43.3492 95.7169 43.3492C95.4998 43.3492 95.2956 43.3078 95.0991 43.2277C94.9027 43.1476 94.7321 43.0364 94.5822 42.8943C94.4348 42.7521 94.3159 42.5866 94.228 42.3928C94.1401 42.2015 94.0962 41.9947 94.0962 41.775C94.0962 41.5423 94.1401 41.3304 94.2306 41.1365C94.3211 40.9426 94.4426 40.7746 94.5925 40.635C94.7424 40.4954 94.9208 40.3869 95.1224 40.3068C95.324 40.2292 95.5386 40.1904 95.7609 40.1904L95.7635 40.193ZM95.8462 43.1993C96.022 43.1993 96.1745 43.1579 96.3011 43.0752C96.4278 42.9925 96.5338 42.8891 96.6191 42.7598C96.7018 42.6332 96.7664 42.4884 96.8078 42.3307C96.8491 42.1731 96.8698 42.018 96.8698 41.8655C96.8698 41.6742 96.8491 41.4855 96.8052 41.3045C96.7612 41.1236 96.6914 40.9607 96.5958 40.8186C96.5002 40.6764 96.3761 40.5627 96.221 40.4774C96.0659 40.3921 95.8824 40.3481 95.6652 40.3481C95.4895 40.3481 95.3369 40.3895 95.2103 40.4696C95.081 40.5523 94.9776 40.6557 94.8949 40.785C94.8122 40.9142 94.7528 41.0564 94.7114 41.2141C94.67 41.3717 94.652 41.5268 94.652 41.6793C94.652 41.868 94.6726 42.0516 94.714 42.2351C94.7553 42.416 94.8251 42.5789 94.9208 42.7211C95.0164 42.8632 95.1405 42.9796 95.293 43.0674C95.4455 43.1553 95.6291 43.1993 95.8462 43.1993Z" fill="#C8B4A4"/>
<path d="M97.8701 43.2716L97.8753 43.1682C97.958 43.163 98.0304 43.1423 98.0872 43.1062C98.1441 43.0674 98.1932 43.0183 98.2294 42.9588C98.2656 42.8994 98.2915 42.8322 98.307 42.7572C98.3225 42.6822 98.3302 42.6098 98.3302 42.5375L98.3251 39.464C98.3251 39.3709 98.3225 39.2986 98.3173 39.2417C98.3121 39.1848 98.294 39.1409 98.2682 39.1099C98.2423 39.0789 98.2036 39.053 98.1519 39.0349C98.1002 39.0168 98.0304 38.9987 97.9425 38.978L97.9373 38.8876L98.7361 38.6523H98.7903V42.4573C98.7903 42.5297 98.7955 42.6073 98.8033 42.6874C98.811 42.7701 98.8291 42.8451 98.8576 42.9149C98.886 42.9847 98.9273 43.0441 98.9842 43.0881C99.0411 43.1346 99.1135 43.1578 99.2065 43.163L99.2194 43.2664H97.8753L97.8701 43.2716Z" fill="#C8B4A4"/>
<path d="M99.6562 41.8138C99.6562 41.5811 99.7002 41.3666 99.7855 41.1675C99.8708 40.9685 99.9897 40.7979 100.14 40.6531C100.29 40.5084 100.465 40.3972 100.667 40.3145C100.869 40.2318 101.083 40.1904 101.311 40.1904C101.406 40.1904 101.51 40.1956 101.616 40.2034C101.724 40.2111 101.828 40.2292 101.931 40.2551C102.032 40.2809 102.13 40.3197 102.218 40.3688C102.308 40.4179 102.383 40.4851 102.443 40.5704C102.438 40.5988 102.43 40.6325 102.412 40.6764C102.396 40.7178 102.376 40.7591 102.352 40.7979C102.329 40.8392 102.301 40.8728 102.27 40.9039C102.239 40.9349 102.205 40.9478 102.174 40.9478C102.143 40.9478 102.115 40.9349 102.091 40.9065C102.068 40.878 102.047 40.8522 102.032 40.8289C102.016 40.8005 102.003 40.7746 101.993 40.7514C101.983 40.7281 101.967 40.7022 101.949 40.6738C101.869 40.5497 101.766 40.467 101.639 40.4282C101.512 40.3895 101.38 40.3662 101.241 40.3636H101.205C101.021 40.3636 100.863 40.4076 100.734 40.4929C100.605 40.5782 100.499 40.6893 100.419 40.8263C100.339 40.9633 100.279 41.1132 100.243 41.2761C100.204 41.4389 100.186 41.5992 100.186 41.7569C100.186 41.9146 100.209 42.08 100.256 42.2429C100.302 42.4057 100.37 42.5556 100.46 42.6875C100.551 42.8193 100.664 42.9253 100.801 43.008C100.938 43.0907 101.101 43.1321 101.285 43.1321C101.517 43.1321 101.729 43.0726 101.923 42.9511C102.117 42.8322 102.275 42.6719 102.394 42.4781L102.489 42.5453C102.337 42.8089 102.148 43.0106 101.923 43.1476C101.698 43.2846 101.43 43.3544 101.122 43.3544C100.897 43.3544 100.695 43.3156 100.517 43.238C100.336 43.1605 100.184 43.0519 100.054 42.9149C99.9251 42.7779 99.8294 42.6151 99.7596 42.4264C99.6924 42.2377 99.6562 42.0361 99.6562 41.8215V41.8138Z" fill="#C8B4A4"/>
<path d="M104.565 40.193C104.746 40.193 104.909 40.2189 105.056 40.2706C105.203 40.3223 105.351 40.3998 105.493 40.5058C105.55 40.5446 105.604 40.5937 105.661 40.6505C105.718 40.7074 105.769 40.7695 105.816 40.8367C105.865 40.9039 105.904 40.9762 105.932 41.0486C105.963 41.1236 105.976 41.196 105.976 41.2683C105.976 41.2916 105.961 41.3097 105.932 41.3226C105.901 41.3355 105.868 41.3433 105.831 41.3485C105.793 41.3536 105.756 41.3562 105.72 41.3562H103.567C103.562 41.4053 103.559 41.4519 103.559 41.501C103.559 41.5501 103.557 41.5966 103.557 41.6457C103.557 41.8422 103.58 42.0257 103.627 42.2015C103.673 42.3747 103.743 42.5298 103.838 42.6616C103.934 42.7934 104.058 42.8968 104.213 42.9744C104.366 43.0493 104.552 43.0881 104.769 43.0881C104.888 43.0881 105.007 43.07 105.123 43.0313C105.24 42.9925 105.348 42.9382 105.446 42.8684C105.547 42.7986 105.635 42.7159 105.71 42.6203C105.785 42.5246 105.844 42.4212 105.883 42.3075L105.992 42.3307C105.875 42.659 105.679 42.9098 105.4 43.0855C105.121 43.2613 104.813 43.3492 104.472 43.3492C104.255 43.3492 104.061 43.3053 103.885 43.2174C103.709 43.1295 103.559 43.0132 103.435 42.8658C103.311 42.7211 103.216 42.553 103.148 42.3618C103.081 42.1705 103.045 41.974 103.045 41.7698C103.045 41.5527 103.084 41.3511 103.159 41.1572C103.234 40.9659 103.34 40.7979 103.474 40.6557C103.608 40.5135 103.769 40.3998 103.955 40.3171C104.141 40.2344 104.343 40.1904 104.565 40.1904V40.193ZM103.606 41.196H105.395C105.389 41.0796 105.369 40.9711 105.325 40.8651C105.283 40.7617 105.227 40.6712 105.154 40.5911C105.082 40.5135 104.997 40.4489 104.896 40.4024C104.795 40.3533 104.686 40.33 104.565 40.33C104.275 40.33 104.061 40.4076 103.913 40.5652C103.769 40.7203 103.665 40.9323 103.606 41.196Z" fill="#C8B4A4"/>
<path d="M110.601 41.0873C110.471 40.9761 110.365 40.8443 110.278 40.6944C110.19 40.5444 110.146 40.3816 110.146 40.2058C110.146 40.0585 110.174 39.9292 110.234 39.8181C110.291 39.7069 110.368 39.6165 110.464 39.5415C110.559 39.4665 110.671 39.4123 110.797 39.3761C110.924 39.3399 111.053 39.3218 111.19 39.3218C111.293 39.3218 111.394 39.3373 111.49 39.3631C111.586 39.3916 111.673 39.4355 111.751 39.4924C111.829 39.5493 111.891 39.6216 111.937 39.7043C111.984 39.7871 112.007 39.8853 112.007 39.999C112.007 40.1179 111.984 40.2291 111.935 40.3273C111.885 40.4255 111.823 40.5134 111.746 40.591C111.668 40.6685 111.58 40.7383 111.482 40.7952C111.384 40.852 111.286 40.9037 111.185 40.9477C111.252 40.9916 111.34 41.0743 111.449 41.1958C111.557 41.3173 111.668 41.4492 111.782 41.5887C111.896 41.7283 112.007 41.8679 112.113 42.0023C112.219 42.1393 112.302 42.2453 112.361 42.3203C112.41 42.2608 112.467 42.1807 112.532 42.0799C112.599 41.9791 112.661 41.8757 112.72 41.7645C112.78 41.6534 112.831 41.5448 112.873 41.4362C112.914 41.3277 112.935 41.2372 112.935 41.1674C112.935 41.1105 112.922 41.064 112.896 41.0304C112.87 40.9968 112.837 40.9658 112.798 40.9477C112.759 40.927 112.713 40.9141 112.663 40.9037C112.614 40.8934 112.565 40.8857 112.521 40.8831V40.7874H113.643V40.8598C113.579 40.8598 113.506 40.8701 113.426 40.8908C113.346 40.9115 113.289 40.9554 113.258 41.0227C113.227 41.0899 113.196 41.1648 113.17 41.2424C113.144 41.3199 113.116 41.3949 113.082 41.4673C112.919 41.8266 112.715 42.1548 112.47 42.4521C112.529 42.5193 112.599 42.5917 112.676 42.6641C112.754 42.739 112.837 42.8062 112.922 42.8683C113.007 42.9303 113.098 42.982 113.196 43.0208C113.294 43.0596 113.39 43.0802 113.491 43.0802C113.548 43.0802 113.602 43.0802 113.653 43.0751C113.705 43.0699 113.759 43.0596 113.816 43.0389L113.853 43.1345C113.713 43.194 113.563 43.2431 113.405 43.2793C113.248 43.3155 113.093 43.3336 112.94 43.3336C112.821 43.3336 112.726 43.2896 112.658 43.1991C112.591 43.1087 112.529 43.0234 112.477 42.9381C112.449 42.8941 112.415 42.8502 112.371 42.8088C112.327 42.7675 112.291 42.7261 112.255 42.6873C112.051 42.9148 111.826 43.088 111.58 43.2069C111.335 43.3258 111.056 43.3827 110.743 43.3827C110.596 43.3827 110.446 43.3594 110.296 43.3129C110.146 43.2664 110.011 43.1992 109.89 43.1087C109.771 43.0182 109.673 42.9096 109.595 42.7804C109.52 42.6511 109.481 42.5038 109.481 42.3358C109.481 42.1678 109.512 42.0178 109.574 41.886C109.637 41.7542 109.719 41.6379 109.823 41.5396C109.926 41.4414 110.045 41.3561 110.179 41.2811C110.314 41.2062 110.453 41.1416 110.596 41.0873H110.601ZM110.042 42.16C110.042 42.2918 110.068 42.4159 110.12 42.5348C110.172 42.6537 110.241 42.7545 110.329 42.8424C110.417 42.9303 110.521 43.0001 110.642 43.0492C110.764 43.0983 110.888 43.1242 111.019 43.1242C111.247 43.1242 111.456 43.0725 111.642 42.9691C111.831 42.8657 111.999 42.7339 112.152 42.5736C111.924 42.3254 111.686 42.0876 111.441 41.8602C111.195 41.6327 110.947 41.4052 110.694 41.1829C110.502 41.2863 110.345 41.4181 110.223 41.5784C110.102 41.7387 110.04 41.9325 110.04 42.16H110.042ZM111.087 40.852C111.239 40.7719 111.361 40.6711 111.449 40.547C111.539 40.423 111.583 40.2704 111.583 40.0921C111.583 39.9137 111.544 39.7638 111.469 39.6475C111.394 39.5312 111.257 39.4743 111.061 39.4743C110.725 39.4743 110.557 39.6475 110.557 39.9964C110.557 40.0895 110.572 40.1748 110.606 40.2549C110.637 40.3351 110.678 40.41 110.73 40.4772C110.779 40.5444 110.836 40.6091 110.901 40.6711C110.965 40.7331 111.027 40.7952 111.087 40.8546V40.852Z" fill="#C8B4A4"/>
<path d="M117.358 42.2092L117.477 42.2273C117.508 42.4005 117.572 42.5452 117.665 42.6693C117.758 42.7934 117.872 42.8916 118.004 42.9717C118.136 43.0519 118.28 43.1113 118.438 43.1475C118.596 43.1863 118.754 43.2044 118.909 43.2044C119.038 43.2044 119.167 43.1889 119.299 43.1527C119.431 43.1191 119.55 43.0674 119.658 42.9976C119.767 42.9278 119.855 42.8373 119.922 42.7313C119.989 42.6253 120.025 42.4961 120.025 42.3462C120.025 42.1962 119.989 42.0773 119.914 41.9688C119.839 41.8602 119.746 41.7672 119.635 41.687C119.524 41.6069 119.402 41.5397 119.273 41.4854C119.144 41.4311 119.02 41.3846 118.903 41.3432C118.766 41.2941 118.614 41.2372 118.443 41.1675C118.273 41.0977 118.112 41.0124 117.963 40.9115C117.813 40.8107 117.689 40.6944 117.588 40.5574C117.487 40.4204 117.438 40.2653 117.438 40.0895C117.438 39.8931 117.484 39.7251 117.575 39.5855C117.665 39.4459 117.784 39.3296 117.926 39.2391C118.069 39.1486 118.226 39.084 118.405 39.0401C118.58 38.9987 118.754 38.978 118.922 38.978C119.369 38.978 119.793 39.0711 120.193 39.2598L120.32 39.2236L120.289 39.9629H120.193C120.149 39.8155 120.08 39.6889 119.984 39.5829C119.888 39.4769 119.777 39.3916 119.65 39.3244C119.524 39.2598 119.389 39.2107 119.245 39.1797C119.1 39.1486 118.958 39.1357 118.818 39.1357C118.717 39.1357 118.617 39.1512 118.516 39.1797C118.412 39.2107 118.322 39.2546 118.242 39.3141C118.162 39.3735 118.097 39.4485 118.043 39.5364C117.991 39.6243 117.965 39.7251 117.965 39.8362C117.965 40.0327 118.03 40.1904 118.156 40.3118C118.286 40.4333 118.443 40.5393 118.637 40.6272C118.828 40.7151 119.038 40.7978 119.26 40.8728C119.485 40.9477 119.692 41.0382 119.883 41.1416C120.074 41.245 120.235 41.3742 120.364 41.5268C120.491 41.6793 120.555 41.8757 120.555 42.1135C120.555 42.3307 120.504 42.5168 120.403 42.6745C120.302 42.8321 120.17 42.964 120.01 43.0674C119.85 43.1708 119.674 43.2483 119.48 43.2974C119.286 43.3465 119.095 43.3724 118.906 43.3724C118.658 43.3724 118.412 43.3439 118.164 43.2845C117.919 43.2276 117.683 43.1475 117.458 43.0467L117.386 43.0829H117.327L117.35 42.2014L117.358 42.2092Z" fill="#C8B4A4"/>
<path d="M122.463 41.7307C122.585 41.7152 122.704 41.6945 122.82 41.6687C122.936 41.6428 123.055 41.6066 123.171 41.5627V41.1956C123.171 41.0845 123.158 40.9785 123.135 40.8803C123.112 40.7821 123.073 40.6968 123.021 40.6218C122.97 40.5468 122.9 40.49 122.815 40.4486C122.729 40.4072 122.621 40.3866 122.494 40.3866C122.391 40.3866 122.287 40.4021 122.189 40.4357C122.091 40.4693 122 40.5132 121.923 40.5727C121.845 40.6321 121.781 40.7071 121.734 40.795C121.688 40.8829 121.662 40.9863 121.662 41.1L121.295 40.7588C121.447 40.5778 121.631 40.4357 121.848 40.3297C122.065 40.2237 122.293 40.1694 122.533 40.1694C122.685 40.1694 122.83 40.1927 122.965 40.2392C123.099 40.2858 123.221 40.3504 123.321 40.4383C123.422 40.5236 123.505 40.6295 123.567 40.7562C123.629 40.8829 123.66 41.025 123.66 41.1853V42.5527C123.66 42.5889 123.66 42.6354 123.663 42.6975C123.663 42.7569 123.673 42.8164 123.686 42.8784C123.699 42.9379 123.722 42.9896 123.75 43.0335C123.781 43.0775 123.82 43.0981 123.874 43.0981C123.947 43.0981 124.004 43.0775 124.048 43.0387L124.071 43.1059C124.027 43.1809 123.968 43.2429 123.893 43.2868C123.818 43.3308 123.737 43.3541 123.65 43.3541C123.518 43.3541 123.407 43.3075 123.319 43.2119C123.231 43.1188 123.187 43.0077 123.187 42.8784C123.187 42.8552 123.192 42.819 123.2 42.7699C123.081 42.9586 122.936 43.1033 122.768 43.2067C122.6 43.3101 122.401 43.3618 122.174 43.3618C122.057 43.3618 121.941 43.3463 121.822 43.3204C121.703 43.292 121.597 43.2481 121.504 43.186C121.411 43.124 121.334 43.0439 121.274 42.9482C121.215 42.8526 121.184 42.7388 121.184 42.607C121.184 42.439 121.225 42.302 121.31 42.196C121.396 42.09 121.499 42.0047 121.628 41.9401C121.757 41.8755 121.894 41.8289 122.042 41.7979C122.189 41.7669 122.329 41.7436 122.461 41.7281L122.463 41.7307ZM122.355 43.1654C122.473 43.1654 122.585 43.1421 122.685 43.093C122.786 43.0439 122.872 42.9792 122.944 42.8991C123.016 42.8164 123.071 42.7233 123.112 42.6173C123.151 42.5114 123.171 42.4002 123.171 42.2839V41.7126C123.076 41.7333 122.959 41.754 122.82 41.7798C122.683 41.8031 122.543 41.8341 122.406 41.8729C122.269 41.9117 122.14 41.9582 122.026 42.0176C121.91 42.0745 121.827 42.1495 121.781 42.2425C121.75 42.2994 121.726 42.3563 121.719 42.4157C121.711 42.4752 121.703 42.5372 121.703 42.6018C121.703 42.6897 121.721 42.7699 121.76 42.8397C121.799 42.9094 121.848 42.9689 121.91 43.0154C121.972 43.062 122.042 43.1007 122.119 43.1266C122.197 43.1524 122.277 43.1654 122.357 43.1654H122.355Z" fill="#C8B4A4"/>
<path d="M124.492 43.2716L124.497 43.1682C124.58 43.163 124.652 43.1423 124.709 43.1062C124.766 43.07 124.815 43.0183 124.851 42.9588C124.888 42.8994 124.914 42.8322 124.929 42.7572C124.945 42.6822 124.952 42.6098 124.952 42.5375L124.947 39.464C124.947 39.3709 124.945 39.2986 124.939 39.2417C124.934 39.1848 124.916 39.1409 124.89 39.1099C124.864 39.0789 124.826 39.053 124.774 39.0349C124.722 39.0168 124.652 38.9987 124.565 38.978L124.559 38.8876L125.358 38.6523H125.412V42.4573C125.412 42.5297 125.418 42.6073 125.425 42.6874C125.433 42.7701 125.451 42.8451 125.48 42.9149C125.508 42.9847 125.549 43.0441 125.606 43.0881C125.663 43.1346 125.736 43.1578 125.829 43.163L125.842 43.2664H124.497L124.492 43.2716Z" fill="#C8B4A4"/>
<path d="M127.635 41.7307C127.757 41.7152 127.876 41.6945 127.992 41.6687C128.109 41.6428 128.227 41.6066 128.344 41.5627V41.1956C128.344 41.0845 128.331 40.9785 128.308 40.8803C128.284 40.7821 128.246 40.6968 128.194 40.6218C128.142 40.5468 128.072 40.49 127.987 40.4486C127.902 40.4072 127.793 40.3866 127.667 40.3866C127.563 40.3866 127.46 40.4021 127.361 40.4357C127.263 40.4693 127.173 40.5132 127.095 40.5727C127.018 40.6321 126.953 40.7071 126.907 40.795C126.857 40.8829 126.834 40.9863 126.834 41.1L126.467 40.7588C126.62 40.5778 126.803 40.4357 127.02 40.3297C127.237 40.2237 127.465 40.1694 127.705 40.1694C127.858 40.1694 128.003 40.1927 128.137 40.2392C128.271 40.2858 128.393 40.3504 128.494 40.4383C128.594 40.5236 128.677 40.6295 128.739 40.7562C128.801 40.8829 128.832 41.025 128.832 41.1853V42.5527C128.832 42.5889 128.832 42.6354 128.835 42.6975C128.835 42.7569 128.845 42.8164 128.858 42.8784C128.871 42.9379 128.894 42.9896 128.923 43.0335C128.954 43.0775 128.993 43.0981 129.047 43.0981C129.119 43.0981 129.176 43.0775 129.22 43.0387L129.243 43.1059C129.199 43.1809 129.14 43.2429 129.065 43.2868C128.99 43.3308 128.91 43.3541 128.822 43.3541C128.69 43.3541 128.579 43.3075 128.491 43.2119C128.403 43.1188 128.359 43.0077 128.359 42.8784C128.359 42.8552 128.364 42.819 128.372 42.7699C128.253 42.9586 128.109 43.1033 127.941 43.2067C127.772 43.3101 127.573 43.3618 127.346 43.3618C127.23 43.3618 127.113 43.3463 126.994 43.3204C126.876 43.292 126.77 43.2481 126.676 43.186C126.583 43.124 126.506 43.0439 126.446 42.9482C126.387 42.8526 126.356 42.7388 126.356 42.607C126.356 42.439 126.397 42.302 126.483 42.196C126.565 42.09 126.671 42.0047 126.801 41.9401C126.93 41.8755 127.067 41.8289 127.214 41.7979C127.361 41.7669 127.501 41.7436 127.633 41.7281L127.635 41.7307ZM127.527 43.1654C127.646 43.1654 127.757 43.1421 127.858 43.093C127.959 43.0439 128.044 42.9792 128.116 42.8991C128.189 42.8164 128.243 42.7233 128.284 42.6173C128.323 42.5114 128.344 42.4002 128.344 42.2839V41.7126C128.248 41.7333 128.132 41.754 127.992 41.7798C127.855 41.8031 127.716 41.8341 127.579 41.8729C127.442 41.9117 127.312 41.9582 127.199 42.0176C127.082 42.0745 127 42.1495 126.953 42.2425C126.922 42.2994 126.899 42.3563 126.891 42.4157C126.883 42.4752 126.876 42.5372 126.876 42.6018C126.876 42.6897 126.894 42.7699 126.932 42.8397C126.971 42.9094 127.02 42.9689 127.082 43.0154C127.144 43.0645 127.214 43.1007 127.292 43.1266C127.369 43.1524 127.449 43.1654 127.53 43.1654H127.527Z" fill="#C8B4A4"/>
<path d="M130.298 39.5882L130.399 39.583V40.3688H131.226L131.154 40.5911H130.396V42.08C130.396 42.155 130.399 42.2506 130.404 42.367C130.409 42.4833 130.427 42.597 130.458 42.7056C130.489 42.8167 130.536 42.9098 130.6 42.9873C130.665 43.0649 130.753 43.1037 130.864 43.1037C130.916 43.1037 130.962 43.0856 131.001 43.052C131.04 43.0184 131.073 42.9796 131.097 42.9356L131.146 43.0003C131.073 43.1114 130.983 43.1915 130.877 43.2381C130.768 43.2846 130.652 43.3079 130.523 43.3079C130.303 43.3079 130.151 43.2381 130.063 43.1011C129.977 42.9641 129.934 42.7935 129.934 42.5944V40.5911H129.561L129.556 40.4955C129.737 40.3998 129.89 40.2732 130.019 40.1181C130.148 39.963 130.239 39.7872 130.295 39.5908L130.298 39.5882Z" fill="#C8B4A4"/>
<path d="M133.276 40.193C133.503 40.193 133.718 40.2318 133.922 40.3093C134.124 40.3869 134.302 40.4955 134.452 40.6325C134.604 40.7695 134.723 40.9375 134.811 41.1313C134.899 41.3252 134.943 41.5398 134.943 41.7776C134.943 42.0154 134.896 42.2403 134.806 42.4341C134.713 42.628 134.589 42.7934 134.434 42.9279C134.279 43.0649 134.095 43.1683 133.888 43.2406C133.679 43.313 133.459 43.3492 133.229 43.3492C133.012 43.3492 132.808 43.3078 132.611 43.2277C132.415 43.1476 132.244 43.0364 132.094 42.8943C131.947 42.7521 131.828 42.5866 131.74 42.3928C131.652 42.2015 131.608 41.9947 131.608 41.775C131.608 41.5423 131.652 41.3304 131.743 41.1365C131.833 40.9426 131.955 40.7746 132.105 40.635C132.257 40.4954 132.433 40.3869 132.635 40.3068C132.836 40.2292 133.051 40.1904 133.273 40.1904L133.276 40.193ZM133.358 43.1993C133.534 43.1993 133.687 43.1579 133.813 43.0752C133.94 42.9925 134.046 42.8891 134.131 42.7598C134.214 42.6332 134.279 42.4884 134.32 42.3307C134.361 42.1731 134.382 42.018 134.382 41.8655C134.382 41.6742 134.361 41.4855 134.317 41.3045C134.273 41.1236 134.204 40.9607 134.108 40.8186C134.012 40.6764 133.888 40.5627 133.733 40.4774C133.578 40.3921 133.395 40.3481 133.177 40.3481C133.002 40.3481 132.849 40.3895 132.722 40.4696C132.593 40.5523 132.49 40.6557 132.407 40.785C132.324 40.9142 132.265 41.0564 132.224 41.2141C132.185 41.3717 132.164 41.5268 132.164 41.6793C132.164 41.868 132.185 42.0516 132.226 42.2351C132.268 42.416 132.337 42.5789 132.433 42.7211C132.529 42.8632 132.653 42.9796 132.805 43.0674C132.958 43.1553 133.141 43.1993 133.358 43.1993Z" fill="#C8B4A4"/>
</svg>
