<svg width="160" height="50" viewBox="0 0 160 50" fill="none" xmlns="http://www.w3.org/2000/svg">
<path d="M59.9734 17.2765V10.4874H75.701V8.39461H57.3398V19.4794H76.5621V17.2731H59.9767L59.9734 17.2765ZM76.4186 2.17965V0.00341797H57.3398V2.17965H76.4186Z" fill="#EF781E"/>
<path d="M90.7411 0.00333778H78.5649V2.17957H90.5375C99.1323 2.17957 99.8766 2.78037 99.8766 9.56943V9.91322C99.8766 16.5587 99.2191 17.2764 90.5375 17.2764H81.1984V8.39453H78.5615V19.4793H90.7378C101.222 19.4793 102.51 18.2176 102.51 10.0267V9.4526C102.51 1.00134 101.135 0 90.7378 0L90.7411 0.00333778Z" fill="#09A9B7"/>
<path d="M1.75567 37.1096V32.5836H12.2397V31.1884H0V38.5782H12.8138V37.1063H1.75567V37.1096ZM12.717 27.0462V25.5942H0V27.0462H12.7203H12.717Z" fill="#EF781E"/>
<path d="M30.6308 38.5816H28.7216L27.1762 35.7344H17.0727L15.4672 38.5816H13.5947L21.0814 25.5942H23.3744L30.6308 38.5816ZM26.4485 34.4193L22.303 26.8759H22.1328L17.817 34.4193H26.4485Z" fill="#09A9B7"/>
<path d="M46.2553 35.01C46.2553 38.0641 45.0904 38.735 39.6665 38.735H39.0557C32.4669 38.735 31.8193 38.2009 31.8193 34.8765V34.5327H33.5583V34.8398C33.5583 37.0561 34.0557 37.3231 38.9622 37.3231H39.5163C43.7953 37.3231 44.5196 36.9593 44.5196 35.0501V34.8598C44.5196 33.1041 44.0056 32.6836 39.1157 32.6836C32.794 32.6836 32.1264 31.976 32.1264 29.1522V28.9419C32.1264 26.1716 33.2913 25.4473 38.4081 25.4473H38.9221C44.9769 25.4473 45.8347 26.1549 45.8347 29.229V29.5361H44.0957V29.3057C44.0957 27.223 43.5817 26.8425 39.1491 26.8425H38.7085C34.4896 26.8425 33.8587 27.223 33.8587 28.9419V29.1322C33.8587 30.8144 34.1658 31.215 39.2626 31.215C45.354 31.215 46.2519 31.9393 46.2519 34.8064V35.0167L46.2553 35.01Z" fill="#09A9B7"/>
<path d="M56.5489 38.5816H54.7933V33.6751L47.3467 25.5977H49.5429L55.7112 32.32H55.7679L61.8594 25.5977H64.0356L56.5489 33.6751V38.5816Z" fill="#09A9B7"/>
<path d="M79.9603 25.5942H71.8428V27.0462H79.8268C85.5544 27.0462 86.0517 27.4467 86.0517 31.9727V32.2031C86.0517 36.6323 85.6111 37.1096 79.8268 37.1096H73.6018V31.1884H71.8461V38.5782H79.9636C86.9529 38.5782 87.8141 37.7371 87.8141 32.2765V31.896C87.8141 26.2618 86.8962 25.5942 79.9636 25.5942H79.9603Z" fill="#09A9B7"/>
<path d="M105.017 38.5816H103.261V37.1296C103.261 34.2091 102.897 33.655 99.2125 33.655H92.4134V38.5816H90.6577V25.5942H100.074C104.086 25.5942 105.057 26.3786 105.057 29.1256V29.6029C105.057 31.9327 104.236 32.6002 102.65 32.8873V32.924C104.503 33.2111 105.017 33.8419 105.017 36.2852V38.5782V38.5816ZM99.84 32.2598C102.61 32.2598 103.278 31.6857 103.278 29.7765V29.4127C103.278 27.3699 102.744 27.0061 99.5162 27.0061H92.4134V32.2565H99.8433L99.84 32.2598Z" fill="#EF781E"/>
<path d="M109.79 38.5816H108.034V25.5942H109.79V38.5816Z" fill="#EF781E"/>
<path d="M121.018 38.5816H118.859L111.485 25.5942H113.451L119.927 37.0529H120.003L126.382 25.5942H128.348L121.015 38.5816H121.018Z" fill="#EF781E"/>
<path d="M131.809 37.1096V32.5836H142.293V31.1884H130.05V38.5782H142.864V37.1063H131.805L131.809 37.1096ZM142.77 27.0462V25.5942H130.05V27.0462H142.77Z" fill="#EF781E"/>
<path d="M159.519 38.5816H157.764V37.1296C157.764 34.2091 157.4 33.655 153.715 33.655H146.916V38.5816H145.16V25.5942H154.576C158.588 25.5942 159.559 26.3786 159.559 29.1256V29.6029C159.559 31.9327 158.738 32.6002 157.153 32.8873V32.924C159.005 33.2111 159.519 33.8419 159.519 36.2852V38.5782V38.5816ZM154.342 32.2598C157.113 32.2598 157.78 31.6857 157.78 29.7765V29.4127C157.78 27.3699 157.246 27.0061 154.019 27.0061H146.916V32.2565H154.346L154.342 32.2598Z" fill="#EF781E"/>
<path d="M6.17825 48.1274H5.28706V47.5299H5.25702C4.88986 48.0239 4.40588 48.2142 2.9673 48.2142H2.76703C0.634187 48.2142 0.203613 47.8671 0.203613 46.6821V46.5553C0.203613 45.3904 0.761023 45.0533 2.6936 45.0533H2.90388C4.34247 45.0533 4.92992 45.1568 5.23699 45.6007H5.28038V45.2235C5.28038 43.8484 5.11349 43.6781 3.26436 43.6781H3.07411C1.58212 43.6781 1.26837 43.855 1.26837 44.4959V44.5793H0.390529V44.4625C0.390529 43.2643 1.0948 43.0039 3.10081 43.0039H3.31109C5.80108 43.0039 6.17825 43.2976 6.17825 45.4205V48.1307V48.1274ZM3.22765 47.54C4.93993 47.54 5.28706 47.3731 5.28706 46.6354V46.572C5.28706 45.8043 4.88652 45.7108 3.15421 45.7108H2.98733C1.38185 45.7108 1.09814 45.8377 1.09814 46.582V46.6354C1.09814 47.4131 1.36182 47.54 3.07411 47.54H3.23098H3.22765Z" fill="#09A9B7"/>
<path d="M13.8584 48.1274H12.9539V47.1294H12.9439C12.6168 47.8537 12.0727 48.2108 10.4739 48.2108H10.317C8.1942 48.2108 7.66016 47.7502 7.66016 45.9745V43.0873H8.5647V45.7442C8.5647 47.1628 8.83839 47.4865 10.5607 47.4865H10.7176C12.273 47.4865 12.9539 47.1594 12.9539 45.7943V43.084H13.8584V48.124V48.1274Z" fill="#09A9B7"/>
<path d="M17.8272 48.2141C16.2318 48.2141 15.8413 47.8369 15.8413 46.0512V43.7414H14.8433V43.0906H15.8413V41.7788H16.7458V43.0906H20.2538V43.7414H16.7458V45.9277C16.7458 47.3262 16.9127 47.5031 17.9741 47.5031H18.1644C19.3292 47.5031 19.4761 47.2628 19.4761 46.2648V45.8643H20.2738V46.3983C20.2738 47.8269 19.7698 48.2141 18.0676 48.2141H17.8272Z" fill="#09A9B7"/>
<path d="M24.456 48.2143C21.8392 48.2143 21.3252 47.8037 21.3252 45.6842V45.5274C21.3252 43.3945 21.8492 43.0073 24.456 43.0073H24.7498C27.3532 43.0073 27.8706 43.3945 27.8706 45.5274V45.6842C27.8706 47.8071 27.3666 48.2143 24.7498 48.2143H24.456ZM24.7297 47.5C26.7157 47.5 26.9761 47.2697 26.9761 45.6842V45.5274C26.9761 43.9419 26.7124 43.7116 24.7297 43.7116H24.4761C22.4801 43.7116 22.2164 43.9419 22.2164 45.5274V45.6842C22.2164 47.2697 22.4801 47.5 24.4761 47.5H24.7297Z" fill="#09A9B7"/>
<path d="M32.1127 48.2143C29.4858 48.2143 29.0786 47.9306 29.0786 46.7557V46.5988H29.9698V46.6622C29.9698 47.3765 30.1067 47.5334 32.0926 47.5334H32.5032C34.1721 47.5334 34.3824 47.3665 34.3824 46.7256V46.6422C34.3824 46.0314 34.1821 45.8645 32.136 45.8645C29.656 45.8645 29.2155 45.6342 29.2155 44.4793V44.3525C29.2155 43.3244 29.7729 43.0073 31.8823 43.0073H32.2095C34.5092 43.0073 35.0332 43.261 35.0332 44.4559V44.5727H34.1621V44.4993C34.1621 43.8284 33.9418 43.6816 32.2495 43.6816H31.9658C30.2735 43.6816 30.0866 43.8184 30.0866 44.3758V44.4693C30.0866 45.0467 30.3069 45.1836 32.2495 45.1836C34.7061 45.1836 35.2535 45.4773 35.2535 46.5921V46.7089C35.2535 47.8638 34.7195 48.2209 32.5332 48.2209H32.1127V48.2143Z" fill="#09A9B7"/>
<path d="M39.5693 48.2143C37.0059 48.2143 36.4385 47.7737 36.4385 45.6842V45.5274C36.4385 43.4279 37.0059 43.0073 39.5693 43.0073H39.8731C42.1528 43.0073 42.7302 43.3545 42.7302 44.7496V44.8965H41.859V44.8331C41.859 43.9185 41.4919 43.7183 39.853 43.7183H39.5994C37.6234 43.7183 37.3397 43.9719 37.3397 45.524V45.6809C37.3397 47.2263 37.6434 47.4966 39.5994 47.4966H39.853C41.5753 47.4966 41.8891 47.233 41.8891 46.3217V46.2483H42.7602V46.4152C42.7602 47.8004 42.1394 48.2109 39.8731 48.2109H39.5693V48.2143Z" fill="#09A9B7"/>
<path d="M50.2735 48.1274H49.369V47.1294H49.359C49.0319 47.8537 48.4878 48.2108 46.8924 48.2108H46.7355C44.6127 48.2108 44.0786 47.7502 44.0786 45.9745V43.0873H44.9832V45.7442C44.9832 47.1628 45.2569 47.4865 46.9791 47.4865H47.136C48.6914 47.4865 49.3723 47.1594 49.3723 45.7943V43.084H50.2769V48.124L50.2735 48.1274Z" fill="#09A9B7"/>
<path d="M54.8232 48.2143C52.2064 48.2143 51.6924 47.8037 51.6924 45.6842V45.5274C51.6924 43.3945 52.2164 43.0073 54.8232 43.0073H55.117C57.7204 43.0073 58.2378 43.3945 58.2378 45.5274V45.6842C58.2378 47.8071 57.7338 48.2143 55.117 48.2143H54.8232ZM55.0969 47.5C57.0829 47.5 57.3433 47.2697 57.3433 45.6842V45.5274C57.3433 43.9419 57.0796 43.7116 55.0969 43.7116H54.8433C52.8473 43.7116 52.5836 43.9419 52.5836 45.5274V45.6842C52.5836 47.2697 52.8473 47.5 54.8433 47.5H55.0969Z" fill="#09A9B7"/>
<path d="M60.5574 48.1277H59.6528V40.9849H60.5574V48.1277Z" fill="#09A9B7"/>
<path d="M65.1135 48.2142C62.5301 48.2142 61.9727 47.7636 61.9727 45.6608V45.5339C61.9727 43.4545 62.5601 43.0039 64.9967 43.0039H65.2504C67.6869 43.0039 68.211 43.5079 68.211 45.1267V45.7376H62.8638V45.8544C62.8638 47.2629 63.201 47.5233 65.1235 47.5233H65.3238C67.0661 47.5233 67.3832 47.303 67.3832 46.4952V46.4118H68.2444V46.5286C68.2444 47.8404 67.5401 48.2209 65.3872 48.2209H65.1135V48.2142ZM67.3298 45.1167V44.9598C67.3298 43.9819 67.0895 43.6781 65.217 43.6781H65.0701C63.1809 43.6781 62.9072 43.9185 62.8739 45.1167H67.3265H67.3298Z" fill="#09A9B7"/>
<path d="M75.8711 49.9998C73.7282 49.9998 73.0774 49.7795 73.0774 48.4878V48.361H73.9685V48.4444C73.9685 49.0953 74.2422 49.2622 75.8711 49.2622H76.1648C78.1908 49.2622 78.4345 49.0719 78.4345 47.5599V46.8757H78.4045C78.1207 47.5165 77.5533 47.7902 75.9979 47.7902H75.831C73.5213 47.7902 72.9639 47.3696 72.9639 45.4704V45.3336C72.9639 43.411 73.4979 43.0005 75.811 43.0005H75.9679C77.4265 43.0005 78.0807 43.1907 78.4245 43.8917H78.4445V43.0839H79.3257V47.4531C79.3257 49.6594 78.7382 49.9965 76.1648 49.9965H75.8711V49.9998ZM76.2182 47.0793C78.1074 47.0793 78.4345 46.7855 78.4345 45.4504V45.3136C78.4345 44.0018 78.0974 43.7181 76.2182 43.7181H75.9879C74.1488 43.7181 73.8551 43.9584 73.8551 45.3136V45.4504C73.8551 46.8056 74.1488 47.0793 75.9879 47.0793H76.2182Z" fill="#09A9B7"/>
<path d="M81.8689 48.1274H80.9644V43.0874H81.8555V44.1488H81.8756C82.1793 43.3811 82.7367 43.0039 84.0919 43.0039H84.2187C86.0244 43.0039 86.3182 43.4145 86.3182 44.6428C86.3182 44.7362 86.3081 44.8831 86.3081 44.9999H85.4904V44.7796C85.4904 43.8884 85.2701 43.7182 83.8515 43.7182H83.7481C82.5398 43.7182 81.8689 44.0954 81.8689 45.3771V48.1274Z" fill="#09A9B7"/>
<path d="M93.5044 48.1274H92.5999V47.1294H92.5899C92.2628 47.8537 91.7187 48.2108 90.1199 48.2108H89.963C87.8402 48.2108 87.3062 47.7502 87.3062 45.9745V43.0873H88.2107V45.7442C88.2107 47.1628 88.4844 47.4865 90.2067 47.4865H90.3636C91.919 47.4865 92.5999 47.1594 92.5999 45.7943V43.084H93.5044V48.124V48.1274Z" fill="#09A9B7"/>
<path d="M96.0481 49.9131H95.1436V43.0874H96.0247V43.8851H96.0448C96.3919 43.2008 96.9793 43.0039 98.5347 43.0039H98.6916C101.055 43.0039 101.569 43.4245 101.569 45.5339V45.6708C101.569 47.7836 101.021 48.2142 98.6916 48.2142H98.4914C97.0428 48.2142 96.4019 47.9939 96.0648 47.323H96.0448V49.9165L96.0481 49.9131ZM98.5281 47.4966C100.397 47.4966 100.671 47.2229 100.671 45.6574V45.5206C100.671 43.9552 100.387 43.7149 98.5281 43.7149H98.2744C96.3518 43.7149 96.0381 43.9251 96.0381 45.5206V45.6574C96.0381 47.2429 96.3652 47.4966 98.2744 47.4966H98.5281Z" fill="#09A9B7"/>
<path d="M103.895 49.9131H102.991V43.0874H103.872V43.8851H103.892C104.239 43.2008 104.827 43.0039 106.382 43.0039H106.539C108.902 43.0039 109.416 43.4245 109.416 45.5339V45.6708C109.416 47.7836 108.869 48.2142 106.539 48.2142H106.339C104.89 48.2142 104.249 47.9939 103.912 47.323H103.892V49.9165L103.895 49.9131ZM106.375 47.4966C108.244 47.4966 108.518 47.2229 108.518 45.6574V45.5206C108.518 43.9552 108.234 43.7149 106.375 43.7149H106.122C104.199 43.7149 103.885 43.9251 103.885 45.5206V45.6574C103.885 47.2429 104.212 47.4966 106.122 47.4966H106.375Z" fill="#09A9B7"/>
<path d="M113.745 48.2143C111.128 48.2143 110.614 47.8037 110.614 45.6842V45.5274C110.614 43.3945 111.138 43.0073 113.745 43.0073H114.039C116.642 43.0073 117.16 43.3945 117.16 45.5274V45.6842C117.16 47.8071 116.656 48.2143 114.039 48.2143H113.745ZM114.019 47.5C116.005 47.5 116.265 47.2697 116.265 45.6842V45.5274C116.265 43.9419 116.001 43.7116 114.019 43.7116H113.765C111.769 43.7116 111.505 43.9419 111.505 45.5274V45.6842C111.505 47.2697 111.769 47.5 113.765 47.5H114.019Z" fill="#09A9B7"/>
<path d="M126.255 48.2145C122.59 48.2145 121.969 47.7305 121.969 44.6631V44.4528C121.969 41.4287 122.567 40.9014 126.255 40.9014H126.559C129.983 40.9014 130.517 41.2785 130.517 43.0442V43.2445H129.583V43.1177C129.583 41.9628 129.309 41.6991 126.535 41.6991H126.282C123.298 41.6991 122.941 41.9828 122.941 44.4928V44.6197C122.941 47.1096 123.254 47.4034 126.282 47.4034H126.535C129.392 47.4034 129.676 47.1731 129.676 45.9448V45.8413H130.621V46.0716C130.621 47.8039 129.96 48.2145 126.565 48.2145H126.252H126.255Z" fill="#09A9B7"/>
<path d="M137.874 48.1274H136.983V47.5299H136.953C136.586 48.0239 136.102 48.2142 134.663 48.2142H134.463C132.33 48.2142 131.899 47.8671 131.899 46.6821V46.5553C131.899 45.3904 132.457 45.0533 134.389 45.0533H134.6C136.038 45.0533 136.626 45.1568 136.933 45.6007H136.976V45.2235C136.976 43.8484 136.809 43.6781 134.96 43.6781H134.77C133.278 43.6781 132.964 43.855 132.964 44.4959V44.5793H132.093V44.4625C132.093 43.2643 132.797 43.0039 134.803 43.0039H135.014C137.504 43.0039 137.881 43.2976 137.881 45.4205V48.1307L137.874 48.1274ZM134.923 47.54C136.636 47.54 136.983 47.3731 136.983 46.6354V46.572C136.983 45.8043 136.582 45.7108 134.85 45.7108H134.683C133.078 45.7108 132.794 45.8377 132.794 46.582V46.6354C132.794 47.4131 133.058 47.54 134.77 47.54H134.927H134.923Z" fill="#09A9B7"/>
<path d="M141.779 48.2141C140.183 48.2141 139.793 47.8369 139.793 46.0512V43.7414H138.795V43.0906H139.793V41.7788H140.697V43.0906H144.205V43.7414H140.697V45.9277C140.697 47.3262 140.864 47.5031 141.926 47.5031H142.116C143.281 47.5031 143.428 47.2628 143.428 46.2648V45.8643H144.226V46.3983C144.226 47.8269 143.721 48.2141 142.019 48.2141H141.779Z" fill="#09A9B7"/>
<path d="M148.418 48.2142C145.834 48.2142 145.277 47.7636 145.277 45.6608V45.5339C145.277 43.4545 145.864 43.0039 148.301 43.0039H148.555C150.991 43.0039 151.515 43.5079 151.515 45.1267V45.7376H146.168V45.8544C146.168 47.2629 146.505 47.5233 148.428 47.5233H148.628C150.37 47.5233 150.687 47.303 150.687 46.4952V46.4118H151.549V46.5286C151.549 47.8404 150.844 48.2209 148.691 48.2209H148.418V48.2142ZM150.634 45.1167V44.9598C150.634 43.9819 150.394 43.6781 148.521 43.6781H148.374C146.485 43.6781 146.211 43.9185 146.178 45.1167H150.631H150.634Z" fill="#09A9B7"/>
<path d="M153.859 48.1277H152.954V40.9849H153.859V48.1277Z" fill="#09A9B7"/>
<path d="M156.402 48.1277H155.498V40.9849H156.402V48.1277Z" fill="#09A9B7"/>
<path d="M158.942 41.9858H158.038V40.9878H158.942V41.9858ZM158.942 48.1307H158.038V43.0906H158.942V48.1307Z" fill="#09A9B7"/>
</svg>
