<svg width="172" height="50" viewBox="0 0 172 50" fill="none" xmlns="http://www.w3.org/2000/svg">
<g clip-path="url(#clip0_4211_8498)">
<path d="M11.6806 0L12.8805 4.42644H5.17521V7.57393H12.1411L10.9291 12.0004H5.17521V16.8501C5.17521 17.476 5.19339 18.0081 5.23278 18.4465C5.27217 18.8849 5.35398 19.284 5.48124 19.6438L0.799916 22.625C0.493887 21.9901 0.281788 21.3219 0.169679 20.6174C0.0545397 19.9129 0 19.1389 0 18.2923V0H11.6806Z" fill="#010101"/>
<path d="M26.3546 0L27.5545 4.42644H19.6371V7.326H26.8364L25.6365 11.7524H19.6371V15.2144H28.0847L26.8848 19.6408H14.4619V0H26.3546Z" fill="#010101"/>
<path d="M30.2145 0.000187671H39.7105C40.8164 0.000187671 41.7648 0.151364 42.5526 0.450693C43.3404 0.753045 43.9616 1.14913 44.4161 1.64196C44.8705 2.13479 45.1978 2.67601 45.3917 3.26862C45.5887 3.8582 45.6856 4.45988 45.6856 5.07064C45.6856 6.40099 45.3038 7.56202 44.5433 8.55071C43.7828 9.54243 42.7556 10.4465 41.4618 11.2689C41.9103 12.1306 42.3163 12.8623 42.6799 13.4639C43.0435 14.0656 43.4949 14.7641 44.0343 15.5592C44.5706 16.3544 45.0826 17.0589 45.5644 17.6727C46.0462 18.2865 46.5855 18.9426 47.1824 19.638L42.8647 22.6192C41.883 21.5065 40.9285 20.2759 39.9983 18.9214C39.0681 17.5669 38.2197 16.1821 37.4501 14.7641C36.6805 13.349 35.9624 11.8887 35.2958 10.386C35.7897 10.0262 36.2745 9.67849 36.7502 9.3459C37.2259 9.01331 37.7046 8.63839 38.1925 8.22417C38.6773 7.80995 39.0772 7.38363 39.3863 6.94522C39.6953 6.50681 39.8499 6.07142 39.8499 5.64208C39.8499 5.28228 39.7378 5.01319 39.5135 4.83178C39.2893 4.65037 39.0015 4.5385 38.65 4.49012C38.2985 4.44174 37.8683 4.42058 37.3683 4.42058H29.0146L30.2145 -0.00585938V0.000187671ZM35.1322 5.02528V19.641H29.9782V5.02528H35.1322Z" fill="#010101"/>
<path d="M48.5221 0.000187671H58.0181C59.1241 0.000187671 60.0724 0.151364 60.8602 0.450693C61.648 0.753045 62.2692 1.14913 62.7237 1.64196C63.1782 2.13479 63.5054 2.67601 63.6993 3.26862C63.8963 3.8582 63.9932 4.45988 63.9932 5.07064C63.9932 6.40099 63.6115 7.56202 62.8509 8.55071C62.0904 9.54243 61.0632 10.4465 59.7694 11.2689C60.2179 12.1306 60.6239 12.8623 60.9875 13.4639C61.3511 14.0656 61.8026 14.7641 62.3419 15.5592C62.8782 16.3544 63.3903 17.0589 63.872 17.6727C64.3538 18.2865 64.8931 18.9426 65.49 19.638L61.1723 22.6192C60.1906 21.5065 59.2362 20.2759 58.306 18.9214C57.3757 17.5669 56.5274 16.1821 55.7577 14.7641C54.9881 13.349 54.27 11.8887 53.6034 10.386C54.0973 10.0262 54.5821 9.67849 55.0578 9.3459C55.5335 9.01331 56.0123 8.63839 56.5001 8.22417C56.9849 7.80995 57.3848 7.38363 57.6939 6.94522C58.003 6.50681 58.1575 6.07142 58.1575 5.64208C58.1575 5.28228 58.0454 5.01319 57.8212 4.83178C57.5969 4.65037 57.3091 4.5385 56.9576 4.49012C56.6061 4.44174 56.1759 4.42058 55.6759 4.42058H47.3223L48.5221 -0.00585938V0.000187671ZM53.4398 5.02528V19.641H48.2858V5.02528H53.4398Z" fill="#010101"/>
<path d="M81.5007 5.02519V19.6409H76.3467V13.4185H70.7109C70.72 14.4525 70.8958 15.4956 71.2473 16.5478C71.5957 17.6 72.0775 18.631 72.6895 19.6409L68.49 22.4104C68.0264 21.706 67.6082 20.9682 67.2356 20.1972C66.8629 19.4262 66.5387 18.6038 66.2599 17.7331C65.9811 16.8593 65.7721 16.0127 65.6357 15.1842C65.4994 14.3588 65.4297 13.5122 65.4297 12.6414C65.4297 10.8485 65.7206 9.12811 66.3054 7.47424C66.8901 5.8234 67.7779 4.40234 68.9717 3.21108C69.8353 2.34937 70.7655 1.6842 71.7654 1.2095C72.7653 0.73481 73.8076 0.414316 74.8954 0.248023C75.9831 0.0787054 77.2315 -0.00292969 78.6434 -0.00292969H81.1735L82.3733 4.42351H78.3253C76.6467 4.42351 75.3196 4.66539 74.35 5.15218C73.3773 5.63896 72.6956 6.18018 72.3017 6.78488C71.9108 7.38656 71.5472 8.1243 71.22 8.99205H76.3497V5.02519H81.5037H81.5007Z" fill="#010101"/>
<path d="M103.113 0V19.6408H97.9591V7.76138H97.9015L93.9353 13.0556L90.0539 7.76138H90.0054V19.6438H84.8271V0H89.7327L93.9323 5.76586L98.2136 0H103.107H103.113Z" fill="#010101"/>
<path d="M118.385 0L119.585 4.42644H111.667V7.326H118.867L117.667 11.7524H111.667V15.2144H120.115L118.915 19.6408H106.492V0H118.385Z" fill="#010101"/>
<path d="M137.786 0V19.6408H132.632V13.8417L127.184 7.23227H127.135V19.6408H121.957V0H126.887L132.629 6.67896V0H137.783H137.786Z" fill="#010101"/>
<path d="M153.857 0L155.057 4.42644H149.563V19.6408H144.409V4.42644H138.916L140.116 0H153.857Z" fill="#010101"/>
<path d="M171.131 5.02519V19.6409H165.977V13.4185H160.341C160.35 14.4525 160.526 15.4956 160.877 16.5478C161.226 17.6 161.707 18.631 162.319 19.6409L158.12 22.4104C157.656 21.706 157.238 20.9682 156.865 20.1972C156.493 19.4262 156.169 18.6038 155.89 17.7331C155.611 16.8593 155.405 16.0127 155.266 15.1842C155.129 14.3588 155.06 13.5122 155.06 12.6414C155.06 10.8485 155.35 9.12811 155.935 7.47424C156.52 5.8234 157.408 4.40234 158.602 3.21108C159.465 2.34937 160.395 1.6842 161.395 1.2095C162.395 0.73481 163.437 0.414316 164.525 0.248023C165.613 0.0787054 166.861 -0.00292969 168.273 -0.00292969H170.803L172.003 4.42351H167.955C166.277 4.42351 164.952 4.66539 163.98 5.15218C163.007 5.63896 162.325 6.18018 161.932 6.78488C161.541 7.38656 161.177 8.1243 160.85 8.99205H165.98V5.02519H171.134H171.131Z" fill="#010101"/>
<path d="M25.5129 45.7818C23.6858 45.7818 22.2435 45.2618 21.1891 44.2217C20.1346 43.1816 19.6074 41.7726 19.6074 39.9888C19.6074 38.4679 20.0286 37.0136 20.8679 35.6228C21.7102 34.232 22.8586 33.1284 24.319 32.3181C25.7795 31.5078 27.3733 31.0996 29.1034 31.0996C29.8579 31.0996 30.6456 31.2236 31.4698 31.4715C31.9061 31.6015 32.2303 31.668 32.4455 31.668C32.7303 31.668 32.9545 31.4775 33.1211 31.0996H33.8059L32.6939 35.783H32.0607C32.0607 34.486 31.8273 33.5426 31.3607 32.9561C30.8941 32.3695 30.1215 32.0762 29.0398 32.0762C27.3521 32.0762 25.9007 32.9077 24.6887 34.5736C23.4767 36.2366 22.8707 38.1202 22.8707 40.2186C22.8707 41.5156 23.1616 42.5255 23.7433 43.2481C24.3251 43.9707 25.1402 44.3305 26.1946 44.3305C28.0853 44.3305 29.6124 43.5595 30.782 42.0206L31.4153 42.465C30.0306 44.6752 28.0611 45.7788 25.5068 45.7788L25.5129 45.7818Z" fill="#010101"/>
<path d="M37.4839 38.7585C38.6111 36.5635 39.5928 35.4629 40.423 35.4629C41.0866 35.4629 41.4199 35.8741 41.4199 36.6965C41.4199 37.2407 41.2835 37.7487 41.0139 38.2203C40.7442 38.689 40.426 38.9248 40.0594 38.9248C39.8806 38.9248 39.7079 38.8553 39.5413 38.7162C39.411 38.5983 39.2837 38.5408 39.1686 38.5408C38.8232 38.5408 38.3717 38.9127 37.8203 39.6535C37.2658 40.3973 36.8749 41.1804 36.6477 42.0088L35.7023 45.4587H32.8359L34.7872 38.2294C34.8994 37.8001 34.9539 37.5098 34.9539 37.3586C34.9539 37.144 34.8721 37.0381 34.7054 37.0381C34.3933 37.0381 34.0025 37.3556 33.5328 37.9906L32.9632 37.5854C33.8964 36.1704 35.0751 35.4629 36.4931 35.4629C36.9507 35.4629 37.3052 35.5929 37.5566 35.8499C37.8081 36.1069 37.9354 36.4546 37.9354 36.89C37.9354 37.0895 37.7869 37.7124 37.49 38.7555L37.4839 38.7585Z" fill="#010101"/>
<path d="M46.5681 43.4631C45.5439 44.9961 44.2865 45.764 42.7988 45.764C42.32 45.764 41.9413 45.634 41.6565 45.377C41.3716 45.117 41.2323 44.8237 41.2323 44.4911C41.2323 44.1585 41.2747 43.8411 41.3565 43.5599L42.4261 39.6021C42.717 38.5378 42.8806 37.921 42.92 37.7487C42.9593 37.5763 42.9775 37.4493 42.9775 37.3647C42.9775 37.15 42.8897 37.0442 42.7169 37.0442C42.4049 37.0442 42.017 37.3617 41.5534 37.9966L40.9717 37.5914C41.914 36.1764 43.0896 35.4689 44.5016 35.4689C44.9652 35.4689 45.3258 35.5989 45.5863 35.862C45.8469 36.125 45.9742 36.4697 45.9742 36.8991C45.9742 37.1077 45.9287 37.3526 45.8378 37.6338L44.7682 41.5916C44.4774 42.6558 44.3138 43.2787 44.2804 43.4661C44.2471 43.6536 44.2289 43.7866 44.2289 43.8713C44.2289 43.956 44.2622 44.0285 44.3289 44.095C44.3956 44.1616 44.4652 44.1948 44.541 44.1948C44.9561 44.1948 45.4348 43.8229 45.9742 43.0761L46.565 43.4692L46.5681 43.4631ZM45.3924 30.7432C45.8287 30.7432 46.2045 30.9004 46.5196 31.2148C46.8347 31.5293 46.9923 31.9012 46.9923 32.3275C46.9923 32.7538 46.8347 33.1378 46.5196 33.4522C46.2045 33.7667 45.8287 33.9239 45.3924 33.9239C44.9561 33.9239 44.5925 33.7667 44.2774 33.4522C43.9623 33.1378 43.8047 32.7629 43.8047 32.3275C43.8047 31.8921 43.9623 31.5293 44.2774 31.2148C44.5925 30.9004 44.9652 30.7432 45.3924 30.7432Z" fill="#010101"/>
<path d="M51.8315 37.673C52.3012 36.9836 52.8375 36.4424 53.4344 36.0524C54.0343 35.6623 54.5979 35.4658 55.1312 35.4658C55.7463 35.4658 56.2159 35.7047 56.5371 36.1854C56.8583 36.6662 57.0188 37.3555 57.0188 38.2535C57.0188 40.1795 56.4371 41.915 55.2705 43.454C54.104 44.9929 52.6981 45.7639 51.0498 45.7639C50.4892 45.7639 50.0438 45.6763 49.7105 45.5039C49.1985 47.3694 48.9409 48.3944 48.9409 48.5819C48.9409 49.0656 49.5166 49.3075 50.665 49.3075L50.4892 50.0029H43.793L43.9687 49.3075C44.7868 49.3075 45.3261 49.1926 45.5928 48.9658C45.8594 48.7391 46.117 48.1586 46.3654 47.2243L48.8167 38.2323C48.9288 37.803 48.9833 37.5127 48.9833 37.3616C48.9833 37.1469 48.8955 37.0411 48.7228 37.0411C48.4167 37.0411 48.0319 37.3585 47.5592 37.9935L46.9775 37.5883C47.9198 36.1733 49.0954 35.4658 50.5074 35.4658C50.971 35.4658 51.3285 35.5958 51.5831 35.8528C51.8345 36.1129 51.9618 36.4575 51.9618 36.8929C51.9618 37.1136 51.9164 37.3737 51.8255 37.67L51.8315 37.673ZM50.0226 44.3338C50.2438 44.6664 50.5862 44.8297 51.0498 44.8297C51.7073 44.8297 52.3708 44.095 53.0374 42.6225C53.704 41.15 54.0404 39.7078 54.0404 38.2928C54.0404 37.7002 53.8495 37.4009 53.4707 37.4009C53.298 37.4009 53.089 37.4916 52.8466 37.676C52.6042 37.8604 52.3133 38.1507 51.9679 38.5528C51.6255 38.9519 51.4376 39.215 51.4013 39.339L50.0196 44.3308L50.0226 44.3338Z" fill="#010101"/>
<path d="M62.4604 37.673C62.9301 36.9836 63.4664 36.4424 64.0633 36.0524C64.6632 35.6623 65.2268 35.4658 65.7601 35.4658C66.3752 35.4658 66.8448 35.7047 67.166 36.1854C67.4872 36.6662 67.6477 37.3555 67.6477 38.2535C67.6477 40.1795 67.066 41.915 65.8995 43.454C64.7329 44.9929 63.327 45.7639 61.6787 45.7639C61.1181 45.7639 60.6727 45.6763 60.3394 45.5039C59.8274 47.3694 59.5698 48.3944 59.5698 48.5819C59.5698 49.0656 60.1455 49.3075 61.2939 49.3075L61.1181 50.0029H54.4219L54.5976 49.3075C55.4157 49.3075 55.955 49.1926 56.2217 48.9658C56.4883 48.7391 56.7459 48.1586 56.9943 47.2243L59.4456 38.2323C59.5577 37.803 59.6122 37.5127 59.6122 37.3616C59.6122 37.1469 59.5244 37.0411 59.3517 37.0411C59.0456 37.0411 58.6608 37.3585 58.1881 37.9935L57.6064 37.5883C58.5487 36.1733 59.7243 35.4658 61.1363 35.4658C61.5999 35.4658 61.9574 35.5958 62.212 35.8528C62.4635 36.1129 62.5907 36.4575 62.5907 36.8929C62.5907 37.1136 62.5453 37.3737 62.4544 37.67L62.4604 37.673ZM60.6545 44.3338C60.8757 44.6664 61.2181 44.8297 61.6817 44.8297C62.3392 44.8297 63.0028 44.095 63.6694 42.6225C64.336 41.15 64.6723 39.7078 64.6723 38.2928C64.6723 37.7002 64.4814 37.4009 64.1027 37.4009C63.93 37.4009 63.7209 37.4916 63.4785 37.676C63.2361 37.8604 62.9452 38.1507 62.5998 38.5528C62.2574 38.9519 62.0695 39.215 62.0332 39.339L60.6515 44.3308L60.6545 44.3338Z" fill="#010101"/>
<path d="M73.4957 43.5567C72.5625 45.0291 71.5141 45.7638 70.3506 45.7638C69.8112 45.7638 69.3598 45.5068 69.0022 44.9928C68.6417 44.4788 68.4629 43.8076 68.4629 42.9792C68.4629 41.0532 69.0477 39.3177 70.2173 37.7787C71.3868 36.2397 72.7927 35.4688 74.432 35.4688C75.0198 35.4688 75.6167 35.6562 76.2166 36.0281L77.6074 35.8104H78.4588L77.0559 40.9806C76.662 42.444 76.4439 43.2694 76.4075 43.4569C76.3681 43.6444 76.3499 43.7804 76.3499 43.8711C76.3499 43.9528 76.3833 44.0283 76.4499 44.0949C76.5166 44.1614 76.5863 44.1946 76.662 44.1946C77.0771 44.1946 77.5559 43.8227 78.0952 43.0759L78.6861 43.469C77.6619 45.0019 76.4105 45.7699 74.9289 45.7699C74.4501 45.7699 74.0714 45.6399 73.7926 45.3829C73.5108 45.1229 73.3715 44.8296 73.3715 44.497C73.3715 44.1644 73.4139 43.8469 73.4957 43.5657V43.5567ZM75.2804 36.8959C75.0804 36.5723 74.7956 36.4091 74.4289 36.4091C73.7714 36.4091 73.1079 37.1438 72.4413 38.6102C71.7747 40.0766 71.4383 41.5188 71.4383 42.9338C71.4383 43.5264 71.608 43.8258 71.9474 43.8258C72.2534 43.8258 72.6503 43.5325 73.1412 42.9489C73.632 42.3654 73.8926 42.0147 73.9199 41.8968L75.2804 36.8928V36.8959Z" fill="#010101"/>
<path d="M87.0641 31.4141H92.0575C94.327 31.4141 96.0359 31.9281 97.1873 32.953C98.3357 33.978 98.9114 35.3749 98.9114 37.1436C98.9114 38.601 98.5356 39.9827 97.7812 41.2919C97.0267 42.6011 95.8996 43.6231 94.3967 44.3578C92.8938 45.0925 91.0455 45.4614 88.8518 45.4614H83.2979L83.4736 44.7569C84.2129 44.7569 84.7219 44.6752 85.0007 44.512C85.2764 44.3487 85.5673 43.741 85.8733 42.6827L88.3246 34.1987C88.5185 33.5215 88.6155 33.0649 88.6155 32.8321C88.6155 32.3544 88.0458 32.1185 86.9035 32.1185L87.0702 31.4141H87.0641ZM95.6087 36.678C95.6087 35.3598 95.3178 34.3106 94.736 33.5336C94.1543 32.7565 93.2332 32.3695 91.9757 32.3695L89.0579 42.4892C88.8639 43.236 88.767 43.6654 88.767 43.7833C88.767 44.2671 89.1548 44.5089 89.9305 44.5089C91.5636 44.5089 92.918 43.6805 93.9937 42.0236C95.0693 40.3667 95.6087 38.5859 95.6087 36.678Z" fill="#010101"/>
<path d="M104.795 43.5567C103.862 45.0291 102.814 45.7638 101.65 45.7638C101.111 45.7638 100.66 45.5068 100.302 44.9928C99.9415 44.4788 99.7627 43.8076 99.7627 42.9792C99.7627 41.0532 100.347 39.3177 101.517 37.7787C102.687 36.2397 104.093 35.4688 105.732 35.4688C106.32 35.4688 106.916 35.6562 107.516 36.0281L108.907 35.8104H109.759L108.356 40.9806C107.962 42.444 107.744 43.2694 107.707 43.4569C107.671 43.6444 107.65 43.7804 107.65 43.8711C107.65 43.9528 107.683 44.0283 107.75 44.0949C107.816 44.1614 107.886 44.1946 107.962 44.1946C108.377 44.1946 108.856 43.8227 109.395 43.0759L109.986 43.469C108.962 45.0019 107.71 45.7699 106.229 45.7699C105.75 45.7699 105.371 45.6399 105.092 45.3829C104.811 45.1229 104.671 44.8296 104.671 44.497C104.671 44.1644 104.714 43.8469 104.795 43.5657V43.5567ZM106.58 36.8959C106.38 36.5723 106.095 36.4091 105.729 36.4091C105.071 36.4091 104.408 37.1438 103.741 38.6102C103.074 40.0766 102.738 41.5188 102.738 42.9338C102.738 43.5264 102.908 43.8258 103.247 43.8258C103.553 43.8258 103.95 43.5325 104.441 42.9489C104.932 42.3654 105.192 42.0147 105.22 41.8968L106.58 36.8928V36.8959Z" fill="#010101"/>
<path d="M121.303 43.4629C120.279 44.9959 119.021 45.7638 117.534 45.7638C117.055 45.7638 116.679 45.6338 116.403 45.3768C116.128 45.1198 115.988 44.8235 115.988 44.4909C115.988 44.1584 116.031 43.8409 116.113 43.5597C116.979 40.4576 117.446 38.7735 117.515 38.5044C117.585 38.2353 117.618 38.0387 117.618 37.9148C117.618 37.5641 117.497 37.3857 117.255 37.3857C116.916 37.3857 116.391 37.7727 115.682 38.5497C114.973 39.3268 114.522 40.0887 114.328 40.8325L113.07 45.4645H110.204L112.155 38.2353C112.268 37.8059 112.322 37.5157 112.322 37.3645C112.322 37.1498 112.24 37.044 112.074 37.044C111.762 37.044 111.371 37.3615 110.901 37.9964L110.331 37.5913C111.265 36.1763 112.443 35.4688 113.861 35.4688C114.325 35.4688 114.685 35.5988 114.94 35.8618C115.198 36.1249 115.325 36.4695 115.325 36.8989C115.325 37.1196 115.225 37.5641 115.025 38.2353C115.516 37.4552 116.131 36.7991 116.873 36.267C117.612 35.7348 118.315 35.4688 118.982 35.4688C119.473 35.4688 119.873 35.6109 120.182 35.8981C120.491 36.1853 120.642 36.5391 120.642 36.9593C120.642 37.3796 120.573 37.812 120.433 38.2957L119.209 42.6678C119.091 43.1092 119.021 43.4115 118.997 43.5688C118.973 43.726 118.961 43.8288 118.961 43.8681C118.961 43.9497 118.994 44.0253 119.061 44.0918C119.127 44.1584 119.2 44.1916 119.285 44.1916C119.7 44.1916 120.176 43.8197 120.706 43.0729L121.309 43.466L121.303 43.4629Z" fill="#010101"/>
<path d="M127.49 43.4631C126.466 44.9961 125.208 45.764 123.721 45.764C123.242 45.764 122.863 45.634 122.578 45.377C122.294 45.117 122.154 44.8237 122.154 44.4911C122.154 44.1585 122.197 43.8411 122.278 43.5599L123.348 39.6021C123.639 38.5378 123.802 37.921 123.842 37.7487C123.881 37.5763 123.899 37.4493 123.899 37.3647C123.899 37.15 123.812 37.0442 123.639 37.0442C123.327 37.0442 122.939 37.3617 122.475 37.9966L121.894 37.5914C122.836 36.1764 124.012 35.4689 125.423 35.4689C125.887 35.4689 126.248 35.5989 126.508 35.862C126.769 36.125 126.896 36.4697 126.896 36.8991C126.896 37.1077 126.851 37.3526 126.76 37.6338L125.69 41.5916C125.399 42.6558 125.236 43.2787 125.202 43.4661C125.169 43.6536 125.151 43.7866 125.151 43.8713C125.151 43.956 125.184 44.0285 125.251 44.095C125.317 44.1616 125.387 44.1948 125.463 44.1948C125.878 44.1948 126.357 43.8229 126.896 43.0761L127.487 43.4692L127.49 43.4631ZM126.317 30.7432C126.754 30.7432 127.129 30.9004 127.444 31.2148C127.76 31.5293 127.917 31.9012 127.917 32.3275C127.917 32.7538 127.76 33.1378 127.444 33.4522C127.129 33.7667 126.754 33.9239 126.317 33.9239C125.881 33.9239 125.517 33.7667 125.202 33.4522C124.887 33.1378 124.73 32.7629 124.73 32.3275C124.73 31.8921 124.887 31.5293 125.202 31.2148C125.517 30.9004 125.89 30.7432 126.317 30.7432Z" fill="#010101"/>
<path d="M131.487 45.7639C130.517 45.7639 129.729 45.4737 129.12 44.8932C128.511 44.3126 128.205 43.5568 128.205 42.6255C128.205 40.7691 128.781 39.1092 129.929 37.6518C131.078 36.1945 132.574 35.4658 134.414 35.4658C135.271 35.4658 135.925 35.6805 136.377 36.1068C136.825 36.5361 137.053 37.1076 137.053 37.8272C137.053 38.8975 136.553 39.7864 135.553 40.4909C134.553 41.1954 133.147 41.6036 131.332 41.7124C131.262 42.169 131.229 42.5469 131.229 42.8523C131.229 43.2816 131.344 43.6142 131.577 43.8531C131.811 44.0919 132.126 44.2098 132.526 44.2098C133.495 44.2098 134.523 43.7563 135.61 42.8523L136.056 43.463C134.804 44.996 133.28 45.7639 131.487 45.7639ZM131.487 40.7479C132.393 40.6512 133.083 40.2702 133.559 39.602C134.032 38.9368 134.271 38.2837 134.271 37.6488C134.271 36.7992 134.101 36.3759 133.762 36.3759C133.362 36.3759 132.956 36.775 132.547 37.5732C132.138 38.3714 131.787 39.4297 131.49 40.7479H131.487Z" fill="#010101"/>
<path d="M143.955 30.7432L140.664 42.9552C140.552 43.3845 140.498 43.6869 140.498 43.8683C140.498 43.9499 140.531 44.0255 140.598 44.092C140.664 44.1585 140.734 44.1918 140.81 44.1918C141.225 44.1918 141.704 43.8199 142.243 43.0731L142.834 43.4661C141.81 44.9991 140.552 45.767 139.065 45.767C138.586 45.767 138.207 45.637 137.922 45.38C137.637 45.12 137.498 44.8267 137.498 44.4941C137.498 44.1827 137.54 43.8713 137.622 43.5629L140.219 34.0116C140.358 33.4734 140.428 33.0985 140.428 32.8929C140.428 32.7629 140.377 32.654 140.274 32.5663C140.17 32.4787 139.746 32.4242 139.007 32.394V31.7409L143.107 30.7462H143.958L143.955 30.7432Z" fill="#010101"/>
<path d="M146.83 45.7639C145.861 45.7639 145.073 45.4737 144.464 44.8932C143.855 44.3126 143.549 43.5568 143.549 42.6255C143.549 40.7691 144.125 39.1092 145.273 37.6518C146.421 36.1945 147.918 35.4658 149.757 35.4658C150.615 35.4658 151.269 35.6805 151.721 36.1068C152.169 36.5361 152.396 37.1076 152.396 37.8272C152.396 38.8975 151.896 39.7864 150.897 40.4909C149.897 41.1954 148.491 41.6036 146.676 41.7124C146.606 42.169 146.573 42.5469 146.573 42.8523C146.573 43.2816 146.688 43.6142 146.921 43.8531C147.155 44.0919 147.47 44.2098 147.87 44.2098C148.839 44.2098 149.866 43.7563 150.954 42.8523L151.4 43.463C150.148 44.996 148.624 45.7639 146.83 45.7639ZM146.83 40.7479C147.736 40.6512 148.427 40.2702 148.903 39.602C149.375 38.9368 149.615 38.2837 149.615 37.6488C149.615 36.7992 149.445 36.3759 149.106 36.3759C148.706 36.3759 148.3 36.775 147.891 37.5732C147.482 38.3714 147.13 39.4297 146.833 40.7479H146.83Z" fill="#010101"/>
</g>
<defs>
<clipPath id="clip0_4211_8498">
<rect width="172" height="50" fill="white"/>
</clipPath>
</defs>
</svg>
