<svg width="196" height="50" viewBox="0 0 196 50" fill="none" xmlns="http://www.w3.org/2000/svg">
<g clip-path="url(#clip0_4211_8525)">
<path d="M52.751 39.4068V26.541H55.3503V39.4068H52.751Z" fill="#CD6034"/>
<path d="M57.8945 39.4069V26.6475H60.4938V37.2411H66.9567V39.4069H57.8945Z" fill="#CD6034"/>
<path d="M73.4935 26.5439H78.6373C79.6563 26.5439 80.4142 26.5891 80.9173 26.6729C81.4172 26.7599 81.8622 26.9339 82.2589 27.2046C82.6523 27.4754 82.9813 27.8331 83.2457 28.2811C83.507 28.7291 83.6392 29.2286 83.6392 29.7862C83.6392 30.3856 83.4747 30.94 83.1522 31.446C82.8265 31.9487 82.3847 32.3258 81.8332 32.5772C82.6169 32.8028 83.2167 33.1928 83.6392 33.7439C84.0616 34.295 84.2713 34.9396 84.2713 35.6841C84.2713 36.2674 84.1326 36.8379 83.8617 37.389C83.5908 37.9433 83.2199 38.3816 82.7491 38.7136C82.275 39.0423 81.6945 39.2486 81.0044 39.3227C80.5722 39.3678 79.5274 39.3969 77.8697 39.4097H73.4902V26.5439H73.4935ZM76.0928 28.6839V31.6587H77.7923C78.805 31.6587 79.4371 31.6458 79.6822 31.6168C80.1272 31.562 80.4755 31.4105 80.7303 31.1527C80.985 30.9013 81.1108 30.5661 81.1108 30.1504C81.1108 29.7346 81.0012 29.4284 80.7819 29.1835C80.5658 28.9353 80.2368 28.7839 79.8047 28.7291C79.5499 28.7001 78.8082 28.6839 77.5859 28.6839H76.0928ZM76.0928 33.7987V37.2407H78.4986C79.4371 37.2407 80.0304 37.215 80.282 37.1602C80.6658 37.0893 80.9818 36.9217 81.2237 36.6445C81.4656 36.3738 81.5881 36.0096 81.5881 35.5552C81.5881 35.1684 81.4914 34.8397 81.3075 34.5722C81.1205 34.3047 80.8496 34.1049 80.4948 33.9856C80.1401 33.8631 79.3726 33.7987 78.189 33.7987H76.0928Z" fill="#CD6034"/>
<path d="M86.4521 26.5439H89.0482V33.5118C89.0482 34.6173 89.0837 35.3328 89.1482 35.6583C89.2579 36.1868 89.5223 36.6058 89.9416 36.9281C90.3608 37.2472 90.9316 37.4083 91.6572 37.4083C92.3828 37.4083 92.9537 37.2569 93.3278 36.9539C93.7019 36.6542 93.9244 36.2835 94.0018 35.8452C94.0792 35.4069 94.1179 34.6785 94.1179 33.6601V26.5439H96.7172V33.3024C96.7172 34.8461 96.6462 35.9387 96.5076 36.5736C96.3657 37.2117 96.1077 37.75 95.7303 38.1883C95.353 38.6298 94.8467 38.9779 94.2146 39.2357C93.5825 39.4968 92.7569 39.6289 91.7411 39.6289C90.5091 39.6289 89.5804 39.4839 88.9418 39.2003C88.3065 38.9199 87.8066 38.5492 87.4358 38.0948C87.0681 37.6436 86.8262 37.1666 86.7069 36.6703C86.536 35.9355 86.4554 34.8461 86.4554 33.4087V26.5439H86.4521Z" fill="#CD6034"/>
<path d="M98.7939 35.2232L101.322 34.9783C101.477 35.8291 101.783 36.4511 102.251 36.8476C102.715 37.2472 103.344 37.4438 104.134 37.4438C104.973 37.4438 105.602 37.2665 106.028 36.912C106.45 36.5575 106.663 36.1417 106.663 35.668C106.663 35.365 106.573 35.104 106.395 34.8913C106.218 34.6785 105.905 34.4916 105.457 34.3337C105.154 34.2273 104.46 34.0404 103.38 33.7697C101.987 33.4248 101.006 32.9994 100.445 32.4966C99.655 31.7876 99.2616 30.9239 99.2616 29.9087C99.2616 29.2544 99.4486 28.6388 99.8195 28.0716C100.19 27.5012 100.729 27.0661 101.429 26.7663C102.125 26.4666 102.97 26.3184 103.96 26.3184C105.576 26.3184 106.789 26.6697 107.608 27.3787C108.424 28.0877 108.853 29.032 108.895 30.2116L106.295 30.3276C106.182 29.6669 105.947 29.19 105.579 28.8999C105.215 28.6131 104.663 28.4648 103.935 28.4648C103.206 28.4648 102.59 28.6227 102.161 28.9321C101.887 29.1287 101.748 29.3994 101.748 29.7314C101.748 30.0344 101.877 30.2954 102.135 30.5113C102.461 30.7853 103.257 31.0754 104.525 31.3719C105.789 31.6716 106.721 31.9778 107.33 32.3001C107.933 32.6191 108.411 33.0542 108.753 33.6085C109.094 34.1629 109.265 34.8461 109.265 35.6583C109.265 36.3964 109.062 37.0861 108.653 37.7306C108.243 38.372 107.666 38.8522 106.918 39.1616C106.166 39.4742 105.231 39.6321 104.115 39.6321C102.487 39.6321 101.238 39.2583 100.364 38.5074C99.4905 37.7532 98.9713 36.6606 98.8004 35.22L98.7939 35.2232Z" fill="#CD6034"/>
<path d="M110.787 35.2232L113.315 34.9783C113.47 35.8291 113.777 36.4511 114.244 36.8476C114.709 37.2472 115.338 37.4438 116.128 37.4438C116.966 37.4438 117.595 37.2665 118.021 36.912C118.443 36.5575 118.656 36.1417 118.656 35.668C118.656 35.365 118.566 35.104 118.388 34.8913C118.211 34.6785 117.898 34.4916 117.45 34.3337C117.147 34.2273 116.453 34.0404 115.373 33.7697C113.98 33.4248 112.999 32.9994 112.438 32.4966C111.648 31.7876 111.255 30.9239 111.255 29.9087C111.255 29.2544 111.442 28.6388 111.813 28.0716C112.184 27.5012 112.722 27.0661 113.422 26.7663C114.118 26.4666 114.963 26.3184 115.953 26.3184C117.569 26.3184 118.782 26.6697 119.601 27.3787C120.417 28.0877 120.846 29.032 120.888 30.2116L118.288 30.3276C118.175 29.6669 117.94 29.19 117.572 28.8999C117.208 28.6131 116.657 28.4648 115.928 28.4648C115.199 28.4648 114.583 28.6227 114.154 28.9321C113.88 29.1287 113.741 29.3994 113.741 29.7314C113.741 30.0344 113.87 30.2954 114.128 30.5113C114.454 30.7853 115.25 31.0754 116.518 31.3719C117.782 31.6716 118.714 31.9778 119.324 32.3001C119.927 32.6191 120.404 33.0542 120.746 33.6085C121.088 34.1629 121.259 34.8461 121.259 35.6583C121.259 36.3964 121.055 37.0861 120.646 37.7306C120.236 38.372 119.659 38.8522 118.911 39.1616C118.159 39.4742 117.224 39.6321 116.108 39.6321C114.48 39.6321 113.232 39.2583 112.358 38.5074C111.484 37.7532 110.964 36.6606 110.794 35.22L110.787 35.2232Z" fill="#CD6034"/>
<path d="M122.913 33.0546C122.913 31.7429 123.11 30.6439 123.5 29.7544C123.794 29.1001 124.193 28.5103 124.7 27.9914C125.209 27.4725 125.761 27.0858 126.367 26.8344C127.167 26.496 128.092 26.3252 129.14 26.3252C131.037 26.3252 132.556 26.9118 133.694 28.0881C134.833 29.2645 135.4 30.8985 135.4 32.9934C135.4 35.0882 134.836 36.6932 133.707 37.8664C132.578 39.0395 131.069 39.6261 129.176 39.6261C127.283 39.6261 125.741 39.0427 124.609 37.8761C123.481 36.7094 122.916 35.1011 122.916 33.0546H122.913ZM125.593 32.9676C125.593 34.4243 125.928 35.5298 126.602 36.2807C127.273 37.0317 128.131 37.4087 129.166 37.4087C130.201 37.4087 131.05 37.0349 131.714 36.2904C132.378 35.5427 132.711 34.4243 132.711 32.9321C132.711 31.4399 132.388 30.3603 131.74 29.6351C131.095 28.91 130.237 28.5458 129.166 28.5458C128.096 28.5458 127.228 28.9132 126.573 29.648C125.919 30.3828 125.593 31.4883 125.593 32.9676Z" fill="#CD6034"/>
<path d="M137.5 39.4069V26.6475H140.099V37.2411H146.562V39.4069H137.5Z" fill="#CD6034"/>
<path d="M147.884 33.0546C147.884 31.7429 148.081 30.6439 148.471 29.7544C148.764 29.1001 149.164 28.5103 149.67 27.9914C150.18 27.4725 150.731 27.0858 151.338 26.8344C152.138 26.496 153.063 26.3252 154.111 26.3252C156.007 26.3252 157.526 26.9118 158.665 28.0881C159.803 29.2645 160.371 30.8985 160.371 32.9934C160.371 35.0882 159.806 36.6932 158.678 37.8664C157.549 39.0395 156.04 39.6261 154.147 39.6261C152.254 39.6261 150.712 39.0427 149.58 37.8761C148.451 36.7094 147.887 35.1011 147.887 33.0546H147.884ZM150.564 32.9676C150.564 34.4243 150.899 35.5298 151.573 36.2807C152.244 37.0317 153.102 37.4087 154.137 37.4087C155.172 37.4087 156.02 37.0349 156.685 36.2904C157.349 35.5427 157.681 34.4243 157.681 32.9321C157.681 31.4399 157.359 30.3603 156.71 29.6351C156.066 28.91 155.208 28.5458 154.137 28.5458C153.066 28.5458 152.199 28.9132 151.544 29.648C150.889 30.3828 150.564 31.4883 150.564 32.9676Z" fill="#CD6034"/>
<path d="M165.296 39.4068V28.7165H161.478V26.541H171.707V28.7165H167.895V39.4068H165.296Z" fill="#CD6034"/>
<path d="M176.283 39.4068V28.7165H172.465V26.541H182.694V28.7165H178.882V39.4068H176.283Z" fill="#CD6034"/>
<path d="M183.517 33.0546C183.517 31.7429 183.713 30.6439 184.104 29.7544C184.397 29.1001 184.797 28.5103 185.303 27.9914C185.813 27.4725 186.364 27.0858 186.971 26.8344C187.77 26.496 188.696 26.3252 189.744 26.3252C191.64 26.3252 193.159 26.9118 194.298 28.0881C195.436 29.2645 196.004 30.8985 196.004 32.9934C196.004 35.0882 195.439 36.6932 194.311 37.8664C193.182 39.0395 191.673 39.6261 189.779 39.6261C187.886 39.6261 186.345 39.0427 185.213 37.8761C184.084 36.7094 183.52 35.1011 183.52 33.0546H183.517ZM186.193 32.9676C186.193 34.4243 186.529 35.5298 187.203 36.2807C187.874 37.0317 188.731 37.4087 189.767 37.4087C190.802 37.4087 191.65 37.0349 192.314 36.2904C192.979 35.5427 193.311 34.4243 193.311 32.9321C193.311 31.4399 192.988 30.3603 192.34 29.6351C191.695 28.91 190.837 28.5458 189.767 28.5458C188.696 28.5458 187.828 28.9132 187.174 29.648C186.519 30.3828 186.193 31.4883 186.193 32.9676Z" fill="#CD6034"/>
<path d="M54.8207 19.3149V13.6039H52.7793V12.4404H58.2424V13.6039H56.2042V19.3149H54.8175H54.8207Z" fill="#CD6034"/>
<path d="M64.6338 19.3149H63.1213L62.5215 17.7518H59.7706L59.2062 19.3149H57.7324L60.4124 12.4404H61.8797L64.6371 19.3149H64.6338ZM62.0764 16.5947L61.1283 14.0454L60.1995 16.5947H62.0764Z" fill="#CD6034"/>
<path d="M65.373 12.4397H68.1239C68.669 12.4397 69.0721 12.4623 69.343 12.5074C69.6139 12.5525 69.8493 12.6492 70.0589 12.791C70.2685 12.9328 70.4459 13.1262 70.5878 13.3647C70.7329 13.6 70.8006 13.8707 70.8006 14.1672C70.8006 14.4895 70.7103 14.7828 70.5394 15.0567C70.3653 15.3242 70.1299 15.5273 69.8332 15.6594C70.2524 15.7819 70.5749 15.9882 70.8006 16.2814C71.0232 16.5747 71.136 16.9196 71.136 17.316C71.136 17.6286 71.0619 17.9316 70.92 18.2313C70.7716 18.5246 70.5749 18.7631 70.3266 18.9371C70.075 19.1176 69.7622 19.2239 69.3913 19.2626C69.1624 19.2884 68.6012 19.3045 67.7144 19.311H65.373V12.4365V12.4397ZM66.763 13.5839V15.1728H67.6757C68.2175 15.1728 68.5561 15.1663 68.6851 15.1502C68.9205 15.1212 69.1108 15.0374 69.2462 14.9053C69.3817 14.7731 69.4494 14.5894 69.4494 14.367C69.4494 14.1447 69.3913 13.9803 69.272 13.8482C69.1527 13.7128 68.9818 13.6354 68.7463 13.6064C68.6077 13.5903 68.211 13.5839 67.5596 13.5839H66.7598H66.763ZM66.763 16.3169V18.1572H68.053C68.5529 18.1572 68.8689 18.141 69.0011 18.112C69.2075 18.0766 69.3784 17.9831 69.5074 17.8381C69.6397 17.6931 69.7009 17.4997 69.7009 17.258C69.7009 17.0517 69.6493 16.8745 69.5494 16.7294C69.4494 16.5844 69.3075 16.4845 69.114 16.4168C68.9269 16.3523 68.5174 16.3169 67.8821 16.3169H66.7598H66.763Z" fill="#CD6034"/>
<path d="M78.5147 19.3149H77.0022L76.4023 17.7518H73.6515L73.0871 19.3149H71.6133L74.2932 12.4404H75.7606L78.5179 19.3149H78.5147ZM75.9573 16.5947L75.0092 14.0454L74.0804 16.5947H75.9573Z" fill="#CD6034"/>
<path d="M83.6521 16.7876L84.9969 17.2163C84.7937 17.964 84.4454 18.5248 83.9681 18.889C83.4908 19.2532 82.8781 19.4369 82.1428 19.4369C81.2269 19.4369 80.4755 19.1242 79.8885 18.499C79.3016 17.8738 79.0049 17.0229 79.0049 15.94C79.0049 14.7959 79.3016 13.9064 79.895 13.2747C80.4851 12.643 81.2624 12.3271 82.2266 12.3271C83.0683 12.3271 83.752 12.5753 84.2777 13.0716C84.5905 13.3649 84.8292 13.7871 84.9807 14.3415L83.6069 14.667C83.5263 14.3125 83.3586 14.0321 83.0974 13.8226C82.8426 13.6195 82.5265 13.5132 82.1589 13.5132C81.6493 13.5132 81.2333 13.6969 80.9173 14.0643C80.6012 14.4285 80.44 15.0215 80.44 15.8401C80.44 16.7103 80.598 17.3291 80.9108 17.6965C81.2204 18.0671 81.63 18.2508 82.1299 18.2508C82.5007 18.2508 82.8168 18.1348 83.0812 17.8995C83.3457 17.6675 83.5392 17.3001 83.6521 16.7941V16.7876Z" fill="#CD6034"/>
<path d="M90.5886 16.7876L91.9334 17.2163C91.7302 17.964 91.3819 18.5248 90.9046 18.889C90.4241 19.2532 89.8146 19.4369 89.0793 19.4369C88.1634 19.4369 87.412 19.1242 86.8251 18.499C86.2381 17.8738 85.9414 17.0229 85.9414 15.94C85.9414 14.7959 86.2381 13.9064 86.8315 13.2747C87.4217 12.643 88.1989 12.3271 89.1631 12.3271C90.0049 12.3271 90.6885 12.5753 91.2142 13.0716C91.527 13.3649 91.7657 13.7871 91.9173 14.3415L90.5434 14.667C90.4628 14.3125 90.2951 14.0321 90.0339 13.8226C89.7791 13.6195 89.4631 13.5132 89.0954 13.5132C88.5859 13.5132 88.1699 13.6969 87.8538 14.0643C87.5378 14.4285 87.3765 15.0215 87.3765 15.8401C87.3765 16.7103 87.5345 17.3291 87.8474 17.6965C88.157 18.0671 88.5665 18.2508 89.0664 18.2508C89.4373 18.2508 89.7533 18.1348 90.0178 17.8995C90.2822 17.6675 90.4757 17.3001 90.5886 16.7941V16.7876Z" fill="#CD6034"/>
<path d="M93.1328 19.3149V12.4404H94.5195V15.1444H97.2446V12.4404H98.6314V19.3149H97.2446V16.3079H94.5195V19.3149H93.1328Z" fill="#CD6034"/>
<path d="M100.07 19.3149V12.4404H105.169V13.6039H101.457V15.1283H104.911V16.2853H101.457V18.1578H105.301V19.3149H100.07Z" fill="#CD6034"/>
<path d="M106.484 19.3149V12.4404H109.406C110.141 12.4404 110.677 12.5017 111.012 12.6274C111.344 12.7498 111.609 12.969 111.812 13.2848C112.009 13.6007 112.112 13.9616 112.112 14.3677C112.112 14.8834 111.957 15.3088 111.654 15.6472C111.351 15.9824 110.899 16.1951 110.296 16.2821C110.596 16.4562 110.845 16.6495 111.038 16.8558C111.232 17.0653 111.499 17.4359 111.831 17.9709L112.67 19.3116H111.009L110.006 17.8162C109.648 17.2812 109.406 16.9428 109.274 16.8075C109.142 16.6656 109.003 16.5722 108.855 16.5206C108.706 16.469 108.474 16.4433 108.158 16.4433H107.874V19.3116H106.488L106.484 19.3149ZM107.871 15.3507H108.9C109.564 15.3507 109.98 15.3217 110.148 15.2637C110.316 15.2057 110.445 15.109 110.538 14.9736C110.632 14.8383 110.68 14.6642 110.68 14.458C110.68 14.2259 110.619 14.039 110.493 13.894C110.367 13.7521 110.196 13.6651 109.967 13.6265C109.854 13.6103 109.519 13.6039 108.955 13.6039H107.871V15.3475V15.3507Z" fill="#CD6034"/>
<path d="M113.373 19.3149V12.4404H114.763V19.3149H113.373Z" fill="#CD6034"/>
<path d="M122.293 19.3149H120.781L120.181 17.7518H117.43L116.865 19.3149H115.392L118.072 12.4404H119.539L122.296 19.3149H122.293ZM119.732 16.5947L118.784 14.0454L117.855 16.5947H119.732Z" fill="#CD6034"/>
<path d="M21.9297 43.8314C9.83612 43.8314 0 34.0015 0 21.9157C0 9.82983 9.83612 0 21.9297 0C34.0233 0 43.8594 9.82983 43.8594 21.9157C43.8594 34.0015 34.0233 43.8314 21.9297 43.8314ZM21.9297 1.58244C10.7101 1.58244 1.58345 10.7032 1.58345 21.9157C1.58345 33.1281 10.7101 42.2489 21.9297 42.2489C33.1493 42.2489 42.276 33.1281 42.276 21.9157C42.276 10.7032 33.1493 1.58244 21.9297 1.58244Z" fill="#CD6034"/>
<path d="M35.8904 50.0001H7.96875L21.9296 20.04L35.8904 50.0001ZM10.452 48.4209H33.4072L21.9296 23.7915L10.452 48.4209Z" fill="#CD6034"/>
<path d="M23.0133 10.5033C22.8198 10.5033 22.6263 10.484 22.4296 10.4421C21.7072 10.2874 21.088 9.85873 20.6881 9.23671C20.2882 8.61469 20.1527 7.87665 20.3075 7.15472C20.4623 6.43279 20.8913 5.814 21.5104 5.41436C22.1329 5.01472 22.8714 4.87936 23.5938 5.03406C25.0837 5.35635 26.0351 6.82921 25.7158 8.31819C25.4352 9.61379 24.2839 10.5001 23.01 10.5001L23.0133 10.5033ZM23.01 6.02671C22.6843 6.02671 22.3651 6.12017 22.0845 6.30065C21.7007 6.54882 21.4363 6.93234 21.3395 7.3771C21.2428 7.82508 21.3266 8.27951 21.5749 8.66626C21.8233 9.04978 22.207 9.31406 22.6521 9.41075C23.5712 9.60735 24.4871 9.02078 24.687 8.09903C24.8837 7.17728 24.2968 6.2652 23.3745 6.06538C23.2551 6.0396 23.1326 6.02671 23.01 6.02671Z" fill="#742718"/>
<path d="M7.74303 23.598C7.55276 23.598 7.35603 23.5787 7.15931 23.5368C5.66938 23.2145 4.71802 21.7417 5.03729 20.2494C5.19531 19.5275 5.62101 18.9087 6.24342 18.5091C6.86584 18.1094 7.60436 17.9741 8.32675 18.1288C9.04914 18.2835 9.66833 18.7121 10.0682 19.3309C10.4681 19.9529 10.6036 20.691 10.4488 21.4129C10.1682 22.7085 9.02011 23.5948 7.74303 23.5948V23.598ZM7.38183 22.5055C8.30417 22.7021 9.21683 22.1123 9.41678 21.1938C9.51353 20.7458 9.42968 20.2881 9.18136 19.9078C8.93304 19.5243 8.54927 19.26 8.10422 19.1633C7.65918 19.0634 7.19801 19.1504 6.81747 19.3986C6.4337 19.6468 6.16925 20.0303 6.0725 20.4751C5.87255 21.3968 6.46272 22.3089 7.38506 22.5087L7.38183 22.5055Z" fill="#742718"/>
<path d="M19.6557 40.9372C19.459 40.9372 19.2622 40.9146 19.0687 40.8727C18.3464 40.718 17.7272 40.2894 17.3273 39.6706C16.9241 39.0486 16.7919 38.3105 16.9467 37.5886C17.2692 36.0996 18.7463 35.1521 20.2362 35.4679C20.9586 35.6226 21.5778 36.0513 21.9777 36.6701C22.3808 37.2921 22.513 38.0301 22.3582 38.7521C22.2034 39.474 21.7745 40.0928 21.1553 40.4924C20.7006 40.7825 20.1878 40.934 19.6589 40.934L19.6557 40.9372ZM19.646 36.4606C19.3203 36.4606 19.001 36.5541 18.7205 36.7345C18.3367 36.9827 18.0722 37.3662 17.9755 37.811C17.8787 38.259 17.9626 38.7166 18.2109 39.1001C18.4592 39.4837 18.843 39.7479 19.288 39.8446C19.7331 39.9445 20.1943 39.8575 20.5748 39.6094C20.9586 39.3612 21.223 38.9777 21.3198 38.5329C21.4165 38.0882 21.3327 37.6305 21.0843 37.247C20.836 36.8635 20.4523 36.5992 20.0072 36.5025C19.8847 36.4767 19.7653 36.4638 19.6428 36.4638L19.646 36.4606Z" fill="#742718"/>
<path d="M29.7983 31.3748C29.6015 31.3748 29.4048 31.3523 29.2113 31.3104C28.4889 31.1557 27.8697 30.727 27.4698 30.1082C27.0667 29.4862 26.9345 28.7482 27.0893 28.0262C27.4118 26.534 28.8856 25.5865 30.3755 25.9056C31.8687 26.2278 32.82 27.7007 32.4976 29.1897C32.3428 29.9116 31.9138 30.5304 31.2946 30.9301C30.8399 31.2233 30.3272 31.3748 29.7983 31.3748ZM29.7886 26.895C29.4629 26.895 29.1436 26.9885 28.863 27.1689C28.4793 27.4171 28.2148 27.8006 28.1181 28.2454C28.0213 28.6901 28.1052 29.1478 28.3535 29.5313C28.6018 29.9148 28.9856 30.1791 29.4306 30.2758C29.8757 30.3725 30.3368 30.2887 30.7174 30.0405C31.1011 29.7924 31.3656 29.4088 31.4623 28.9641C31.5591 28.5193 31.4752 28.0617 31.2269 27.6782C30.9786 27.2946 30.5948 27.0303 30.1498 26.9337C30.0305 26.9079 29.9079 26.895 29.7854 26.895H29.7886Z" fill="#742718"/>
<path d="M21.9325 34.3822C21.7358 34.3822 21.5391 34.3597 21.3456 34.3178C20.6232 34.1631 20.004 33.7344 19.6041 33.1156C19.2042 32.4968 19.0688 31.7556 19.2236 31.0336C19.3783 30.3117 19.8073 29.6929 20.4297 29.2933C21.0489 28.8936 21.7906 28.7583 22.513 28.913C23.2354 29.0677 23.8546 29.4963 24.2545 30.1183C24.6544 30.7371 24.7898 31.4784 24.635 32.2003C24.4802 32.9222 24.0513 33.541 23.4321 33.9407C22.9774 34.2307 22.4646 34.3822 21.9357 34.3822H21.9325ZM21.9261 29.9056C21.6003 29.9056 21.2811 29.9991 21.0005 30.1796C20.6167 30.4277 20.3523 30.8113 20.2555 31.256C20.1588 31.704 20.2426 32.1616 20.491 32.5452C20.7393 32.9287 21.123 33.193 21.5681 33.2897C22.0164 33.3896 22.4743 33.3025 22.8549 33.0544C23.2386 32.8062 23.5031 32.4227 23.5998 31.9779C23.6966 31.53 23.6127 31.0723 23.3644 30.6888C23.1161 30.3053 22.7323 30.041 22.2873 29.9443C22.1679 29.9185 22.0454 29.9056 21.9228 29.9056H21.9261Z" fill="#742718"/>
<path d="M26.567 40.9376C26.3735 40.9376 26.18 40.9183 25.9833 40.8764C25.2609 40.7217 24.6417 40.293 24.2418 39.6742C23.8419 39.0554 23.7064 38.3142 23.8612 37.5922C24.0193 36.8703 24.445 36.2515 25.0674 35.8519C25.6898 35.4522 26.4283 35.3169 27.1507 35.4716C28.6406 35.7938 29.592 37.2667 29.2727 38.7557C28.9922 40.0513 27.8441 40.9376 26.5702 40.9376H26.567ZM26.5605 36.461C26.2348 36.461 25.9155 36.5545 25.635 36.7349C25.2512 36.9831 24.9868 37.3666 24.89 37.8114C24.7933 38.2594 24.8771 38.717 25.1254 39.1005C25.3738 39.4841 25.7575 39.7483 26.2026 39.845C26.6541 39.9449 27.1088 39.8579 27.4925 39.6098C27.8763 39.3616 28.1408 38.9781 28.2375 38.5333C28.4342 37.6116 27.8473 36.6995 26.925 36.4997C26.8024 36.4739 26.6831 36.461 26.5605 36.461Z" fill="#742718"/>
<path d="M33.1173 37.2342C32.9206 37.2342 32.7239 37.2116 32.5304 37.1697C31.0405 36.8507 30.0891 35.3778 30.4084 33.8856C30.7309 32.3934 32.2111 31.4459 33.6978 31.7649C34.4202 31.9196 35.0394 32.3483 35.4393 32.9671C35.8392 33.5891 35.9747 34.3271 35.8199 35.0491C35.6651 35.771 35.2361 36.3898 34.617 36.7894C34.1622 37.0795 33.6495 37.231 33.1206 37.231L33.1173 37.2342ZM33.1109 32.7576C32.7852 32.7576 32.4659 32.851 32.1853 33.0315C31.8016 33.2797 31.5371 33.6632 31.4404 34.108C31.2436 35.0297 31.8306 35.9418 32.7529 36.1416C33.2012 36.2415 33.6591 36.1545 34.0397 35.9064C34.4235 35.6582 34.6879 35.2747 34.7847 34.8299C34.8814 34.3819 34.7975 33.9243 34.5492 33.544C34.3009 33.1604 33.9171 32.8962 33.4721 32.7995C33.3528 32.7737 33.2302 32.7608 33.1077 32.7608L33.1109 32.7576Z" fill="#742718"/>
<path d="M11.2003 36.6219C11.0036 36.6219 10.8069 36.5994 10.6134 36.5607C9.12346 36.2384 8.16888 34.7655 8.49137 33.2733C8.81387 31.7811 10.2877 30.8401 11.7776 31.1527C12.5 31.3106 13.1192 31.736 13.5191 32.358C13.919 32.9801 14.0544 33.7181 13.8996 34.44C13.7448 35.162 13.3159 35.7808 12.6967 36.1804C12.242 36.4737 11.726 36.6252 11.2003 36.6252V36.6219ZM11.1971 32.1421C10.4102 32.1421 9.69751 32.6932 9.52336 33.4925C9.42661 33.9405 9.51046 34.3981 9.75878 34.7784C10.0071 35.162 10.3909 35.4262 10.8359 35.5229C11.2842 35.6196 11.7421 35.5358 12.1259 35.2877C12.5097 35.0395 12.7741 34.656 12.8709 34.2112C12.9676 33.7632 12.8838 33.3056 12.6354 32.9253C12.3871 32.5417 12.0034 32.2775 11.5583 32.1808C11.439 32.155 11.3164 32.1421 11.1971 32.1421Z" fill="#742718"/>
<path d="M36.113 25.767C35.9227 25.767 35.726 25.7476 35.5325 25.7057C34.0393 25.3835 33.088 23.9106 33.4105 22.4184C33.5685 21.6965 33.9942 21.0777 34.6166 20.678C35.239 20.2784 35.9775 20.143 36.6999 20.2977C38.1899 20.62 39.1412 22.0929 38.8219 23.5819C38.5414 24.8775 37.3901 25.7638 36.113 25.7638V25.767ZM36.1098 21.2872C35.784 21.2872 35.4648 21.3806 35.1842 21.5611C34.8004 21.8093 34.536 22.1928 34.4392 22.6376C34.2393 23.5593 34.8294 24.4714 35.7518 24.6712C36.6709 24.8678 37.5868 24.2812 37.7867 23.3595C37.9835 22.4377 37.3965 21.5257 36.4742 21.3258C36.3516 21.3 36.2323 21.2872 36.1098 21.2872Z" fill="#742718"/>
<path d="M9.21011 48.4209H5.16602V50.0033H9.21011V48.4209Z" fill="#CD6034"/>
<path d="M38.6935 48.4209H34.6494V50.0033H38.6935V48.4209Z" fill="#CD6034"/>
</g>
<defs>
<clipPath id="clip0_4211_8525">
<rect width="196" height="50" fill="white"/>
</clipPath>
</defs>
</svg>
