<svg width="50" height="11" viewBox="0 0 50 11" fill="none" xmlns="http://www.w3.org/2000/svg">
<path d="M13.4766 7.94024V2.97363H14.4892V7.09372H17.0019V7.94024H13.4766Z" fill="#008839"/>
<path d="M18.4268 5.42231L17.5588 5.26694C17.6606 4.91869 17.8213 4.65616 18.0624 4.48471C18.3035 4.31326 18.6571 4.22754 19.1286 4.22754C19.5572 4.22754 19.8733 4.27576 20.0823 4.37755C20.2913 4.47935 20.4359 4.60794 20.5216 4.76331C20.6074 4.91868 20.6502 5.20264 20.6502 5.6259L20.6395 6.74567C20.6395 7.06713 20.6556 7.30287 20.6824 7.45289C20.7145 7.6029 20.7734 7.76899 20.8538 7.94044H19.9055C19.8787 7.87614 19.8519 7.77971 19.8144 7.65648C19.7983 7.6029 19.7876 7.56004 19.7769 7.54397C19.6108 7.7047 19.4394 7.82257 19.2519 7.90293C19.0643 7.9833 18.8661 8.0208 18.6571 8.0208C18.2821 8.0208 17.9874 7.91901 17.7785 7.71541C17.5642 7.51718 17.4517 7.25465 17.4517 6.9439C17.4517 6.74031 17.4999 6.55279 17.5963 6.39206C17.6981 6.23133 17.8321 6.1081 18.0089 6.02238C18.1857 5.93665 18.4375 5.86164 18.775 5.79735C19.2251 5.71163 19.5358 5.63126 19.7073 5.56161V5.46517C19.7073 5.27765 19.6644 5.14907 19.5733 5.0687C19.4822 4.98833 19.3108 4.95083 19.059 4.95083C18.8875 4.95083 18.7536 4.98834 18.6571 5.05263C18.5661 5.13299 18.4911 5.25086 18.4268 5.42231ZM19.7126 6.19918C19.5894 6.23668 19.3912 6.29026 19.1286 6.34384C18.8661 6.39741 18.6893 6.45635 18.6089 6.50993C18.4857 6.60101 18.4214 6.70816 18.4214 6.84746C18.4214 6.98141 18.4696 7.09928 18.5714 7.19571C18.6732 7.29215 18.8018 7.34037 18.9518 7.34037C19.1286 7.34037 19.2894 7.2868 19.4447 7.16893C19.5572 7.0832 19.6323 6.98141 19.6751 6.84746C19.7019 6.7671 19.7126 6.60637 19.7126 6.37598V6.19918Z" fill="#008839"/>
<path d="M23.5488 7.94014V2.93604H25.1669C25.783 2.93604 26.1795 2.96282 26.367 3.01104C26.6509 3.08605 26.892 3.25214 27.0849 3.4986C27.2832 3.75041 27.3796 4.07723 27.3796 4.4737C27.3796 4.77909 27.326 5.03626 27.2135 5.25057C27.101 5.45952 26.9563 5.62561 26.7902 5.74348C26.6188 5.86135 26.4474 5.94171 26.2652 5.97922C26.0241 6.02744 25.6758 6.04887 25.2151 6.04887H24.5561V7.94014H23.5488ZM24.5614 3.78256V5.20235H25.1186C25.5205 5.20235 25.783 5.17556 25.9169 5.12198C26.0509 5.07377 26.158 4.98804 26.233 4.87553C26.3081 4.76302 26.3456 4.63443 26.3456 4.48442C26.3456 4.30225 26.292 4.15224 26.1848 4.03437C26.0777 3.9165 25.9437 3.84685 25.7776 3.8147C25.6598 3.78791 25.4133 3.7772 25.0543 3.7772C25.0543 3.78255 24.5614 3.78256 24.5614 3.78256Z" fill="#008839"/>
<path d="M28.21 3.82006V2.93604H29.169V3.82542L28.21 3.82006ZM28.21 7.94014V4.31297H29.169V7.94014H28.21Z" fill="#008839"/>
<path d="M33.4503 7.93996H32.4912V6.09155C32.4912 5.70044 32.4698 5.44862 32.4323 5.33075C32.3948 5.21824 32.3198 5.12716 32.2341 5.06287C32.143 4.99858 32.0305 4.96643 31.8965 4.96643C31.7304 4.96643 31.5804 5.00929 31.4518 5.10037C31.3232 5.19145 31.2322 5.30932 31.1839 5.45934C31.1357 5.60935 31.1089 5.88796 31.1089 6.29514V7.9346H30.1499V4.31279H31.0393V4.84856C31.3554 4.43601 31.7519 4.23242 32.2341 4.23242C32.443 4.23242 32.6412 4.26993 32.8127 4.34493C32.9895 4.41994 33.1234 4.52174 33.2145 4.63425C33.3056 4.75212 33.3699 4.89142 33.402 5.04144C33.4395 5.19145 33.4556 5.40576 33.4556 5.68436L33.4503 7.93996Z" fill="#008839"/>
<path d="M36.5199 6.78317L37.4736 6.9439C37.3504 7.29215 37.1575 7.56004 36.895 7.7422C36.6325 7.92972 36.3003 8.01545 35.8984 8.01545C35.2662 8.01545 34.8055 7.81185 34.5001 7.39395C34.259 7.06177 34.1411 6.64923 34.1411 6.1456C34.1411 5.54554 34.2965 5.07406 34.6126 4.73652C34.9287 4.39899 35.3252 4.22754 35.802 4.22754C36.3431 4.22754 36.7664 4.4097 37.0771 4.76331C37.3879 5.11692 37.5379 5.66341 37.5218 6.39741H35.1162C35.1216 6.68137 35.2019 6.90104 35.3466 7.06177C35.4966 7.2225 35.6788 7.29751 35.9038 7.29751C36.0538 7.29751 36.177 7.26001 36.2842 7.17428C36.3914 7.08856 36.4717 6.96533 36.5199 6.78317ZM36.5735 5.81342C36.5682 5.53482 36.4932 5.32587 36.3592 5.17586C36.2253 5.0312 36.0538 4.96155 35.8609 4.96155C35.652 4.96155 35.4805 5.03655 35.3412 5.19193C35.2073 5.3473 35.1377 5.55089 35.143 5.81342H36.5735Z" fill="#008839"/>
<path d="M39.9758 4.31321V5.07936H39.3222V6.54202C39.3222 6.83669 39.3275 7.0135 39.3436 7.05636C39.3543 7.10458 39.3811 7.14744 39.4293 7.17423C39.4722 7.20638 39.5311 7.22245 39.5901 7.22245C39.6811 7.22245 39.8044 7.1903 39.9758 7.13137L40.0562 7.87609C39.8311 7.97253 39.5793 8.02075 39.2954 8.02075C39.1186 8.02075 38.9632 7.9886 38.8239 7.93503C38.6846 7.87609 38.5828 7.80108 38.5185 7.71C38.4542 7.61892 38.406 7.49569 38.3846 7.33496C38.3631 7.22245 38.3524 6.99743 38.3524 6.65989V5.08472H37.9131V4.31321H38.3524V3.59527L39.3168 3.03271V4.31321H39.9758Z" fill="#008839"/>
<path d="M40.6401 3.82006V2.93604H41.5992V3.82542L40.6401 3.82006ZM40.6401 7.94014V4.31297H41.5992V7.94014H40.6401Z" fill="#008839"/>
<path d="M45.8799 7.93996H44.9209V6.09155C44.9209 5.70044 44.8995 5.44862 44.862 5.33075C44.8245 5.21824 44.7495 5.12716 44.6637 5.06287C44.5727 4.99858 44.4601 4.96643 44.3262 4.96643C44.1601 4.96643 44.0101 5.00929 43.8815 5.10037C43.7529 5.19145 43.6618 5.30932 43.6136 5.45934C43.5654 5.60935 43.5386 5.88796 43.5386 6.29514V7.9346H42.5796V4.31279H43.469V4.84856C43.7851 4.43601 44.1815 4.23242 44.6637 4.23242C44.8727 4.23242 45.0709 4.26993 45.2424 4.34493C45.4192 4.41994 45.5531 4.52174 45.6442 4.63425C45.7353 4.75212 45.7996 4.89142 45.8317 5.04144C45.8692 5.19145 45.8853 5.40576 45.8853 5.68436L45.8799 7.93996Z" fill="#008839"/>
<path d="M47.5728 5.42231L46.7048 5.26694C46.8066 4.91869 46.9673 4.65616 47.2084 4.48471C47.4495 4.31326 47.8031 4.22754 48.2746 4.22754C48.7032 4.22754 49.0193 4.27576 49.2283 4.37755C49.4372 4.47935 49.5819 4.60794 49.6676 4.76331C49.7534 4.91868 49.7962 5.20264 49.7962 5.6259L49.7855 6.74567C49.7855 7.06713 49.8016 7.30287 49.8284 7.45289C49.8605 7.6029 49.9194 7.76899 49.9998 7.94044H49.0515C49.0247 7.87614 48.9979 7.77971 48.9604 7.65648C48.9443 7.6029 48.9336 7.56004 48.9229 7.54397C48.7568 7.7047 48.5854 7.82257 48.3978 7.90293C48.2103 7.9833 48.0121 8.0208 47.8031 8.0208C47.4281 8.0208 47.1334 7.91901 46.9245 7.71541C46.7102 7.51718 46.5977 7.25465 46.5977 6.9439C46.5977 6.74031 46.6459 6.55279 46.7423 6.39206C46.8441 6.23133 46.9781 6.1081 47.1549 6.02238C47.3317 5.93665 47.5835 5.86164 47.921 5.79735C48.3711 5.71163 48.6818 5.63126 48.8533 5.56161V5.46517C48.8533 5.27765 48.8104 5.14907 48.7193 5.0687C48.6282 4.98833 48.4568 4.95083 48.205 4.95083C48.0335 4.95083 47.8996 4.98834 47.8031 5.05263C47.7067 5.13299 47.6317 5.25086 47.5728 5.42231ZM48.8533 6.19918C48.73 6.23668 48.5318 6.29026 48.2693 6.34384C48.0067 6.39741 47.8299 6.45635 47.7496 6.50993C47.6263 6.60101 47.562 6.70816 47.562 6.84746C47.562 6.98141 47.6103 7.09928 47.7121 7.19571C47.8139 7.29751 47.9424 7.34037 48.0925 7.34037C48.2693 7.34037 48.43 7.2868 48.5854 7.16893C48.6979 7.0832 48.7729 6.98141 48.8158 6.84746C48.8425 6.7671 48.8533 6.60637 48.8533 6.37598C48.8533 6.3867 48.8533 6.19918 48.8533 6.19918Z" fill="#008839"/>
<path d="M5.56309 0.0160725L5.37021 0L1.89305 7.96693L1.76447 8.2616H4.2183V10.0243C2.03235 9.4778 0.483974 7.49545 0.542909 5.21306C0.601844 3.0539 2.15558 1.19477 4.21295 0.669715L4.47547 0.0535764C1.99485 0.487551 0.07143 2.65743 0.00177969 5.20234C-0.0678706 7.91871 1.91448 10.26 4.60942 10.6511L4.92016 10.694V7.49545H2.71814L4.64692 3.00032C5.00053 2.19131 5.35414 1.38229 5.70775 0.567919C8.22052 0.873309 10.1547 2.97889 10.1279 5.42737C10.1118 7.45794 8.70807 9.28492 6.73107 9.96535V8.25624H8.92774C8.89559 8.18123 8.86344 8.10087 8.8313 8.02586L6.04528 1.37693L5.75061 2.07344L8.02228 7.49009H6.02385V10.7154L6.35603 10.6404C8.8313 10.0672 10.6368 7.8812 10.6636 5.43808C10.6904 2.64671 8.4509 0.262527 5.56309 0.0160725Z" fill="#008839"/>
</svg>
