<svg width="322" height="50" viewBox="0 0 322 50" fill="none" xmlns="http://www.w3.org/2000/svg">
<path d="M136.512 0.283981C137.827 0.353474 139.141 0.411384 140.456 0.492459C141.046 0.527205 141.631 0.637234 142.228 0.677772C143.803 0.793592 145.384 0.851503 146.953 0.996278C149.264 1.21055 151.58 1.41902 153.874 1.74911C156.705 2.15449 159.52 2.64093 162.328 3.15054C165.021 3.64278 167.714 4.15239 170.378 4.75466C173.945 5.55382 177.484 6.43406 181.028 7.30271C185.33 8.36247 189.535 9.65966 193.641 11.2059C197.243 12.561 200.914 13.7887 204.47 15.2191C207.742 16.5394 210.898 18.074 214.123 19.487C214.662 19.7187 215.282 19.8635 215.884 19.9214C217.992 20.1299 220.106 20.263 222.219 20.4542C225.005 20.7032 227.79 20.9753 230.576 21.2475C233.547 21.5371 236.517 21.8266 239.482 22.1162C240.826 22.2494 242.175 22.342 243.513 22.51C246.559 22.8922 249.605 23.2686 252.634 23.7261C255.72 24.1894 258.784 24.7627 261.865 25.2607C263.845 25.5792 265.849 25.7993 267.818 26.1525C270.158 26.5695 272.48 27.0733 274.808 27.5424C276.313 27.8435 277.819 28.1331 279.313 28.4689C280.483 28.7295 281.635 29.0365 282.788 29.3318C284.49 29.7661 286.204 30.1657 287.884 30.6637C291.017 31.5903 294.15 32.5227 297.242 33.5535C301.916 35.117 306.427 36.9991 310.602 39.4024C314.696 41.7594 318.345 44.5391 320.91 48.2337C321.211 48.6681 321.489 49.114 321.773 49.5541V49.6815C321.593 49.6699 321.362 49.722 321.252 49.6468C317.615 47.1856 313.677 45.1182 309.652 43.184C306.67 41.7478 303.676 40.3058 300.566 39.0897C296.356 37.445 292.082 35.8815 287.739 34.5264C282.857 33.0033 277.894 31.6656 272.908 30.4031C269.185 29.4592 265.391 28.7006 261.598 27.9825C258.436 27.3802 255.228 26.9517 252.037 26.4479C250.248 26.1641 248.453 25.8688 246.658 25.614C245.708 25.475 244.741 25.4171 243.779 25.3128C241.058 25.0175 238.347 24.6874 235.62 24.4268C233.628 24.2357 231.624 24.1315 229.626 23.9983C226.736 23.8072 223.847 23.6045 220.957 23.4365C218.855 23.3149 216.753 23.257 214.65 23.147C213.539 23.0891 212.432 22.9906 211.326 22.8922C211.164 22.8806 211.002 22.7937 210.852 22.7184C206.705 20.5584 202.327 18.7979 197.914 17.1011C192.778 15.1264 187.508 13.4412 182.145 11.9819C177.594 10.7426 173.048 9.49172 168.455 8.37406C165.01 7.53436 161.483 6.93788 158.014 6.15609C154.922 5.46117 151.8 4.94576 148.621 4.66779C145.32 4.37245 142.031 4.0192 138.724 3.82809C135.238 3.6312 131.74 3.53275 128.242 3.52696C125.897 3.52696 123.552 3.74123 121.206 3.86863C119.052 3.98445 116.898 4.05394 114.755 4.25084C112.479 4.45932 110.209 4.78941 107.945 5.08475C106.329 5.29323 104.719 5.50749 103.115 5.7623C100.903 6.11555 98.685 6.46301 96.4902 6.89734C93.0677 7.57489 89.6394 8.24665 86.2574 9.05161C82.7828 9.87972 79.3372 10.8295 75.9147 11.8081C72.5848 12.7637 69.3303 13.9392 65.9715 14.8137C62.5895 15.6997 59.1265 16.3599 55.6924 17.078C53.457 17.5471 51.2159 18.0219 48.9458 18.3636C44.9268 18.9659 40.8905 19.5044 36.8483 19.9967C34.3698 20.2978 31.8796 20.4947 29.3895 20.6916C25.2837 21.0159 21.1662 21.1317 17.0546 20.8943C14.0954 20.7205 11.1419 20.3789 8.20589 20.014C6.37593 19.7824 4.58071 19.3712 2.77391 19.0122C1.84155 18.8269 0.920774 18.5894 0 18.3752V18.1204C0.619641 18.103 1.23349 18.0798 1.85313 18.0682C4.36644 18.0103 6.88554 18.0045 9.39306 17.8771C11.4431 17.7729 13.4931 17.5528 15.5316 17.3386C17.211 17.1591 18.8846 16.9332 20.5524 16.6726C22.6893 16.3425 24.8146 15.9661 26.9457 15.6071C29.1057 15.2422 31.2716 14.8948 33.4201 14.501C36.3214 13.9682 39.2343 13.4644 42.1124 12.8332C47.6255 11.617 53.1154 10.3314 58.6053 9.04002C63.2323 7.95131 67.8709 6.87418 72.4632 5.68123C75.4456 4.90523 78.4569 4.26242 81.4972 3.71806C82.9218 3.46326 84.358 3.27795 85.7884 3.05789C86.3154 2.97681 86.8365 2.84941 87.3693 2.77992C89.6452 2.49616 91.9269 2.24135 94.2027 1.95759C95.5694 1.78965 96.9245 1.54643 98.297 1.40744C100.55 1.18159 102.814 1.00207 105.073 0.822547C107.354 0.637234 109.636 0.457712 111.918 0.312936C112.971 0.243444 114.031 0.272399 115.085 0.243444C117.089 0.191325 119.098 0.133414 121.102 0.063922C123.511 0.000220673 126.007 -0.0171524 128.578 0.0175938C131.312 0.05234 133.958 0.144997 136.5 0.289772L136.512 0.283981Z" fill="#E4272A"/>
<path d="M99.5482 39.3965C98.0772 40.1146 96.5484 40.5026 94.9559 40.6879C91.6376 41.0759 88.412 40.601 85.2964 39.6687C81.4628 38.5221 77.6986 37.2017 73.8765 36.0146C70.3671 34.9258 66.7477 34.2425 63.0415 33.8661C59.8738 33.5476 56.7003 33.4897 53.5326 33.7387C44.8461 34.4104 37.1672 37.138 30.6522 42.1936C30.4727 42.3326 30.2874 42.4773 30.1079 42.6163C30.05 42.5816 29.9979 42.5468 29.9399 42.5121C30.8433 41.3597 31.6773 40.1609 32.6617 39.0664C37.0919 34.144 42.9176 31.0401 49.8379 29.3838C54.0191 28.382 58.2928 28.1387 62.5956 28.4515C68.5314 28.8916 74.0676 30.4899 79.2795 32.9569C82.4067 34.4336 85.5339 35.9219 88.7131 37.3117C91.516 38.5394 94.4926 39.3386 97.6834 39.3965C98.2683 39.4081 98.859 39.3965 99.5424 39.3965H99.5482Z" fill="#E4272A"/>
<path d="M205.715 49.9999C207.724 46.6526 210.498 43.8961 213.973 41.6781C218.994 38.4757 224.634 36.6399 230.836 36.1072C238.84 35.4296 246.374 36.8253 253.462 40.0335C257.128 41.6897 260.712 43.4734 264.39 45.118C267.025 46.2936 269.827 47.0812 272.833 47.197C273.568 47.226 274.31 47.197 275.045 47.197C275.068 47.2549 275.091 47.3128 275.115 47.3649C273.904 47.695 272.717 48.1062 271.484 48.3436C268.217 48.9633 264.986 48.5695 261.882 47.6834C258.431 46.699 255.049 45.5292 251.655 44.3941C247.225 42.9058 242.673 41.8693 237.936 41.4291C230.593 40.7458 223.488 41.4639 216.654 43.9135C212.89 45.2628 209.508 47.1507 206.439 49.4555C206.201 49.635 205.958 49.8145 205.721 49.9999H205.715Z" fill="#E4272A"/>
<path d="M134.149 25.3129C134.149 25.0986 134.08 24.9712 133.941 24.9422C133.802 24.9133 133.628 24.9017 133.408 24.9017H123.088V24.5137C123.523 24.5137 123.737 24.3805 123.737 24.1257V14.2867C123.737 14.0261 123.523 13.8987 123.088 13.8987V13.5107H126.818V13.8987C126.412 13.8987 126.21 14.0319 126.21 14.2867V22.9154H133.408C133.622 22.9154 133.802 22.8633 133.941 22.7648C134.08 22.6664 134.149 22.5274 134.149 22.3536H134.537V25.3244H134.149V25.3129Z" fill="#050607"/>
<path d="M137.16 24.4789C137.345 24.4499 137.496 24.3573 137.606 24.1951C137.716 24.0388 137.82 23.8535 137.919 23.6508L141.932 15.219C142.03 15.0337 142.123 14.86 142.204 14.6978C142.285 14.5357 142.326 14.4025 142.326 14.2867C142.326 14.1419 142.274 14.0435 142.175 13.9855C142.077 13.9276 141.967 13.8813 141.851 13.8524V13.4644H145.517V13.8524C145.412 13.8813 145.314 13.9218 145.215 13.974C145.111 14.0261 145.065 14.1303 145.065 14.2867C145.065 14.4025 145.088 14.5183 145.14 14.6341C145.192 14.75 145.268 14.9005 145.366 15.0916L149.877 23.9172C149.947 24.0735 150.045 24.1894 150.173 24.2646C150.294 24.3341 150.433 24.4094 150.595 24.4789V24.8669H146.779V24.4789C146.837 24.4789 146.906 24.4557 146.993 24.4152C147.08 24.3747 147.121 24.3052 147.121 24.2183C147.121 24.0735 147.063 23.8882 146.947 23.6566L146.125 22.0525H140.837L140.056 23.5929C139.911 23.894 139.841 24.1141 139.841 24.2415C139.841 24.4036 139.98 24.4789 140.253 24.4789V24.8669H137.172V24.4789H137.16ZM145.331 20.4483L143.513 16.4178L141.474 20.4483H145.331Z" fill="#050607"/>
<path d="M154.991 24.537C155.107 24.537 155.205 24.5023 155.292 24.4386C155.379 24.3749 155.42 24.2764 155.42 24.1432V14.2579C155.42 14.1247 155.379 14.0379 155.292 13.9857C155.205 13.9336 155.101 13.9105 154.991 13.9105V13.5225H159.045V13.9105C158.97 13.9105 158.894 13.9336 158.819 13.9742C158.738 14.0147 158.697 14.0842 158.697 14.1711C158.697 14.2405 158.726 14.339 158.784 14.4548C158.842 14.5706 158.906 14.6922 158.981 14.8254L162.079 20.4601L165.201 14.8891C165.299 14.7038 165.375 14.5533 165.427 14.4432C165.479 14.3332 165.502 14.2348 165.502 14.1479C165.502 13.9915 165.409 13.9105 165.218 13.9105V13.5225H169.231V13.9105C169.116 13.9105 169.017 13.9336 168.93 13.9857C168.843 14.0379 168.797 14.1247 168.797 14.2579V24.1432C168.797 24.2764 168.843 24.3691 168.93 24.4386C169.017 24.5023 169.116 24.537 169.231 24.537V24.925H165.826V24.537C166.214 24.537 166.411 24.4038 166.411 24.149V16.9508H166.371L162.016 24.9308H161.952L157.684 16.9334H157.643V24.1548C157.643 24.4154 157.846 24.5428 158.252 24.5428V24.9308H154.997V24.5428L154.991 24.537Z" fill="#050607"/>
<path d="M109.746 32.9165C109.833 32.905 109.902 32.8586 109.949 32.7891C109.995 32.7197 110.047 32.6328 110.093 32.5401L111.929 28.6775C111.975 28.5906 112.016 28.5096 112.051 28.4401C112.085 28.3706 112.103 28.3069 112.103 28.249C112.103 28.1853 112.08 28.1389 112.033 28.11C111.987 28.0868 111.935 28.0637 111.883 28.0521V27.8726H113.562V28.0521C113.516 28.0637 113.47 28.081 113.423 28.1042C113.377 28.1274 113.354 28.1737 113.354 28.249C113.354 28.3011 113.365 28.3532 113.388 28.4053C113.412 28.4575 113.446 28.5269 113.493 28.6138L115.56 32.656C115.595 32.7312 115.635 32.7834 115.693 32.8181C115.751 32.8528 115.815 32.8818 115.884 32.9165V33.0961H114.135V32.9165C114.135 32.9165 114.193 32.905 114.234 32.8876C114.274 32.8702 114.292 32.8355 114.292 32.8007C114.292 32.737 114.263 32.6502 114.211 32.5401L113.834 31.8047H111.408L111.049 32.5112C110.985 32.6502 110.95 32.7486 110.95 32.8065C110.95 32.8818 111.014 32.9165 111.142 32.9165V33.0961H109.729V32.9165H109.746ZM113.493 31.0692L112.659 29.2219L111.726 31.0692H113.493Z" fill="#050607"/>
<path d="M119.758 27.9534C119.614 27.9534 119.538 28.0114 119.538 28.133V31.1154C119.538 31.5323 119.672 31.8219 119.938 31.9724C120.204 32.1288 120.598 32.2041 121.114 32.2041C121.629 32.2041 122.023 32.1288 122.289 31.9724C122.556 31.8161 122.695 31.5323 122.695 31.1154V28.133C122.695 28.0114 122.596 27.9534 122.399 27.9534V27.7739H123.986V27.9534C123.83 27.9534 123.749 28.0114 123.749 28.133V31.0632C123.749 31.4512 123.691 31.7755 123.581 32.0303C123.471 32.2851 123.297 32.4878 123.071 32.6384C122.845 32.789 122.567 32.8932 122.231 32.9453C121.895 32.9974 121.513 33.0264 121.073 33.0264C120.633 33.0264 120.251 32.9974 119.915 32.9453C119.579 32.8932 119.301 32.789 119.075 32.6384C118.849 32.4878 118.681 32.2851 118.566 32.0303C118.456 31.7755 118.398 31.4512 118.398 31.0632V28.133C118.398 28.0114 118.305 27.9534 118.12 27.9534V27.7739H119.747V27.9534H119.758Z" fill="#050607"/>
<path d="M129.464 32.7313C129.464 32.8529 129.539 32.9108 129.684 32.9108V33.0903H128.155V32.9108C128.202 32.9108 128.242 32.8934 128.277 32.8645C128.312 32.8355 128.329 32.7892 128.329 32.7313V28.776H126.69C126.632 28.776 126.574 28.7934 126.516 28.8281C126.458 28.8629 126.43 28.9266 126.43 29.0192H126.25V27.6294H126.43C126.43 27.7221 126.458 27.7858 126.516 27.8205C126.574 27.8552 126.632 27.8726 126.69 27.8726H131.103C131.161 27.8726 131.219 27.8552 131.277 27.8205C131.335 27.7858 131.363 27.7221 131.363 27.6294H131.543V29.0192H131.363C131.363 28.9266 131.335 28.8629 131.277 28.8281C131.219 28.7934 131.161 28.776 131.103 28.776H129.464V32.7313Z" fill="#050607"/>
<path d="M136.28 27.8843C136.645 27.8843 137.016 27.9364 137.392 28.0464C137.768 28.1565 138.116 28.3186 138.423 28.5387C138.73 28.7587 138.99 29.0309 139.187 29.3668C139.384 29.7027 139.483 30.0965 139.483 30.5539C139.483 31.0114 139.384 31.4052 139.187 31.7411C138.99 32.077 138.735 32.3492 138.423 32.5692C138.11 32.7893 137.768 32.9456 137.392 33.0441C137.016 33.1425 136.645 33.1947 136.28 33.1947C135.915 33.1947 135.545 33.1425 135.168 33.0441C134.792 32.9456 134.444 32.7835 134.137 32.5692C133.825 32.3492 133.57 32.077 133.373 31.7411C133.176 31.4052 133.078 31.0114 133.078 30.5539C133.078 30.0965 133.176 29.7027 133.373 29.3668C133.57 29.0309 133.825 28.7529 134.137 28.5387C134.45 28.3186 134.792 28.1565 135.168 28.0464C135.545 27.9364 135.915 27.8843 136.28 27.8843ZM136.28 28.7993C136.031 28.7993 135.776 28.8398 135.527 28.9209C135.278 29.0019 135.047 29.1178 134.844 29.2625C134.641 29.4073 134.479 29.5926 134.352 29.8127C134.224 30.0327 134.161 30.2818 134.161 30.5597C134.161 30.8377 134.224 31.0867 134.352 31.3068C134.479 31.5268 134.641 31.7121 134.844 31.8569C135.047 32.0075 135.272 32.1175 135.527 32.1986C135.782 32.2797 136.031 32.3202 136.28 32.3202C136.529 32.3202 136.784 32.2797 137.033 32.1986C137.282 32.1175 137.514 32.0017 137.716 31.8569C137.919 31.7064 138.081 31.521 138.208 31.3068C138.336 31.0867 138.4 30.8377 138.4 30.5597C138.4 30.2818 138.336 30.0327 138.208 29.8127C138.081 29.5926 137.919 29.4131 137.716 29.2625C137.514 29.112 137.288 28.9962 137.033 28.9209C136.784 28.8398 136.529 28.7993 136.28 28.7993Z" fill="#050607"/>
<path d="M145.361 27.994C145.679 27.994 145.969 28.023 146.224 28.0809C146.484 28.1388 146.704 28.2256 146.89 28.3473C147.075 28.4689 147.22 28.631 147.318 28.8221C147.417 29.019 147.469 29.2564 147.469 29.5402C147.469 29.9803 147.341 30.3104 147.081 30.5421C146.82 30.7737 146.473 30.9301 146.038 31.0111L147.359 32.899C147.405 32.9627 147.457 33.0032 147.521 33.0206C147.584 33.0322 147.642 33.038 147.694 33.038V33.2175H145.836V33.038C145.893 33.038 145.946 33.0264 145.992 33.009C146.032 32.9917 146.056 32.9627 146.056 32.928C146.056 32.8932 146.044 32.8585 146.015 32.8121C145.986 32.7716 145.951 32.7079 145.893 32.6384L144.799 31.0864H143.38V32.8527C143.38 32.9106 143.403 32.9569 143.444 32.9859C143.484 33.0148 143.565 33.0322 143.676 33.0322V33.2117H141.956V33.0322C142.147 33.0322 142.245 32.9743 142.245 32.8527V28.3415C142.245 28.2199 142.147 28.1619 141.956 28.1619V27.9824H145.355L145.361 27.994ZM145.1 30.322C145.338 30.322 145.534 30.3046 145.697 30.2699C145.853 30.2351 145.98 30.183 146.073 30.1135C146.166 30.0498 146.229 29.9687 146.27 29.8819C146.31 29.7892 146.328 29.6966 146.328 29.5865C146.328 29.4765 146.31 29.3839 146.27 29.2912C146.229 29.2043 146.166 29.1233 146.073 29.0596C145.98 28.9959 145.853 28.9437 145.697 28.9032C145.54 28.8684 145.338 28.8511 145.1 28.8511H143.38V30.322H145.1Z" fill="#050607"/>
<path d="M150.092 32.9165C150.266 32.9165 150.353 32.8586 150.353 32.737V28.2257C150.353 28.1041 150.266 28.0462 150.092 28.0462V27.8667H151.743V28.0462C151.569 28.0462 151.482 28.1041 151.482 28.2257V32.737C151.482 32.8586 151.569 32.9165 151.743 32.9165V33.096H150.092V32.9165Z" fill="#050607"/>
<path d="M159.653 32.3202C159.653 32.3202 159.612 32.3202 159.601 32.3202C159.583 32.3202 159.566 32.3202 159.549 32.3202C159.508 32.3202 159.415 32.3608 159.265 32.4419C159.114 32.5229 158.929 32.6098 158.697 32.7082C158.471 32.8067 158.211 32.8936 157.915 32.9688C157.626 33.0441 157.319 33.0789 157 33.0789C156.584 33.0789 156.184 33.0267 155.796 32.9225C155.414 32.8183 155.072 32.6503 154.777 32.4303C154.481 32.2102 154.25 31.9322 154.076 31.6022C153.902 31.2721 153.815 30.8841 153.815 30.4382C153.815 29.9922 153.902 29.6158 154.076 29.2799C154.25 28.9441 154.481 28.6661 154.777 28.4402C155.072 28.2144 155.414 28.0465 155.796 27.9306C156.178 27.8206 156.578 27.7627 157 27.7627C157.336 27.7627 157.643 27.7917 157.921 27.8438C158.199 27.8959 158.437 27.9538 158.639 28.0117C158.842 28.0696 159.004 28.1275 159.126 28.1797C159.247 28.2318 159.317 28.2607 159.346 28.2607C159.381 28.2607 159.41 28.2434 159.433 28.2086C159.456 28.1739 159.473 28.1507 159.485 28.1275L159.635 28.2491L158.859 29.4537L158.761 29.3842C158.761 29.3842 158.761 29.3436 158.761 29.3263C158.761 29.3031 158.755 29.2857 158.744 29.2568C158.732 29.1873 158.663 29.112 158.547 29.0309C158.425 28.9556 158.28 28.8862 158.107 28.8282C157.933 28.7703 157.748 28.7182 157.551 28.6777C157.354 28.6371 157.174 28.6198 157.006 28.6198C156.728 28.6198 156.462 28.6603 156.207 28.7414C155.952 28.8225 155.732 28.9383 155.541 29.0888C155.35 29.2394 155.199 29.4305 155.089 29.6506C154.979 29.8706 154.922 30.1254 154.922 30.4092C154.922 30.693 154.979 30.9478 155.089 31.1678C155.199 31.3879 155.35 31.579 155.541 31.7296C155.732 31.8801 155.952 31.9959 156.207 32.077C156.462 32.1581 156.728 32.1986 157.006 32.1986C157.221 32.1986 157.441 32.1755 157.672 32.1233C157.904 32.0712 158.118 32.0133 158.309 31.9322C158.5 31.857 158.663 31.7701 158.79 31.6716C158.917 31.5732 158.987 31.4863 158.987 31.3995C158.987 31.3531 158.975 31.3126 158.946 31.2779L159.085 31.1968L159.74 32.2507L159.659 32.3318L159.653 32.3202Z" fill="#050607"/>
<path d="M161.228 32.9224C161.315 32.9108 161.385 32.8645 161.431 32.795C161.477 32.7255 161.53 32.6386 161.576 32.546L163.412 28.6834C163.458 28.5965 163.498 28.5154 163.533 28.4459C163.568 28.3764 163.585 28.3127 163.585 28.2548C163.585 28.1911 163.562 28.1448 163.516 28.1159C163.47 28.0927 163.417 28.0695 163.365 28.0579V27.8784H165.045V28.0579C164.998 28.0695 164.952 28.0869 164.906 28.1101C164.859 28.1332 164.836 28.1796 164.836 28.2548C164.836 28.307 164.848 28.3591 164.871 28.4112C164.894 28.4633 164.929 28.5328 164.975 28.6197L167.043 32.6618C167.077 32.7371 167.118 32.7892 167.176 32.824C167.234 32.8587 167.297 32.8877 167.373 32.9224V33.1019H165.624V32.9224C165.624 32.9224 165.682 32.9108 165.722 32.8935C165.763 32.8761 165.78 32.8413 165.78 32.8066C165.78 32.7429 165.751 32.656 165.699 32.546L165.323 31.8105H162.896L162.537 32.517C162.473 32.656 162.439 32.7545 162.439 32.8124C162.439 32.8877 162.502 32.9224 162.63 32.9224V33.1019H161.217V32.9224H161.228ZM164.975 31.0751L164.141 29.2277L163.209 31.0751H164.975Z" fill="#050607"/>
<path d="M169.544 33.0034C169.596 33.0034 169.642 32.986 169.683 32.9571C169.723 32.9281 169.741 32.8818 169.741 32.8239V28.2953C169.741 28.2374 169.718 28.1968 169.683 28.1737C169.642 28.1505 169.596 28.1389 169.544 28.1389V27.9594H171.403V28.1389C171.368 28.1389 171.333 28.1505 171.299 28.1679C171.264 28.1853 171.247 28.22 171.247 28.2547C171.247 28.2895 171.258 28.33 171.287 28.3821C171.316 28.4343 171.345 28.4922 171.374 28.5501L172.793 31.1329L174.223 28.579C174.269 28.4922 174.304 28.4227 174.327 28.3764C174.35 28.3242 174.362 28.2837 174.362 28.2432C174.362 28.1679 174.322 28.1331 174.235 28.1331V27.9536H176.07V28.1331C176.018 28.1331 175.972 28.1447 175.931 28.1679C175.891 28.191 175.874 28.2316 175.874 28.2895V32.8181C175.874 32.876 175.897 32.9223 175.931 32.9513C175.972 32.9802 176.018 32.9976 176.07 32.9976V33.1771H174.513V32.9976C174.692 32.9976 174.779 32.9397 174.779 32.8181V29.5172H174.762L172.764 33.1713H172.735L170.777 29.5056H170.76V32.8123C170.76 32.9339 170.853 32.9918 171.038 32.9918V33.1713H169.55V32.9918L169.544 33.0034Z" fill="#050607"/>
<path d="M182.279 27.8959C182.586 27.8959 182.875 27.919 183.165 27.9711C183.449 28.0233 183.703 28.0985 183.918 28.2086C184.138 28.3186 184.311 28.4576 184.445 28.6371C184.578 28.8166 184.641 29.0309 184.641 29.2857C184.641 29.5984 184.543 29.8359 184.352 30.0038C184.161 30.1717 183.929 30.3049 183.669 30.3976V30.415C183.981 30.5076 184.242 30.6524 184.456 30.8551C184.67 31.0578 184.78 31.3473 184.78 31.7237C184.78 31.9206 184.74 32.1059 184.653 32.2739C184.566 32.4418 184.439 32.5924 184.271 32.714C184.103 32.8414 183.894 32.9398 183.651 33.0093C183.408 33.0788 183.13 33.1136 182.817 33.1136H179.169V32.9341C179.354 32.9341 179.447 32.8761 179.447 32.7545V28.2433C179.447 28.1217 179.354 28.0638 179.169 28.0638V27.8843H182.279V27.8959ZM182.476 29.9459C182.771 29.9459 183.02 29.9053 183.217 29.8301C183.414 29.7548 183.512 29.5926 183.512 29.3494C183.512 29.1062 183.414 28.944 183.217 28.8688C183.02 28.7935 182.777 28.7529 182.476 28.7529H180.576V29.9459H182.476ZM182.476 32.2102C182.893 32.2102 183.194 32.1465 183.373 32.0133C183.559 31.8859 183.645 31.7122 183.645 31.5037C183.645 31.2952 183.553 31.1215 183.373 30.9941C183.194 30.8667 182.893 30.7972 182.476 30.7972H180.576V32.2102H182.476Z" fill="#050607"/>
<path d="M187.346 32.8935C187.519 32.8935 187.606 32.8356 187.606 32.714V28.2028C187.606 28.0812 187.519 28.0233 187.346 28.0233V27.8438H188.996V28.0233C188.822 28.0233 188.736 28.0812 188.736 28.2028V32.714C188.736 32.8356 188.822 32.8935 188.996 32.8935V33.0731H187.346V32.8935Z" fill="#050607"/>
</svg>
