<svg width="50" height="50" viewBox="0 0 50 50" fill="none" xmlns="http://www.w3.org/2000/svg">
<path d="M4.34 50C4.34 50 0 50 0 45.67V4.34C0 4.34 0 0 4.34 0H45.67C45.67 0 50 0 50 4.34V45.67C50 45.67 50 50 45.67 50H4.34Z" fill="#304F38"/>
<path d="M32.2599 10.2798C29.3199 10.2798 26.6999 14.1798 24.9899 20.2798C23.2699 14.1898 20.6499 10.2798 17.7199 10.2798C12.5599 10.2798 8.3999 23.2898 8.3999 39.3098H12.5599C12.5599 24.4298 14.8899 12.3598 17.7499 12.3598C20.6099 12.3598 22.9399 23.5098 22.9399 37.2298H27.0999C27.0999 23.4998 29.4299 12.3498 32.2899 12.3498C35.1499 12.3498 37.4799 24.4298 37.4799 39.3098H41.5599C41.5799 23.2598 37.4199 10.2798 32.2599 10.2798Z" fill="#F0BC46"/>
<path d="M43.6499 37.2397C43.0699 37.2397 42.6099 37.6697 42.6099 38.2797C42.6099 38.8897 43.0799 39.3197 43.6499 39.3197C44.2199 39.3197 44.6899 38.8897 44.6899 38.2797C44.6899 37.6697 44.2399 37.2397 43.6499 37.2397ZM43.6499 39.1397C43.1799 39.1397 42.7899 38.7397 42.7899 38.2397C42.7899 37.7397 43.1499 37.3397 43.6499 37.3397C44.1199 37.3397 44.5099 37.7397 44.5099 38.2397C44.5099 38.7797 44.1699 39.1397 43.6499 39.1397Z" fill="#F0BC46"/>
<path d="M44.17 37.9899C44.17 37.7699 44.02 37.6299 43.74 37.6299H43.27V38.8499H43.45V38.3499H43.67L44 38.8899H44.22L43.86 38.3499C44.01 38.3099 44.17 38.2399 44.17 37.9899ZM43.65 38.2099H43.47V37.8099H43.72C43.87 37.8099 43.97 37.8399 43.97 37.9899C43.99 38.2099 43.81 38.2099 43.65 38.2099Z" fill="#F0BC46"/>
</svg>
