<svg width="50" height="10" viewBox="0 0 50 10" fill="none" xmlns="http://www.w3.org/2000/svg">
<path d="M4.53635 6.78369C4.53635 6.78369 4.40565 7.54378 4.71348 8.28582C5.03248 9.05451 5.41338 9.20498 5.41338 9.20498C5.41338 9.20498 5.35749 8.29958 5.82868 8.03389C5.75388 7.91265 5.62834 7.50251 5.60943 7.08205C5.34804 7.13364 4.91468 7.08635 4.53635 6.78369Z" fill="#C00D0D"/>
<path d="M7.65633 9.06981C7.65633 9.06981 8.36999 9.10162 9.29346 8.58658C10.2169 8.0724 10.8678 7.50577 11.2032 7.12744H12.0639C12.0639 7.12744 11.0355 8.21857 9.91254 8.81702C8.78959 9.41546 7.90826 9.69834 6.8584 9.67771C7.36226 9.51004 7.56174 9.39396 7.65633 9.06895" fill="#C00D0D"/>
<path d="M11.7572 6.56863L13.8389 4.64088C13.8389 4.64088 14.8569 2.40531 14.0693 1.10352C13.2817 -0.198264 11.8234 -0.0409141 11.1407 0.0751635C10.4589 0.190381 9.42965 0.631476 9.0625 0.861912C9.0625 0.883407 9.20953 1.26087 9.20953 1.26087C9.20953 1.26087 10.1854 0.924679 10.9412 0.830958C11.697 0.736376 12.495 0.967671 12.9146 1.75442C13.2869 2.4526 13.1768 3.47581 12.9464 4.21011C12.7151 4.9444 12.5655 5.42419 11.7572 6.56777" fill="#C00D0D"/>
<path d="M15.1189 3.62265C15.1189 3.62265 12.3373 6.21505 12.1696 6.36208C12.0019 6.50911 11.6554 6.72923 11.5712 6.792C11.4869 6.85476 11.4138 6.84445 11.382 6.83413C11.3502 6.82381 11.1928 6.84445 11.1825 6.92871C11.1722 7.01297 11.2556 7.02329 11.2556 7.02329H12.7672C12.7672 7.02329 12.9246 7.03361 12.9452 6.91839C12.9658 6.80317 12.7775 6.85562 12.7036 6.8453C12.6305 6.83499 12.5884 6.73009 12.7457 6.53061C12.9031 6.33112 14.173 5.09296 15.1601 4.10587L15.2332 6.53061C15.2332 6.53061 15.2014 6.76104 15.149 6.80317C15.0965 6.84531 14.9495 6.88744 14.9495 6.9502C14.9495 7.01297 15.0759 7.04479 15.1593 7.04479H16.3768C16.3768 7.04479 16.566 6.99234 16.566 6.88744C16.566 6.78254 16.4292 6.82467 16.3458 6.81435C16.2616 6.80403 16.0311 6.70945 16.0096 6.40507C15.989 6.10069 15.842 3.46616 15.842 3.46616L19.1274 0.506609C19.1274 0.506609 19.4524 0.286492 19.5995 0.254678C19.7465 0.222864 19.7886 0.222864 19.799 0.149778C19.8093 0.0766923 19.6622 0.0870103 19.6622 0.0870103L18.5599 0.0663743C18.5599 0.0663743 18.3819 0.0870104 18.3501 0.160956C18.3183 0.234902 18.455 0.24522 18.455 0.307988C18.455 0.370755 18.4868 0.402569 18.13 0.769718C17.7732 1.13687 15.7792 3.00529 15.7792 3.00529C15.7792 3.00529 15.7474 1.02165 15.7474 0.853982C15.7474 0.686315 15.7792 0.412887 15.8317 0.339802C15.8841 0.265856 16.0105 0.224584 16.1154 0.203088C16.2203 0.182452 16.3046 0.0775522 16.2521 0.0457383C16.1997 0.0139245 14.8248 0.0354202 14.8248 0.0354202C14.8248 0.0354202 14.6778 0.0457383 14.6881 0.150638C14.6984 0.255538 14.8248 0.19277 14.8772 0.276174C14.9297 0.360438 14.9821 0.507469 14.9925 0.685455C15.0028 0.86344 15.118 3.62437 15.118 3.62437" fill="#C00D0D"/>
<path d="M6.50258 9.43258C6.4957 9.43258 6.48968 9.43257 6.48367 9.43171C6.28848 9.41366 6.10792 9.33283 5.92993 9.18494C5.92477 9.18064 5.91359 9.16947 5.90156 9.15829C5.86028 9.11788 5.82933 9.08864 5.80783 9.08004C5.80009 9.0766 5.72873 9.03447 5.73303 8.5951V8.58392C5.73303 8.44377 5.83707 8.29072 5.98582 8.21161C5.99442 8.20731 6.08814 8.15228 6.10018 8.13681C6.17068 8.04996 6.17928 8.01557 6.19476 7.95882C6.19734 7.9485 6.19992 7.93818 6.20422 7.92529C6.20852 7.90981 6.21196 7.89261 6.2154 7.87456C6.22829 7.80921 6.24377 7.72838 6.33835 7.6467L6.34007 7.64498L6.34179 7.64326C6.36931 7.61145 6.41144 7.57103 6.45185 7.53148C6.54729 7.44034 6.60576 7.38187 6.61178 7.33716C6.61866 7.27439 6.58169 7.2271 6.53955 7.17207C6.53526 7.16605 6.5301 7.15917 6.52494 7.15316C6.51376 7.13768 6.50172 7.1222 6.49054 7.10758C6.42606 7.02074 6.38478 6.96743 6.34695 6.95109H6.34437L6.34179 6.94937C6.27988 6.93648 6.0013 6.91068 5.84137 6.89692C5.81815 6.8952 5.79838 6.89349 5.7786 6.89349C5.74163 6.89349 5.71583 6.89692 5.69348 6.90036C5.67284 6.9038 5.65392 6.90638 5.62641 6.90638C5.60663 6.90638 5.58428 6.90466 5.55848 6.90208C5.25926 6.86511 5.04086 6.80062 4.89211 6.70432C4.54731 6.48248 4.37363 6.15661 4.23777 5.86856C4.14405 5.66908 4.0701 5.54269 4.01249 5.4825C4.00991 5.47992 4.0082 5.47734 4.00562 5.47476C3.99444 5.461 3.97638 5.43779 3.94113 5.43779C3.89986 5.43779 3.84569 5.4696 3.7597 5.54441C3.65136 5.63813 3.53013 5.73529 3.40115 5.83933C3.27991 5.93735 3.15438 6.03795 3.0297 6.14371C2.94544 6.21508 2.88095 6.27183 2.82936 6.31826C2.77519 6.36641 2.73564 6.4008 2.70038 6.42832C2.50692 6.58223 2.2825 6.94937 2.08646 7.43518C2.08044 7.45066 2.07442 7.46442 2.07012 7.47645C2.03487 7.56244 2.01939 7.60199 1.98844 7.71291C1.90761 8.01213 1.72361 8.22365 1.68234 8.25288C1.66858 8.26062 1.61269 8.30103 1.63075 8.40163C1.64708 8.49106 1.69695 8.77652 1.69695 8.77652C1.69695 8.77996 1.69867 8.78168 1.69953 8.78598C1.71931 8.84445 1.71673 8.88486 1.69265 8.90378C1.62817 8.95365 1.50865 9.01728 1.3685 9.04909C1.23436 9.07918 1.08475 9.08262 0.982429 9.08262C0.942876 9.08262 0.905044 9.08262 0.87151 9.08176C0.854313 9.08176 0.837976 9.08176 0.823359 9.08176C0.751993 9.0809 0.691804 9.06887 0.616138 9.05425C0.573147 9.04565 0.524136 9.03619 0.463947 9.02673C0.387422 9.0147 0.247268 9.00008 0.172463 8.9932C0.156126 8.99148 0.143228 8.98976 0.13463 8.9889C0.02801 8.97772 0.0305895 8.93387 0.0314493 8.92011C0.0314493 8.91753 0.0314493 8.9141 0.0314493 8.91066C0.0314493 8.90292 0.0314493 8.87368 0.0314493 8.85305C0.0314493 8.81779 0.0314493 8.80748 0.0314493 8.80232C0.0314493 8.80318 0.0314493 8.80404 0.0314493 8.80404C0.0314493 8.79802 0.0245707 8.16088 0.704702 7.92443C0.727057 7.91669 0.812181 7.87714 0.82078 7.87112L0.823359 7.8694C0.877529 7.835 0.910203 7.78427 0.918801 7.71807C0.927399 7.6596 0.97641 7.56931 1.0538 7.51085H1.05552L1.05637 7.50913C1.17245 7.39993 1.48199 7.11102 1.59119 6.83072C1.62473 6.74473 1.6703 6.58223 1.70985 6.43863L1.72619 6.3793C1.7494 6.29676 1.81733 6.09986 1.84313 6.02591L1.85 6.00614C1.8672 5.95713 1.90331 5.90554 1.94201 5.85051C1.9936 5.77742 2.05293 5.69488 2.07614 5.59772V5.596V5.59428C2.07614 5.58912 2.07614 5.58396 2.07614 5.57536C2.07614 5.55042 2.07528 5.4911 2.09334 5.38792C2.10366 5.32773 2.12515 5.24432 2.15267 5.14028C2.1819 5.0285 2.21801 4.88921 2.25757 4.71467C2.3917 4.12138 2.64363 3.8299 2.86633 3.57281C2.89299 3.54185 2.91878 3.51262 2.94372 3.48252C2.95146 3.47307 2.96951 3.44899 2.98843 3.42406C3.00477 3.40256 3.02798 3.37161 3.03228 3.36731C3.06667 3.33119 3.17157 3.22113 3.26874 3.05863C3.30313 3.00188 3.33494 2.94427 3.36848 2.88322C3.4364 2.76026 3.50691 2.63301 3.59375 2.51951C3.77604 2.2822 4.05205 2.13602 4.1836 2.09905C4.1965 2.09561 4.20854 2.09217 4.21972 2.08873C4.24895 2.08013 4.44413 2.03198 4.49916 2.02081C4.537 2.01307 4.56365 1.98383 4.57827 1.93482L4.58085 1.93052V1.92192C4.58429 1.87377 4.58601 1.81617 4.58858 1.75598C4.59202 1.66483 4.59632 1.56165 4.6032 1.46191C4.6075 1.40259 4.61524 1.34154 4.62126 1.28823C4.6247 1.25813 4.62814 1.22976 4.63158 1.20396C4.65651 0.96149 4.68317 0.783505 4.68403 0.781785V0.780065V0.778346C4.68403 0.769747 4.69177 0.745672 4.69606 0.734494C4.70638 0.70182 4.71928 0.677745 4.72874 0.664847C4.74336 0.686343 4.76571 0.741373 4.77775 0.773187C4.79151 0.80844 4.80182 0.867768 4.80182 0.868628V0.871208C4.80182 0.871208 4.81902 0.935695 4.88265 1.21084C4.88695 1.22976 4.89211 1.24953 4.89727 1.27017C4.90672 1.30886 4.91618 1.34842 4.92392 1.38797C4.9308 1.42494 4.9351 1.45246 4.94026 1.48513C4.94284 1.50233 4.94542 1.51952 4.94886 1.54016C4.9523 1.56251 4.97121 1.56681 4.99615 1.57197C5.02194 1.57799 5.02624 1.57799 5.02882 1.57799H5.0443L5.05376 1.56595C5.07181 1.5436 5.09073 1.51264 5.1234 1.43182C5.16726 1.32434 5.22658 1.18075 5.27817 1.05349L5.35126 0.876367C5.43209 0.679465 5.52753 0.535013 5.6608 0.408617C5.74163 0.331232 5.80267 0.28824 5.87662 0.253847C5.88866 0.248688 5.9007 0.242669 5.91273 0.23665C5.94111 0.222893 5.97034 0.208276 5.99958 0.197958C6.08642 0.164424 6.16811 0.147227 6.24205 0.145508H6.24893C6.29364 0.145508 6.33663 0.153246 6.39166 0.166144C6.40886 0.170443 6.42864 0.172163 6.44927 0.174742C6.47335 0.177322 6.49914 0.180761 6.51806 0.18678C6.56277 0.200537 6.60146 0.222033 6.64188 0.244389C6.66681 0.258146 6.69347 0.273623 6.72184 0.285661C6.74506 0.295979 6.76741 0.305437 6.78891 0.314895C6.85426 0.34327 6.91616 0.370784 7.00559 0.419795C7.11994 0.483423 7.23688 0.542751 7.33061 0.590042C7.39337 0.621856 7.44754 0.64937 7.48795 0.671726C7.50171 0.678605 7.60575 0.722456 7.61005 0.725036C7.61349 0.726756 7.61779 0.727615 7.62123 0.729335C7.65046 0.740513 7.6754 0.749971 7.76482 0.749971H7.776C7.78718 0.749971 7.7975 0.745672 7.81297 0.739653C7.83963 0.729335 7.88348 0.711279 7.95227 0.711279C7.95571 0.711279 7.95829 0.711279 7.96173 0.711279C8.08554 0.713858 8.31512 0.738793 8.414 0.781785C8.43464 0.790383 8.45527 0.798982 8.47505 0.80758C8.51976 0.825636 8.56189 0.842833 8.59113 0.862609C8.64186 0.897003 8.67281 0.938275 8.7029 0.977827C8.70806 0.985566 8.71408 0.992444 8.71924 1.00018C8.78975 1.09218 8.85939 1.19193 8.98923 1.47567V1.47739L8.99181 1.47911C8.99697 1.48685 9.00299 1.49631 9.01159 1.51092C9.02276 1.52984 9.03824 1.55564 9.06146 1.59175C9.08639 1.63216 9.11305 1.67773 9.13626 1.71814C9.14744 1.73706 9.15776 1.75512 9.16722 1.77145C9.21279 1.84798 9.29791 2.00275 9.3624 2.17042C9.3796 2.21513 9.39851 2.2607 9.41571 2.30369C9.45182 2.39053 9.48536 2.47222 9.50857 2.55218C9.52921 2.62527 9.54211 2.68288 9.55328 2.73361C9.56274 2.77488 9.57134 2.81357 9.58252 2.85484L9.58854 2.87806H9.61261C9.62723 2.87806 9.6943 2.85055 9.70719 2.84367H9.70891L9.70977 2.84195C9.76824 2.80154 9.84649 2.75854 9.98836 2.67944L10.0623 2.63903C10.2902 2.51263 10.5576 2.1601 10.6651 1.91075C10.684 1.86604 10.7003 1.82218 10.7149 1.78349C10.7381 1.72072 10.7579 1.66655 10.7837 1.62786C10.8112 1.58659 10.8577 1.56767 10.88 1.56595C10.8998 1.60035 10.9393 1.69665 10.9393 1.71986C10.9127 1.83164 10.9015 1.92278 10.9015 1.92708V1.9288V1.93052C10.9015 1.93568 10.9032 2.47824 10.7811 2.72329C10.7674 2.75166 10.7295 2.82303 10.6857 2.87978C10.5954 2.99758 10.4561 3.10162 10.334 3.19448C10.1354 3.34409 9.94623 3.49542 9.75535 3.65879L9.75191 3.66137L9.74933 3.66481C9.6986 3.74133 9.71493 3.83764 9.72353 3.89009C9.72439 3.89438 9.72525 3.89868 9.72525 3.90298C9.72955 3.93136 9.73557 3.96145 9.74245 3.99327C9.75277 4.04228 9.76308 4.09387 9.76824 4.1446C9.77942 4.2452 9.74331 4.35955 9.6857 4.40427C9.67108 4.41544 9.65216 4.41802 9.63067 4.42146C9.59628 4.42576 9.54812 4.43264 9.51889 4.48681L9.51545 4.49369V4.50143C9.51545 4.52722 9.51287 4.60203 9.50857 4.68801C9.50341 4.79205 9.49825 4.91071 9.49739 4.99067C9.49653 5.07494 9.48278 5.27958 9.46988 5.47734C9.45612 5.68198 9.44408 5.87458 9.44408 5.94767V5.95541L9.4458 5.95885V5.96057C9.4458 5.98206 9.44408 6.02247 9.49653 6.13339C9.53609 6.21852 9.55242 6.26151 9.5464 6.30966L9.54469 6.32514L9.55586 6.33631C9.71321 6.48506 9.71665 6.4971 9.75191 6.64069L9.75362 6.64757L9.78028 6.77053C9.8078 6.88661 9.7906 7.01988 9.782 7.07319C9.77942 7.07835 9.7734 7.08695 9.7691 7.09211C9.7605 7.09555 9.74331 7.10157 9.72353 7.10844L9.69172 7.11962C9.61519 7.14628 9.50599 7.17895 9.34262 7.18497C9.32457 7.18497 9.30565 7.18583 9.28759 7.18583C9.05544 7.18583 8.90497 7.12564 8.86541 7.10328C8.86541 7.07233 8.86885 6.95625 8.87917 6.8204C8.88433 6.74903 8.89465 6.70346 8.90583 6.65617C8.91786 6.6063 8.9299 6.55557 8.93506 6.47475C8.94538 6.33029 8.94968 6.17036 8.9514 6.10588L8.95312 6.03623C8.95656 5.86942 8.95742 5.80751 8.94882 5.73701L8.94452 5.69832L8.90755 5.71207C8.90755 5.71207 8.89981 5.71465 8.89379 5.71637C8.81038 5.74389 8.73042 5.77484 8.7072 5.81783C8.66507 5.9064 8.63842 5.96916 8.6152 6.02505C8.59628 6.07062 8.57909 6.10932 8.55759 6.15403C8.52664 6.21938 8.54469 6.27183 8.56103 6.3174C8.56877 6.33889 8.57651 6.35953 8.57909 6.38274C8.57909 6.3836 8.57909 6.38618 8.57995 6.38876C8.58253 6.4051 8.59027 6.45325 8.58941 6.49194V6.49366C8.58941 6.54353 8.58683 6.56589 8.58339 6.59254C8.57995 6.61404 8.57651 6.63811 8.57479 6.67939C8.57479 6.70002 8.57479 6.71636 8.57479 6.73012C8.57565 6.78343 8.57651 6.8075 8.55071 6.88489C8.54813 6.89177 8.54298 6.90294 8.53696 6.91326C8.53094 6.9253 8.52492 6.93648 8.51976 6.94851V6.95023C8.51202 6.97345 8.51116 6.98807 8.5103 7.00268C8.5103 7.01128 8.50944 7.01988 8.50772 7.03278V7.03708V7.04138C8.50772 7.04396 8.50772 7.04654 8.50944 7.04912C8.51116 7.05599 8.51374 7.07061 8.50772 7.11962C8.506 7.1351 8.50514 7.1437 8.45785 7.20561C8.44925 7.21678 8.44151 7.22882 8.43464 7.24C8.41916 7.26407 8.40454 7.28729 8.37445 7.31136C8.34435 7.33458 8.30996 7.35264 8.27385 7.37241C8.23429 7.39305 8.19388 7.41454 8.15519 7.44464L8.15261 7.43604H8.12939C8.12165 7.43604 8.11564 7.43862 8.11306 7.44034L8.10876 7.44292L8.10188 7.4498L8.12165 7.47387C8.11478 7.47989 8.10876 7.48677 8.10188 7.49365C8.06061 7.53836 8.02965 7.59253 7.99956 7.64498C7.99526 7.65272 7.99096 7.66046 7.9858 7.6682C7.93163 7.76278 7.88606 7.835 7.84135 7.88229C7.83619 7.88659 7.79148 7.92701 7.72355 7.95194H7.72269C7.63585 7.98461 7.51633 8.02847 7.43207 8.02847C7.42949 8.02847 7.42691 8.02847 7.42519 8.02847C7.41229 8.02847 7.39595 8.02589 7.37876 8.02417C7.35296 8.02073 7.32287 8.01729 7.29105 8.01729C7.25666 8.01729 7.22656 8.02159 7.19819 8.03019L7.17325 8.03792L7.17669 8.06458C7.18099 8.09639 7.20593 8.1626 7.2386 8.22967C7.24118 8.23483 7.24376 8.23999 7.24806 8.24686C7.26956 8.28556 7.31513 8.36638 7.35468 8.59854C7.39423 8.82811 7.37102 8.91839 7.31341 9.05425C7.26956 9.15829 7.17497 9.2245 7.07867 9.27953C6.94196 9.35949 6.78375 9.40506 6.55245 9.43343C6.53182 9.43601 6.5172 9.43687 6.50344 9.43687" fill="white"/>
<path d="M10.9703 1.72506C10.9771 1.69583 10.9178 1.56255 10.9006 1.53762C10.8894 1.523 10.8026 1.54106 10.7579 1.60898C10.7132 1.67605 10.6874 1.78009 10.6366 1.89703C10.5292 2.14724 10.2652 2.48859 10.0476 2.60983C9.85934 2.71473 9.76304 2.76632 9.69339 2.81447C9.67362 2.82565 9.61429 2.84629 9.61343 2.84457C9.58849 2.75342 9.57645 2.67432 9.53948 2.5419C9.50509 2.41809 9.44318 2.28997 9.39245 2.15756C9.32968 1.99419 9.24714 1.842 9.19555 1.75344C9.16631 1.70443 9.12762 1.63392 9.08979 1.57287C9.04938 1.50838 9.03218 1.47743 9.02014 1.45937C8.88687 1.16875 8.81464 1.06643 8.74671 0.977866C8.7106 0.930576 8.67621 0.877266 8.61172 0.833414C8.56529 0.80246 8.49564 0.779245 8.42943 0.75001C8.32195 0.702719 8.0855 0.679504 7.96598 0.676065C7.85334 0.673485 7.79831 0.714757 7.7794 0.714757C7.67364 0.715617 7.65816 0.703579 7.62463 0.691542C7.61775 0.688962 7.51715 0.64597 7.50597 0.639952C7.40193 0.583203 7.2119 0.49292 7.0236 0.38888C6.90322 0.321813 6.83186 0.296018 6.73813 0.253026C6.66677 0.220353 6.6083 0.175641 6.53005 0.152426C6.49136 0.140388 6.43805 0.139528 6.40108 0.13093C6.34347 0.117173 6.29532 0.108574 6.24373 0.109434C6.15602 0.111154 6.07004 0.133509 5.99094 0.163604C5.9488 0.17994 5.90667 0.202296 5.86626 0.221212C5.78457 0.259905 5.72009 0.308916 5.64184 0.382001C5.50599 0.510117 5.40883 0.656288 5.32456 0.860929C5.26609 1.00452 5.16377 1.25387 5.0967 1.41638C5.06575 1.49205 5.04769 1.52214 5.03136 1.54278C5.03136 1.54278 4.98235 1.53332 4.98235 1.5316C4.97289 1.47399 4.96859 1.43616 4.95741 1.37855C4.94537 1.31664 4.92818 1.25387 4.91614 1.20056C4.85165 0.921117 4.83531 0.859209 4.83531 0.859209C4.83531 0.859209 4.82414 0.796441 4.80952 0.757749C4.77341 0.667466 4.74761 0.605558 4.71838 0.628774C4.70548 0.639952 4.68226 0.676065 4.66851 0.720776C4.66335 0.737113 4.65561 0.761188 4.65475 0.774086C4.65475 0.774086 4.62809 0.951211 4.6023 1.19798C4.59456 1.27279 4.5808 1.36479 4.57392 1.45765C4.56189 1.6236 4.55931 1.79729 4.55243 1.91767C4.54985 1.92196 4.54039 1.97785 4.49482 1.98731C4.43893 1.99849 4.24375 2.04664 4.21279 2.0561C4.20247 2.05954 4.19044 2.06298 4.17754 2.06642C4.04942 2.10167 3.76482 2.24612 3.57135 2.49805C3.44066 2.6683 3.34866 2.86778 3.24462 3.03975C3.15519 3.1885 3.06061 3.29254 3.01246 3.34241C3.00214 3.35359 2.93851 3.43957 2.92218 3.45935C2.6926 3.73191 2.3822 4.03028 2.23001 4.70439C2.15348 5.04402 2.08728 5.25296 2.06492 5.37936C2.0417 5.51435 2.04858 5.57454 2.04686 5.58744C2.00731 5.74909 1.86286 5.87032 1.82073 5.99328C1.80439 6.04143 1.7227 6.2753 1.69691 6.36817C1.65392 6.52036 1.59975 6.71984 1.56278 6.817C1.45873 7.08441 1.17155 7.35697 1.03569 7.48423C0.95487 7.54528 0.898121 7.64158 0.888663 7.71209C0.875765 7.80151 0.818156 7.83418 0.804399 7.84278C0.79924 7.84622 0.717555 7.88491 0.695199 7.89351C-0.00642744 8.1377 -0.00212828 8.79806 0.000451234 8.80666C0.000451234 8.80752 0.000451234 8.91155 0.000451234 8.91241C0.00217091 8.91585 -0.0219045 9.00184 0.131146 9.01817C0.182737 9.02333 0.367602 9.04139 0.459604 9.05601C0.625553 9.0818 0.708097 9.11018 0.823315 9.1119C0.95573 9.11362 1.18187 9.12221 1.37447 9.07922C1.52666 9.04483 1.64962 8.97604 1.71067 8.92875C1.77258 8.88146 1.72786 8.77742 1.727 8.7714C1.727 8.7714 1.67713 8.48594 1.6608 8.39651C1.64446 8.30709 1.69863 8.27958 1.69863 8.27958C1.7485 8.24604 1.93594 8.02335 2.01763 7.72154C2.05202 7.59601 2.06664 7.56591 2.11479 7.44726C2.31169 6.95973 2.53439 6.60032 2.71926 6.45329C2.7889 6.3974 2.87833 6.31314 3.04943 6.16782C3.3048 5.95115 3.56791 5.75166 3.77943 5.56852C3.95312 5.41805 3.96258 5.47652 3.99009 5.50489C4.03137 5.54702 4.09757 5.64333 4.21021 5.88236C4.3581 6.19706 4.53437 6.51176 4.87573 6.73102C4.99009 6.80496 5.17925 6.88665 5.55586 6.93394C5.69945 6.95199 5.69171 6.91588 5.8396 6.92878C6.06402 6.94855 6.285 6.97005 6.33659 6.98037C6.37614 6.9967 6.43891 7.08871 6.50168 7.17211C6.54811 7.23316 6.58852 7.27787 6.5825 7.33376C6.57562 7.39137 6.39678 7.53324 6.31939 7.62352C6.19042 7.7353 6.19558 7.84622 6.17494 7.91673C6.15172 7.99669 6.15516 8.01991 6.07692 8.11707C6.0709 8.12395 5.99437 8.17296 5.97202 8.18414C5.81467 8.26754 5.70289 8.42833 5.70289 8.58396C5.70289 8.62265 5.69257 9.06546 5.79747 9.10846C5.82241 9.11877 5.89033 9.191 5.91183 9.2082C6.07606 9.34491 6.26006 9.44121 6.48276 9.46185C6.50684 9.46443 6.53177 9.46185 6.55757 9.45927C6.81208 9.42832 6.96513 9.37759 7.09583 9.30106C7.19729 9.24259 7.29617 9.17208 7.34346 9.06031C7.40365 8.91843 7.42686 8.82299 7.38645 8.58654C7.34002 8.31397 7.28413 8.24346 7.26779 8.20993C7.23684 8.14544 7.21276 8.08182 7.20932 8.0543C7.29101 8.02851 7.37183 8.05258 7.426 8.0543C7.51715 8.05688 7.64526 8.00959 7.7364 7.97606C7.81637 7.94682 7.86538 7.89953 7.86538 7.89953C7.91009 7.85224 7.9548 7.78259 8.01499 7.67855C8.04938 7.61922 8.08206 7.55732 8.12677 7.50917C8.20931 7.4206 8.31679 7.39395 8.3959 7.33118C8.44577 7.29249 8.45867 7.25465 8.48446 7.22112C8.53519 7.15577 8.53863 7.14288 8.54121 7.12052C8.54895 7.05431 8.54207 7.04314 8.54121 7.03454C8.54637 6.99842 8.54121 6.98897 8.55239 6.95629C8.56013 6.93566 8.57732 6.90986 8.58334 6.8918C8.6186 6.78776 8.60828 6.77057 8.60914 6.67771C8.61344 6.58742 8.62548 6.58398 8.62376 6.49026C8.62548 6.44297 8.6143 6.38364 8.61258 6.3759C8.60226 6.29766 8.54981 6.24521 8.5885 6.16439C8.63665 6.06378 8.66245 5.98726 8.73811 5.82905C8.76047 5.78606 8.89632 5.74651 8.92126 5.73791C8.93072 5.81443 8.92814 5.88236 8.92384 6.10248C8.92298 6.15407 8.91868 6.31658 8.9075 6.46963C8.89632 6.6244 8.86193 6.66567 8.85075 6.81528C8.83957 6.96919 8.837 7.10074 8.837 7.1102C8.837 7.11536 8.84043 7.12052 8.84473 7.12396C8.87569 7.1446 9.05797 7.22542 9.34688 7.21424C9.51885 7.20736 9.6332 7.17211 9.70457 7.14718C9.75702 7.12912 9.78883 7.11794 9.79055 7.11622C9.79399 7.11364 9.81463 7.08527 9.81463 7.08097C9.81635 7.06979 9.8473 6.90642 9.81377 6.76197L9.78712 6.63815C9.74842 6.48252 9.7467 6.46877 9.57989 6.31142C9.58677 6.25295 9.567 6.20222 9.52744 6.11795C9.46124 5.9778 9.48531 5.95974 9.47757 5.94599C9.47757 5.80239 9.52916 5.1601 9.53088 4.98899C9.5326 4.84196 9.54894 4.55821 9.54808 4.49889C9.58591 4.42924 9.65556 4.46621 9.70715 4.4258C9.77164 4.37507 9.81377 4.25211 9.80087 4.13776C9.79141 4.05177 9.76906 3.96579 9.75788 3.89442C9.751 3.85143 9.72865 3.75169 9.7768 3.67946C9.91437 3.56253 10.1096 3.40088 10.3537 3.21601C10.4844 3.11799 10.6194 3.01481 10.7114 2.89616C10.7484 2.84801 10.7845 2.78524 10.8095 2.73451C10.9367 2.47914 10.9333 1.92712 10.9333 1.92712C10.9333 1.92712 10.9445 1.83426 10.9711 1.72248M9.72693 4.19279C9.72435 4.26673 9.64868 4.36475 9.60139 4.40087C9.50337 4.4043 9.34258 4.34068 9.25488 4.30542C9.42426 4.20998 9.60053 3.98557 9.69855 3.87035C9.70285 3.89012 9.70715 3.90044 9.70801 3.92452C9.71145 3.9933 9.73209 4.03458 9.72693 4.19193M9.63063 6.63214C9.59537 6.61064 9.5326 6.56765 9.4621 6.65191C9.39073 6.73617 9.40707 6.72844 9.3572 6.71382C9.30819 6.6992 9.18867 6.67685 9.17749 6.42921C9.14654 6.43523 9.03218 6.49886 8.96425 6.5195C8.96855 6.4808 8.97199 6.44125 8.97543 6.4017C9.29787 6.19276 9.432 6.27788 9.45178 6.28476C9.4535 6.28734 9.49563 6.2968 9.49821 6.29852C9.64954 6.39998 9.68393 6.48768 9.71661 6.61064C9.69683 6.62268 9.65556 6.64847 9.62976 6.63299M7.11818 8.11277C7.12076 8.13426 7.1328 8.21767 7.16977 8.29419C7.18267 8.32085 7.25404 8.47476 7.28585 8.66822C7.19729 8.65103 6.82412 9.16607 6.35465 8.67768C6.08982 8.65017 5.96342 8.58654 5.88431 8.56332C5.88775 8.54699 5.89119 8.53237 5.89463 8.52033C5.89721 8.51087 5.89979 8.50227 5.90323 8.49368C6.02533 8.52979 6.4071 8.62523 6.64355 8.58912C6.62377 8.50399 6.58078 7.89523 6.71664 7.6562C6.75619 7.71725 6.90666 7.958 7.12592 8.02937L7.11818 8.11363V8.11277ZM7.08121 8.87716C7.10184 8.88834 7.27209 8.78344 7.27209 8.78344C7.27209 8.78344 7.36237 9.1738 6.78198 9.30622C6.97373 9.14887 7.12248 9.02591 7.08207 8.87716M1.17843 8.21423C1.14403 8.73959 0.315152 8.6751 0.126847 8.63555C0.147483 8.58396 0.173278 8.52807 0.205952 8.46788C0.385658 8.13169 0.700359 8.04398 0.834493 8.00615C0.868027 7.99669 0.884364 7.99153 0.893822 7.98551C0.898981 7.98207 0.90328 7.97778 0.908439 7.9709C0.982385 8.02249 1.36415 8.26324 1.57395 8.33719C1.57223 8.34062 1.57137 8.34492 1.57137 8.34836L1.57309 8.35868C1.49227 8.32859 1.20508 8.22283 1.17757 8.21337M1.74764 6.68115C1.8448 6.72414 1.97206 6.8918 1.94454 7.04485C1.91445 7.20736 1.6264 7.90469 1.41488 7.9451C1.22916 7.98035 1.0013 7.91759 0.948851 7.90125C0.984105 7.8488 1.01076 7.71639 1.0185 7.67425C1.03054 7.6648 1.06407 7.63642 1.14833 7.55904C1.42348 7.33204 1.62038 7.02164 1.67971 6.87891C1.70035 6.82904 1.72356 6.75853 1.74678 6.682M4.84047 6.58656C4.20333 6.03025 3.70979 4.52124 3.53094 3.78866C3.50343 3.67603 3.34608 3.67001 3.31082 3.78093C3.25321 3.95977 3.18615 4.15065 3.13628 4.2461C3.13628 4.2461 2.51032 5.6932 2.46732 5.77746C2.42433 5.86172 2.47334 6.19104 2.3564 6.29594C2.23947 6.40084 2.26268 6.18846 2.26268 6.18846C2.26268 6.18846 2.00043 6.43265 1.862 6.08786C1.9497 5.92105 2.07524 5.71039 2.07696 5.70781C2.07782 5.70523 2.14832 5.55992 2.14918 5.55734C2.14918 5.55304 2.09759 5.54445 2.27816 4.74996C2.44325 4.02254 2.82846 3.66141 2.99956 3.4946C3.01762 3.47654 3.08555 3.38368 3.09672 3.3725C3.14745 3.31919 3.20162 3.27276 3.29621 3.11627C3.30137 3.10768 3.30652 3.09908 3.31168 3.09048C3.30996 3.09392 3.26697 3.01395 3.26611 3.01653C3.26611 3.01653 3.27041 3.33381 3.37703 3.20054C3.48365 3.06726 3.58597 2.66658 3.77084 2.47054C3.93592 2.29513 4.03395 2.15326 4.33403 2.06728C4.34091 2.06642 4.34779 2.06556 4.35381 2.0647C4.41657 2.05524 4.4888 2.04492 4.56017 2.02858C4.56791 2.20915 4.59026 2.37424 4.63411 2.49633C4.87745 3.16528 5.23514 3.65453 5.93676 3.96063C5.91527 3.9933 5.86712 4.07069 5.78285 4.22116C5.63238 4.48513 5.62894 4.8454 5.62808 4.94084C5.62722 5.03628 5.62292 5.23318 5.78715 5.62011C5.91957 5.93309 6.02189 6.00961 6.14743 6.0956C6.11991 6.12225 6.10099 6.22199 6.09068 6.33979C5.75018 6.51004 5.14142 4.82992 4.77513 4.81531C4.40626 4.80069 4.44581 4.02684 4.20591 3.84369C3.96516 3.66055 3.92991 4.06381 4.10617 4.35185C4.28244 4.6399 4.20505 5.05778 4.5765 5.78864C5.00728 6.63901 5.93762 6.58914 6.0752 6.59774C6.07778 6.61408 6.08122 6.6287 6.08466 6.64073C6.11733 6.75853 6.08982 6.85053 6.22309 6.90126C6.1844 6.9004 6.11389 6.89696 6.02361 6.8918C5.70117 6.83849 5.14056 6.84709 4.84219 6.58656M5.68655 0.375123C5.8396 0.239269 6.02447 0.168763 6.23427 0.163604C6.58594 0.156725 7.10958 0.449068 7.48705 0.695841C7.49737 0.702719 7.50597 0.707879 7.51199 0.712178C7.58937 0.762048 7.62463 0.760328 7.72953 0.75431C7.7837 0.75087 7.8585 0.746571 7.96942 0.748291C8.17492 0.75001 8.36838 0.799021 8.51112 0.864368C8.55239 0.952071 8.85161 1.29085 8.61602 1.43874C8.34001 1.61242 7.70115 0.90564 7.39333 0.747431C7.08551 0.588362 6.97373 0.523874 6.85335 0.621895C6.85335 0.621895 6.70546 0.69842 6.8929 0.884145C7.08035 1.06987 7.67364 1.52214 7.6444 1.55653C7.61603 1.59179 7.44492 1.8162 7.5481 2.02944C7.65128 2.24268 8.36237 2.12231 8.73897 2.43786C8.99607 2.65282 9.08291 2.81361 9.11214 2.89358C9.05367 2.86004 8.99263 2.81533 8.929 2.75772C8.88945 2.71387 8.86021 2.69496 8.83786 2.69152C8.83786 2.68894 8.83957 2.68636 8.83957 2.68378C8.83957 2.68206 8.83957 2.67948 8.83786 2.67776C8.83614 2.6769 8.69426 2.56254 8.518 2.49031C8.45007 2.46108 8.38214 2.43958 8.32023 2.43271C8.31335 2.43271 8.30648 2.43099 8.2996 2.43099C8.25661 2.42583 8.21619 2.42583 8.1775 2.42841C8.00897 2.43443 7.80605 2.47054 7.62205 2.47828C7.53864 2.47398 7.44148 2.4628 7.32712 2.4413C7.19557 2.40863 7.05627 2.36392 6.86625 2.34328C6.6083 2.31577 6.39592 2.40691 6.31767 2.44732C6.30649 2.45162 6.29532 2.45506 6.28328 2.45936C6.28156 2.45936 6.27984 2.46194 6.27984 2.46366C6.27984 2.46452 6.27984 2.46538 6.27984 2.4671C6.2678 2.46796 6.25576 2.47054 6.24287 2.4757C6.12679 2.51697 5.55672 2.59607 5.24546 2.12574C5.14744 1.97785 5.07263 1.79901 5.01674 1.62274C5.14142 1.38887 5.27211 1.07933 5.35466 0.873826C5.43978 0.662307 5.5507 0.49464 5.68483 0.375983M9.43286 5.96834C9.43286 5.96834 9.50939 6.11366 9.52572 6.22027C9.46382 6.1661 9.19899 6.16353 9.17147 6.15579C9.14568 6.14891 9.14138 5.2349 9.14568 5.06724C9.16201 5.01221 9.17491 4.95804 9.18265 4.90559C9.20501 4.77145 9.20329 4.63818 9.15685 4.52038C9.15342 4.5092 9.14998 4.49889 9.14568 4.48943C9.46898 4.56595 9.43286 4.90129 9.44146 5.85227C9.43544 5.91675 9.432 5.95803 9.432 5.95974C9.432 5.96318 9.432 5.96576 9.43372 5.9692M6.65215 6.73961C6.64871 6.73102 6.64699 6.72586 6.64699 6.72586V6.72328L6.75705 6.47736C6.79918 6.50316 6.86539 6.54701 6.94707 6.59258C6.95309 6.59602 6.95911 6.59946 6.96513 6.6029C6.97115 6.60634 6.97803 6.60978 6.98405 6.61322C7.13624 6.69404 7.334 6.77315 7.53692 6.76799C7.81121 6.76111 8.0941 6.60376 8.23339 6.48596L8.34947 6.84021C8.34947 6.84021 8.29702 7.15061 8.02703 7.48251C7.88 7.39911 7.64526 7.33634 7.40623 7.32344C7.01758 7.30195 6.68396 7.3544 6.67794 7.35612C6.67794 7.35268 6.76135 7.0182 6.65731 6.75595C6.65473 6.74993 6.65387 6.74391 6.65215 6.73961ZM7.38301 7.90211C6.97459 7.93048 6.74157 7.48595 6.73297 7.47391C7.24028 7.38707 7.66418 7.40856 7.92557 7.53582C7.92729 7.53668 7.95824 7.55904 7.95996 7.5599C7.9505 7.57709 7.74844 7.87717 7.38301 7.90297M4.9084 1.74742C4.91098 1.75344 4.91356 1.76032 4.91528 1.76719C4.91786 1.77321 4.92044 1.78009 4.92302 1.78611C4.96171 1.88757 5.01072 1.99849 5.07263 2.11715C5.20762 2.3794 5.39937 2.54706 5.6427 2.61585C5.85766 2.6769 6.07434 2.64852 6.19128 2.63391C6.23427 2.62875 6.27554 2.65454 6.28844 2.69667C6.38818 3.02341 6.35293 3.32951 6.30048 3.53845C6.11733 3.53415 5.40453 3.45763 4.86197 2.28653C4.86197 2.28653 5.15775 3.4903 6.08036 3.86261C6.06918 3.86089 6.058 3.85745 6.04682 3.85229C5.79317 3.74481 5.42258 3.50406 5.23514 3.27018C4.86627 2.84199 4.72698 2.36306 4.67968 1.99591C4.67882 1.98989 4.67796 1.98473 4.6771 1.97871C4.6771 1.97269 4.67538 1.96754 4.67538 1.96152C4.67109 1.92282 4.66765 1.88499 4.66421 1.84888C4.63325 1.43874 4.7029 1.13952 4.70376 1.13694C4.7201 0.964109 4.73815 0.95809 4.74073 0.95809C4.74847 0.95809 4.76309 1.00108 4.77083 1.04837C4.76911 1.06471 4.75277 1.32352 4.90926 1.74828M9.68823 3.59348C9.68307 3.59778 9.67792 3.60208 9.67276 3.60638C9.6676 3.61068 9.66244 3.61498 9.65728 3.61928C9.62547 3.64593 9.59279 3.67517 9.5584 3.7044C9.45436 3.79382 9.33742 3.89528 9.21274 3.99072C9.18351 4.01308 9.14568 4.02082 9.11042 4.0105C9.07431 4.00018 9.07947 3.93054 9.06571 3.89528C9.12504 3.85573 9.38987 3.67517 9.67792 3.45763C9.68307 3.45419 9.68823 3.44989 9.69339 3.44559C9.69855 3.44129 9.70371 3.43785 9.70887 3.43355C10.0709 3.15755 10.4578 2.82737 10.5068 2.64508C10.285 2.8738 9.9694 3.0707 9.67448 3.21343C9.66932 3.21601 9.66416 3.21859 9.659 3.22117C9.65384 3.22375 9.64868 3.22633 9.64352 3.22805C9.3529 3.36563 9.08721 3.44903 8.95823 3.45591C8.9204 3.22547 8.90062 3.12659 8.89804 3.0879C8.89546 3.06296 8.90664 3.03889 8.92728 3.02513C8.93932 3.01653 8.95307 3.01223 8.96769 3.01223C8.97715 3.01223 8.98747 3.01481 8.99692 3.01911C9.2437 3.13691 9.44662 3.12487 9.59623 3.075C9.60139 3.07328 9.60655 3.07156 9.61257 3.06984C9.61773 3.06812 9.62289 3.0664 9.62804 3.06382C9.66158 3.05093 9.69253 3.03545 9.72005 3.01997C9.76648 2.99418 9.80775 2.9744 9.85246 2.95376C9.95048 2.90733 10.0519 2.86004 10.2222 2.73451C10.4724 2.55136 10.702 2.09049 10.7235 2.01483C10.7252 2.00795 10.7278 1.99935 10.7304 1.98989C10.751 1.91423 10.8 1.73624 10.8404 1.7371C10.8439 1.7371 10.8473 1.73882 10.8499 1.74226C10.8722 1.76891 10.8602 1.88069 10.8542 1.92196C10.8542 1.92798 10.7759 2.47312 10.6908 2.67432C10.6435 2.78524 10.4552 2.96236 10.309 3.09392C10.1353 3.25041 9.95048 3.39572 9.85762 3.45935C9.80689 3.4946 9.75014 3.53931 9.68823 3.5909M8.20244 7.40685C8.17836 7.41974 8.13967 7.4464 8.11989 7.46445C8.10355 7.47907 8.14397 7.45328 8.12333 7.46789C8.46383 7.14116 8.41654 6.87547 8.41396 6.8256C8.39848 6.77745 8.31765 6.54185 8.27552 6.44641C8.291 6.43093 8.30218 6.41718 8.31077 6.40514C8.33571 6.36215 8.34775 6.36301 8.34259 6.15923C8.34259 6.15321 8.34259 6.14719 8.34259 6.14117C8.34259 6.13515 8.34259 6.12913 8.34259 6.12311C8.33055 5.78692 8.27208 5.37076 8.15085 5.25296C8.43975 5.43267 8.68566 5.42063 8.68566 5.42063L8.61172 5.26672C8.61172 5.26672 9.21618 5.08529 8.86451 4.35959C8.86451 4.35959 8.53691 5.038 8.12763 5.22803C8.09754 5.18589 7.9849 5.05004 7.9849 5.05004C7.9849 5.05004 8.14827 5.32519 8.20673 5.76456C8.22393 5.89526 8.24973 6.03541 8.2609 6.16525C8.2609 6.17126 8.26176 6.17728 8.26262 6.18244C8.26262 6.18846 8.26348 6.19448 8.26348 6.2005C8.2738 6.36129 8.25919 6.33205 8.17492 6.40858C8.03735 6.53239 7.76134 6.66825 7.52746 6.66997C7.37613 6.67169 7.22996 6.61924 7.10958 6.55819C7.1027 6.55475 7.09669 6.55131 7.09067 6.54787C7.08465 6.54443 7.07863 6.54185 7.07261 6.53755C6.95739 6.47393 6.87055 6.40514 6.83357 6.37418C6.7218 6.28132 6.83186 5.83679 6.88517 5.34324C6.88946 5.30283 6.90064 5.23319 6.92816 5.16096C6.9316 5.15924 6.93418 5.15752 6.93676 5.15494C6.93504 5.15408 6.93332 5.15322 6.93074 5.15236C6.95997 5.08013 7.00468 5.00619 7.07605 4.95804C7.07605 4.95804 6.95997 4.99759 6.87227 5.12227C6.48964 4.89957 6.19386 4.27791 6.19386 4.27791C5.83788 5.00275 6.44149 5.18675 6.44149 5.18675L6.36668 5.34066C6.36668 5.34066 6.56617 5.35184 6.8181 5.22373C6.80434 5.25898 6.79316 5.29853 6.78628 5.34238C6.74157 5.62785 6.58852 6.08184 6.70804 6.38966C6.65559 6.49886 6.58336 6.65707 6.55671 6.74391C6.56015 6.74821 6.56359 6.75251 6.56789 6.75681C6.57132 6.76111 6.5739 6.76541 6.57734 6.77057C6.57992 6.77487 6.5825 6.78003 6.58508 6.78519C6.65215 6.91846 6.65043 7.17469 6.64441 7.30624C6.54209 7.13428 6.42945 6.93136 6.42945 6.92964C6.30306 6.89524 6.18784 6.85311 6.17494 6.76455C6.16204 6.67599 6.12679 6.4103 6.19472 6.20824C6.1973 6.20136 6.20417 6.16095 6.26178 6.07668C5.8697 5.91675 5.82499 5.36646 5.74502 4.97266C5.77512 4.34928 5.9531 4.09648 6.12679 3.99158C6.14399 3.98127 6.16032 3.97267 6.17666 3.96493C6.22137 3.96407 6.26952 3.95547 6.31079 3.93312C6.31853 3.94257 6.32799 3.95547 6.33831 3.96923C6.38044 4.02168 6.44837 4.09992 6.53349 4.17645C6.71234 4.33552 6.89376 4.41978 7.06229 4.4215C7.07863 4.4215 7.09497 4.4215 7.1113 4.41978C7.1199 4.41978 7.12678 4.41118 7.12678 4.40259C7.12678 4.39399 7.11904 4.38625 7.10958 4.38625H7.10184C6.80434 4.38281 6.59712 3.98127 6.50082 3.74395C6.47502 3.68118 6.45783 3.62959 6.44751 3.60036C6.49136 3.35703 6.50254 3.13691 6.48104 2.94603C6.46213 2.77836 6.41827 2.63907 6.35207 2.53761C6.36582 2.53331 6.38388 2.52729 6.40366 2.52127C6.49824 2.49203 6.64699 2.44904 6.72953 2.43614C6.85593 2.41637 7.3082 2.5591 7.561 2.58232C7.81379 2.60639 8.13107 2.50321 8.32023 2.51611C8.45781 2.52557 8.65987 2.67948 8.76047 2.76374C8.77681 2.7775 8.79056 2.78868 8.80088 2.79813C8.7278 3.15927 8.78283 3.53415 8.84559 3.79726C8.84731 3.80586 8.84989 3.8136 8.85161 3.82134C8.84301 3.83252 8.83098 3.84627 8.81722 3.86261C8.76133 3.9271 8.66933 4.02856 8.56529 4.12486C8.34173 4.3295 8.16116 4.41978 8.04251 4.38625C8.03477 4.38367 8.02617 4.38797 8.02273 4.39485C8.01929 4.40259 8.02187 4.41118 8.02789 4.41548C8.08894 4.45847 8.1603 4.47997 8.23855 4.48083C8.28756 4.48083 8.34001 4.47395 8.39504 4.45761C8.59538 4.40087 8.78884 4.24953 8.89202 4.13432C8.90664 4.11798 8.91868 4.10336 8.92986 4.08875C8.96683 4.1988 9.00122 4.28135 9.02014 4.32262C9.02788 4.34068 9.0339 4.351 9.03476 4.35271C9.03562 4.35357 9.03648 4.35443 9.03734 4.35615C9.08377 4.46535 9.15943 4.67687 9.12848 4.83078C9.08377 5.04574 8.67965 5.7594 8.66933 5.77058C8.66503 5.77488 8.64353 5.85055 8.61344 5.94427C8.61086 5.95287 8.60828 5.96146 8.60484 5.97006C8.60226 5.97866 8.59882 5.98812 8.59624 5.99672C8.55153 6.12827 8.49478 6.27616 8.44577 6.31142C8.46984 6.39998 8.57389 6.53325 8.56099 6.67771C8.54895 6.82216 8.50854 6.97779 8.46555 7.07237C8.45867 7.23918 8.45007 7.20392 8.29874 7.33978C8.29444 7.34236 8.20673 7.40169 8.20158 7.40427M8.51112 5.09819C8.54809 5.0552 8.73381 4.83852 8.79142 4.71213C8.8026 4.76973 8.83098 4.96062 8.74069 5.05434C8.69168 5.10507 8.6143 5.11969 8.51112 5.09905M6.57562 5.04144C6.4733 5.0638 6.39592 5.05004 6.34605 5.00017C6.25404 4.90817 6.2807 4.71728 6.29102 4.65882C6.34949 4.78521 6.53779 4.99931 6.57562 5.04144ZM8.81464 5.67944C8.83356 5.65192 8.93416 5.5539 8.96167 5.51091L9.00122 5.46792C9.00122 5.46792 9.00122 5.91933 9.03734 5.91245C9.07259 5.90558 9.11386 5.88838 9.11988 5.98812C9.12504 6.07238 9.01154 6.14203 8.96425 6.16353C8.96683 6.11881 8.96769 6.08356 8.96855 6.06378C8.96941 5.96576 8.95049 5.62355 8.95049 5.62097C8.95049 5.61581 8.94791 5.61065 8.94361 5.60807C8.93932 5.60549 8.85333 5.68546 8.84817 5.68718C8.84387 5.68804 8.8155 5.6803 8.8155 5.6803" fill="#C00D0D"/>
<path d="M7.19799 7.22724C7.15672 7.18425 6.94864 6.89964 6.94262 6.76465C6.82311 6.77067 6.78613 6.98906 6.78613 6.98906C6.78613 6.98906 7.0501 7.24616 7.19799 7.22638" fill="#C00D0D"/>
<path d="M8.20367 7.05169C8.20367 7.05169 8.19766 6.82986 8.08072 6.80664C8.05578 6.93906 7.80987 7.19099 7.76172 7.2271C7.90531 7.26837 8.20367 7.05169 8.20367 7.05169Z" fill="#C00D0D"/>
<path d="M2.76274 4.01172C2.71373 4.01172 2.69911 4.03235 2.62774 4.18025C2.62774 4.18025 2.5323 4.58265 2.47469 4.72366C2.41708 4.86467 2.24512 5.19485 2.24512 5.19485C2.24512 5.19485 2.35088 5.16734 2.48759 4.88617C2.62431 4.60414 2.70341 4.37199 2.76102 4.24559C2.81863 4.1192 2.81261 4.01258 2.7636 4.01258" fill="#C00D0D"/>
<path d="M5.67653 0.972128C5.91556 1.00308 6.08065 1.29457 6.14858 1.52156C6.2165 1.74856 6.36611 2.26618 6.63266 2.24812C6.90007 2.23007 6.81839 1.99533 6.73498 1.85346C6.65244 1.71073 6.42888 0.167323 6.06947 0.311776C6.06947 0.311776 5.76767 0.259326 5.48908 0.673766C5.21049 1.08821 5.16406 1.5121 5.16406 1.5121C5.16406 1.5121 5.43663 0.942034 5.67567 0.972988" fill="#C00D0D"/>
<path d="M20.4797 6.81466C20.3559 6.68052 20.2939 6.49136 20.2939 6.24631V4.56447C20.2939 4.32028 20.3559 4.13026 20.4797 3.99612C20.6035 3.86199 20.7832 3.79492 21.0188 3.79492C21.2544 3.79492 21.4341 3.86199 21.5579 3.99612C21.6817 4.13026 21.7436 4.31942 21.7436 4.56447V4.89551H21.2785V4.53352C21.2785 4.34006 21.1968 4.2429 21.0325 4.2429C20.8683 4.2429 20.7866 4.34006 20.7866 4.53352V6.28242C20.7866 6.4733 20.8683 6.56875 21.0325 6.56875C21.1968 6.56875 21.2785 6.4733 21.2785 6.28242V5.80349H21.7436V6.24631C21.7436 6.4905 21.6817 6.68052 21.5579 6.81466C21.4341 6.94879 21.2544 7.01586 21.0188 7.01586C20.7832 7.01586 20.6035 6.94879 20.4797 6.81466Z" fill="#C00D0D"/>
<path d="M22.427 6.81011C22.2989 6.67339 22.2344 6.47907 22.2344 6.22886V4.58313C22.2344 4.33292 22.298 4.1386 22.427 4.00189C22.556 3.86517 22.74 3.79639 22.9816 3.79639C23.2232 3.79639 23.4081 3.86517 23.5362 4.00189C23.6643 4.1386 23.7288 4.33292 23.7288 4.58313V6.22886C23.7288 6.47907 23.6643 6.67339 23.5362 6.81011C23.4081 6.94768 23.2232 7.01561 22.9816 7.01561C22.74 7.01561 22.5551 6.94682 22.427 6.81011ZM23.2361 6.25981V4.55132C23.2361 4.34582 23.151 4.24264 22.9807 4.24264C22.8105 4.24264 22.7262 4.34582 22.7262 4.55132V6.25981C22.7262 6.46531 22.8113 6.56849 22.9807 6.56849C23.1501 6.56849 23.2361 6.46531 23.2361 6.25981Z" fill="#C00D0D"/>
<path d="M24.2822 3.84033H24.9847L25.2977 6.08106H25.3063L25.6193 3.84033H26.3218V6.97099H25.8566V4.60042H25.848L25.4903 6.97099H25.0784L24.7207 4.60042H24.7121V6.97099H24.2822V3.84033Z" fill="#C00D0D"/>
<path d="M27.0686 6.81011C26.9405 6.67339 26.876 6.47907 26.876 6.22886V4.58313C26.876 4.33292 26.9405 4.1386 27.0686 4.00189C27.1967 3.86517 27.3816 3.79639 27.6232 3.79639C27.8648 3.79639 28.0497 3.86517 28.1778 4.00189C28.3059 4.1386 28.3704 4.33292 28.3704 4.58313V6.22886C28.3704 6.47907 28.3059 6.67339 28.1778 6.81011C28.0497 6.94768 27.8648 7.01561 27.6232 7.01561C27.3816 7.01561 27.1967 6.94682 27.0686 6.81011ZM27.8777 6.25981V4.55132C27.8777 4.34582 27.7926 4.24264 27.6223 4.24264C27.4521 4.24264 27.3678 4.34582 27.3678 4.55132V6.25981C27.3678 6.46531 27.4529 6.56849 27.6223 6.56849C27.7917 6.56849 27.8777 6.46531 27.8777 6.25981Z" fill="#C00D0D"/>
<path d="M29.8633 3.84033H31.2055V4.28745H30.356V5.11547H31.0309V5.56258H30.356V6.52387H31.2055V6.97099H29.8633V3.84033Z" fill="#C00D0D"/>
<path d="M32.5205 3.84033H33.0166L33.3382 6.26936H33.3477L33.6693 3.84033H34.1215L33.6469 6.97099H32.9943L32.5205 3.84033Z" fill="#C00D0D"/>
<path d="M34.5811 3.84033H35.9233V4.28745H35.0737V5.11547H35.7487V5.56258H35.0737V6.52387H35.9233V6.97099H34.5811V3.84033Z" fill="#C00D0D"/>
<path d="M36.4287 3.84022H37.1579C37.4115 3.84022 37.5964 3.89954 37.7124 4.01648C37.8285 4.13428 37.887 4.3157 37.887 4.5599V4.7525C37.887 5.07752 37.7795 5.28302 37.5654 5.36986V5.37846C37.6849 5.41457 37.7692 5.48766 37.8182 5.59772C37.8672 5.70777 37.8922 5.85567 37.8922 6.04053V6.59082C37.8922 6.68025 37.8956 6.75247 37.9016 6.8075C37.9076 6.86253 37.9222 6.9167 37.9463 6.97087H37.445C37.427 6.92014 37.4149 6.87285 37.4089 6.82814C37.4029 6.78343 37.4003 6.7026 37.4003 6.58652V6.01388C37.4003 5.87028 37.3771 5.77054 37.3307 5.71379C37.2842 5.65704 37.2051 5.62867 37.0916 5.62867H36.9214V6.97001H36.4296V3.83936L36.4287 3.84022ZM37.0994 5.18156C37.1974 5.18156 37.2714 5.15662 37.3204 5.10589C37.3694 5.05516 37.3943 4.97004 37.3943 4.85138V4.60977C37.3943 4.49627 37.3745 4.41458 37.3341 4.36385C37.2937 4.31312 37.2309 4.28819 37.1441 4.28819H36.9205V5.18242H37.0994V5.18156Z" fill="#C00D0D"/>
<path d="M38.8296 4.28745H38.3154V3.84033H39.8365V4.28745H39.3223V6.97099H38.8296V4.28745Z" fill="#C00D0D"/>
<path d="M40.2969 3.84033H41.6391V4.28745H40.7896V5.11547H41.4645V5.56258H40.7896V6.52387H41.6391V6.97099H40.2969V3.84033Z" fill="#C00D0D"/>
<path d="M42.1436 3.84033H42.846L43.159 6.08106H43.1676L43.4806 3.84033H44.1831V6.97099H43.7179V4.60042H43.7093L43.3516 6.97099H42.9398L42.5821 4.60042H42.5735V6.97099H42.1436V3.84033Z" fill="#C00D0D"/>
<path d="M45.1534 3.84033H45.8198L46.3297 6.97099H45.8379L45.7484 6.34933V6.35793H45.1895L45.1001 6.97099H44.6436L45.1534 3.84033ZM45.69 5.93317L45.4707 4.38547H45.4621L45.2472 5.93317H45.69Z" fill="#C00D0D"/>
<path d="M46.9693 4.28745H46.4551V3.84033H47.9761V4.28745H47.4611V6.97099H46.9693V4.28745Z" fill="#C00D0D"/>
<path d="M48.4355 3.84033H49.7778V4.28745H48.9282V5.11547H49.6032V5.56258H48.9282V6.52387H49.7778V6.97099H48.4355V3.84033Z" fill="#C00D0D"/>
<path d="M20.2391 0.0546875H21.0121C21.2727 0.0546875 21.4687 0.125194 21.5994 0.264487C21.7301 0.40464 21.7954 0.61014 21.7954 0.880128V1.20944C21.7954 1.48029 21.7301 1.68493 21.5994 1.82509C21.4687 1.96524 21.2735 2.03489 21.0121 2.03489H20.7636V3.39514H20.2383V0.0546875H20.2391ZM21.0121 1.55854C21.0981 1.55854 21.1626 1.53446 21.2056 1.48717C21.2486 1.43902 21.2701 1.3582 21.2701 1.24384V0.847454C21.2701 0.733096 21.2486 0.651412 21.2056 0.604121C21.1626 0.555971 21.0981 0.532755 21.0121 0.532755H20.7636V1.5594H21.0121V1.55854Z" fill="#1D1D1B"/>
<path d="M22.2638 3.22662C22.1305 3.08216 22.0635 2.87408 22.0635 2.6041V0.0546875H22.5888V2.64193C22.5888 2.75629 22.6121 2.83883 22.6585 2.89042C22.7041 2.94115 22.7703 2.96695 22.8562 2.96695C22.9422 2.96695 23.0084 2.94115 23.054 2.89042C23.1004 2.83969 23.1237 2.75715 23.1237 2.64193V0.0546875H23.6292V2.6041C23.6292 2.87494 23.5622 3.08216 23.4289 3.22662C23.2956 3.37107 23.1013 3.44415 22.8468 3.44415C22.5923 3.44415 22.398 3.37193 22.2647 3.22662" fill="#1D1D1B"/>
<path d="M24.001 0.0546875H24.7929C25.0637 0.0546875 25.2606 0.117455 25.3845 0.242991C25.5083 0.368527 25.571 0.561989 25.571 0.823379V0.956653C25.571 1.12862 25.5435 1.26877 25.4876 1.37711C25.4317 1.48545 25.3466 1.5637 25.2323 1.61099V1.62045C25.4928 1.70987 25.6235 1.94202 25.6235 2.31777V2.6041C25.6235 2.86205 25.5556 3.05809 25.4206 3.19394C25.2856 3.32894 25.087 3.39686 24.8264 3.39686H24.001V0.0546875ZM24.731 1.41494C24.8359 1.41494 24.915 1.38829 24.9674 1.33412C25.0199 1.27995 25.0465 1.18967 25.0465 1.06241V0.875829C25.0465 0.754592 25.025 0.667749 24.9821 0.61358C24.9391 0.55941 24.8711 0.532755 24.7791 0.532755H24.5263V1.4158H24.7318L24.731 1.41494ZM24.8264 2.91879C24.9184 2.91879 24.9872 2.89386 25.0319 2.84485C25.0766 2.79584 25.099 2.71071 25.099 2.58948V2.29799C25.099 2.14494 25.0723 2.03918 25.0199 1.98072C24.9674 1.92139 24.8806 1.89215 24.7594 1.89215H24.5255V2.91879H24.8264Z" fill="#1D1D1B"/>
<path d="M26.8546 3.22654C26.7214 3.08209 26.6543 2.87401 26.6543 2.60402V0.847382C26.6543 0.577394 26.7214 0.369314 26.8546 0.224862C26.9879 0.0804102 27.1822 0.00732422 27.4367 0.00732422C27.6913 0.00732422 27.8856 0.0795503 28.0189 0.224862C28.1521 0.369314 28.2192 0.577394 28.2192 0.847382V1.13371H27.7231V0.813849C27.7231 0.594591 27.6328 0.484532 27.4514 0.484532C27.2699 0.484532 27.1797 0.594591 27.1797 0.813849V2.64186C27.1797 2.85853 27.2708 2.96601 27.4514 2.96601C27.6319 2.96601 27.7231 2.85767 27.7231 2.64186V1.98752H27.4608V1.51031H28.2201V2.60316C28.2201 2.87401 28.153 3.08123 28.0197 3.22568C27.8864 3.37014 27.6921 3.44322 27.4376 3.44322C27.1831 3.44322 26.9888 3.37099 26.8555 3.22568" fill="#1D1D1B"/>
<path d="M28.5586 0.0546875H29.3367C29.6067 0.0546875 29.8045 0.117455 29.9283 0.242991C30.0521 0.368527 30.1149 0.561989 30.1149 0.823379V1.02888C30.1149 1.37539 30.0005 1.59551 29.771 1.68751V1.69697C29.8982 1.7348 29.9876 1.81305 30.0401 1.93085C30.0925 2.04864 30.1192 2.20599 30.1192 2.40375V2.99102C30.1192 3.08646 30.1226 3.16385 30.1287 3.22232C30.1347 3.28078 30.151 3.33925 30.1768 3.39686H29.642C29.6231 3.34269 29.6102 3.29196 29.6042 3.24381C29.5981 3.19566 29.5947 3.10968 29.5947 2.98586V2.37452C29.5947 2.22147 29.5698 2.11485 29.5208 2.05466C29.4717 1.99447 29.3866 1.96438 29.2654 1.96438H29.084V3.396H28.5586V0.0546875ZM29.2748 1.48717C29.3797 1.48717 29.4588 1.46052 29.5113 1.40635C29.5637 1.35218 29.5904 1.26189 29.5904 1.13464V0.876689C29.5904 0.755452 29.5689 0.668609 29.5259 0.614439C29.4829 0.56027 29.415 0.533615 29.323 0.533615H29.084V1.48803H29.2748V1.48717Z" fill="#1D1D1B"/>
<path d="M31.0078 0.0546875H30.4824V3.396H31.0078V0.0546875Z" fill="#1D1D1B"/>
<path d="M31.3994 0.0546875H31.9248V2.91879H32.7881V3.396H31.3994V0.0546875Z" fill="#1D1D1B"/>
<path d="M33.041 0.0546875H33.5655V2.91879H34.4297V3.396H33.041V0.0546875Z" fill="#1D1D1B"/>
<path d="M35.8519 0.0546875H36.563L37.1073 3.396H36.5819L36.4865 2.73221V2.74167H35.8897L35.7943 3.396H35.3076L35.8519 0.0546875ZM36.4245 2.28854L36.1907 0.636795H36.1812L35.9525 2.28854H36.4245Z" fill="#1D1D1B"/>
<path d="M37.3613 0.0546875H38.02L38.5307 2.05466H38.5402V0.0546875H39.0079V3.396H38.4688L37.8385 0.956653H37.8291V3.396H37.3613V0.0546875Z" fill="#1D1D1B"/>
<path d="M39.3994 0.0546875H40.2016C40.4622 0.0546875 40.6582 0.125194 40.7889 0.264487C40.9196 0.40464 40.985 0.61014 40.985 0.880128V2.5697C40.985 2.84055 40.9196 3.04519 40.7889 3.18534C40.6582 3.3255 40.463 3.39514 40.2016 3.39514H39.3994V0.0546875ZM40.1922 2.91879C40.2782 2.91879 40.3444 2.893 40.3899 2.84227C40.4364 2.79154 40.4587 2.70899 40.4587 2.59378V0.856053C40.4587 0.741695 40.4355 0.659151 40.3899 0.607561C40.3435 0.55683 40.2773 0.531035 40.1922 0.531035H39.9248V2.91793H40.1922V2.91879Z" fill="#1D1D1B"/>
<path d="M42.1005 0.0546875H42.8735C43.134 0.0546875 43.33 0.125194 43.4607 0.264487C43.5914 0.40464 43.6568 0.61014 43.6568 0.880128V1.20944C43.6568 1.48029 43.5914 1.68493 43.4607 1.82509C43.33 1.96524 43.1349 2.03489 42.8735 2.03489H42.625V3.39514H42.0996V0.0546875H42.1005ZM42.8735 1.55854C42.9594 1.55854 43.0239 1.53446 43.0669 1.48717C43.1099 1.43902 43.1314 1.3582 43.1314 1.24384V0.847454C43.1314 0.733096 43.1099 0.651412 43.0669 0.604121C43.0239 0.555971 42.9594 0.532755 42.8735 0.532755H42.625V1.5594H42.8735V1.55854Z" fill="#1D1D1B"/>
<path d="M44.4687 0.0546875H43.9434V3.396H44.4687V0.0546875Z" fill="#1D1D1B"/>
<path d="M44.7549 2.92825L45.7282 0.531895H44.8022V0.0546875H46.2914V0.522437L45.3181 2.91879H46.2914V3.396H44.7549V2.92825Z" fill="#1D1D1B"/>
<path d="M46.5068 2.92825L47.4802 0.531895H46.5541V0.0546875H48.0434V0.522437L47.07 2.91879H48.0434V3.396H46.5068V2.92825Z" fill="#1D1D1B"/>
<path d="M48.7445 0.0546875H49.4556L49.9998 3.396H49.4745L49.379 2.73221V2.74167H48.7823L48.6869 3.396H48.2002L48.7445 0.0546875ZM49.3171 2.28854L49.0832 0.636795H49.0738L48.8451 2.28854H49.3171Z" fill="#1D1D1B"/>
</svg>
