<svg width="139" height="50" viewBox="0 0 139 50" fill="none" xmlns="http://www.w3.org/2000/svg">
<path d="M63.707 14.4797V10.7566H65.6142V11.116C65.6813 11.6257 65.9549 12.0441 66.4377 12.3714C66.9205 12.7013 67.4892 12.8649 68.1464 12.8649C68.8036 12.8649 69.383 12.7442 69.7961 12.5055C70.2065 12.2668 70.413 11.9315 70.413 11.5076C70.413 11.0838 70.244 10.7941 69.9034 10.5983C69.5627 10.4025 68.8894 10.2255 67.8782 10.0618C66.3814 9.80969 65.3138 9.40196 64.6754 8.83597C64.037 8.27267 63.7178 7.54038 63.7178 6.64177C63.7178 5.74317 64.0665 4.97868 64.7612 4.36978C65.456 3.76087 66.3733 3.45508 67.508 3.45508C68.5327 3.45508 69.4152 3.66699 70.1555 4.08812V3.62407H72.0493V7.22385H70.1555V6.5613C69.5788 5.67074 68.7419 5.22815 67.6421 5.22815C67.0815 5.22815 66.6201 5.34885 66.258 5.59295C65.8959 5.83437 65.7135 6.15894 65.7135 6.56398C65.7135 6.96902 65.8798 7.25872 66.2124 7.41162C66.545 7.56452 67.2612 7.72814 68.361 7.89714C69.4152 8.06076 70.2119 8.25389 70.7483 8.47385C71.2875 8.69381 71.7328 9.0613 72.0895 9.57364C72.4436 10.086 72.6233 10.6815 72.6233 11.3628C72.6233 12.3714 72.2371 13.1734 71.4619 13.7689C70.6893 14.3644 69.6834 14.6622 68.4522 14.6622C67.2934 14.6622 66.3465 14.3993 65.6142 13.8708V14.4824H63.707V14.4797Z" fill="#010202"/>
<path d="M73.9775 5.5177V3.62124H75.3912V1.95011L77.521 0V3.62124H79.5274V5.5177H77.521V10.7886C77.521 11.6336 77.5693 12.1566 77.6605 12.3525C77.7544 12.551 77.9877 12.6502 78.3606 12.6502C78.7576 12.6502 79.1465 12.5751 79.5274 12.4249V14.3643C78.9829 14.5574 78.4357 14.6566 77.8912 14.6566C77.242 14.6566 76.7136 14.5118 76.3112 14.2248C75.9062 13.9378 75.654 13.5756 75.5494 13.1438C75.4448 12.7092 75.3938 11.9635 75.3938 10.9013V5.5177H73.9802H73.9775Z" fill="#010202"/>
<path d="M92.1135 12.5834V14.4798H88.3903V13.1574C87.3576 14.158 86.2069 14.6596 84.9381 14.6596C83.951 14.6596 83.0926 14.3377 82.363 13.6966C81.6334 13.0528 81.2686 12.2293 81.2686 11.2288C81.2686 10.2282 81.6548 9.38059 82.43 8.71536C83.2026 8.05012 84.136 7.7175 85.2278 7.7175C86.2444 7.7175 87.2289 8.0233 88.1784 8.63757V7.56192C88.1784 7.00935 88.1275 6.58285 88.0228 6.2851C87.9182 5.98736 87.6741 5.71643 87.2879 5.4777C86.9016 5.23897 86.4 5.11826 85.7804 5.11826C84.7101 5.11826 83.9375 5.54476 83.4601 6.39776L81.4188 5.8586C82.3227 4.16869 83.8866 3.32373 86.1076 3.32373C86.9231 3.32373 87.6258 3.43371 88.2213 3.65367C88.8168 3.87362 89.2594 4.15796 89.5518 4.50667C89.8415 4.85538 90.04 5.23092 90.1393 5.63328C90.2412 6.03564 90.2895 6.67941 90.2895 7.56192V12.5861H92.1189L92.1135 12.5834ZM88.1757 10.4428C87.2557 9.72394 86.3249 9.36718 85.3834 9.36718C84.7932 9.36718 84.2997 9.53886 83.9027 9.8822C83.5057 10.2255 83.3072 10.6708 83.3072 11.2154C83.3072 11.725 83.4815 12.1488 83.8302 12.4949C84.179 12.8382 84.6511 13.0099 85.2492 13.0099C86.282 13.0099 87.2557 12.5753 88.1757 11.7089V10.4428Z" fill="#010202"/>
<path d="M94.9516 12.5833V5.51784H93.1463V3.62407H97.0814V4.99209C98.3663 3.96742 99.6243 3.45508 100.856 3.45508C102.087 3.45508 102.948 4.02107 103.42 5.14767C104.834 4.01838 106.148 3.45508 107.368 3.45508C108.071 3.45508 108.648 3.61066 109.101 3.92182C109.555 4.23297 109.86 4.62461 110.016 5.09939C110.174 5.57418 110.252 6.27428 110.252 7.20239V12.586H112.148V14.4824H108.122V7.58329C108.122 6.95561 108.093 6.51302 108.039 6.25551C107.983 5.99799 107.841 5.7834 107.613 5.61709C107.385 5.4481 107.108 5.36495 106.789 5.36495C105.877 5.36495 104.842 5.83169 103.683 6.76784V12.5887H105.544V14.4851H101.55V7.3848C101.55 6.67396 101.448 6.16162 101.245 5.84242C101.038 5.52589 100.689 5.36495 100.198 5.36495C99.3936 5.36495 98.3556 5.83169 97.0868 6.76784V12.5887H98.994V14.4851H93.0176V12.5887H94.957L94.9516 12.5833Z" fill="#010202"/>
<path d="M114.421 17.4492V5.51784H112.591V3.62139H116.55V5.32739C117.613 4.08008 118.897 3.45508 120.408 3.45508C121.918 3.45508 123.195 3.97815 124.193 5.02428C125.19 6.07042 125.689 7.43308 125.689 9.1069C125.689 10.8639 125.147 12.2507 124.064 13.2673C122.98 14.2839 121.746 14.7909 120.362 14.7909C118.978 14.7909 117.655 14.2383 116.55 13.1332V17.4492H118.659V19.3456H112.436V17.4492H114.421ZM116.518 9.20615C116.518 9.80432 116.642 10.3757 116.888 10.9229C117.135 11.4674 117.527 11.9261 118.066 12.2963C118.605 12.6664 119.235 12.8515 119.962 12.8515C120.979 12.8515 121.819 12.5109 122.478 11.8295C123.141 11.1509 123.471 10.2147 123.471 9.02643C123.471 7.83812 123.125 6.96366 122.433 6.31184C121.741 5.66001 120.955 5.33544 120.072 5.33544C119.131 5.33544 118.302 5.68952 117.588 6.39499C116.875 7.10046 116.518 8.03662 116.518 9.20346" fill="#010202"/>
<path d="M138.532 12.5834V14.4798H134.809V13.1574C133.777 14.158 132.626 14.6596 131.354 14.6596C130.367 14.6596 129.509 14.3377 128.782 13.6966C128.052 13.0528 127.688 12.2293 127.688 11.2288C127.688 10.2282 128.074 9.38059 128.849 8.71536C129.622 8.05012 130.555 7.7175 131.647 7.7175C132.663 7.7175 133.645 8.0233 134.595 8.63757V7.56192C134.595 7.00935 134.544 6.58285 134.436 6.2851C134.332 5.98736 134.088 5.71643 133.701 5.4777C133.318 5.23897 132.814 5.11826 132.194 5.11826C131.124 5.11826 130.351 5.54476 129.871 6.39776L127.83 5.8586C128.734 4.16869 130.297 3.32373 132.519 3.32373C133.331 3.32373 134.037 3.43371 134.632 3.65367C135.228 3.87362 135.67 4.15796 135.963 4.50667C136.255 4.85538 136.451 5.23092 136.553 5.63328C136.655 6.03564 136.703 6.67941 136.703 7.56192V12.5861H138.53L138.532 12.5834ZM134.595 10.4428C133.675 9.72394 132.744 9.36718 131.802 9.36718C131.212 9.36718 130.719 9.53886 130.322 9.8822C129.925 10.2255 129.726 10.6708 129.726 11.2154C129.726 11.725 129.9 12.1488 130.247 12.4949C130.595 12.8382 131.067 13.0099 131.666 13.0099C132.698 13.0099 133.672 12.5753 134.592 11.7089V10.4428H134.595Z" fill="#010202"/>
<path d="M65.1533 30.2522V18.4443H63.2246V16.5479H67.2831V30.2522H68.9435V32.1487H63.2246V30.2522H65.1533Z" fill="#010202"/>
<path d="M81.3703 30.2521V32.1458H77.6472V30.8234C76.6144 31.824 75.4637 32.3256 74.1922 32.3256C73.2051 32.3256 72.3467 32.0037 71.6198 31.3599C70.8902 30.7161 70.5254 29.8953 70.5254 28.8921C70.5254 27.8889 70.9117 27.0466 71.6869 26.3787C72.4594 25.7134 73.3929 25.3808 74.4846 25.3808C75.5012 25.3808 76.4857 25.6866 77.4352 26.3009V25.2226C77.4352 24.67 77.3843 24.2435 77.2797 23.9457C77.1751 23.648 76.931 23.3771 76.5447 23.1383C76.1584 22.8996 75.6568 22.7789 75.0372 22.7789C73.9669 22.7789 73.1944 23.2054 72.7142 24.0584L70.6729 23.5192C71.5769 21.8293 73.1407 20.9844 75.3618 20.9844C76.1772 20.9844 76.8827 21.0944 77.4755 21.3143C78.071 21.5343 78.5136 21.8186 78.8033 22.1673C79.0957 22.5133 79.2915 22.8916 79.3934 23.2939C79.4927 23.6963 79.5436 24.3401 79.5436 25.2226V30.2467H81.373L81.3703 30.2521ZM77.4326 28.1088C76.5125 27.3926 75.5817 27.0332 74.6402 27.0332C74.0501 27.0332 73.5565 27.2049 73.1595 27.5482C72.7625 27.8916 72.564 28.3368 72.564 28.8814C72.564 29.391 72.7384 29.8175 73.0844 30.1609C73.4331 30.5042 73.9052 30.6759 74.5034 30.6759C75.5334 30.6759 76.5098 30.2413 77.4299 29.3749V28.1061L77.4326 28.1088Z" fill="#010202"/>
<path d="M82.3555 23.1869V21.2931H83.7691V19.622L85.8989 17.6719V21.2931H87.9054V23.1869H85.8989V28.4578C85.8989 29.3028 85.9472 29.8258 86.0384 30.0217C86.1323 30.2201 86.3657 30.3194 86.7385 30.3194C87.1355 30.3194 87.5245 30.2443 87.9054 30.0941V32.0335C87.3608 32.2266 86.8136 32.3258 86.2691 32.3258C85.6173 32.3258 85.0915 32.181 84.6892 31.894C84.2841 31.607 84.0293 31.2475 83.9274 30.813C83.8227 30.3784 83.7718 29.63 83.7718 28.5678V23.1842H82.3582L82.3555 23.1869Z" fill="#010202"/>
<path d="M101.298 30.2519V32.1457H97.2935V30.9011C96.0435 31.8507 94.8498 32.3254 93.7044 32.3254C92.9802 32.3254 92.3793 32.1672 91.9045 31.848C91.4297 31.5288 91.1132 31.1184 90.9576 30.6141C90.8021 30.1098 90.7216 29.297 90.7216 28.1758V23.1838H89.1846V21.29H92.8514V27.9075C92.8514 28.7069 92.8729 29.246 92.9185 29.5223C92.9641 29.7986 93.0955 30.0266 93.3101 30.2063C93.5274 30.3861 93.7983 30.4746 94.1282 30.4746C95.1154 30.4746 96.1695 30.0025 97.2908 29.061V23.1838H95.3729V21.29H99.4206V30.2519H101.293H101.298Z" fill="#010202"/>
<path d="M113.423 30.2521V32.1458H109.7V30.8234C108.667 31.824 107.516 32.3256 106.245 32.3256C105.258 32.3256 104.399 32.0037 103.67 31.3599C102.94 30.7161 102.578 29.8953 102.578 28.8921C102.578 27.8889 102.964 27.0466 103.74 26.3787C104.512 25.7134 105.446 25.3808 106.537 25.3808C107.554 25.3808 108.536 25.6866 109.488 26.3009V25.2226C109.488 24.67 109.434 24.2435 109.33 23.9457C109.225 23.648 108.981 23.3771 108.595 23.1383C108.208 22.8996 107.707 22.7789 107.085 22.7789C106.014 22.7789 105.242 23.2054 104.764 24.0584L102.723 23.5192C103.627 21.8293 105.191 20.9844 107.412 20.9844C108.227 20.9844 108.933 21.0944 109.526 21.3143C110.121 21.5343 110.564 21.8186 110.856 22.1673C111.146 22.5133 111.344 22.8916 111.443 23.2939C111.545 23.6963 111.594 24.3401 111.594 25.2226V30.2467H113.42L113.423 30.2521ZM109.488 28.1088C108.568 27.3926 107.637 27.0332 106.696 27.0332C106.105 27.0332 105.612 27.2049 105.215 27.5482C104.818 27.8916 104.619 28.3368 104.619 28.8814C104.619 29.391 104.794 29.8175 105.14 30.1609C105.489 30.5042 105.961 30.6759 106.559 30.6759C107.592 30.6759 108.565 30.2413 109.485 29.3749V28.1061L109.488 28.1088Z" fill="#010202"/>
<path d="M63.46 40.8583V38.9645H64.8736V37.2934L67.0034 35.3433V38.9645H69.0098V40.8583H67.0034V46.1292C67.0034 46.9742 67.0517 47.4972 67.1429 47.693C67.2368 47.8915 67.4701 47.9908 67.843 47.9908C68.24 47.9908 68.6289 47.9157 69.0098 47.7655V49.7048C68.4653 49.898 67.9181 49.9972 67.3736 49.9972C66.7244 49.9972 66.196 49.8524 65.7936 49.5654C65.3913 49.2783 65.1365 48.9162 65.0318 48.4843C64.9272 48.0498 64.8763 47.3014 64.8763 46.2419V40.8583H63.4626H63.46Z" fill="#010202"/>
<path d="M70.6355 49.8176V46.0945H72.5427V46.4539C72.6097 46.9636 72.8833 47.382 73.3662 47.7093C73.849 48.0392 74.4204 48.2028 75.0749 48.2028C75.7294 48.2028 76.3115 48.0821 76.7245 47.8434C77.1349 47.6047 77.3415 47.272 77.3415 46.8455C77.3415 46.419 77.1725 46.132 76.8318 45.9362C76.4912 45.7404 75.8179 45.5634 74.8066 45.3997C73.3125 45.1476 72.2449 44.7399 71.6038 44.1739C70.9654 43.6106 70.6462 42.8783 70.6462 41.9797C70.6462 41.0811 70.9949 40.3166 71.6897 39.7077C72.3844 39.0988 73.2991 38.793 74.4365 38.793C75.4611 38.793 76.3436 39.0049 77.084 39.426V38.962H78.9778V42.5617H77.084V41.8992C76.5073 41.0086 75.6704 40.566 74.5733 40.566C74.0126 40.566 73.5513 40.6867 73.1865 40.9308C72.8243 41.1749 72.6419 41.4968 72.6419 41.9019C72.6419 42.3069 72.8082 42.5966 73.1409 42.7495C73.4735 42.9024 74.1897 43.066 75.2895 43.235C76.3436 43.3987 77.1403 43.5918 77.6768 43.8117C78.216 44.0317 78.6612 44.3992 79.018 44.9115C79.3721 45.4239 79.5518 46.0194 79.5518 46.7007C79.5518 47.7093 79.1655 48.5113 78.3903 49.1068C77.6178 49.7023 76.6119 50 75.378 50C74.2192 50 73.2723 49.7372 72.54 49.2087V49.8176H70.6328H70.6355Z" fill="#010202"/>
<path d="M82.6471 47.9236V36.113H80.6836V34.2192H84.7769V40.2064C86.0564 39.1736 87.2716 38.6586 88.4223 38.6586C89.1385 38.6586 89.7313 38.8088 90.1927 39.1066C90.6568 39.407 90.9733 39.8013 91.1396 40.2895C91.3086 40.7777 91.3917 41.4939 91.3917 42.4354V47.9209H93.2426V49.8147H89.2619V43.1758C89.2619 42.3523 89.2351 41.8051 89.1841 41.5261C89.1305 41.2498 88.9883 41.0218 88.7523 40.8421C88.5162 40.6624 88.2372 40.5738 87.9153 40.5738C87.0918 40.5738 86.0457 41.0406 84.7743 41.9767V47.9209H86.66V49.8147H80.6836V47.9209H82.6471V47.9236Z" fill="#010202"/>
<path d="M95.8154 47.9236V40.8582H94.1335V38.9644H97.9452V47.9263H99.6271V49.8201H94.1309V47.9263H95.8127L95.8154 47.9236ZM95.5123 35.2734C95.5123 34.9301 95.633 34.6296 95.8771 34.3775C96.1185 34.1227 96.4297 33.9966 96.8025 33.9966C97.1539 33.9966 97.457 34.12 97.7092 34.3668C97.964 34.6135 98.0901 34.9166 98.0901 35.2734C98.0901 35.6302 97.964 35.9386 97.7092 36.1881C97.4544 36.4376 97.1512 36.5636 96.8025 36.5636C96.4538 36.5636 96.1373 36.4376 95.8878 36.1827C95.6384 35.9279 95.5123 35.6248 95.5123 35.2734Z" fill="#010202"/>
<path d="M102.779 47.9239V40.8584H100.593V38.9646H104.485V41.4083C104.724 40.7726 105.056 40.2468 105.483 39.8284C105.909 39.4099 106.36 39.1336 106.835 38.9995C107.31 38.8654 107.959 38.7983 108.782 38.7983H109.343V40.9523H108.916C107.833 40.9523 107.022 41.0623 106.489 41.2769C105.955 41.4942 105.558 41.8885 105.3 42.4598C105.043 43.0312 104.914 44.0585 104.914 45.5392V47.9292H107.28V49.823H100.595V47.9292H102.782L102.779 47.9239Z" fill="#010202"/>
<path d="M110.708 40.8583V38.9645H112.122V37.2934L114.251 35.3433V38.9645H116.258V40.8583H114.251V46.1292C114.251 46.9742 114.3 47.4972 114.391 47.693C114.485 47.8915 114.718 47.9908 115.091 47.9908C115.488 47.9908 115.877 47.9157 116.258 47.7655V49.7048C115.711 49.898 115.166 49.9972 114.622 49.9972C113.972 49.9972 113.444 49.8524 113.042 49.5654C112.637 49.2783 112.385 48.9162 112.28 48.4843C112.175 48.0498 112.122 47.3014 112.122 46.2419V40.8583H110.708Z" fill="#010202"/>
<path d="M121.676 47.0601H118.916V49.8176H121.676V47.0601Z" fill="#010202"/>
<path d="M126.084 47.9236V40.8582H124.402V38.9644H128.214V47.9263H129.896V49.8201H124.399V47.9263H126.081L126.084 47.9236ZM125.781 35.2734C125.781 34.9301 125.902 34.6296 126.146 34.3775C126.39 34.1227 126.698 33.9966 127.071 33.9966C127.422 33.9966 127.726 34.12 127.98 34.3668C128.235 34.6135 128.361 34.9166 128.361 35.2734C128.361 35.6302 128.235 35.9386 127.98 36.1881C127.726 36.4376 127.422 36.5636 127.071 36.5636C126.72 36.5636 126.409 36.4376 126.156 36.1827C125.907 35.9279 125.781 35.6248 125.781 35.2734Z" fill="#010202"/>
<path d="M131.052 40.8583V38.9645H132.465V37.2934L134.595 35.3433V38.9645H136.602V40.8583H134.595V46.1292C134.595 46.9742 134.643 47.4972 134.735 47.693C134.829 47.8915 135.062 47.9908 135.435 47.9908C135.832 47.9908 136.221 47.9157 136.602 47.7655V49.7048C136.057 49.898 135.51 49.9972 134.965 49.9972C134.316 49.9972 133.788 49.8524 133.385 49.5654C132.98 49.2783 132.728 48.9162 132.621 48.4843C132.516 48.0498 132.465 47.3014 132.465 46.2419V40.8583H131.052Z" fill="#010202"/>
<path d="M54.6137 1.92328V17.6904H43.2671V46.1668C43.1813 47.2398 42.2827 48.0713 41.2044 48.0713H39.2811H13.2698V17.6878H1.92328V1.92328H20.1287C21.4887 5.15826 24.6486 7.30686 28.2698 7.30686C31.8911 7.30686 35.0509 5.15558 36.4109 1.92328H54.6164M56.5396 0H35.0161C34.3159 3.08208 31.5638 5.38358 28.2698 5.38358C24.9758 5.38358 22.2237 3.08208 21.5236 0H0V19.6137H11.3466V49.9973H41.2044C43.3315 49.9973 45.067 48.3315 45.1904 46.2339V19.6164H56.537V0L56.5396 0Z" fill="#010202"/>
<path d="M50.8024 5.73486V13.8813H39.4558V44.2622H17.0792V16.3464V13.8813H5.73535V5.73486H17.9C20.2418 9.09055 24.0883 11.1184 28.2675 11.1184C32.4467 11.1184 36.2959 9.08787 38.635 5.73486H50.8024Z" fill="#010202"/>
</svg>
