<svg width="136" height="50" viewBox="0 0 136 50" fill="none" xmlns="http://www.w3.org/2000/svg">
<path d="M9.18257 36.6183C7.55882 36.6183 5.93508 36.2264 4.4793 35.4425C3.13551 34.6586 1.95969 33.5388 1.17582 32.195C0.391939 30.7392 0 29.1715 0 27.4917V0.167969H3.80741V27.4357C3.80741 28.4436 4.03137 29.4514 4.53529 30.3473C4.98322 31.1312 5.65512 31.803 6.49499 32.251C7.33486 32.6989 8.28671 32.9229 9.23856 32.9229C10.1904 32.9229 11.1423 32.6989 11.9821 32.251C12.766 31.803 13.4379 31.1312 13.8858 30.3473C14.3898 29.4514 14.6137 28.4436 14.5577 27.4357V20.2128H18.3651V27.5477C18.4211 29.1715 17.9732 30.7952 17.1893 32.195C16.4054 33.5388 15.2856 34.6586 13.9418 35.4425C12.4301 36.2264 10.8063 36.6743 9.18257 36.6183Z" fill="#84BDB2"/>
<path d="M22.5645 49.665V20.4375H26.2039V24.6928L25.588 28.5562L26.2039 32.3637V49.609L22.5645 49.665ZM31.0751 36.619C29.9553 36.619 28.8355 36.395 27.8276 35.8351C26.8758 35.3312 26.1479 34.6033 25.588 33.7074C25.0281 32.7556 24.7481 31.6918 24.8041 30.6279V26.0926C24.8041 25.0288 25.0841 23.965 25.644 23.0131C26.2039 22.1172 26.9878 21.3894 27.8836 20.8854C28.8915 20.3815 29.9553 20.1016 31.0751 20.1016C32.4749 20.1016 33.8187 20.4935 34.9385 21.2214C36.1143 21.9493 37.0662 22.9571 37.6821 24.1889C39.0259 26.8205 39.0259 29.956 37.6821 32.5876C37.0662 33.8194 36.1143 34.8273 34.9385 35.5552C33.8187 36.283 32.4749 36.675 31.0751 36.619ZM30.4592 33.2035C31.2991 33.2035 32.083 33.0355 32.8109 32.5876C33.4828 32.1957 34.0427 31.5798 34.3786 30.9079C35.1625 29.3401 35.1625 27.4924 34.3786 25.8687C34.0427 25.1408 33.4828 24.5809 32.8109 24.1889C32.083 23.797 31.2991 23.573 30.4592 23.573C29.6194 23.573 28.8355 23.797 28.1076 24.1889C27.4357 24.5809 26.8758 25.1968 26.5398 25.8687C25.8119 27.4364 25.8119 29.2841 26.5398 30.9079C26.8758 31.6358 27.4357 32.1957 28.1076 32.5876C28.8355 32.9796 29.6753 33.2035 30.4592 33.2035Z" fill="#84BDB2"/>
<path d="M49.0481 36.6188C47.5363 36.6188 46.0806 36.2828 44.7928 35.5549C43.561 34.827 42.4971 33.8192 41.8252 32.5874C40.3695 29.9558 40.3695 26.7643 41.8252 24.1887C42.5531 22.9569 43.561 21.9491 44.7928 21.2212C47.1444 19.9334 50 19.7654 52.5196 20.8292C53.5834 21.2772 54.4793 22.005 55.2631 22.8449L52.8555 25.2525C52.4076 24.6926 51.8477 24.3007 51.1758 24.0207C50.5039 23.7408 49.776 23.5728 49.0481 23.6288C48.2082 23.6288 47.3684 23.7968 46.6405 24.2447C45.9686 24.6366 45.4087 25.1965 45.0167 25.9244C44.2329 27.4922 44.2329 29.2839 45.0167 30.8517C45.4087 31.5796 45.9686 32.1395 46.6405 32.5314C47.3684 32.9233 48.2082 33.1473 49.0481 33.1473C49.776 33.1473 50.5039 33.0353 51.1758 32.7554C51.8477 32.4754 52.4076 32.0835 52.8555 31.5236L55.2631 33.9312C54.5353 34.827 53.5834 35.4989 52.5196 35.9469C51.4557 36.3948 50.2799 36.6188 49.0481 36.6188Z" fill="#84BDB2"/>
<path d="M64.7818 36.619C63.3261 36.619 61.8703 36.2271 60.5825 35.4992C59.3507 34.7713 58.2868 33.7634 57.6149 32.5316C56.8871 31.2438 56.4951 29.7881 56.4951 28.3323C56.4951 26.8765 56.8311 25.4207 57.6149 24.1889C58.3428 22.9571 59.3507 21.9493 60.5825 21.2214C61.8703 20.4935 63.3261 20.1016 64.7818 20.1016C66.2376 20.1016 67.7494 20.4375 69.0372 21.1654C70.269 21.8933 71.3328 22.9011 72.0047 24.1329C72.7326 25.4207 73.1245 26.8205 73.1245 28.3323C73.1245 29.844 72.7326 31.2438 72.0047 32.5316C71.2768 33.7634 70.269 34.8273 69.0372 35.4992C67.7494 36.283 66.2936 36.675 64.7818 36.619ZM64.7818 33.1475C65.6217 33.1475 66.4616 32.9796 67.1895 32.5316C67.8613 32.1397 68.4213 31.5238 68.8132 30.8519C69.2051 30.068 69.4291 29.2281 69.3731 28.3883C69.3731 27.5484 69.2051 26.7085 68.7572 25.9247C68.3653 25.2528 67.8054 24.6369 67.1335 24.2449C65.6777 23.405 63.886 23.405 62.3742 24.2449C61.7023 24.6369 61.1424 25.1968 60.7505 25.9247C60.3585 26.6525 60.1345 27.4924 60.1905 28.3883C60.1905 29.2281 60.3585 30.124 60.7505 30.8519C61.1424 31.5798 61.7023 32.1397 62.3742 32.5316C63.1581 32.9236 63.9979 33.1475 64.7818 33.1475Z" fill="#84BDB2"/>
<path d="M74.3008 20.437H85.555V23.7405H74.3008V20.437ZM78.1082 13.8301H81.7476V36.3386H78.1082V13.8301Z" fill="#84BDB2"/>
<path d="M95.0728 36.6185C93.5611 36.6185 92.1053 36.2825 90.8175 35.5547C89.5857 34.8828 88.5219 33.8189 87.794 32.5871C86.3382 29.9555 86.3382 26.764 87.794 24.1324C89.2498 21.6128 91.9933 20.0451 94.9049 20.1011C96.3047 20.1011 97.6484 20.437 98.8243 21.1089C99.9441 21.7808 100.896 22.7327 101.512 23.9085C102.184 25.1403 102.52 26.5401 102.464 27.9958C102.464 28.2758 102.464 28.5557 102.408 28.7797C102.352 29.0597 102.352 29.3396 102.24 29.6756H89.1938V26.708H100.336L98.9922 27.8838C98.9922 27.044 98.7683 26.2041 98.4323 25.4202C98.1524 24.8043 97.6484 24.2444 97.0325 23.9085C96.3606 23.5165 95.5768 23.3486 94.7929 23.4045C93.953 23.4045 93.1131 23.5725 92.3853 24.0205C91.7134 24.4124 91.1535 24.9723 90.8175 25.7002C90.0336 27.3239 90.0896 29.2276 90.8735 30.8514C91.2654 31.5793 91.8254 32.1952 92.5532 32.5871C93.3371 32.9791 94.177 33.203 95.0728 33.203C95.8567 33.203 96.6406 33.091 97.3125 32.7551C97.9844 32.4751 98.6003 32.0272 99.1042 31.5233L101.4 33.8749C100.616 34.7708 99.6641 35.4987 98.6003 35.9466C97.4805 36.3945 96.3047 36.6185 95.0728 36.6185Z" fill="#84BDB2"/>
<path d="M112.655 36.6188C111.143 36.6188 109.687 36.2828 108.399 35.5549C107.167 34.827 106.104 33.8192 105.432 32.5874C103.976 29.9558 103.976 26.7643 105.432 24.1887C106.16 22.9569 107.167 21.9491 108.399 21.2212C110.751 19.9334 113.606 19.7654 116.126 20.8292C117.19 21.2772 118.086 22.005 118.87 22.8449L116.462 25.2525C116.014 24.6926 115.454 24.3007 114.782 24.0207C114.11 23.7408 113.382 23.5728 112.655 23.6288C111.815 23.6288 110.975 23.7968 110.247 24.2447C109.575 24.6366 109.015 25.1965 108.623 25.9244C107.839 27.4922 107.839 29.2839 108.623 30.8517C109.015 31.5796 109.575 32.1395 110.247 32.5314C110.975 32.9233 111.815 33.1473 112.655 33.1473C113.382 33.1473 114.11 33.0353 114.782 32.7554C115.454 32.4754 116.014 32.0835 116.462 31.5236L118.87 33.9312C118.142 34.827 117.19 35.4989 116.126 35.9469C115.062 36.3948 113.886 36.6188 112.655 36.6188Z" fill="#84BDB2"/>
<path d="M121.501 0H125.14V36.2824H121.501V0ZM132.363 49.7203V27.1558C132.419 26.2039 132.027 25.2521 131.355 24.5242C130.684 23.8523 129.732 23.4603 128.78 23.5163C128.108 23.5163 127.492 23.6843 126.876 23.9643C126.316 24.2442 125.868 24.6922 125.588 25.2521C125.252 25.812 125.14 26.4839 125.14 27.1558L123.741 26.3719C123.741 25.2521 124.021 24.1322 124.525 23.1244C125.028 22.1725 125.812 21.4447 126.708 20.8847C127.66 20.3248 128.78 20.0449 129.844 20.1009C130.963 20.1009 132.027 20.3808 133.035 20.8847C133.931 21.3887 134.715 22.1725 135.219 23.0684C135.779 24.0763 136.059 25.1961 136.003 26.3159V49.7203H132.363Z" fill="#84BDB2"/>
<path d="M36.114 48.0966C35.6661 48.0966 35.1622 47.9846 34.7702 47.7606C34.3783 47.5366 34.0423 47.2007 33.8184 46.8088C33.5944 46.4168 33.4824 45.9689 33.4824 45.465V41.4336H34.5463V45.521C34.5463 45.8009 34.6022 46.0809 34.7702 46.3608C34.8822 46.5848 35.1062 46.7528 35.3301 46.9207C35.5541 47.0327 35.8341 47.1447 36.114 47.0887C36.394 47.0887 36.6739 47.0327 36.8979 46.9207C37.1219 46.8088 37.2898 46.5848 37.4578 46.3608C37.5698 46.0809 37.6818 45.8009 37.6818 45.521V41.4336H38.7456V45.521C38.7456 45.9689 38.6336 46.4168 38.4097 46.8647C38.1857 47.2567 37.8497 47.5926 37.5138 47.7606C37.0659 47.9846 36.6179 48.0966 36.114 48.0966Z" fill="#84BDB2"/>
<path d="M39.9219 49.8889V43.5059H40.9297V44.7377L40.7617 45.8575L40.9297 46.9213V49.8889H39.9219ZM42.3855 48.0971C42.0495 48.0971 41.7696 48.0412 41.4896 47.8732C41.2097 47.7052 40.9857 47.5372 40.8737 47.2573C40.7058 46.9773 40.6498 46.6974 40.6498 46.3614V45.0736C40.6498 44.7937 40.7058 44.4577 40.8737 44.1778C41.0417 43.8978 41.2657 43.7298 41.4896 43.5619C41.7696 43.3939 42.1055 43.3379 42.3855 43.3379C42.7774 43.3379 43.1694 43.4499 43.5053 43.6738C43.8413 43.8978 44.1212 44.1778 44.2892 44.5137C44.6811 45.2416 44.6811 46.1375 44.2892 46.9213C44.1212 47.2573 43.8413 47.5372 43.5053 47.7612C43.1134 47.9852 42.7774 48.0971 42.3855 48.0971ZM42.2175 47.1453C42.4415 47.1453 42.6654 47.0893 42.8894 46.9773C43.0574 46.8653 43.2254 46.6974 43.3373 46.4734C43.5613 46.0255 43.5613 45.5216 43.3373 45.0176C43.2254 44.7937 43.0574 44.6257 42.8894 44.5137C42.6654 44.4017 42.4415 44.3457 42.2175 44.3457C41.9936 44.3457 41.7696 44.4017 41.5456 44.5137C41.3776 44.6257 41.2097 44.7937 41.0977 45.0176C40.8737 45.4656 40.8737 45.9695 41.0977 46.4734C41.2097 46.6974 41.3776 46.8653 41.5456 46.9773C41.7136 47.0893 41.9376 47.1453 42.2175 47.1453Z" fill="#84BDB2"/>
<path d="M49.3285 48.0963C48.8806 48.0963 48.4887 47.9843 48.0967 47.7604C47.7608 47.5364 47.4248 47.2564 47.2568 46.9205C46.8649 46.1926 46.8649 45.2967 47.2568 44.5129C47.4808 44.1769 47.7608 43.897 48.0967 43.673C48.7686 43.2811 49.5525 43.2811 50.2804 43.561C50.5603 43.673 50.8403 43.897 51.0642 44.1209L50.3924 44.7928C50.2804 44.6248 50.1124 44.5129 49.9444 44.4569C49.7764 44.4009 49.5525 44.3449 49.3285 44.3449C49.1046 44.3449 48.8806 44.4009 48.6566 44.5129C48.4887 44.6248 48.3207 44.7928 48.2087 44.9608C47.9847 45.4087 47.9847 45.9126 48.2087 46.3606C48.3207 46.5845 48.4887 46.7525 48.6566 46.8645C48.8806 46.9765 49.1046 47.0325 49.3285 47.0325C49.5525 47.0325 49.7205 46.9765 49.9444 46.9205C50.1124 46.8645 50.2804 46.6965 50.3924 46.5845L51.0642 47.2564C50.8403 47.4804 50.5603 47.7044 50.2804 47.8163C50.0564 48.0403 49.7205 48.0963 49.3285 48.0963Z" fill="#84BDB2"/>
<path d="M53.8077 48.0968C53.4157 48.0968 52.9678 47.9848 52.6319 47.7609C52.2959 47.5369 51.96 47.257 51.792 46.921C51.568 46.5851 51.4561 46.1371 51.4561 45.7452C51.4561 45.3532 51.568 44.9053 51.792 44.5694C52.016 44.2334 52.2959 43.9535 52.6319 43.7295C52.9678 43.5055 53.4157 43.3936 53.8077 43.3936C54.2556 43.3936 54.6476 43.5055 54.9835 43.7295C55.3195 43.9535 55.6554 44.2334 55.8234 44.5694C56.0473 44.9053 56.1593 45.3532 56.1593 45.7452C56.1593 46.1371 56.0473 46.5851 55.8234 46.921C55.5994 47.257 55.3195 47.5929 54.9835 47.7609C54.6476 47.9848 54.2556 48.0968 53.8077 48.0968ZM53.8077 47.089C54.0317 47.089 54.2556 47.033 54.4796 46.921C54.7035 46.809 54.8155 46.641 54.9275 46.4171C55.0395 46.1931 55.0955 45.9692 55.0955 45.6892C55.0955 45.4652 55.0395 45.1853 54.9275 45.0173C54.8155 44.7933 54.6476 44.6814 54.4796 44.5694C54.0876 44.3454 53.5277 44.3454 53.1358 44.5694C52.9678 44.6814 52.7998 44.8493 52.6879 45.0173C52.5759 45.2413 52.5199 45.4652 52.5199 45.6892C52.5199 45.9132 52.5759 46.1931 52.6879 46.4171C52.7998 46.641 52.9678 46.809 53.1358 46.921C53.3598 47.033 53.5837 47.089 53.8077 47.089Z" fill="#84BDB2"/>
<path d="M57.0557 43.5052H58.0635V48.0405H57.0557V43.5052ZM60.0792 48.0405V45.3529C60.0792 45.073 59.9672 44.849 59.7992 44.625C59.6313 44.4571 59.3513 44.3451 59.1273 44.4011C58.9594 44.4011 58.7914 44.4571 58.6234 44.5131C58.4554 44.569 58.3435 44.681 58.2875 44.849C58.1755 45.017 58.1755 45.1849 58.1755 45.3529L57.7835 45.129C57.7835 44.793 57.8395 44.5131 58.0075 44.2331C58.1755 44.0091 58.3435 43.7852 58.6234 43.6732C58.9034 43.5052 59.1833 43.4492 59.4633 43.4492C59.7432 43.4492 60.0792 43.5052 60.3032 43.6732C60.5831 43.7852 60.7511 44.0091 60.9191 44.2331C61.087 44.5131 61.143 44.793 61.143 45.129V48.0405H60.0792ZM63.0467 48.0405V45.3529C63.0467 45.073 62.9347 44.849 62.7668 44.625C62.5988 44.4571 62.3188 44.3451 62.0949 44.4011C61.9269 44.4011 61.7589 44.4571 61.591 44.5131C61.423 44.569 61.311 44.681 61.255 44.849C61.143 45.017 61.143 45.1849 61.143 45.3529L60.5831 45.129C60.5831 44.793 60.6951 44.5131 60.8631 44.2331C61.031 44.0091 61.255 43.7852 61.535 43.6732C61.8149 43.5052 62.0949 43.4492 62.4308 43.4492C62.7108 43.4492 63.0467 43.5052 63.3267 43.6732C63.6066 43.7852 63.8306 44.0091 63.9426 44.2331C64.1106 44.5131 64.1666 44.793 64.1666 45.129V48.0405H63.0467Z" fill="#84BDB2"/>
<path d="M65.6774 42.6654C65.5095 42.6654 65.3415 42.6094 65.2295 42.4974C65.0055 42.2735 65.0055 41.8815 65.2295 41.6016C65.4535 41.3776 65.8454 41.3776 66.1254 41.6016C66.3493 41.8255 66.3493 42.2175 66.1254 42.4974C66.0134 42.6094 65.8454 42.6654 65.6774 42.6654ZM65.1735 43.5053H66.1813V48.0406H65.1735V43.5053Z" fill="#84BDB2"/>
<path d="M67.3574 43.5049H68.3653V48.0402H67.3574V43.5049ZM70.4369 48.0402V45.4086C70.4369 45.1286 70.325 44.8487 70.157 44.6807C69.989 44.5127 69.7091 44.4007 69.4291 44.4007C69.2611 44.4007 69.0372 44.4567 68.8692 44.5127C68.7012 44.6247 68.5892 44.7367 68.4772 44.9047C68.3653 45.0726 68.3653 45.2406 68.3653 45.4646L67.9733 45.2406C67.9733 44.9047 68.0293 44.6247 68.1973 44.3448C68.3653 44.0648 68.5332 43.8408 68.8132 43.7288C69.0932 43.5609 69.3731 43.5049 69.7091 43.5049C70.045 43.5049 70.325 43.6169 70.6049 43.7848C70.8849 43.9528 71.0528 44.1768 71.2208 44.4567C71.3888 44.7367 71.4448 45.0167 71.4448 45.2966V48.1522L70.4369 48.0402Z" fill="#84BDB2"/>
<path d="M74.3562 47.9285C73.9642 47.9285 73.5723 47.8165 73.2923 47.6486C72.9564 47.4246 72.7324 47.1446 72.5085 46.8087C72.3405 46.4727 72.2285 46.0808 72.2285 45.6329C72.2285 45.2409 72.3405 44.849 72.5085 44.5131C72.6764 44.1771 72.9564 43.8971 73.2923 43.7292C73.6283 43.5052 74.0202 43.4492 74.3562 43.4492C74.6921 43.4492 75.0281 43.5052 75.308 43.6732C75.588 43.7852 75.812 44.0091 75.9239 44.2891C76.0919 44.569 76.1479 44.849 76.1479 45.1849V46.3048C76.1479 46.6407 76.0919 46.9207 75.9239 47.2006C75.756 47.4806 75.532 47.6486 75.308 47.8165C74.9721 47.8725 74.6921 47.9285 74.3562 47.9285ZM74.4122 50.0002C73.9642 50.0002 73.5723 49.9442 73.1804 49.7202C72.8444 49.5523 72.5085 49.3283 72.3405 48.9924L73.0124 48.3205C73.1804 48.5444 73.4043 48.7124 73.6283 48.8244C73.9083 48.9364 74.1882 48.9924 74.4682 48.9924C74.8041 48.9924 75.1401 48.8804 75.42 48.6564C75.644 48.4324 75.812 48.0965 75.756 47.8165V46.6967L75.9239 45.6889L75.756 44.681V43.4492H76.7638V47.7606C76.7638 48.1525 76.6518 48.5444 76.4839 48.8804C76.2599 49.2163 75.9799 49.4403 75.644 49.6643C75.252 49.8882 74.8041 50.0002 74.4122 50.0002ZM74.5801 46.9207C74.8041 46.9207 75.0281 46.8647 75.252 46.7527C75.42 46.6407 75.588 46.4727 75.7 46.3048C75.9239 45.8568 75.9239 45.4089 75.7 44.961C75.588 44.793 75.476 44.625 75.252 44.5131C75.0281 44.4011 74.8041 44.3451 74.5801 44.3451C74.3562 44.3451 74.1322 44.4011 73.9083 44.5131C73.7403 44.625 73.5723 44.793 73.4603 44.961C73.2364 45.4089 73.2364 45.8568 73.4603 46.3048C73.5723 46.4727 73.7403 46.6407 73.9083 46.7527C74.0762 46.8647 74.3562 46.9207 74.5801 46.9207Z" fill="#84BDB2"/>
<path d="M79.3955 43.5053H82.587V44.4571H79.3955V43.5053ZM80.5153 41.6016H81.5232V47.9846H80.5153V41.6016Z" fill="#84BDB2"/>
<path d="M85.3305 48.0968C84.8825 48.0968 84.4906 47.9848 84.0987 47.8169C83.7627 47.5929 83.4268 47.3129 83.2588 46.977C82.8669 46.2491 82.8669 45.2973 83.2588 44.5694C83.6507 43.8415 84.4346 43.3936 85.2745 43.3936C85.6664 43.3936 86.0584 43.5055 86.3943 43.6735C86.7303 43.8415 86.9542 44.1214 87.1782 44.4574C87.3462 44.7933 87.4581 45.1853 87.4581 45.6332V45.8572C87.4581 45.9132 87.4581 46.0251 87.4022 46.1371H83.7067V45.2973H86.8982L86.5063 45.6332C86.5063 45.4092 86.4503 45.1293 86.3383 44.9613C86.2263 44.7933 86.1144 44.6254 85.9464 44.5134C85.7784 44.4014 85.5544 44.3454 85.3305 44.3454C85.1065 44.3454 84.8266 44.4014 84.6586 44.5134C84.4906 44.6254 84.3226 44.7933 84.2106 44.9613C83.9867 45.4092 83.9867 45.9692 84.2106 46.4171C84.3226 46.641 84.4906 46.809 84.7146 46.921C84.9385 47.033 85.1625 47.089 85.4425 47.089C85.6664 47.089 85.8904 47.033 86.0584 46.977C86.2263 46.921 86.4503 46.753 86.5623 46.6411L87.2342 47.3129C87.0102 47.5929 86.7303 47.7609 86.4503 47.8729C86.0024 48.0408 85.6664 48.0968 85.3305 48.0968Z" fill="#84BDB2"/>
<path d="M90.3139 48.0963C89.8659 48.0963 89.474 47.9843 89.0821 47.7604C88.7461 47.5364 88.4102 47.2564 88.2422 46.9205C87.8503 46.1926 87.8503 45.2967 88.2422 44.5129C88.4662 44.1769 88.7461 43.897 89.0821 43.673C89.754 43.2811 90.5378 43.2811 91.2657 43.561C91.5457 43.673 91.8256 43.897 92.0496 44.1209L91.3777 44.7928C91.2657 44.6248 91.0977 44.5129 90.9298 44.4569C90.7618 44.4009 90.5378 44.3449 90.3139 44.3449C90.0899 44.3449 89.8659 44.4009 89.642 44.5129C89.474 44.6248 89.306 44.7928 89.194 44.9608C88.9701 45.4087 88.9701 45.9126 89.194 46.3606C89.306 46.5845 89.474 46.7525 89.642 46.8645C89.8659 46.9765 90.0899 47.0325 90.3139 47.0325C90.5378 47.0325 90.7058 46.9765 90.9298 46.9205C91.0977 46.8645 91.2657 46.6965 91.3777 46.5845L92.0496 47.2564C91.8256 47.4804 91.5457 47.7044 91.2657 47.8163C90.9858 48.0403 90.6498 48.0963 90.3139 48.0963Z" fill="#84BDB2"/>
<path d="M92.833 41.2656H93.8409V48.0406H92.833V41.2656ZM95.9125 48.0406V45.409C95.9125 45.129 95.8005 44.8491 95.6326 44.6811C95.4646 44.5131 95.1846 44.4011 94.9047 44.4011C94.7367 44.4011 94.5127 44.4571 94.3448 44.5131C94.1768 44.6251 94.0648 44.7371 93.9528 44.9051C93.8409 45.073 93.8409 45.241 93.8409 45.465L93.4489 45.241C93.4489 44.9051 93.5049 44.6251 93.6729 44.3451C93.8409 44.0652 94.0088 43.8412 94.2888 43.7292C94.5687 43.5613 94.8487 43.5053 95.1846 43.5053C95.5206 43.5053 95.8005 43.5613 96.0805 43.7292C96.3605 43.8972 96.5844 44.0652 96.6964 44.3451C96.8644 44.6251 96.9204 44.9611 96.9204 45.297V48.1526H95.9125V48.0406Z" fill="#84BDB2"/>
<path d="M97.9844 43.5049H98.9922V48.0402H97.9844V43.5049ZM101.12 48.0402V45.4086C101.12 45.1286 101.008 44.8487 100.84 44.6807C100.672 44.5127 100.392 44.4007 100.112 44.4007C99.9441 44.4007 99.7201 44.4567 99.5521 44.5127C99.3842 44.6247 99.2722 44.7367 99.1602 44.9047C99.0482 45.0726 99.0482 45.2406 99.0482 45.4646L98.6563 45.2406C98.6563 44.9047 98.7123 44.6247 98.8802 44.3448C99.0482 44.0648 99.2162 43.8408 99.4961 43.7288C99.7761 43.5609 100.056 43.5049 100.392 43.5049C100.728 43.5049 101.008 43.6169 101.288 43.7848C101.568 43.9528 101.736 44.1768 101.904 44.4567C102.072 44.7367 102.128 45.0167 102.128 45.2966V48.1522L101.12 48.0402Z" fill="#84BDB2"/>
<path d="M105.264 48.0968C104.872 48.0968 104.424 47.9848 104.088 47.7609C103.752 47.5369 103.416 47.257 103.248 46.921C103.024 46.5851 102.912 46.1371 102.912 45.7452C102.912 45.3532 103.024 44.9053 103.248 44.5694C103.472 44.2334 103.752 43.9535 104.088 43.7295C104.424 43.5055 104.872 43.3936 105.264 43.3936C105.712 43.3936 106.104 43.5055 106.44 43.7295C106.776 43.9535 107.111 44.2334 107.279 44.5694C107.503 44.9053 107.615 45.3532 107.615 45.7452C107.615 46.1371 107.503 46.5851 107.279 46.921C107.055 47.257 106.776 47.5929 106.44 47.7609C106.104 47.9848 105.656 48.0968 105.264 48.0968ZM105.264 47.089C105.488 47.089 105.712 47.033 105.936 46.921C106.16 46.809 106.272 46.641 106.384 46.4171C106.496 46.1931 106.552 45.9692 106.552 45.6892C106.552 45.4652 106.496 45.1853 106.384 45.0173C106.272 44.7933 106.104 44.6814 105.936 44.5694C105.544 44.3454 104.984 44.3454 104.592 44.5694C104.424 44.6814 104.256 44.8493 104.144 45.0173C104.032 45.2413 103.976 45.4652 103.976 45.6892C103.976 45.9132 104.032 46.1931 104.144 46.4171C104.256 46.641 104.424 46.809 104.592 46.921C104.76 47.033 105.04 47.145 105.264 47.089Z" fill="#84BDB2"/>
<path d="M109.463 41.2656H108.455V48.0406H109.463V41.2656Z" fill="#84BDB2"/>
<path d="M112.71 48.0968C112.318 48.0968 111.87 47.9848 111.534 47.7609C111.198 47.5369 110.862 47.257 110.694 46.921C110.47 46.5851 110.358 46.1371 110.358 45.7452C110.358 45.3532 110.47 44.9053 110.694 44.5694C110.918 44.2334 111.198 43.9535 111.534 43.7295C111.87 43.5055 112.318 43.3936 112.71 43.3936C113.55 43.3936 114.334 43.8415 114.782 44.5694C115.006 44.9053 115.118 45.3532 115.118 45.7452C115.118 46.1371 115.006 46.5851 114.782 46.921C114.558 47.257 114.278 47.5929 113.942 47.7609C113.55 47.9848 113.158 48.0968 112.71 48.0968ZM112.71 47.089C112.934 47.089 113.158 47.033 113.382 46.921C113.606 46.809 113.718 46.641 113.83 46.4171C113.942 46.1931 113.998 45.9692 113.998 45.6892C113.998 45.4652 113.942 45.1853 113.83 45.0173C113.718 44.7933 113.55 44.6814 113.382 44.5694C112.99 44.3454 112.43 44.3454 112.038 44.5694C111.87 44.6814 111.702 44.8493 111.59 45.0173C111.478 45.2413 111.422 45.4652 111.422 45.6892C111.422 45.9132 111.478 46.1931 111.59 46.4171C111.702 46.641 111.87 46.809 112.038 46.921C112.262 47.033 112.486 47.145 112.71 47.089Z" fill="#84BDB2"/>
<path d="M117.75 47.9285C117.358 47.9285 116.966 47.8165 116.686 47.6486C116.35 47.4246 116.126 47.1446 115.902 46.8087C115.734 46.4727 115.622 46.0808 115.622 45.6329C115.622 45.2409 115.734 44.849 115.902 44.5131C116.07 44.1771 116.35 43.8971 116.686 43.7292C117.022 43.5052 117.414 43.4492 117.75 43.4492C118.086 43.4492 118.422 43.5052 118.702 43.6732C118.982 43.7852 119.206 44.0091 119.317 44.2891C119.485 44.569 119.541 44.849 119.541 45.1849V46.3048C119.541 46.6407 119.485 46.9207 119.317 47.2006C119.15 47.4806 118.926 47.6486 118.702 47.8165C118.422 47.8725 118.086 47.9285 117.75 47.9285ZM117.806 50.0002C117.358 50.0002 116.966 49.9442 116.574 49.7202C116.238 49.5523 115.902 49.3283 115.734 48.9924L116.406 48.3205C116.574 48.5444 116.798 48.7124 117.022 48.8244C117.302 48.9364 117.582 48.9924 117.862 48.9924C118.198 48.9924 118.534 48.8804 118.814 48.6564C119.038 48.4324 119.206 48.0965 119.15 47.8165V46.6967L119.317 45.6889L119.15 44.681V43.4492H120.157V47.7606C120.157 48.1525 120.045 48.5444 119.877 48.8804C119.653 49.2163 119.373 49.4403 119.038 49.6643C118.702 49.8882 118.254 50.0002 117.806 50.0002ZM117.974 46.9207C118.198 46.9207 118.422 46.8647 118.646 46.7527C118.814 46.6407 118.982 46.4727 119.094 46.3048C119.317 45.8568 119.317 45.4089 119.094 44.961C118.982 44.793 118.87 44.625 118.646 44.5131C118.422 44.4011 118.198 44.3451 117.974 44.3451C117.75 44.3451 117.526 44.4011 117.302 44.5131C117.134 44.625 116.966 44.793 116.854 44.961C116.63 45.4089 116.63 45.8568 116.854 46.3048C116.966 46.4727 117.134 46.6407 117.302 46.7527C117.526 46.8647 117.75 46.9207 117.974 46.9207Z" fill="#84BDB2"/>
<path d="M122.789 48.0402L120.886 43.5049H122.006L123.293 46.8644H122.957L124.357 43.5049H125.477L123.405 48.0402H122.789ZM121.446 49.8879L122.845 46.9763L123.405 48.0402L122.565 49.8879H121.446Z" fill="#84BDB2"/>
</svg>
