<svg width="171" height="50" viewBox="0 0 171 50" fill="none" xmlns="http://www.w3.org/2000/svg">
<path d="M39.1799 12.1201L30.6599 36.7H24.3399L19.5999 22.5801L14.7199 36.7H8.49997L0 12.1201H7.57997L11.78 26.4201L16.4199 12.1201H22.6999L27.3399 26.3601L31.5999 12.1201H39.1799Z" fill="#333333"/>
<path d="M93.3193 20.9599V36.6999H85.5593V22.6799C85.5593 21.3799 85.1593 20.3599 84.3793 19.5599C83.5993 18.7799 82.5793 18.3799 81.3793 18.3799C80.5393 18.3799 79.7793 18.5599 79.1593 18.8999C78.5193 19.2399 78.0193 19.7399 77.6393 20.4199C77.2393 21.0599 77.0793 21.8199 77.0793 22.6799V36.6999H69.3394V0H77.0993V13.96C77.5793 13.52 78.0993 13.1199 78.6993 12.82C80.1593 12.04 81.8193 11.64 83.7193 11.64C85.6393 11.64 87.2993 12.04 88.7793 12.82C90.2193 13.5999 91.3393 14.6999 92.1193 16.0999C92.8993 17.4799 93.3193 19.1199 93.3193 20.9599Z" fill="#333333"/>
<path d="M120.619 17.48C119.579 15.62 118.119 14.16 116.259 13.12C114.399 12.08 112.279 11.54 109.819 11.54C107.319 11.54 105.099 12.1 103.099 13.2C101.099 14.32 99.5191 15.84 98.3791 17.78C97.1991 19.72 96.5991 21.94 96.5991 24.38C96.5991 26.86 97.1991 29.04 98.3791 31.02C99.5591 32.98 101.179 34.5 103.259 35.6C105.339 36.6999 107.699 37.2199 110.359 37.2199C112.419 37.2199 114.299 36.8799 116.039 36.1599C117.739 35.46 119.219 34.38 120.419 32.98L116.179 28.74C115.439 29.58 114.579 30.2 113.599 30.62C112.599 31.04 111.519 31.26 110.319 31.26C108.999 31.26 107.879 30.98 106.919 30.42C105.959 29.86 105.219 29.08 104.699 28.06C104.519 27.72 104.399 27.36 104.279 26.96L121.859 26.9C121.979 26.26 122.079 25.68 122.139 25.2C122.179 24.68 122.199 24.24 122.199 23.8C122.219 21.44 121.679 19.34 120.619 17.48ZM104.279 21.66C104.399 21.3 104.499 20.96 104.679 20.66C105.159 19.66 105.859 18.86 106.739 18.3C107.639 17.74 108.699 17.48 109.919 17.48C111.059 17.48 112.019 17.7 112.799 18.22C113.619 18.7 114.199 19.4 114.599 20.32C114.779 20.72 114.899 21.14 115.019 21.62L104.279 21.66Z" fill="#333333"/>
<path d="M145.48 13.7801L140.86 19.5801C140.52 19.2201 140.1 18.9401 139.6 18.7001C139.08 18.5001 138.54 18.4201 137.9 18.4201C136.64 18.4201 135.6 18.8201 134.84 19.6001C134.08 20.3801 133.72 21.5601 133.72 23.1801V36.7H125.94V12.1201H133.7V13.9801C135.22 12.4001 137.32 11.6201 140.02 11.6201C141.2 11.6201 142.24 11.8001 143.12 12.1401C144.02 12.4801 144.8 13.0601 145.48 13.7801Z" fill="#333333"/>
<path d="M169.199 17.48C168.139 15.62 166.699 14.16 164.839 13.12C162.979 12.08 160.819 11.54 158.399 11.54C155.899 11.54 153.639 12.1 151.679 13.2C149.679 14.32 148.099 15.84 146.919 17.78C145.779 19.72 145.179 21.94 145.179 24.38C145.179 26.86 145.779 29.04 146.959 31.02C148.139 33 149.759 34.5 151.839 35.6C153.919 36.6999 156.279 37.2199 158.939 37.2199C160.999 37.2199 162.879 36.8799 164.579 36.1599C166.319 35.46 167.779 34.38 168.979 32.98L164.739 28.74C163.979 29.58 163.139 30.2 162.159 30.62C161.159 31.04 160.079 31.26 158.879 31.26C157.559 31.26 156.439 30.98 155.439 30.42C154.479 29.86 153.739 29.08 153.219 28.06C153.039 27.72 152.919 27.36 152.799 26.96L170.379 26.9C170.519 26.26 170.639 25.68 170.659 25.2C170.719 24.68 170.739 24.24 170.739 23.8C170.799 21.44 170.279 19.34 169.199 17.48ZM152.859 21.66C152.979 21.3 153.079 20.96 153.259 20.66C153.739 19.66 154.439 18.86 155.319 18.3C156.219 17.74 157.279 17.48 158.499 17.48C159.639 17.48 160.599 17.7 161.379 18.22C162.199 18.7 162.779 19.4 163.179 20.32C163.359 20.72 163.479 21.14 163.599 21.62L152.859 21.66Z" fill="#333333"/>
<path d="M66.1403 22.7002H60.1203C60.2003 23.8001 60.0403 24.8801 59.6403 25.8401C59.2203 26.8401 58.6003 27.7801 57.7603 28.6201C56.9803 29.4001 56.1403 29.9601 55.2403 30.2801C55.0603 30.3601 54.9403 30.4001 54.7603 30.4601C54.2803 30.5801 53.8003 30.6401 53.3003 30.6401C52.7003 30.6401 52.1203 30.5601 51.5203 30.3601C51.4603 30.3201 51.4403 30.3201 51.3803 30.3001C51.0803 30.1801 50.7603 30.0401 50.4603 29.8801L62.8403 17.4002C62.4803 16.8802 62.1403 16.4002 61.8403 16.0202C61.5003 15.6202 61.2003 15.2802 60.8803 14.9802C59.1803 13.2802 57.3003 12.1802 55.2603 11.6202C54.2603 11.3402 53.2003 11.2002 52.2003 11.2002C51.1603 11.2002 50.1203 11.3402 49.0803 11.6202C47.0603 12.2202 45.1403 13.3202 43.4403 15.0802C41.6603 16.8602 40.4803 18.8202 39.8603 20.9802C39.2404 23.2001 39.2004 25.3801 39.7403 27.5601C39.9603 28.5201 40.3403 29.4401 40.8003 30.3201C41.4003 31.4601 42.1803 32.5401 43.1603 33.5001C44.9003 35.2401 46.8603 36.3801 49.0803 36.9401C50.0803 37.2001 51.0403 37.3001 52.0403 37.3001C53.2803 37.3001 54.5403 37.1001 55.7803 36.7401C58.0403 36.0401 60.0803 34.7401 61.9603 32.8601C62.7803 32.0401 63.4403 31.2001 64.0403 30.3401C64.5203 29.6001 64.9202 28.8801 65.2202 28.0801C66.0002 26.3201 66.3002 24.5401 66.1403 22.7002ZM46.0803 21.9802C46.3003 20.9802 46.8603 20.0402 47.7403 19.1802C48.5603 18.3602 49.3603 17.8602 50.3003 17.6402C50.6403 17.5602 50.9603 17.5202 51.3003 17.5202C51.8603 17.5202 52.4403 17.6402 53.0403 17.8802C53.4403 18.0202 53.8203 18.2202 54.2603 18.5002L46.7203 26.1201C46.5203 25.7801 46.3603 25.4801 46.2803 25.1201C45.9203 24.0601 45.8203 23.0201 46.0803 21.9802Z" fill="#4BA79C"/>
<path d="M63.52 34.3005C61.42 36.4405 59.02 37.8805 56.5 38.6805C55.04 39.1205 53.54 39.3405 52.12 39.3405C50.98 39.3405 49.82 39.2005 48.66 38.9205C46.0801 38.2805 43.7401 36.9205 41.7601 34.9405C40.9201 34.1205 40.2201 33.2405 39.5801 32.3005C40.0001 34.5205 41.0601 36.8405 42.7601 39.3605C44.9401 42.6405 48.34 46.2004 52.82 50.0004C57.28 46.1804 60.66 42.6405 62.88 39.3605C64.9 36.3805 66 33.6005 66.16 31.0205C65.44 32.1605 64.58 33.2605 63.52 34.3005Z" fill="#4BA79C"/>
</svg>
